<svg width="390" height="243" viewBox="0 0 390 243" fill="none" xmlns="http://www.w3.org/2000/svg">
<path d="M225 132.016C225 120.976 216.024 112 204.984 112C201.336 112 197.928 112.96 195 114.688C192.072 113.008 188.664 112 185.016 112C173.976 112 165 120.976 165 132.016C165 135.664 165.96 139.072 167.688 142C166.008 144.928 165 148.336 165 151.984C165 163.024 173.976 172 185.016 172C188.664 172 192.072 171.04 195 169.312C197.928 170.992 201.336 172 204.984 172C216.024 172 225 163.024 225 151.984C225 148.336 224.04 144.928 222.312 142C223.992 139.072 225 135.664 225 132.016ZM194.952 152.032C189.432 152.032 184.968 147.568 184.968 142.048C184.968 136.528 189.432 132.064 194.952 132.064C200.472 132.064 204.936 136.528 204.936 142.048C204.936 147.568 200.52 152.032 194.952 152.032Z" fill="#C9C8C8"/>
<path d="M168.279 68.93C168.279 69.07 168.232 69.21 168.139 69.35C168.092 69.4433 167.952 69.6767 167.719 70.05C167.206 70.2833 166.669 70.47 166.109 70.61C165.596 70.75 165.036 70.7967 164.429 70.75C163.309 70.6567 162.259 70.8433 161.279 71.31C161.092 71.45 160.882 71.5433 160.649 71.59C160.416 71.6367 160.182 71.6833 159.949 71.73C159.576 72.1033 159.366 72.5 159.319 72.92C159.272 73.2933 159.249 73.6667 159.249 74.04C159.296 74.4133 159.249 74.7867 159.109 75.16C159.202 75.58 159.226 76 159.179 76.42C159.132 76.7933 159.062 77.1667 158.969 77.54C158.969 77.68 158.992 77.8433 159.039 78.03C159.086 78.2167 159.132 78.4267 159.179 78.66C159.132 79.1267 159.039 79.5933 158.899 80.06C158.806 80.5267 158.829 81.0167 158.969 81.53C159.016 81.7633 158.969 82.0433 158.829 82.37C158.829 82.51 158.806 82.65 158.759 82.79C158.759 82.93 158.736 83.07 158.689 83.21C158.689 83.49 158.736 83.77 158.829 84.05C158.689 84.33 158.526 84.61 158.339 84.89C158.199 85.17 158.012 85.4733 157.779 85.8C157.592 85.9867 157.382 86.08 157.149 86.08C156.682 86.1267 156.216 86.1733 155.749 86.22C155.329 86.3133 154.886 86.3833 154.419 86.43C154.279 86.43 154.116 86.4067 153.929 86.36C153.789 86.36 153.672 86.3833 153.579 86.43C152.879 86.6167 152.202 86.6167 151.549 86.43C150.942 86.2433 150.312 86.1033 149.659 86.01C149.612 85.87 149.566 85.7533 149.519 85.66C149.472 85.6133 149.449 85.5667 149.449 85.52C149.262 84.96 149.099 84.4 148.959 83.84C148.866 83.3267 148.749 82.8133 148.609 82.3C148.889 80.6667 148.912 79.1033 148.679 77.61C148.446 76.1167 148.142 74.67 147.769 73.27C147.722 72.9433 147.722 72.64 147.769 72.36C147.862 72.0333 147.839 71.7067 147.699 71.38C147.512 71.1467 147.256 70.9833 146.929 70.89C146.649 70.7967 146.392 70.68 146.159 70.54C144.992 70.3067 143.826 70.19 142.659 70.19C141.539 70.19 140.419 70.33 139.299 70.61C139.066 70.61 138.926 70.5867 138.879 70.54L136.009 69.56C135.542 69.6533 135.076 69.6533 134.609 69.56C134.142 69.4667 133.699 69.42 133.279 69.42C133.139 69.42 132.999 69.42 132.859 69.42C132.719 69.3733 132.556 69.28 132.369 69.14C132.276 69.0467 132.229 68.8833 132.229 68.65C132.182 68.2767 132.159 67.9267 132.159 67.6C132.159 67.2733 132.159 66.9233 132.159 66.55C132.159 65.9433 132.159 65.36 132.159 64.8C132.159 64.1933 132.042 63.5867 131.809 62.98C131.762 62.1867 131.692 61.3933 131.599 60.6C131.552 59.76 131.692 58.9433 132.019 58.15C132.159 57.7767 132.252 57.4267 132.299 57.1C132.392 56.7733 132.532 56.4467 132.719 56.12C132.999 55.6067 133.209 55.0233 133.349 54.37C133.489 53.8567 133.629 53.3667 133.769 52.9C133.956 52.4333 134.049 51.9433 134.049 51.43C134.236 50.6367 134.446 49.8667 134.679 49.12C134.959 48.3267 135.286 47.58 135.659 46.88C135.892 46.4133 136.126 45.97 136.359 45.55C136.592 45.0833 136.802 44.6167 136.989 44.15C137.082 43.7767 137.199 43.4033 137.339 43.03C137.526 42.6567 137.689 42.2833 137.829 41.91C138.062 41.4433 138.226 41.14 138.319 41C138.459 40.86 138.762 40.5567 139.229 40.09C139.322 39.81 139.439 39.5533 139.579 39.32C139.719 39.04 139.836 38.7833 139.929 38.55C140.349 38.41 140.746 38.3633 141.119 38.41C141.539 38.41 141.959 38.4333 142.379 38.48C142.519 38.5267 142.682 38.62 142.869 38.76C143.056 38.8533 143.242 38.97 143.429 39.11C144.222 39.7167 145.132 40.0667 146.159 40.16L146.999 41.07C147.372 41.49 147.489 41.8867 147.349 42.26C147.162 42.7733 146.999 43.31 146.859 43.87C146.766 44.43 146.579 44.9667 146.299 45.48C146.112 46.5067 145.832 47.5567 145.459 48.63C145.366 48.91 145.226 49.19 145.039 49.47C144.899 49.7033 144.806 49.9833 144.759 50.31C144.712 50.6367 144.619 50.9167 144.479 51.15C143.966 52.0833 143.546 53.0867 143.219 54.16C142.892 55.1867 142.472 56.2133 141.959 57.24C141.912 57.4733 141.936 57.73 142.029 58.01C142.169 58.2433 142.356 58.3833 142.589 58.43C142.869 58.4767 143.149 58.5 143.429 58.5C143.709 58.5 143.989 58.5467 144.269 58.64C144.782 58.4067 145.319 58.36 145.879 58.5C146.439 58.64 146.976 58.6867 147.489 58.64L148.959 58.85C149.239 58.7567 149.472 58.6167 149.659 58.43C149.799 57.7767 149.916 57.1467 150.009 56.54C150.102 55.9333 150.126 55.3033 150.079 54.65C150.079 54.1367 150.102 53.6467 150.149 53.18C150.242 52.6667 150.219 52.1767 150.079 51.71C150.032 51.4767 150.032 51.2433 150.079 51.01C150.126 50.73 150.172 50.45 150.219 50.17C150.406 49.9833 150.546 49.82 150.639 49.68C150.779 49.54 150.942 49.3767 151.129 49.19C151.222 49.0967 151.316 48.98 151.409 48.84C151.502 48.6533 151.596 48.4667 151.689 48.28C152.202 48.14 152.716 48.0933 153.229 48.14C153.789 48.1867 154.326 48.2333 154.839 48.28C155.446 48.6067 156.076 48.7933 156.729 48.84C157.382 48.8867 158.012 48.98 158.619 49.12C159.039 49.4933 159.249 50.0067 159.249 50.66C159.342 51.2667 159.342 51.8967 159.249 52.55C158.969 53.7167 158.946 54.9067 159.179 56.12C159.226 56.3067 159.249 56.4933 159.249 56.68C159.249 56.82 159.249 56.9833 159.249 57.17C159.342 57.2633 159.436 57.38 159.529 57.52C159.622 57.66 159.716 57.8 159.809 57.94V59.83C159.856 59.8767 159.902 59.9233 159.949 59.97C159.996 60.0167 160.066 60.04 160.159 60.04C160.439 60.1333 160.719 60.2267 160.999 60.32C161.279 60.3667 161.536 60.4367 161.769 60.53C162.282 60.4367 162.796 60.3433 163.309 60.25C163.869 60.11 164.429 59.9933 164.989 59.9C165.362 60.2733 165.759 60.67 166.179 61.09C166.599 61.4633 166.996 61.79 167.369 62.07C167.742 62.5367 167.952 63.0267 167.999 63.54C168.092 64.0533 168.162 64.5667 168.209 65.08C168.302 65.6867 168.349 66.3167 168.349 66.97C168.396 67.6233 168.372 68.2767 168.279 68.93ZM215.55 59.55C215.504 59.7367 215.457 59.9467 215.41 60.18C215.41 60.3667 215.387 60.5767 215.34 60.81C215.294 60.9967 215.224 61.2067 215.13 61.44C215.084 61.6267 215.084 61.8367 215.13 62.07C215.224 62.8633 215.2 63.6567 215.06 64.45C214.92 65.1967 214.804 65.9667 214.71 66.76C214.57 67.0867 214.524 67.46 214.57 67.88C214.664 68.3 214.594 68.6967 214.36 69.07C214.36 69.63 214.267 70.19 214.08 70.75C213.94 71.2633 213.8 71.8 213.66 72.36V72.5C213.567 72.64 213.474 72.7567 213.38 72.85C213.147 73.1767 212.89 73.48 212.61 73.76C212.33 74.04 212.074 74.3667 211.84 74.74C211.654 75.0667 211.49 75.3933 211.35 75.72C211.21 76.0467 211.024 76.3967 210.79 76.77C210.184 77.2833 209.577 77.8433 208.97 78.45C208.41 79.01 207.85 79.5933 207.29 80.2C207.244 80.2467 207.197 80.3167 207.15 80.41C207.104 80.5033 207.057 80.62 207.01 80.76C207.01 80.76 206.964 80.9 206.87 81.18C206.684 81.2267 206.52 81.2967 206.38 81.39C206.24 81.4367 206.1 81.5067 205.96 81.6C205.82 81.74 205.68 81.88 205.54 82.02C205.4 82.1133 205.284 82.2533 205.19 82.44C204.77 82.4867 204.374 82.58 204 82.72C203.674 82.8133 203.324 82.9067 202.95 83C202.53 83.0467 202.134 83.14 201.76 83.28C201.434 83.4667 201.06 83.56 200.64 83.56C200.267 83.56 200.01 83.6533 199.87 83.84C199.544 84.0267 199.17 84.1667 198.75 84.26C198.377 84.4 198.004 84.5167 197.63 84.61C197.444 84.5633 197.28 84.5167 197.14 84.47C197 84.4233 196.814 84.4 196.58 84.4C196.114 84.4 195.647 84.3767 195.18 84.33C194.714 84.33 194.27 84.2833 193.85 84.19C193.617 84.0967 193.36 84.05 193.08 84.05C192.847 84.05 192.614 84.05 192.38 84.05C192.007 84.05 191.587 84.0967 191.12 84.19C190.84 84.0967 190.56 84.0033 190.28 83.91C190.047 83.8167 189.814 83.7233 189.58 83.63C189.394 83.6767 189.207 83.7233 189.02 83.77C188.834 83.8167 188.67 83.8633 188.53 83.91C188.11 83.9567 187.737 83.8633 187.41 83.63C187.13 83.4433 186.827 83.2567 186.5 83.07C186.174 83.0233 185.8 82.9767 185.38 82.93C185.007 82.8833 184.634 82.8367 184.26 82.79C184.214 82.6033 184.214 82.44 184.26 82.3C184.354 82.16 184.424 82.0667 184.47 82.02C184.564 81.7867 184.564 81.5767 184.47 81.39C184.424 81.3433 184.307 81.2733 184.12 81.18H183.91L183.21 81.6C183.164 81.5533 183.094 81.53 183 81.53C182.907 81.53 182.837 81.5067 182.79 81.46C182.604 81.18 182.37 80.9467 182.09 80.76C181.81 80.5267 181.484 80.3867 181.11 80.34C180.877 80.1067 180.644 79.8733 180.41 79.64C180.177 79.4067 179.944 79.1967 179.71 79.01C179.197 78.59 178.987 77.9833 179.08 77.19C179.08 77.19 179.08 77.1433 179.08 77.05C178.614 76.3033 178.31 75.8133 178.17 75.58C178.077 75.3467 177.96 74.88 177.82 74.18C177.774 73.9933 177.774 73.83 177.82 73.69C177.914 73.5033 177.914 73.3167 177.82 73.13C177.634 72.9433 177.424 72.85 177.19 72.85C177.004 72.8033 176.84 72.7333 176.7 72.64C176.514 72.4533 176.42 72.2433 176.42 72.01C176.42 71.7767 176.397 71.52 176.35 71.24C176.304 71.1933 176.234 71.1233 176.14 71.03C176.094 70.89 176.024 70.7733 175.93 70.68C175.324 70.0267 175.02 69.1633 175.02 68.09C174.974 67.4367 174.904 66.7833 174.81 66.13C174.764 65.43 174.647 64.7533 174.46 64.1C174.507 63.96 174.554 63.8433 174.6 63.75C174.694 63.6567 174.787 63.5167 174.88 63.33C174.974 63.19 174.95 63.05 174.81 62.91C174.717 62.7233 174.67 62.49 174.67 62.21C174.67 61.8833 174.67 61.51 174.67 61.09C174.717 60.67 174.74 60.2967 174.74 59.97C174.974 59.3633 175.184 58.8033 175.37 58.29C175.557 57.73 175.744 57.1933 175.93 56.68C176.024 56.5867 176.07 56.4933 176.07 56.4C176.117 56.26 176.164 56.1667 176.21 56.12C176.49 55.7933 176.677 55.4433 176.77 55.07C176.864 54.65 177.004 54.2767 177.19 53.95C177.19 53.4833 177.33 53.0867 177.61 52.76C177.89 52.4333 178.054 52.0833 178.1 51.71C178.24 51.5233 178.357 51.3833 178.45 51.29C178.59 51.15 178.73 51.01 178.87 50.87C179.01 50.6367 179.15 50.4267 179.29 50.24C179.477 50.0067 179.617 49.7267 179.71 49.4C179.897 49.0267 180.13 48.6533 180.41 48.28C180.69 47.86 180.97 47.4867 181.25 47.16C181.53 46.74 181.997 46.4133 182.65 46.18C182.79 46.0867 182.93 46.0167 183.07 45.97C183.257 45.9233 183.444 45.8767 183.63 45.83C183.724 45.5967 183.794 45.3867 183.84 45.2C183.887 45.0133 184.004 44.85 184.19 44.71C184.424 44.5233 184.634 44.3367 184.82 44.15C185.007 43.9167 185.217 43.7067 185.45 43.52C185.684 43.38 185.894 43.2633 186.08 43.17C186.314 43.0767 186.477 42.9367 186.57 42.75C187.41 42.5167 188.204 42.26 188.95 41.98C189.744 41.7 190.49 41.3033 191.19 40.79C191.564 40.8367 191.937 40.8833 192.31 40.93C192.73 40.9767 193.15 41.0233 193.57 41.07C193.804 40.9767 194.06 40.9067 194.34 40.86C194.62 40.7667 194.877 40.6967 195.11 40.65C195.344 40.65 195.577 40.6733 195.81 40.72C196.044 40.72 196.254 40.6733 196.44 40.58C197.047 40.2533 197.607 40.23 198.12 40.51C198.214 40.6033 198.33 40.72 198.47 40.86C198.657 40.9533 198.797 41.0467 198.89 41.14C199.404 41.3733 199.94 41.5367 200.5 41.63C201.06 41.6767 201.644 41.7467 202.25 41.84C202.437 41.7467 202.624 41.6767 202.81 41.63C203.044 41.5833 203.277 41.5367 203.51 41.49C203.65 41.63 203.767 41.77 203.86 41.91C204 42.05 204.14 42.19 204.28 42.33L204.56 42.54C204.654 42.4467 204.77 42.3767 204.91 42.33C205.05 42.2833 205.167 42.2367 205.26 42.19C205.82 42.19 206.194 42.3767 206.38 42.75L207.57 44.22C207.664 44.3133 207.71 44.4533 207.71 44.64C207.757 44.78 207.804 44.8967 207.85 44.99C208.13 45.1767 208.41 45.3633 208.69 45.55C208.97 45.7367 209.25 45.9 209.53 46.04H210.58C210.627 46.2267 210.697 46.4133 210.79 46.6V47.51C210.79 47.5567 210.814 47.6033 210.86 47.65C210.907 47.65 210.93 47.65 210.93 47.65C211.024 47.6967 211.094 47.79 211.14 47.93C211.187 48.0233 211.234 48.0933 211.28 48.14C211.7 48.3267 212.05 48.6067 212.33 48.98C212.61 49.3067 212.937 49.5633 213.31 49.75C213.404 50.73 213.59 51.6867 213.87 52.62C214.197 53.5533 214.57 54.4167 214.99 55.21C215.084 55.6767 215.154 56.0733 215.2 56.4C215.294 56.7267 215.34 57.0767 215.34 57.45C215.34 57.8233 215.34 58.1733 215.34 58.5C215.387 58.8267 215.457 59.1767 215.55 59.55ZM203.51 62.21C203.464 61.93 203.417 61.65 203.37 61.37C203.324 61.0433 203.277 60.7167 203.23 60.39C203.137 60.1567 203.02 59.9233 202.88 59.69C202.787 59.4567 202.694 59.2233 202.6 58.99C202.554 58.8033 202.507 58.5933 202.46 58.36C202.46 58.08 202.437 57.8467 202.39 57.66C202.204 57.4267 202.04 57.2167 201.9 57.03C201.76 56.7967 201.574 56.6567 201.34 56.61C201.107 56.5167 200.897 56.4 200.71 56.26C200.57 56.0733 200.43 55.91 200.29 55.77C199.917 55.49 199.567 55.21 199.24 54.93C198.914 54.6033 198.54 54.3467 198.12 54.16C197.98 54.1133 197.887 54.0433 197.84 53.95C197.794 53.8567 197.724 53.7633 197.63 53.67C197.304 53.4367 196.977 53.18 196.65 52.9C196.044 52.9933 195.484 52.9 194.97 52.62C194.83 52.6667 194.69 52.7133 194.55 52.76C194.457 52.8067 194.34 52.8767 194.2 52.97C194.107 52.9233 193.967 52.9 193.78 52.9C193.64 52.8533 193.5 52.8067 193.36 52.76C192.707 52.9933 192.147 53.32 191.68 53.74C191.214 54.1133 190.794 54.5567 190.42 55.07C189.394 55.91 188.507 57.03 187.76 58.43C187.714 59.3633 187.55 60.32 187.27 61.3C186.99 62.2333 186.85 63.2133 186.85 64.24C186.944 64.8467 187.154 65.43 187.48 65.99C187.854 66.55 188.064 67.1567 188.11 67.81C188.11 67.95 188.087 68.1133 188.04 68.3C187.994 68.4867 187.994 68.7433 188.04 69.07C188.134 69.2567 188.227 69.5133 188.32 69.84C188.46 70.12 188.6 70.4233 188.74 70.75C189.114 71.0767 189.44 71.45 189.72 71.87C190 72.29 190.397 72.5933 190.91 72.78C191.61 72.8733 192.31 72.8967 193.01 72.85C193.757 72.8033 194.457 72.7567 195.11 72.71C195.67 72.6633 196.207 72.5467 196.72 72.36C197.28 72.1267 197.77 71.7767 198.19 71.31C198.284 71.2167 198.377 71.1467 198.47 71.1C198.61 71.0067 198.727 70.9133 198.82 70.82C199.194 70.54 199.567 70.2833 199.94 70.05C200.314 69.77 200.664 69.4667 200.99 69.14C201.504 68.7667 201.9 68.3233 202.18 67.81C202.46 67.2967 202.74 66.8067 203.02 66.34V64.94C203.114 64.8 203.184 64.66 203.23 64.52C203.324 64.38 203.394 64.24 203.44 64.1C203.44 63.96 203.417 63.8433 203.37 63.75C203.324 63.61 203.3 63.4467 203.3 63.26C203.3 63.12 203.324 62.9567 203.37 62.77C203.464 62.5833 203.51 62.3967 203.51 62.21ZM258.24 68.93C258.24 69.07 258.193 69.21 258.1 69.35C258.053 69.4433 257.913 69.6767 257.68 70.05C257.166 70.2833 256.63 70.47 256.07 70.61C255.556 70.75 254.996 70.7967 254.39 70.75C253.27 70.6567 252.22 70.8433 251.24 71.31C251.053 71.45 250.843 71.5433 250.61 71.59C250.376 71.6367 250.143 71.6833 249.91 71.73C249.536 72.1033 249.326 72.5 249.28 72.92C249.233 73.2933 249.21 73.6667 249.21 74.04C249.256 74.4133 249.21 74.7867 249.07 75.16C249.163 75.58 249.186 76 249.14 76.42C249.093 76.7933 249.023 77.1667 248.93 77.54C248.93 77.68 248.953 77.8433 249 78.03C249.046 78.2167 249.093 78.4267 249.14 78.66C249.093 79.1267 249 79.5933 248.86 80.06C248.766 80.5267 248.79 81.0167 248.93 81.53C248.976 81.7633 248.93 82.0433 248.79 82.37C248.79 82.51 248.766 82.65 248.72 82.79C248.72 82.93 248.696 83.07 248.65 83.21C248.65 83.49 248.696 83.77 248.79 84.05C248.65 84.33 248.486 84.61 248.3 84.89C248.16 85.17 247.973 85.4733 247.74 85.8C247.553 85.9867 247.343 86.08 247.11 86.08C246.643 86.1267 246.176 86.1733 245.71 86.22C245.29 86.3133 244.846 86.3833 244.38 86.43C244.24 86.43 244.076 86.4067 243.89 86.36C243.75 86.36 243.633 86.3833 243.54 86.43C242.84 86.6167 242.163 86.6167 241.51 86.43C240.903 86.2433 240.273 86.1033 239.62 86.01C239.573 85.87 239.526 85.7533 239.48 85.66C239.433 85.6133 239.41 85.5667 239.41 85.52C239.223 84.96 239.06 84.4 238.92 83.84C238.826 83.3267 238.71 82.8133 238.57 82.3C238.85 80.6667 238.873 79.1033 238.64 77.61C238.406 76.1167 238.103 74.67 237.73 73.27C237.683 72.9433 237.683 72.64 237.73 72.36C237.823 72.0333 237.8 71.7067 237.66 71.38C237.473 71.1467 237.216 70.9833 236.89 70.89C236.61 70.7967 236.353 70.68 236.12 70.54C234.953 70.3067 233.786 70.19 232.62 70.19C231.5 70.19 230.38 70.33 229.26 70.61C229.026 70.61 228.886 70.5867 228.84 70.54L225.97 69.56C225.503 69.6533 225.036 69.6533 224.57 69.56C224.103 69.4667 223.66 69.42 223.24 69.42C223.1 69.42 222.96 69.42 222.82 69.42C222.68 69.3733 222.516 69.28 222.33 69.14C222.236 69.0467 222.19 68.8833 222.19 68.65C222.143 68.2767 222.12 67.9267 222.12 67.6C222.12 67.2733 222.12 66.9233 222.12 66.55C222.12 65.9433 222.12 65.36 222.12 64.8C222.12 64.1933 222.003 63.5867 221.77 62.98C221.723 62.1867 221.653 61.3933 221.56 60.6C221.513 59.76 221.653 58.9433 221.98 58.15C222.12 57.7767 222.213 57.4267 222.26 57.1C222.353 56.7733 222.493 56.4467 222.68 56.12C222.96 55.6067 223.17 55.0233 223.31 54.37C223.45 53.8567 223.59 53.3667 223.73 52.9C223.916 52.4333 224.01 51.9433 224.01 51.43C224.196 50.6367 224.406 49.8667 224.64 49.12C224.92 48.3267 225.246 47.58 225.62 46.88C225.853 46.4133 226.086 45.97 226.32 45.55C226.553 45.0833 226.763 44.6167 226.95 44.15C227.043 43.7767 227.16 43.4033 227.3 43.03C227.486 42.6567 227.65 42.2833 227.79 41.91C228.023 41.4433 228.186 41.14 228.28 41C228.42 40.86 228.723 40.5567 229.19 40.09C229.283 39.81 229.4 39.5533 229.54 39.32C229.68 39.04 229.796 38.7833 229.89 38.55C230.31 38.41 230.706 38.3633 231.08 38.41C231.5 38.41 231.92 38.4333 232.34 38.48C232.48 38.5267 232.643 38.62 232.83 38.76C233.016 38.8533 233.203 38.97 233.39 39.11C234.183 39.7167 235.093 40.0667 236.12 40.16L236.96 41.07C237.333 41.49 237.45 41.8867 237.31 42.26C237.123 42.7733 236.96 43.31 236.82 43.87C236.726 44.43 236.54 44.9667 236.26 45.48C236.073 46.5067 235.793 47.5567 235.42 48.63C235.326 48.91 235.186 49.19 235 49.47C234.86 49.7033 234.766 49.9833 234.72 50.31C234.673 50.6367 234.58 50.9167 234.44 51.15C233.926 52.0833 233.506 53.0867 233.18 54.16C232.853 55.1867 232.433 56.2133 231.92 57.24C231.873 57.4733 231.896 57.73 231.99 58.01C232.13 58.2433 232.316 58.3833 232.55 58.43C232.83 58.4767 233.11 58.5 233.39 58.5C233.67 58.5 233.95 58.5467 234.23 58.64C234.743 58.4067 235.28 58.36 235.84 58.5C236.4 58.64 236.936 58.6867 237.45 58.64L238.92 58.85C239.2 58.7567 239.433 58.6167 239.62 58.43C239.76 57.7767 239.876 57.1467 239.97 56.54C240.063 55.9333 240.086 55.3033 240.04 54.65C240.04 54.1367 240.063 53.6467 240.11 53.18C240.203 52.6667 240.18 52.1767 240.04 51.71C239.993 51.4767 239.993 51.2433 240.04 51.01C240.086 50.73 240.133 50.45 240.18 50.17C240.366 49.9833 240.506 49.82 240.6 49.68C240.74 49.54 240.903 49.3767 241.09 49.19C241.183 49.0967 241.276 48.98 241.37 48.84C241.463 48.6533 241.556 48.4667 241.65 48.28C242.163 48.14 242.676 48.0933 243.19 48.14C243.75 48.1867 244.286 48.2333 244.8 48.28C245.406 48.6067 246.036 48.7933 246.69 48.84C247.343 48.8867 247.973 48.98 248.58 49.12C249 49.4933 249.21 50.0067 249.21 50.66C249.303 51.2667 249.303 51.8967 249.21 52.55C248.93 53.7167 248.906 54.9067 249.14 56.12C249.186 56.3067 249.21 56.4933 249.21 56.68C249.21 56.82 249.21 56.9833 249.21 57.17C249.303 57.2633 249.396 57.38 249.49 57.52C249.583 57.66 249.676 57.8 249.77 57.94V59.83C249.816 59.8767 249.863 59.9233 249.91 59.97C249.956 60.0167 250.026 60.04 250.12 60.04C250.4 60.1333 250.68 60.2267 250.96 60.32C251.24 60.3667 251.496 60.4367 251.73 60.53C252.243 60.4367 252.756 60.3433 253.27 60.25C253.83 60.11 254.39 59.9933 254.95 59.9C255.323 60.2733 255.72 60.67 256.14 61.09C256.56 61.4633 256.956 61.79 257.33 62.07C257.703 62.5367 257.913 63.0267 257.96 63.54C258.053 64.0533 258.123 64.5667 258.17 65.08C258.263 65.6867 258.31 66.3167 258.31 66.97C258.356 67.6233 258.333 68.2767 258.24 68.93Z" fill="#C9C8C8"/>
<path d="M133.475 208.32C133.368 208.613 133.328 208.907 133.355 209.2C133.381 209.493 133.408 209.787 133.435 210.08V210.28C133.408 210.413 133.368 210.56 133.315 210.72C133.261 210.88 133.208 211.04 133.155 211.2C133.235 211.653 133.275 212.107 133.275 212.56C133.275 212.987 133.275 213.413 133.275 213.84C133.275 214.053 133.261 214.267 133.235 214.48C133.235 214.667 133.248 214.853 133.275 215.04C133.275 215.227 133.288 215.413 133.315 215.6C133.341 215.787 133.368 215.987 133.395 216.2C133.341 216.467 133.288 216.773 133.235 217.12C133.208 217.44 133.128 217.76 132.995 218.08C132.995 218.4 132.941 218.72 132.835 219.04C132.755 219.36 132.755 219.68 132.835 220C132.808 220.267 132.781 220.533 132.755 220.8C132.755 221.067 132.741 221.347 132.715 221.64C132.688 221.88 132.661 222.12 132.635 222.36C132.635 222.6 132.661 222.84 132.715 223.08C132.715 223.32 132.675 223.587 132.595 223.88C132.461 224.2 132.435 224.493 132.515 224.76C132.488 225.267 132.448 225.787 132.395 226.32C132.368 226.853 132.261 227.373 132.075 227.88C132.048 227.987 132.035 228.12 132.035 228.28C132.035 228.413 132.048 228.507 132.075 228.56L131.795 228.84C131.581 228.867 131.368 228.893 131.155 228.92C130.968 228.947 130.768 228.973 130.555 229C130.475 229.027 130.381 229.08 130.275 229.16C130.195 229.213 130.075 229.293 129.915 229.4C129.541 229.507 129.168 229.6 128.795 229.68C128.421 229.733 128.048 229.8 127.675 229.88C127.488 229.827 127.315 229.8 127.155 229.8C127.021 229.8 126.888 229.787 126.755 229.76C126.648 229.733 126.528 229.72 126.395 229.72C126.288 229.693 126.168 229.667 126.035 229.64C125.981 229.667 125.915 229.693 125.835 229.72C125.755 229.747 125.688 229.773 125.635 229.8L125.235 229.44C125.128 229.227 125.075 229.027 125.075 228.84C125.101 228.653 125.101 228.467 125.075 228.28C124.968 228.12 124.835 228.013 124.675 227.96C124.515 227.907 124.368 227.827 124.235 227.72C124.048 227.507 123.901 227.28 123.795 227.04C123.688 226.8 123.528 226.587 123.315 226.4C123.128 226.24 122.968 226.053 122.835 225.84C122.728 225.627 122.581 225.44 122.395 225.28C122.261 224.987 122.115 224.707 121.955 224.44C121.795 224.173 121.648 223.907 121.515 223.64C121.381 223.4 121.235 223.187 121.075 223C120.915 222.867 120.755 222.72 120.595 222.56C120.461 222.373 120.315 222.2 120.155 222.04C120.128 221.853 120.061 221.693 119.955 221.56C119.848 221.427 119.741 221.28 119.635 221.12C119.421 220.747 119.168 220.4 118.875 220.08C118.581 219.76 118.315 219.413 118.075 219.04C118.021 219.067 117.968 219.08 117.915 219.08C117.861 219.08 117.821 219.107 117.795 219.16C117.635 219.4 117.555 219.707 117.555 220.08C117.555 220.16 117.568 220.24 117.595 220.32C117.621 220.4 117.608 220.48 117.555 220.56C117.501 220.613 117.435 220.667 117.355 220.72C117.275 220.773 117.195 220.827 117.115 220.88C117.008 221.147 116.968 221.427 116.995 221.72C117.021 222.013 117.008 222.307 116.955 222.6C116.928 222.867 116.915 223.147 116.915 223.44C116.915 223.733 116.915 224.013 116.915 224.28L116.515 225C116.408 225.373 116.381 225.747 116.435 226.12C116.488 226.493 116.581 226.867 116.715 227.24C116.635 227.427 116.568 227.64 116.515 227.88C116.488 228.067 116.461 228.267 116.435 228.48C116.408 228.667 116.408 228.867 116.435 229.08C116.461 229.613 116.195 229.987 115.635 230.2C115.581 230.2 115.501 230.213 115.395 230.24C115.155 230.107 114.888 230.027 114.595 230C114.301 229.947 114.008 229.853 113.715 229.72C113.448 229.587 113.181 229.52 112.915 229.52C112.648 229.493 112.395 229.48 112.155 229.48C112.021 229.427 111.875 229.36 111.715 229.28C111.581 229.173 111.448 229.107 111.315 229.08C111.181 229.027 111.048 228.987 110.915 228.96C110.781 228.933 110.648 228.893 110.515 228.84C110.488 228.787 110.461 228.72 110.435 228.64C110.435 228.56 110.421 228.507 110.395 228.48C110.368 228.027 110.355 227.6 110.355 227.2C110.381 226.773 110.381 226.36 110.355 225.96C110.355 225.667 110.355 225.373 110.355 225.08C110.381 224.787 110.395 224.493 110.395 224.2V223.8C110.368 223.667 110.315 223.533 110.235 223.4C110.155 223.24 110.128 223.08 110.155 222.92C110.181 222.76 110.195 222.6 110.195 222.44C110.195 222.28 110.195 222.133 110.195 222C110.248 221.84 110.248 221.68 110.195 221.52C110.168 221.36 110.155 221.213 110.155 221.08C110.208 220.813 110.275 220.547 110.355 220.28C110.435 220.013 110.541 219.773 110.675 219.56V215.4C110.675 215.293 110.661 215.213 110.635 215.16C110.501 214.893 110.448 214.64 110.475 214.4C110.501 214.267 110.515 214.133 110.515 214C110.541 213.84 110.568 213.693 110.595 213.56C110.541 213.373 110.488 213.187 110.435 213C110.381 212.813 110.328 212.627 110.275 212.44C110.328 212.28 110.315 212.107 110.235 211.92C110.181 211.733 110.168 211.547 110.195 211.36C110.248 211.2 110.341 211.067 110.475 210.96C110.608 210.827 110.688 210.667 110.715 210.48C110.688 210.267 110.595 210.067 110.435 209.88C110.275 209.667 110.195 209.427 110.195 209.16C110.328 208.947 110.461 208.827 110.595 208.8C110.888 208.747 111.155 208.667 111.395 208.56C111.661 208.427 111.915 208.28 112.155 208.12C112.181 208.093 112.288 208.053 112.475 208C112.581 208.027 112.688 208.053 112.795 208.08C112.928 208.107 113.075 208.133 113.235 208.16C113.448 208.08 113.661 208.027 113.875 208C114.115 207.973 114.368 207.96 114.635 207.96C114.848 207.96 115.048 207.947 115.235 207.92C115.448 207.893 115.688 207.867 115.955 207.84C116.088 207.867 116.221 207.893 116.355 207.92C116.515 207.947 116.675 207.973 116.835 208C117.048 208.107 117.235 208.24 117.395 208.4C117.581 208.533 117.715 208.707 117.795 208.92C117.955 209.293 118.155 209.64 118.395 209.96C118.635 210.28 118.821 210.613 118.955 210.96C119.088 211.067 119.221 211.16 119.355 211.24C119.515 211.32 119.635 211.427 119.715 211.56C119.928 211.773 120.168 211.96 120.435 212.12C120.701 212.28 120.968 212.427 121.235 212.56C121.475 212.88 121.688 213.2 121.875 213.52C122.088 213.84 122.341 214.107 122.635 214.32C122.741 214.533 122.835 214.747 122.915 214.96C122.995 215.173 123.075 215.36 123.155 215.52C123.261 215.68 123.381 215.773 123.515 215.8C123.675 215.8 123.808 215.813 123.915 215.84C123.968 215.867 124.008 215.893 124.035 215.92C124.088 215.92 124.128 215.933 124.155 215.96C124.368 216.147 124.541 216.36 124.675 216.6C124.808 216.813 124.941 217.053 125.075 217.32C125.208 217.4 125.328 217.493 125.435 217.6C125.541 217.68 125.661 217.76 125.795 217.84C125.848 217.867 125.901 217.88 125.955 217.88C126.035 217.853 126.088 217.84 126.115 217.84C126.248 217.653 126.355 217.48 126.435 217.32C126.541 217.133 126.581 216.933 126.555 216.72C126.528 216.64 126.528 216.56 126.555 216.48C126.581 216.4 126.595 216.307 126.595 216.2C126.648 215.88 126.715 215.56 126.795 215.24C126.875 214.92 126.928 214.587 126.955 214.24C126.981 214 127.008 213.76 127.035 213.52C127.061 213.253 127.048 213.013 126.995 212.8C127.021 212.373 127.021 211.973 126.995 211.6C126.968 211.2 126.941 210.8 126.915 210.4C126.888 209.813 126.901 209.24 126.955 208.68C127.008 208.12 127.115 207.547 127.275 206.96C127.275 206.933 127.275 206.92 127.275 206.92C127.301 206.92 127.315 206.907 127.315 206.88C127.421 206.747 127.528 206.667 127.635 206.64C127.768 206.587 127.888 206.52 127.995 206.44C128.128 206.36 128.261 206.32 128.395 206.32C128.528 206.32 128.661 206.347 128.795 206.4C128.955 206.533 129.128 206.667 129.315 206.8C129.368 206.8 129.408 206.813 129.435 206.84C129.488 206.867 129.541 206.88 129.595 206.88H130.915C131.101 206.907 131.288 206.947 131.475 207C131.661 207.027 131.848 207.107 132.035 207.24C132.088 207.267 132.128 207.28 132.155 207.28C132.208 207.253 132.248 207.253 132.275 207.28C132.408 207.227 132.528 207.173 132.635 207.12C132.768 207.04 132.901 206.987 133.035 206.96C133.088 206.987 133.128 207.027 133.155 207.08C133.208 207.107 133.261 207.16 133.315 207.24C133.421 207.4 133.488 207.573 133.515 207.76C133.568 207.947 133.555 208.133 133.475 208.32ZM154.516 219.08C154.596 219.4 154.583 219.693 154.476 219.96C154.423 220.093 154.383 220.227 154.356 220.36C154.33 220.493 154.33 220.627 154.356 220.76C154.383 220.787 154.383 220.827 154.356 220.88C154.356 220.907 154.356 220.947 154.356 221C154.25 221.213 154.196 221.44 154.196 221.68C154.223 221.92 154.25 222.147 154.276 222.36L153.876 222.92V223.44C153.823 223.493 153.756 223.56 153.676 223.64C153.596 223.693 153.49 223.773 153.356 223.88C153.303 224.067 153.223 224.267 153.116 224.48C153.036 224.693 152.97 224.893 152.916 225.08V225.48C152.81 225.587 152.676 225.68 152.516 225.76C152.356 225.84 152.223 225.96 152.116 226.12C152.01 226.2 151.903 226.267 151.796 226.32C151.69 226.373 151.57 226.44 151.436 226.52C151.383 226.547 151.316 226.56 151.236 226.56C151.183 226.533 151.13 226.533 151.076 226.56C150.676 226.56 150.476 226.747 150.476 227.12C150.183 227.307 149.89 227.507 149.596 227.72C149.33 227.933 149.05 228.147 148.756 228.36C148.303 228.707 147.716 228.947 146.996 229.08C146.756 229.107 146.53 229.173 146.316 229.28C146.103 229.36 145.876 229.427 145.636 229.48C145.583 229.48 145.516 229.467 145.436 229.44C145.356 229.413 145.29 229.413 145.236 229.44C144.916 229.467 144.583 229.44 144.236 229.36C144.13 229.333 144.023 229.333 143.916 229.36C143.81 229.387 143.716 229.413 143.636 229.44C143.45 229.413 143.263 229.387 143.076 229.36C142.89 229.333 142.69 229.307 142.476 229.28C142.236 229.173 142.01 229.053 141.796 228.92C141.61 228.787 141.41 228.667 141.196 228.56C141.036 228.507 140.89 228.413 140.756 228.28C140.623 228.147 140.516 228.013 140.436 227.88C140.41 227.827 140.37 227.787 140.316 227.76C140.29 227.707 140.25 227.653 140.196 227.6C140.116 227.547 140.036 227.507 139.956 227.48C139.876 227.427 139.796 227.36 139.716 227.28C139.29 226.987 138.903 226.667 138.556 226.32C138.236 225.973 137.996 225.547 137.836 225.04C137.703 224.693 137.543 224.387 137.356 224.12C137.303 224.013 137.236 223.92 137.156 223.84C137.103 223.733 137.05 223.627 136.996 223.52C137.023 223.467 137.063 223.36 137.116 223.2C137.063 223.12 137.01 223.04 136.956 222.96C136.903 222.88 136.876 222.787 136.876 222.68C136.876 222.6 136.863 222.52 136.836 222.44C136.836 222.333 136.85 222.227 136.876 222.12C136.93 221.933 136.943 221.747 136.916 221.56C136.89 221.373 136.89 221.187 136.916 221C136.943 220.84 136.93 220.667 136.876 220.48C136.85 220.293 136.876 220.12 136.956 219.96C137.01 219.773 137.05 219.6 137.076 219.44C137.103 219.28 137.143 219.12 137.196 218.96C137.25 218.8 137.303 218.653 137.356 218.52C137.41 218.36 137.463 218.213 137.516 218.08C137.57 217.92 137.623 217.76 137.676 217.6C137.73 217.44 137.81 217.267 137.916 217.08C137.916 217.027 137.916 216.96 137.916 216.88C137.916 216.8 137.93 216.747 137.956 216.72C138.063 216.507 138.143 216.307 138.196 216.12C138.25 215.933 138.263 215.747 138.236 215.56C138.343 215.427 138.436 215.32 138.516 215.24C138.596 215.16 138.663 215.067 138.716 214.96C138.77 214.827 138.823 214.707 138.876 214.6C138.956 214.467 139.036 214.347 139.116 214.24C139.196 214.027 139.316 213.84 139.476 213.68C139.583 213.547 139.676 213.44 139.756 213.36C139.836 213.253 139.903 213.173 139.956 213.12C140.036 212.96 140.063 212.827 140.036 212.72C140.01 212.587 139.996 212.48 139.996 212.4C140.05 212.267 140.09 212.187 140.116 212.16C140.196 212.133 140.263 212.093 140.316 212.04C140.396 211.987 140.476 211.947 140.556 211.92C140.77 211.787 140.996 211.653 141.236 211.52C141.476 211.387 141.716 211.28 141.956 211.2C142.196 211.04 142.436 210.933 142.676 210.88C142.943 210.8 143.21 210.72 143.476 210.64C143.69 210.64 143.903 210.64 144.116 210.64C144.33 210.64 144.53 210.653 144.716 210.68H145.076C145.37 210.787 145.663 210.84 145.956 210.84C146.276 210.84 146.583 210.827 146.876 210.8C147.01 210.8 147.143 210.8 147.276 210.8C147.436 210.773 147.583 210.76 147.716 210.76C147.85 210.867 147.956 210.96 148.036 211.04C148.143 211.093 148.25 211.173 148.356 211.28C148.436 211.307 148.516 211.347 148.596 211.4C148.676 211.453 148.77 211.493 148.876 211.52C149.25 211.547 149.583 211.667 149.876 211.88C150.196 212.093 150.49 212.307 150.756 212.52C150.756 212.573 150.756 212.653 150.756 212.76C150.756 212.84 150.77 212.92 150.796 213C150.796 213.133 150.876 213.253 151.036 213.36C151.116 213.387 151.21 213.4 151.316 213.4C151.423 213.4 151.53 213.427 151.636 213.48C151.69 213.587 151.756 213.707 151.836 213.84C151.943 213.973 152.036 214.107 152.116 214.24C152.223 214.347 152.33 214.453 152.436 214.56C152.543 214.667 152.623 214.787 152.676 214.92C152.73 214.973 152.77 215.04 152.796 215.12C152.85 215.2 152.89 215.267 152.916 215.32C152.996 215.4 153.076 215.48 153.156 215.56C153.236 215.64 153.29 215.747 153.316 215.88C153.37 216.067 153.45 216.253 153.556 216.44C153.663 216.627 153.743 216.827 153.796 217.04C153.823 217.12 153.863 217.2 153.916 217.28C153.996 217.36 154.076 217.453 154.156 217.56C154.21 217.8 154.25 218.053 154.276 218.32C154.33 218.587 154.41 218.84 154.516 219.08ZM148.916 220.52C148.943 220.333 148.916 220.173 148.836 220.04C148.756 219.88 148.73 219.72 148.756 219.56C148.756 219.507 148.716 219.44 148.636 219.36C148.61 219.307 148.596 219.2 148.596 219.04C148.623 218.987 148.636 218.92 148.636 218.84C148.636 218.733 148.636 218.667 148.636 218.64C148.45 218.347 148.276 218.08 148.116 217.84C147.956 217.573 147.783 217.32 147.596 217.08C147.596 217.027 147.57 217 147.516 217C147.463 216.973 147.41 216.92 147.356 216.84C146.903 216.84 146.41 216.72 145.876 216.48C145.556 216.32 145.17 216.307 144.716 216.44C144.69 216.44 144.65 216.453 144.596 216.48C144.57 216.507 144.53 216.547 144.476 216.6H144.276C143.85 216.52 143.57 216.68 143.436 217.08C143.383 217.187 143.316 217.307 143.236 217.44C143.183 217.547 143.143 217.667 143.116 217.8C143.09 217.907 143.036 218.027 142.956 218.16C142.876 218.267 142.81 218.373 142.756 218.48C142.65 218.613 142.556 218.76 142.476 218.92C142.396 219.08 142.303 219.227 142.196 219.36C142.17 219.627 142.103 219.893 141.996 220.16C141.916 220.427 141.863 220.68 141.836 220.92C141.916 221.053 141.996 221.2 142.076 221.36C142.156 221.493 142.223 221.627 142.276 221.76C142.436 222.107 142.503 222.44 142.476 222.76C142.476 222.813 142.49 222.867 142.516 222.92C142.543 222.973 142.57 223.027 142.596 223.08C142.836 223.133 143.063 223.187 143.276 223.24C143.516 223.293 143.743 223.36 143.956 223.44C144.143 223.493 144.33 223.533 144.516 223.56C144.703 223.587 144.89 223.56 145.076 223.48H145.196C145.41 223.533 145.61 223.547 145.796 223.52C146.01 223.467 146.236 223.413 146.476 223.36C146.663 223.227 146.85 223.08 147.036 222.92C147.25 222.76 147.463 222.627 147.676 222.52C147.863 222.147 148.09 221.813 148.356 221.52C148.623 221.227 148.81 220.893 148.916 220.52ZM171.089 227.12C170.956 227.387 170.836 227.653 170.729 227.92C170.622 228.187 170.502 228.453 170.369 228.72L169.529 229.52C169.022 230.08 168.422 230.413 167.729 230.52C167.382 230.573 167.022 230.587 166.649 230.56C166.302 230.56 165.942 230.507 165.569 230.4C165.356 230.347 165.129 230.267 164.889 230.16C164.676 230.08 164.462 229.987 164.249 229.88C164.089 229.8 163.916 229.747 163.729 229.72C163.542 229.667 163.342 229.627 163.129 229.6C163.049 229.547 162.956 229.493 162.849 229.44C162.742 229.36 162.622 229.28 162.489 229.2C162.302 228.88 162.076 228.587 161.809 228.32C161.569 228.053 161.382 227.72 161.249 227.32C161.249 227 161.236 226.787 161.209 226.68C161.182 226.547 161.102 226.293 160.969 225.92V223.28C160.969 223.067 160.956 222.867 160.929 222.68C160.929 222.467 160.902 222.267 160.849 222.08C160.822 221.893 160.809 221.733 160.809 221.6C160.836 221.467 160.862 221.307 160.889 221.12C160.969 220.8 160.969 220.467 160.889 220.12C160.969 219.8 161.062 219.48 161.169 219.16C161.169 219 161.129 218.773 161.049 218.48C160.969 218.187 160.876 217.907 160.769 217.64C160.636 217.64 160.502 217.627 160.369 217.6C160.236 217.573 160.089 217.547 159.929 217.52C159.769 217.573 159.596 217.627 159.409 217.68C159.249 217.733 159.062 217.787 158.849 217.84C158.769 217.893 158.649 217.92 158.489 217.92C158.462 217.92 158.409 217.893 158.329 217.84C158.276 217.76 158.249 217.707 158.249 217.68C158.222 217.6 158.209 217.52 158.209 217.44C158.209 217.36 158.209 217.28 158.209 217.2C158.182 216.987 158.169 216.76 158.169 216.52C158.169 216.28 158.169 216.053 158.169 215.84C158.169 215.627 158.156 215.427 158.129 215.24C158.102 215.027 158.062 214.827 158.009 214.64C158.036 214.507 158.062 214.387 158.089 214.28C158.116 214.147 158.142 214.027 158.169 213.92V213.16C158.169 212.947 158.196 212.76 158.249 212.6C158.329 212.44 158.476 212.293 158.689 212.16C158.849 212.107 159.022 212.08 159.209 212.08C159.422 212.08 159.649 212.08 159.889 212.08C160.102 212.107 160.316 212.107 160.529 212.08C160.769 212.027 160.982 211.907 161.169 211.72C161.222 211.667 161.289 211.64 161.369 211.64C161.476 211.64 161.556 211.64 161.609 211.64C162.142 211.667 162.609 211.453 163.009 211C163.036 210.84 163.116 210.613 163.249 210.32C163.169 210.133 163.102 209.933 163.049 209.72C162.996 209.48 162.929 209.253 162.849 209.04C162.902 208.96 162.956 208.88 163.009 208.8C163.062 208.72 163.102 208.627 163.129 208.52C163.182 208.387 163.182 208.267 163.129 208.16C163.076 208.027 163.062 207.92 163.089 207.84C163.036 207.707 163.009 207.613 163.009 207.56C163.009 207.507 162.982 207.413 162.929 207.28C162.956 207.227 162.982 207.173 163.009 207.12C163.036 207.04 163.062 206.973 163.089 206.92C163.116 206.813 163.142 206.733 163.169 206.68C163.196 206.6 163.222 206.507 163.249 206.4H163.689C163.822 206.427 163.956 206.453 164.089 206.48C164.249 206.48 164.396 206.467 164.529 206.44C164.582 206.44 164.649 206.453 164.729 206.48C164.809 206.48 164.889 206.48 164.969 206.48C165.422 206.533 165.862 206.6 166.289 206.68C166.742 206.76 167.182 206.8 167.609 206.8C167.662 206.8 167.716 206.813 167.769 206.84C167.849 206.867 167.902 206.893 167.929 206.92C168.036 206.973 168.129 207.04 168.209 207.12C168.182 207.227 168.142 207.333 168.089 207.44C168.036 207.52 167.996 207.6 167.969 207.68C167.942 207.787 167.916 207.907 167.889 208.04C167.889 208.173 167.876 208.307 167.849 208.44C167.822 208.627 167.796 208.813 167.769 209C167.742 209.187 167.702 209.4 167.649 209.64C167.676 209.667 167.689 209.733 167.689 209.84C167.689 209.947 167.702 210.04 167.729 210.12C167.702 210.307 167.662 210.48 167.609 210.64C167.582 210.8 167.556 210.987 167.529 211.2C167.876 211.467 168.249 211.693 168.649 211.88C169.076 212.067 169.582 212.24 170.169 212.4C170.462 212.587 170.636 212.893 170.689 213.32C170.689 213.933 170.649 214.547 170.569 215.16C170.542 215.4 170.516 215.64 170.489 215.88C170.462 216.12 170.462 216.36 170.489 216.6C170.142 216.813 169.729 216.92 169.249 216.92C169.169 216.92 169.089 216.933 169.009 216.96C168.929 216.987 168.862 217 168.809 217C168.382 217.027 168.049 217.067 167.809 217.12C167.596 217.173 167.249 217.307 166.769 217.52C166.689 217.627 166.649 217.773 166.649 217.96C166.622 218.12 166.596 218.28 166.569 218.44C166.569 218.6 166.582 218.773 166.609 218.96C166.609 218.96 166.609 218.973 166.609 219C166.609 219 166.582 219.013 166.529 219.04C166.369 219.36 166.249 219.6 166.169 219.76C166.089 219.92 166.036 220.08 166.009 220.24C166.009 220.4 166.009 220.667 166.009 221.04V222.96C166.009 223.093 166.022 223.173 166.049 223.2C166.076 223.44 166.196 223.64 166.409 223.8C166.516 223.827 166.609 223.853 166.689 223.88C166.796 223.907 166.876 223.973 166.929 224.08C167.169 224.4 167.436 224.573 167.729 224.6C168.049 224.6 168.382 224.547 168.729 224.44C168.836 224.387 168.942 224.333 169.049 224.28C169.156 224.227 169.262 224.187 169.369 224.16C169.582 224.213 169.716 224.333 169.769 224.52C169.822 224.707 169.916 224.867 170.049 225C170.182 225.133 170.289 225.28 170.369 225.44C170.476 225.6 170.582 225.76 170.689 225.92C170.742 226.08 170.809 226.267 170.889 226.48C170.969 226.667 171.036 226.88 171.089 227.12ZM201.231 210.32C201.231 210.533 201.138 210.667 200.951 210.72C200.631 210.747 200.325 210.853 200.031 211.04C199.765 211.2 199.485 211.32 199.191 211.4C198.845 211.373 198.511 211.387 198.191 211.44C197.871 211.493 197.525 211.48 197.151 211.4C197.098 211.453 197.031 211.507 196.951 211.56C196.871 211.613 196.791 211.667 196.711 211.72C196.605 211.72 196.485 211.733 196.351 211.76C196.218 211.787 196.085 211.8 195.951 211.8H194.951C194.738 211.8 194.525 211.813 194.311 211.84C194.098 211.84 193.885 211.827 193.671 211.8C193.431 211.8 193.218 211.853 193.031 211.96C192.845 212.04 192.645 212.08 192.431 212.08C192.325 212.08 192.231 212.093 192.151 212.12C192.071 212.12 191.991 212.133 191.911 212.16C191.725 212.107 191.538 212.067 191.351 212.04C191.191 211.987 191.018 212.053 190.831 212.24C190.698 212.693 190.578 213.16 190.471 213.64C190.391 214.12 190.325 214.587 190.271 215.04C190.191 215.52 190.191 215.973 190.271 216.4C190.298 216.453 190.311 216.507 190.311 216.56C190.338 216.613 190.365 216.667 190.391 216.72H191.591C191.778 216.8 191.965 216.893 192.151 217C192.365 217.107 192.578 217.227 192.791 217.36C192.845 217.387 192.911 217.413 192.991 217.44C193.098 217.44 193.205 217.453 193.311 217.48C193.391 217.507 193.485 217.533 193.591 217.56C193.698 217.587 193.805 217.627 193.911 217.68C194.098 217.68 194.271 217.627 194.431 217.52C194.591 217.413 194.765 217.347 194.951 217.32H195.151C195.285 217.32 195.405 217.333 195.511 217.36C195.645 217.387 195.765 217.387 195.871 217.36C196.218 217.28 196.565 217.28 196.911 217.36C197.258 217.413 197.591 217.44 197.911 217.44C198.125 217.44 198.325 217.48 198.511 217.56C198.725 217.64 198.925 217.733 199.111 217.84C199.218 218.747 199.258 219.667 199.231 220.6C199.231 221.507 199.218 222.413 199.191 223.32C199.191 223.427 199.151 223.493 199.071 223.52C198.991 223.547 198.911 223.547 198.831 223.52C198.778 223.493 198.711 223.467 198.631 223.44C198.578 223.413 198.498 223.387 198.391 223.36H196.071C195.831 223.333 195.605 223.333 195.391 223.36C195.205 223.387 195.005 223.387 194.791 223.36C194.578 223.333 194.365 223.32 194.151 223.32C193.938 223.293 193.711 223.267 193.471 223.24C193.285 223.213 193.085 223.2 192.871 223.2C192.658 223.2 192.431 223.187 192.191 223.16C192.058 223.16 191.911 223.133 191.751 223.08C191.618 223.027 191.485 222.987 191.351 222.96C191.165 222.987 191.018 223.053 190.911 223.16C190.831 223.267 190.725 223.373 190.591 223.48C190.565 223.533 190.525 223.613 190.471 223.72C190.445 223.8 190.405 223.88 190.351 223.96C190.378 224.04 190.391 224.133 190.391 224.24C190.525 224.4 190.605 224.587 190.631 224.8C190.685 224.987 190.711 225.187 190.711 225.4C190.711 225.72 190.725 226.04 190.751 226.36C190.805 226.68 190.805 227 190.751 227.32C190.751 227.587 190.751 227.853 190.751 228.12C190.778 228.387 190.845 228.64 190.951 228.88C190.978 228.933 190.991 229.027 190.991 229.16C190.831 229.533 190.618 229.893 190.351 230.24C190.085 230.427 189.818 230.547 189.551 230.6C189.311 230.68 189.045 230.787 188.751 230.92C188.645 230.893 188.525 230.88 188.391 230.88C188.285 230.88 188.165 230.88 188.031 230.88C187.925 230.907 187.751 231 187.511 231.16H186.151C185.938 231.16 185.711 231.16 185.471 231.16C185.258 231.187 185.018 231.2 184.751 231.2C184.485 231.2 184.298 231.08 184.191 230.84C184.165 230.733 184.151 230.613 184.151 230.48C184.151 230.347 184.138 230.2 184.111 230.04C184.031 229.907 183.965 229.787 183.911 229.68C183.858 229.547 183.805 229.427 183.751 229.32C183.725 229.16 183.698 229 183.671 228.84C183.671 228.68 183.658 228.533 183.631 228.4C183.711 228.16 183.778 227.933 183.831 227.72C183.911 227.507 183.991 227.28 184.071 227.04C183.965 226.427 183.898 225.8 183.871 225.16C183.845 224.493 183.885 223.827 183.991 223.16C183.991 223.027 183.965 222.88 183.911 222.72C183.885 222.56 183.911 222.387 183.991 222.2C184.151 221.907 184.151 221.627 183.991 221.36C183.965 221.173 183.938 220.987 183.911 220.8C183.911 220.613 183.938 220.427 183.991 220.24C184.045 220.16 184.071 220.067 184.071 219.96C184.071 219.853 184.071 219.747 184.071 219.64C184.098 219.507 184.085 219.36 184.031 219.2C183.978 219.04 183.965 218.88 183.991 218.72C184.045 218.587 184.071 218.453 184.071 218.32C184.098 218.16 184.111 218 184.111 217.84C184.111 217.653 184.125 217.467 184.151 217.28C184.178 217.093 184.218 216.92 184.271 216.76C184.245 216.573 184.218 216.413 184.191 216.28C184.191 216.12 184.178 215.96 184.151 215.8C184.285 215.507 184.351 215.213 184.351 214.92C184.378 214.6 184.391 214.28 184.391 213.96C184.391 213.747 184.391 213.533 184.391 213.32C184.391 213.107 184.405 212.907 184.431 212.72C184.458 212.507 184.471 212.307 184.471 212.12C184.498 211.907 184.511 211.707 184.511 211.52C184.511 211.467 184.498 211.413 184.471 211.36C184.471 211.28 184.485 211.213 184.511 211.16C184.618 210.947 184.658 210.747 184.631 210.56C184.631 210.347 184.645 210.147 184.671 209.96C184.671 209.8 184.671 209.64 184.671 209.48C184.698 209.293 184.725 209.12 184.751 208.96C184.725 208.827 184.685 208.68 184.631 208.52C184.578 208.36 184.538 208.227 184.511 208.12C184.538 207.987 184.565 207.853 184.591 207.72C184.645 207.587 184.671 207.453 184.671 207.32C184.698 207 184.911 206.787 185.311 206.68C185.791 206.52 186.298 206.4 186.831 206.32C187.018 206.32 187.165 206.267 187.271 206.16C187.378 206.107 187.498 206.08 187.631 206.08C187.791 206.107 187.951 206.107 188.111 206.08C188.298 206.053 188.485 206.027 188.671 206C188.885 205.867 189.125 205.8 189.391 205.8C189.898 205.773 190.405 205.707 190.911 205.6C191.418 205.493 191.925 205.427 192.431 205.4C192.698 205.373 192.951 205.36 193.191 205.36C193.431 205.333 193.685 205.36 193.951 205.44C194.165 205.467 194.378 205.493 194.591 205.52C194.805 205.52 195.018 205.52 195.231 205.52C195.338 205.52 195.445 205.52 195.551 205.52C195.658 205.493 195.765 205.48 195.871 205.48C196.245 205.453 196.525 205.453 196.711 205.48C196.898 205.48 197.085 205.493 197.271 205.52C197.458 205.547 197.738 205.6 198.111 205.68C198.298 205.707 198.471 205.733 198.631 205.76C198.818 205.76 198.991 205.787 199.151 205.84C199.445 205.973 199.765 206.067 200.111 206.12C200.245 206.147 200.351 206.2 200.431 206.28C200.511 206.333 200.578 206.387 200.631 206.44C200.738 206.867 200.738 207.28 200.631 207.68C200.711 207.92 200.791 208.2 200.871 208.52C200.871 208.547 200.858 208.613 200.831 208.72C200.831 208.8 200.831 208.867 200.831 208.92C200.831 209.053 200.845 209.133 200.871 209.16C200.925 209.267 200.978 209.387 201.031 209.52C201.085 209.627 201.125 209.733 201.151 209.84C201.205 209.92 201.231 210 201.231 210.08C201.231 210.16 201.231 210.24 201.231 210.32ZM220.18 219.08C220.26 219.4 220.247 219.693 220.14 219.96C220.087 220.093 220.047 220.227 220.02 220.36C219.994 220.493 219.994 220.627 220.02 220.76C220.047 220.787 220.047 220.827 220.02 220.88C220.02 220.907 220.02 220.947 220.02 221C219.914 221.213 219.86 221.44 219.86 221.68C219.887 221.92 219.914 222.147 219.94 222.36L219.54 222.92V223.44C219.487 223.493 219.42 223.56 219.34 223.64C219.26 223.693 219.154 223.773 219.02 223.88C218.967 224.067 218.887 224.267 218.78 224.48C218.7 224.693 218.634 224.893 218.58 225.08V225.48C218.474 225.587 218.34 225.68 218.18 225.76C218.02 225.84 217.887 225.96 217.78 226.12C217.674 226.2 217.567 226.267 217.46 226.32C217.354 226.373 217.234 226.44 217.1 226.52C217.047 226.547 216.98 226.56 216.9 226.56C216.847 226.533 216.794 226.533 216.74 226.56C216.34 226.56 216.14 226.747 216.14 227.12C215.847 227.307 215.554 227.507 215.26 227.72C214.994 227.933 214.714 228.147 214.42 228.36C213.967 228.707 213.38 228.947 212.66 229.08C212.42 229.107 212.194 229.173 211.98 229.28C211.767 229.36 211.54 229.427 211.3 229.48C211.247 229.48 211.18 229.467 211.1 229.44C211.02 229.413 210.954 229.413 210.9 229.44C210.58 229.467 210.247 229.44 209.9 229.36C209.794 229.333 209.687 229.333 209.58 229.36C209.474 229.387 209.38 229.413 209.3 229.44C209.114 229.413 208.927 229.387 208.74 229.36C208.554 229.333 208.354 229.307 208.14 229.28C207.9 229.173 207.674 229.053 207.46 228.92C207.274 228.787 207.074 228.667 206.86 228.56C206.7 228.507 206.554 228.413 206.42 228.28C206.287 228.147 206.18 228.013 206.1 227.88C206.074 227.827 206.034 227.787 205.98 227.76C205.954 227.707 205.914 227.653 205.86 227.6C205.78 227.547 205.7 227.507 205.62 227.48C205.54 227.427 205.46 227.36 205.38 227.28C204.954 226.987 204.567 226.667 204.22 226.32C203.9 225.973 203.66 225.547 203.5 225.04C203.367 224.693 203.207 224.387 203.02 224.12C202.967 224.013 202.9 223.92 202.82 223.84C202.767 223.733 202.714 223.627 202.66 223.52C202.687 223.467 202.727 223.36 202.78 223.2C202.727 223.12 202.674 223.04 202.62 222.96C202.567 222.88 202.54 222.787 202.54 222.68C202.54 222.6 202.527 222.52 202.5 222.44C202.5 222.333 202.514 222.227 202.54 222.12C202.594 221.933 202.607 221.747 202.58 221.56C202.554 221.373 202.554 221.187 202.58 221C202.607 220.84 202.594 220.667 202.54 220.48C202.514 220.293 202.54 220.12 202.62 219.96C202.674 219.773 202.714 219.6 202.74 219.44C202.767 219.28 202.807 219.12 202.86 218.96C202.914 218.8 202.967 218.653 203.02 218.52C203.074 218.36 203.127 218.213 203.18 218.08C203.234 217.92 203.287 217.76 203.34 217.6C203.394 217.44 203.474 217.267 203.58 217.08C203.58 217.027 203.58 216.96 203.58 216.88C203.58 216.8 203.594 216.747 203.62 216.72C203.727 216.507 203.807 216.307 203.86 216.12C203.914 215.933 203.927 215.747 203.9 215.56C204.007 215.427 204.1 215.32 204.18 215.24C204.26 215.16 204.327 215.067 204.38 214.96C204.434 214.827 204.487 214.707 204.54 214.6C204.62 214.467 204.7 214.347 204.78 214.24C204.86 214.027 204.98 213.84 205.14 213.68C205.247 213.547 205.34 213.44 205.42 213.36C205.5 213.253 205.567 213.173 205.62 213.12C205.7 212.96 205.727 212.827 205.7 212.72C205.674 212.587 205.66 212.48 205.66 212.4C205.714 212.267 205.754 212.187 205.78 212.16C205.86 212.133 205.927 212.093 205.98 212.04C206.06 211.987 206.14 211.947 206.22 211.92C206.434 211.787 206.66 211.653 206.9 211.52C207.14 211.387 207.38 211.28 207.62 211.2C207.86 211.04 208.1 210.933 208.34 210.88C208.607 210.8 208.874 210.72 209.14 210.64C209.354 210.64 209.567 210.64 209.78 210.64C209.994 210.64 210.194 210.653 210.38 210.68H210.74C211.034 210.787 211.327 210.84 211.62 210.84C211.94 210.84 212.247 210.827 212.54 210.8C212.674 210.8 212.807 210.8 212.94 210.8C213.1 210.773 213.247 210.76 213.38 210.76C213.514 210.867 213.62 210.96 213.7 211.04C213.807 211.093 213.914 211.173 214.02 211.28C214.1 211.307 214.18 211.347 214.26 211.4C214.34 211.453 214.434 211.493 214.54 211.52C214.914 211.547 215.247 211.667 215.54 211.88C215.86 212.093 216.154 212.307 216.42 212.52C216.42 212.573 216.42 212.653 216.42 212.76C216.42 212.84 216.434 212.92 216.46 213C216.46 213.133 216.54 213.253 216.7 213.36C216.78 213.387 216.874 213.4 216.98 213.4C217.087 213.4 217.194 213.427 217.3 213.48C217.354 213.587 217.42 213.707 217.5 213.84C217.607 213.973 217.7 214.107 217.78 214.24C217.887 214.347 217.994 214.453 218.1 214.56C218.207 214.667 218.287 214.787 218.34 214.92C218.394 214.973 218.434 215.04 218.46 215.12C218.514 215.2 218.554 215.267 218.58 215.32C218.66 215.4 218.74 215.48 218.82 215.56C218.9 215.64 218.954 215.747 218.98 215.88C219.034 216.067 219.114 216.253 219.22 216.44C219.327 216.627 219.407 216.827 219.46 217.04C219.487 217.12 219.527 217.2 219.58 217.28C219.66 217.36 219.74 217.453 219.82 217.56C219.874 217.8 219.914 218.053 219.94 218.32C219.994 218.587 220.074 218.84 220.18 219.08ZM214.58 220.52C214.607 220.333 214.58 220.173 214.5 220.04C214.42 219.88 214.394 219.72 214.42 219.56C214.42 219.507 214.38 219.44 214.3 219.36C214.274 219.307 214.26 219.2 214.26 219.04C214.287 218.987 214.3 218.92 214.3 218.84C214.3 218.733 214.3 218.667 214.3 218.64C214.114 218.347 213.94 218.08 213.78 217.84C213.62 217.573 213.447 217.32 213.26 217.08C213.26 217.027 213.234 217 213.18 217C213.127 216.973 213.074 216.92 213.02 216.84C212.567 216.84 212.074 216.72 211.54 216.48C211.22 216.32 210.834 216.307 210.38 216.44C210.354 216.44 210.314 216.453 210.26 216.48C210.234 216.507 210.194 216.547 210.14 216.6H209.94C209.514 216.52 209.234 216.68 209.1 217.08C209.047 217.187 208.98 217.307 208.9 217.44C208.847 217.547 208.807 217.667 208.78 217.8C208.754 217.907 208.7 218.027 208.62 218.16C208.54 218.267 208.474 218.373 208.42 218.48C208.314 218.613 208.22 218.76 208.14 218.92C208.06 219.08 207.967 219.227 207.86 219.36C207.834 219.627 207.767 219.893 207.66 220.16C207.58 220.427 207.527 220.68 207.5 220.92C207.58 221.053 207.66 221.2 207.74 221.36C207.82 221.493 207.887 221.627 207.94 221.76C208.1 222.107 208.167 222.44 208.14 222.76C208.14 222.813 208.154 222.867 208.18 222.92C208.207 222.973 208.234 223.027 208.26 223.08C208.5 223.133 208.727 223.187 208.94 223.24C209.18 223.293 209.407 223.36 209.62 223.44C209.807 223.493 209.994 223.533 210.18 223.56C210.367 223.587 210.554 223.56 210.74 223.48H210.86C211.074 223.533 211.274 223.547 211.46 223.52C211.674 223.467 211.9 223.413 212.14 223.36C212.327 223.227 212.514 223.08 212.7 222.92C212.914 222.76 213.127 222.627 213.34 222.52C213.527 222.147 213.754 221.813 214.02 221.52C214.287 221.227 214.474 220.893 214.58 220.52ZM240.433 215.28C240.486 215.44 240.5 215.6 240.473 215.76C240.473 215.92 240.446 216.067 240.393 216.2C240.34 216.387 240.3 216.587 240.273 216.8C240.273 216.987 240.273 217.187 240.273 217.4C240.273 217.667 240.26 217.933 240.233 218.2C240.233 218.44 240.233 218.693 240.233 218.96C240.233 219.147 240.233 219.347 240.233 219.56C240.233 219.773 240.206 220 240.153 220.24C240.046 220.667 239.926 221.107 239.793 221.56C239.66 222.013 239.553 222.48 239.473 222.96C239.446 223.013 239.42 223.093 239.393 223.2C239.393 223.28 239.366 223.373 239.313 223.48C239.073 223.987 238.833 224.547 238.593 225.16C238.486 225.293 238.366 225.44 238.233 225.6C238.126 225.76 238.006 225.907 237.873 226.04C237.766 226.12 237.646 226.187 237.513 226.24C237.406 226.293 237.3 226.347 237.193 226.4C237.14 226.4 237.1 226.453 237.073 226.56C237.126 226.613 237.166 226.68 237.193 226.76C237.246 226.84 237.286 226.907 237.313 226.96C237.1 227.28 236.78 227.587 236.353 227.88C236.246 227.907 236.113 227.947 235.953 228C235.82 228.027 235.673 228.053 235.513 228.08C235.246 228.24 234.94 228.453 234.593 228.72C234.566 228.773 234.526 228.853 234.473 228.96C234.42 229.04 234.366 229.107 234.313 229.16C234.126 229.267 233.94 229.307 233.753 229.28C233.593 229.253 233.406 229.227 233.193 229.2C233.113 229.227 233.033 229.267 232.953 229.32C232.9 229.347 232.833 229.387 232.753 229.44C232.7 229.467 232.633 229.52 232.553 229.6C232.5 229.653 232.446 229.693 232.393 229.72C232.073 229.853 231.753 229.893 231.433 229.84C231.113 229.787 230.793 229.8 230.473 229.88C230.34 229.8 230.193 229.733 230.033 229.68C229.9 229.627 229.766 229.573 229.633 229.52C229.633 229.467 229.633 229.413 229.633 229.36C229.66 229.307 229.686 229.24 229.713 229.16C229.66 228.973 229.54 228.867 229.353 228.84C229.166 228.787 228.98 228.733 228.793 228.68C228.633 228.627 228.46 228.627 228.273 228.68C228.086 228.68 227.993 228.547 227.993 228.28C227.94 228.04 227.846 227.92 227.713 227.92H227.553C227.366 228 227.18 228.013 226.993 227.96C226.833 227.88 226.673 227.773 226.513 227.64C226.406 227.533 226.34 227.387 226.313 227.2C226.313 227.013 226.26 226.827 226.153 226.64C226.073 226.507 225.94 226.4 225.753 226.32C225.593 226.213 225.446 226.107 225.313 226C225.153 225.6 224.993 225.227 224.833 224.88C224.673 224.507 224.526 224.147 224.393 223.8C224.313 223.64 224.273 223.507 224.273 223.4C224.3 223.267 224.313 223.107 224.313 222.92L224.193 222.72C224.193 222.72 224.166 222.667 224.113 222.56C223.926 222.027 223.806 221.493 223.753 220.96C223.7 220.427 223.753 219.88 223.913 219.32C223.886 219.24 223.846 219.16 223.793 219.08C223.766 219 223.726 218.933 223.673 218.88C223.62 218.747 223.62 218.613 223.673 218.48C223.753 218.347 223.793 218.227 223.793 218.12C223.74 217.747 223.753 217.44 223.833 217.2C223.886 217.067 223.9 216.933 223.873 216.8C223.846 216.667 223.846 216.547 223.873 216.44C223.953 216.12 224.006 215.813 224.033 215.52C224.06 215.2 224.086 214.893 224.113 214.6C224.14 214.013 224.22 213.44 224.353 212.88C224.406 212.667 224.486 212.48 224.593 212.32C224.7 212.16 224.806 212 224.913 211.84C224.966 211.787 225.033 211.747 225.113 211.72C225.193 211.693 225.273 211.667 225.353 211.64C225.513 211.613 225.673 211.587 225.833 211.56C226.02 211.533 226.233 211.507 226.473 211.48C226.606 211.507 226.753 211.533 226.913 211.56C227.1 211.587 227.286 211.6 227.473 211.6C227.66 211.627 227.846 211.653 228.033 211.68C228.22 211.68 228.42 211.693 228.633 211.72C228.66 211.8 228.686 211.867 228.713 211.92C228.74 211.973 228.766 212.027 228.793 212.08C228.793 212.267 228.78 212.453 228.753 212.64C228.753 212.8 228.753 212.973 228.753 213.16C228.78 213.24 228.806 213.32 228.833 213.4C228.886 213.453 228.926 213.533 228.953 213.64C228.926 213.747 228.886 213.867 228.833 214C228.806 214.133 228.766 214.267 228.713 214.4C228.793 214.827 228.833 215.28 228.833 215.76C228.833 216.213 228.86 216.667 228.913 217.12C228.966 217.413 229.006 217.707 229.033 218C229.06 218.267 229.113 218.547 229.193 218.84C229.166 219.027 229.18 219.213 229.233 219.4C229.286 219.587 229.34 219.773 229.393 219.96C229.473 220.147 229.526 220.333 229.553 220.52C229.606 220.707 229.66 220.907 229.713 221.12C229.846 221.547 230.046 221.933 230.313 222.28C230.473 222.44 230.593 222.547 230.673 222.6C230.726 222.627 230.78 222.64 230.833 222.64C230.913 222.64 230.98 222.653 231.033 222.68C231.22 222.68 231.366 222.627 231.473 222.52C231.58 222.413 231.7 222.347 231.833 222.32C232.126 222.187 232.406 222.08 232.673 222C232.806 222.027 232.94 222.04 233.073 222.04H233.353L233.993 221.64C234.126 221.427 234.22 221.187 234.273 220.92C234.326 220.653 234.446 220.427 234.633 220.24C234.766 220.027 234.886 219.813 234.993 219.6C235.1 219.387 235.233 219.213 235.393 219.08C235.446 218.707 235.486 218.36 235.513 218.04C235.54 217.72 235.606 217.4 235.713 217.08C235.74 217 235.74 216.92 235.713 216.84C235.713 216.733 235.713 216.64 235.713 216.56C235.686 216.4 235.66 216.253 235.633 216.12C235.633 215.96 235.633 215.853 235.633 215.8C235.66 215.507 235.673 215.24 235.673 215C235.673 214.76 235.686 214.533 235.713 214.32C235.74 214.107 235.753 213.893 235.753 213.68C235.753 213.44 235.766 213.227 235.793 213.04C235.846 212.613 236.033 212.32 236.353 212.16C236.46 212.107 236.553 212.067 236.633 212.04C236.713 211.987 236.806 211.947 236.913 211.92C237.02 211.893 237.126 211.88 237.233 211.88C237.34 211.88 237.473 211.867 237.633 211.84C237.766 211.867 237.9 211.907 238.033 211.96C238.193 212.013 238.353 212.067 238.513 212.12C238.673 212.147 238.82 212.147 238.953 212.12C239.113 212.093 239.273 212.053 239.433 212C239.54 212.027 239.633 212.053 239.713 212.08C239.793 212.107 239.886 212.147 239.993 212.2C240.02 212.227 240.046 212.267 240.073 212.32C240.1 212.347 240.113 212.387 240.113 212.44C240.14 212.573 240.166 212.72 240.193 212.88C240.22 213.04 240.233 213.2 240.233 213.36C240.26 213.68 240.273 214 240.273 214.32C240.3 214.64 240.353 214.96 240.433 215.28ZM259.748 224.12C259.748 224.333 259.748 224.56 259.748 224.8C259.774 225.013 259.761 225.227 259.708 225.44C259.654 225.573 259.641 225.693 259.668 225.8C259.721 225.933 259.721 226.08 259.668 226.24C259.641 226.373 259.641 226.507 259.668 226.64C259.721 226.827 259.734 227.04 259.708 227.28C259.681 227.493 259.681 227.707 259.708 227.92C259.601 228.107 259.428 228.2 259.188 228.2C258.921 228.2 258.628 228.213 258.308 228.24C258.014 228.267 257.721 228.333 257.428 228.44C257.268 228.493 257.094 228.52 256.908 228.52C256.721 228.52 256.534 228.52 256.348 228.52C256.188 228.413 256.068 228.32 255.988 228.24C255.668 228.347 255.401 228.227 255.188 227.88C255.081 227.72 254.988 227.547 254.908 227.36C254.854 227.173 254.828 226.973 254.828 226.76C254.854 226.547 254.854 226.333 254.828 226.12C254.801 225.907 254.801 225.68 254.828 225.44C254.881 225.04 254.828 224.653 254.668 224.28C254.641 224.2 254.614 224.12 254.588 224.04C254.561 223.96 254.548 223.88 254.548 223.8C254.548 223.507 254.534 223.213 254.508 222.92C254.481 222.6 254.428 222.307 254.348 222.04C254.321 221.907 254.294 221.787 254.268 221.68C254.268 221.547 254.268 221.427 254.268 221.32C254.188 221 254.014 220.747 253.748 220.56C253.721 220.347 253.694 220.16 253.668 220C253.641 219.813 253.601 219.613 253.548 219.4C253.494 219.347 253.388 219.267 253.228 219.16C253.121 219.08 252.988 219.013 252.828 218.96C252.694 218.907 252.561 218.84 252.428 218.76C252.374 218.707 252.308 218.64 252.228 218.56C252.174 218.453 252.108 218.36 252.028 218.28H251.788C251.681 218.307 251.588 218.333 251.508 218.36C251.428 218.36 251.321 218.347 251.188 218.32C251.134 218.293 251.068 218.293 250.988 218.32C250.908 218.32 250.841 218.32 250.788 218.32C250.654 218.507 250.521 218.707 250.388 218.92C250.281 219 250.174 219.08 250.068 219.16C249.988 219.213 249.921 219.267 249.868 219.32C249.788 219.4 249.748 219.48 249.748 219.56L249.468 220.4C249.521 220.56 249.521 220.72 249.468 220.88C249.414 221.013 249.428 221.16 249.508 221.32C249.534 221.4 249.534 221.48 249.508 221.56C249.481 221.64 249.454 221.707 249.428 221.76C249.348 221.867 249.334 221.947 249.388 222C249.441 222.053 249.481 222.12 249.508 222.2C249.534 222.227 249.561 222.28 249.588 222.36C249.588 222.68 249.588 222.987 249.588 223.28C249.588 223.573 249.534 223.867 249.428 224.16C249.454 224.267 249.468 224.373 249.468 224.48C249.494 224.56 249.521 224.667 249.548 224.8C249.521 224.96 249.481 225.147 249.428 225.36C249.401 225.547 249.401 225.747 249.428 225.96C249.454 226.093 249.454 226.24 249.428 226.4C249.428 226.56 249.401 226.72 249.348 226.88C249.321 226.96 249.321 227.04 249.348 227.12C249.428 227.44 249.428 227.72 249.348 227.96C249.268 228.2 249.121 228.453 248.908 228.72C248.881 228.747 248.828 228.773 248.748 228.8C248.668 228.827 248.601 228.853 248.548 228.88C248.494 228.933 248.441 228.973 248.388 229C248.334 229 248.281 229.013 248.228 229.04C248.121 229.04 248.014 229.04 247.908 229.04C247.801 229.013 247.708 229 247.628 229C247.521 229.027 247.428 229.067 247.348 229.12C247.294 229.147 247.201 229.2 247.068 229.28C246.721 229.227 246.361 229.16 245.988 229.08C245.641 229 245.294 229.027 244.948 229.16C244.788 229.133 244.654 229.067 244.548 228.96C244.441 228.853 244.348 228.733 244.268 228.6C244.161 228.44 244.094 228.267 244.068 228.08C244.041 227.867 244.001 227.667 243.948 227.48C244.001 227.027 244.028 226.72 244.028 226.56C244.028 226.373 243.988 225.973 243.908 225.36C243.988 224.933 244.041 224.507 244.068 224.08C244.094 223.627 244.108 223.187 244.108 222.76C244.108 222.2 244.108 221.627 244.108 221.04C244.108 220.453 244.121 219.867 244.148 219.28C244.148 219.12 244.161 218.96 244.188 218.8C244.214 218.64 244.241 218.493 244.268 218.36C244.321 218.067 244.374 217.787 244.428 217.52C244.481 217.253 244.548 217 244.628 216.76C244.681 216.573 244.774 216.413 244.908 216.28C245.041 216.147 245.134 215.987 245.188 215.8C245.241 215.427 245.348 215.107 245.508 214.84C245.694 214.547 245.881 214.267 246.068 214C246.201 213.627 246.441 213.48 246.788 213.56C246.841 213.56 246.868 213.547 246.868 213.52C246.948 213.44 246.961 213.333 246.908 213.2C246.881 213.067 246.921 212.947 247.028 212.84C247.268 212.627 247.548 212.467 247.868 212.36C248.188 212.227 248.481 212.107 248.748 212C248.988 212 249.148 212.027 249.228 212.08C249.574 212.187 249.908 212.187 250.228 212.08C250.468 212.027 250.681 212.093 250.868 212.28C251.134 212.333 251.388 212.387 251.628 212.44C251.868 212.493 252.121 212.547 252.388 212.6C252.494 212.573 252.601 212.56 252.708 212.56C252.814 212.533 252.921 212.507 253.028 212.48C253.294 212.587 253.508 212.747 253.668 212.96C253.854 213.147 254.041 213.347 254.228 213.56C254.361 213.667 254.508 213.707 254.668 213.68C254.828 213.653 255.001 213.667 255.188 213.72C255.321 213.853 255.454 214 255.588 214.16C255.748 214.32 255.908 214.467 256.068 214.6C256.094 214.707 256.121 214.813 256.148 214.92C256.201 215 256.241 215.093 256.268 215.2C256.401 215.227 256.494 215.293 256.548 215.4C256.601 215.507 256.641 215.6 256.668 215.68C256.934 215.787 257.201 215.867 257.468 215.92C257.601 216.053 257.721 216.213 257.828 216.4C257.934 216.56 258.108 216.64 258.348 216.64C258.401 216.907 258.454 217.147 258.508 217.36C258.561 217.573 258.614 217.787 258.668 218C258.721 218.4 258.814 218.747 258.948 219.04C259.054 219.253 259.148 219.48 259.228 219.72C259.308 219.933 259.348 220.173 259.348 220.44C259.374 220.6 259.428 220.747 259.508 220.88C259.614 221.013 259.694 221.16 259.748 221.32C259.721 221.427 259.694 221.533 259.668 221.64C259.668 221.747 259.668 221.867 259.668 222C259.668 222.107 259.668 222.2 259.668 222.28C259.694 222.36 259.721 222.467 259.748 222.6C259.748 222.653 259.748 222.733 259.748 222.84C259.774 222.92 259.774 222.987 259.748 223.04C259.694 223.227 259.681 223.413 259.708 223.6C259.734 223.787 259.748 223.96 259.748 224.12ZM279.883 212.12C279.75 212.6 279.67 213.093 279.643 213.6C279.617 214.08 279.59 214.56 279.563 215.04C279.537 215.52 279.523 216.013 279.523 216.52C279.523 217 279.523 217.48 279.523 217.96C279.523 218.36 279.497 218.76 279.443 219.16C279.39 219.56 279.35 219.973 279.323 220.4C279.323 220.507 279.31 220.627 279.283 220.76C279.283 220.893 279.283 221.027 279.283 221.16C279.283 221.533 279.23 221.88 279.123 222.2C279.043 222.547 279.003 222.893 279.003 223.24C279.003 223.427 278.99 223.627 278.963 223.84C278.937 224.053 278.883 224.267 278.803 224.48C278.777 224.613 278.763 224.813 278.763 225.08C278.737 225.293 278.683 225.507 278.603 225.72C278.55 225.907 278.497 226.093 278.443 226.28C278.39 226.44 278.337 226.627 278.283 226.84C278.177 227 278.07 227.173 277.963 227.36C277.883 227.52 277.79 227.68 277.683 227.84C277.443 227.973 277.243 228.147 277.083 228.36C276.817 228.573 276.55 228.8 276.283 229.04C276.043 229.28 275.803 229.507 275.563 229.72C275.243 229.987 274.923 230.12 274.603 230.12C274.577 230.12 274.537 230.133 274.483 230.16C274.457 230.187 274.417 230.2 274.363 230.2C273.857 230.253 273.443 230.413 273.123 230.68C273.097 230.707 273.057 230.72 273.003 230.72C272.977 230.747 272.937 230.787 272.883 230.84C272.537 230.893 272.177 230.867 271.803 230.76C271.457 230.653 271.137 230.52 270.843 230.36H270.203C270.097 230.36 269.99 230.347 269.883 230.32C269.777 230.32 269.657 230.307 269.523 230.28C268.803 230.12 268.11 229.813 267.443 229.36C267.363 229.28 267.27 229.227 267.163 229.2C267.057 229.173 266.937 229.147 266.803 229.12C266.643 229.093 266.483 229.053 266.323 229C266.163 228.947 266.003 228.893 265.843 228.84C265.71 228.76 265.603 228.653 265.523 228.52C265.443 228.36 265.363 228.227 265.283 228.12C265.15 227.853 265.03 227.613 264.923 227.4C264.817 227.16 264.697 226.907 264.563 226.64C264.457 226.427 264.337 226.213 264.203 226C264.07 225.76 263.937 225.547 263.803 225.36C263.803 225.333 263.817 225.32 263.843 225.32C263.87 225.32 263.883 225.307 263.883 225.28L263.803 225.2C263.803 225.227 263.79 225.253 263.763 225.28C263.763 225.28 263.763 225.293 263.763 225.32C263.737 225.293 263.697 225.28 263.643 225.28C263.617 225.253 263.59 225.227 263.563 225.2C263.457 225.147 263.377 225.067 263.323 224.96C263.27 224.827 263.217 224.707 263.163 224.6C263.243 224.44 263.283 224.227 263.283 223.96C263.337 223.613 263.323 223.307 263.243 223.04C263.137 222.64 263.083 222.24 263.083 221.84C263.11 221.44 263.137 221.027 263.163 220.6C263.163 220.467 263.217 220.293 263.323 220.08C263.51 219.627 263.617 219.227 263.643 218.88C263.91 218.507 264.123 218.107 264.283 217.68C264.443 217.253 264.63 216.853 264.843 216.48C264.977 216.427 265.083 216.373 265.163 216.32C265.27 216.267 265.377 216.227 265.483 216.2C265.537 216.147 265.577 216.08 265.603 216C265.63 215.92 265.683 215.853 265.763 215.8C265.843 215.747 265.937 215.707 266.043 215.68C266.15 215.627 266.27 215.587 266.403 215.56C266.457 215.48 266.497 215.4 266.523 215.32C266.577 215.24 266.63 215.16 266.683 215.08C266.763 215 266.817 214.96 266.843 214.96C267.457 214.747 268.097 214.587 268.763 214.48C268.87 214.453 268.977 214.44 269.083 214.44C269.217 214.413 269.337 214.387 269.443 214.36C269.79 214.253 270.137 214.213 270.483 214.24C270.83 214.267 271.177 214.267 271.523 214.24C271.603 214.24 271.683 214.253 271.763 214.28C271.87 214.307 271.963 214.333 272.043 214.36C272.123 214.36 272.23 214.387 272.363 214.44C272.497 214.493 272.577 214.493 272.603 214.44C272.87 214.387 273.057 214.413 273.163 214.52C273.297 214.627 273.363 214.68 273.363 214.68C273.417 214.707 273.523 214.72 273.683 214.72C273.87 214.693 273.977 214.68 274.003 214.68C274.243 214.627 274.377 214.52 274.403 214.36C274.457 214.173 274.457 214.08 274.403 214.08L274.323 214C274.35 213.653 274.337 213.307 274.283 212.96C274.257 212.613 274.257 212.267 274.283 211.92C274.31 211.787 274.323 211.653 274.323 211.52C274.323 211.36 274.323 211.213 274.323 211.08C274.297 210.947 274.297 210.827 274.323 210.72C274.35 210.587 274.363 210.453 274.363 210.32C274.363 210.187 274.363 210.067 274.363 209.96C274.39 209.827 274.377 209.72 274.323 209.64C274.243 209.427 274.203 209.213 274.203 209C274.23 208.787 274.27 208.573 274.323 208.36C274.403 208.067 274.457 207.773 274.483 207.48C274.537 207.187 274.537 206.867 274.483 206.52V206.32C274.59 206.053 274.643 205.787 274.643 205.52C274.67 205.253 274.697 205.013 274.723 204.8C274.857 204.613 275.017 204.493 275.203 204.44C275.417 204.36 275.577 204.267 275.683 204.16C276.11 204.133 276.51 204.133 276.883 204.16C277.257 204.187 277.63 204.147 278.003 204.04C278.19 204.12 278.363 204.187 278.523 204.24C278.71 204.267 278.87 204.293 279.003 204.32C279.297 204.533 279.443 204.813 279.443 205.16C279.443 205.293 279.443 205.44 279.443 205.6C279.443 205.76 279.43 205.92 279.403 206.08C279.43 206.187 279.47 206.28 279.523 206.36C279.577 206.44 279.617 206.547 279.643 206.68C279.617 206.733 279.59 206.813 279.563 206.92C279.563 207 279.55 207.093 279.523 207.2C279.55 207.307 279.577 207.44 279.603 207.6C279.63 207.76 279.657 207.907 279.683 208.04C279.683 208.467 279.683 208.88 279.683 209.28C279.71 209.68 279.71 210.08 279.683 210.48C279.683 210.907 279.683 211.187 279.683 211.32C279.71 211.453 279.777 211.72 279.883 212.12ZM274.043 222.2C273.963 221.987 273.897 221.787 273.843 221.6C273.817 221.387 273.777 221.2 273.723 221.04C273.643 220.853 273.537 220.68 273.403 220.52C273.297 220.36 273.203 220.187 273.123 220C272.857 219.867 272.657 219.733 272.523 219.6C272.39 219.547 272.257 219.507 272.123 219.48C272.017 219.453 271.897 219.427 271.763 219.4C271.657 219.347 271.55 219.307 271.443 219.28C271.363 219.227 271.27 219.187 271.163 219.16C270.977 219.24 270.79 219.32 270.603 219.4C270.443 219.48 270.283 219.56 270.123 219.64C269.697 219.827 269.403 220.173 269.243 220.68C269.217 220.787 269.203 220.893 269.203 221C269.203 221.107 269.19 221.227 269.163 221.36C269.137 221.44 269.083 221.52 269.003 221.6C268.95 221.68 268.897 221.787 268.843 221.92V222.64C268.897 222.987 268.99 223.32 269.123 223.64C269.283 223.933 269.537 224.187 269.883 224.4C269.963 224.427 270.03 224.48 270.083 224.56C270.163 224.613 270.257 224.667 270.363 224.72C270.523 224.88 270.683 224.96 270.843 224.96C271.27 224.907 271.683 224.867 272.083 224.84C272.483 224.787 272.87 224.68 273.243 224.52C273.403 224.387 273.523 224.253 273.603 224.12C273.683 224.013 273.75 223.92 273.803 223.84C273.857 223.733 273.923 223.627 274.003 223.52V222.84C274.003 222.707 274.003 222.587 274.003 222.48C274.003 222.373 274.017 222.28 274.043 222.2Z" fill="#C9C8C8"/>
</svg>
