<svg width="19" height="19" viewBox="0 0 19 19" fill="none" xmlns="http://www.w3.org/2000/svg">
<path d="M5.54159 11.0834C5.54159 10.6462 5.89603 10.2917 6.33325 10.2917C6.77048 10.2917 7.12492 10.6462 7.12492 11.0834C7.12492 11.5206 6.77048 11.8751 6.33325 11.8751C5.89603 11.8751 5.54159 11.5206 5.54159 11.0834Z" fill="white"/>
<path d="M6.33325 13.4584C5.89603 13.4584 5.54159 13.8129 5.54159 14.2501C5.54159 14.6873 5.89603 15.0417 6.33325 15.0417C6.77048 15.0417 7.12492 14.6873 7.12492 14.2501C7.12492 13.8129 6.77048 13.4584 6.33325 13.4584Z" fill="white"/>
<path d="M8.70825 11.0834C8.70825 10.6462 9.06269 10.2917 9.49992 10.2917C9.93714 10.2917 10.2916 10.6462 10.2916 11.0834C10.2916 11.5206 9.93714 11.8751 9.49992 11.8751C9.06269 11.8751 8.70825 11.5206 8.70825 11.0834Z" fill="white"/>
<path d="M9.49992 13.4584C9.06269 13.4584 8.70825 13.8129 8.70825 14.2501C8.70825 14.6873 9.06269 15.0417 9.49992 15.0417C9.93714 15.0417 10.2916 14.6873 10.2916 14.2501C10.2916 13.8129 9.93714 13.4584 9.49992 13.4584Z" fill="white"/>
<path d="M11.8749 11.0834C11.8749 10.6462 12.2294 10.2917 12.6666 10.2917C13.1038 10.2917 13.4583 10.6462 13.4583 11.0834C13.4583 11.5206 13.1038 11.8751 12.6666 11.8751C12.2294 11.8751 11.8749 11.5206 11.8749 11.0834Z" fill="white"/>
<path d="M12.6666 13.4584C12.2294 13.4584 11.8749 13.8129 11.8749 14.2501C11.8749 14.6873 12.2294 15.0417 12.6666 15.0417C13.1038 15.0417 13.4583 14.6873 13.4583 14.2501C13.4583 13.8129 13.1038 13.4584 12.6666 13.4584Z" fill="white"/>
<path fill-rule="evenodd" clip-rule="evenodd" d="M4.74992 1.58341C4.74992 1.14619 5.10436 0.791748 5.54159 0.791748C5.97881 0.791748 6.33325 1.14619 6.33325 1.58341V2.37508H12.6666V1.58341C12.6666 1.14619 13.021 0.791748 13.4583 0.791748C13.8955 0.791748 14.2499 1.14619 14.2499 1.58341V2.37508H15.0416C16.3533 2.37508 17.4166 3.43841 17.4166 4.75008V15.8334C17.4166 17.1451 16.3533 18.2084 15.0416 18.2084H3.95825C2.64658 18.2084 1.58325 17.1451 1.58325 15.8334V4.75008C1.58325 3.4384 2.64658 2.37508 3.95825 2.37508H4.74992V1.58341ZM12.6666 3.95841V4.75008C12.6666 5.18731 13.021 5.54175 13.4583 5.54175C13.8955 5.54175 14.2499 5.18731 14.2499 4.75008V3.95841H15.0416C15.4788 3.95841 15.8333 4.31286 15.8333 4.75008V7.12508H3.16659V4.75008C3.16659 4.31286 3.52103 3.95841 3.95825 3.95841H4.74992V4.75008C4.74992 5.18731 5.10436 5.54175 5.54159 5.54175C5.97881 5.54175 6.33325 5.18731 6.33325 4.75008V3.95841H12.6666ZM3.16659 8.70841V15.8334C3.16659 16.2706 3.52103 16.6251 3.95825 16.6251H15.0416C15.4788 16.6251 15.8333 16.2706 15.8333 15.8334V8.70841H3.16659Z" fill="white"/>
</svg>
