<svg width="25" height="25" viewBox="0 0 25 25" fill="none" xmlns="http://www.w3.org/2000/svg">
<path fill-rule="evenodd" clip-rule="evenodd" d="M12.5 3.12484C8.1783 3.12484 4.16671 5.97271 4.16671 10.4165C4.16671 12.0523 4.57131 13.2591 5.29433 14.2242C6.03132 15.2079 7.16406 16.0272 8.76699 16.761L9.61733 17.1504L9.32159 18.0376C8.89722 19.3107 8.17709 20.4801 7.44958 21.4419C9.96324 20.6523 13.2466 19.4307 15.5681 17.8831C17.8699 16.3485 19.1634 15.1408 19.8949 14.0155C20.5998 12.931 20.8334 11.8446 20.8334 10.4165C20.8334 5.97271 16.8218 3.12484 12.5 3.12484ZM2.08337 10.4165C2.08337 4.44363 7.44678 1.0415 12.5 1.0415C17.5533 1.0415 22.9167 4.44363 22.9167 10.4165C22.9167 12.1134 22.6294 13.6312 21.6417 15.1509C20.6804 16.6297 19.1093 18.0261 16.7237 19.6166C13.6231 21.6836 9.13118 23.149 6.56016 23.8833C5.7153 24.1245 5.04228 23.6288 4.75257 23.1124C4.46721 22.6038 4.39678 21.818 4.94185 21.2096C5.67128 20.3955 6.47091 19.347 7.00646 18.2156C5.62539 17.4833 4.47219 16.6015 3.62701 15.4733C2.59155 14.0912 2.08337 12.4265 2.08337 10.4165Z" fill="#656565"/>
</svg>
