<svg width="24" height="24" viewBox="0 0 24 24" fill="none" xmlns="http://www.w3.org/2000/svg">
<path d="M6.99477 7.00627C6.60424 7.3968 6.60424 8.02996 6.99477 8.42049L10.5799 12.0056L6.99476 15.5908C6.60424 15.9813 6.60424 16.6145 6.99477 17.005C7.38529 17.3955 8.01846 17.3955 8.40898 17.005L11.9941 13.4199L15.5793 17.005C15.9698 17.3955 16.603 17.3955 16.9935 17.005C17.384 16.6145 17.384 15.9813 16.9935 15.5908L13.4083 12.0056L16.9935 8.4205C17.384 8.02998 17.384 7.39681 16.9935 7.00629C16.603 6.61576 15.9698 6.61576 15.5793 7.00629L11.9941 10.5914L8.40898 7.00627C8.01846 6.61575 7.38529 6.61575 6.99477 7.00627Z" fill="white"/>
</svg>
