<svg width="77" height="14" viewBox="0 0 77 14" fill="none" xmlns="http://www.w3.org/2000/svg">
<path d="M8.84 3.38C8.76 3.44667 8.66667 3.48 8.56 3.48C8.45333 3.48 8.34667 3.48 8.24 3.48C8.14667 3.48 8.06667 3.5 8 3.54L7.66 3.48C7.60667 3.49333 7.56 3.50667 7.52 3.52C7.48 3.52 7.42667 3.52667 7.36 3.54C7.32 3.54 7.24667 3.52667 7.14 3.5C6.98 3.47333 6.84 3.48 6.72 3.52C6.56 3.57333 6.38 3.59333 6.18 3.58C6.06 3.55333 5.93333 3.56 5.8 3.6C5.68 3.62667 5.56667 3.65333 5.46 3.68C5.40667 3.66667 5.35333 3.66 5.3 3.66C5.26 3.64667 5.22667 3.63333 5.2 3.62C5.12 3.63333 5.04 3.66 4.96 3.7C4.89333 3.74 4.82 3.78667 4.74 3.84C4.7 3.89333 4.66 3.96 4.62 4.04C4.59333 4.10667 4.55333 4.17333 4.5 4.24C4.48667 4.4 4.48 4.56667 4.48 4.74C4.48 4.9 4.47333 5.05333 4.46 5.2C4.44667 5.30667 4.40667 5.39333 4.34 5.46C4.28667 5.51333 4.26 5.58 4.26 5.66C4.3 5.76667 4.37333 5.82667 4.48 5.84C4.56 5.86667 4.64667 5.88667 4.74 5.9C4.83333 5.9 4.92667 5.90667 5.02 5.92C5.12667 5.88 5.23333 5.84 5.34 5.8C5.44667 5.76 5.54667 5.72 5.64 5.68C5.78667 5.68 5.91333 5.68 6.02 5.68C6.12667 5.68 6.23333 5.67333 6.34 5.66C6.38 5.66 6.42 5.66 6.46 5.66C6.5 5.64667 6.54 5.63333 6.58 5.62C6.76667 5.54 6.95333 5.5 7.14 5.5C7.32667 5.5 7.51333 5.51333 7.7 5.54C7.83333 5.58 7.92 5.68 7.96 5.84C7.96 5.86667 7.96 5.9 7.96 5.94C7.97333 5.96667 7.98667 6 8 6.04C7.98667 6.08 7.97333 6.12667 7.96 6.18C7.94667 6.23333 7.94 6.29333 7.94 6.36C7.95333 6.57333 7.94667 6.78667 7.92 7C7.90667 7.21333 7.90667 7.43333 7.92 7.66C7.93333 7.75333 7.92 7.84667 7.88 7.94C7.85333 8.03333 7.82 8.11333 7.78 8.18L7.72 8.22C7.64 8.23333 7.56667 8.23333 7.5 8.22C7.44667 8.19333 7.38667 8.18 7.32 8.18C7.24 8.18 7.17333 8.2 7.12 8.24C7.06667 8.28 7.00667 8.31333 6.94 8.34C6.84667 8.35333 6.74667 8.36 6.64 8.36C6.54667 8.36 6.44667 8.35333 6.34 8.34C6.28667 8.31333 6.22667 8.31333 6.16 8.34C6.10667 8.36667 6.05333 8.39333 6 8.42C5.88 8.40667 5.76 8.39333 5.64 8.38C5.53333 8.35333 5.42667 8.31333 5.32 8.26C5.24 8.26 5.16 8.26 5.08 8.26C5 8.26 4.91333 8.26667 4.82 8.28C4.64667 8.29333 4.46667 8.29333 4.28 8.28C4.13333 8.25333 4 8.29333 3.88 8.4C3.85333 8.41333 3.82667 8.45333 3.8 8.52C3.77333 8.57333 3.76667 8.62 3.78 8.66C3.83333 8.76667 3.86 8.88 3.86 9C3.87333 9.12 3.88 9.23333 3.88 9.34C3.89333 9.38 3.90667 9.41333 3.92 9.44C3.93333 9.46667 3.94667 9.49333 3.96 9.52C3.94667 9.54667 3.92667 9.57333 3.9 9.6C3.88667 9.62667 3.87333 9.65333 3.86 9.68C3.80667 9.81333 3.84 9.89333 3.96 9.92C4.12 9.96 4.28 10 4.44 10.04C4.61333 10.08 4.78667 10.1133 4.96 10.14C5 10.1267 5.04667 10.1133 5.1 10.1C5.15333 10.0867 5.2 10.08 5.24 10.08C5.42667 10.08 5.61333 10.0667 5.8 10.04C6 10 6.19333 9.98 6.38 9.98C6.42 9.98 6.46667 9.98 6.52 9.98C6.57333 9.96667 6.62667 9.96667 6.68 9.98C6.78667 10.02 6.9 10.0467 7.02 10.06C7.14 10.0733 7.26 10.08 7.38 10.08C7.46 10.08 7.53333 10.0867 7.6 10.1C7.68 10.1 7.76 10.1067 7.84 10.12C7.94667 10.1467 8 10.2 8 10.28C7.98667 10.3467 7.96 10.42 7.92 10.5C7.89333 10.5667 7.86667 10.6267 7.84 10.68C7.82667 10.7733 7.84 10.8467 7.88 10.9C7.92 10.9533 7.94667 11.0067 7.96 11.06C7.94667 11.1933 7.92667 11.32 7.9 11.44C7.88667 11.56 7.84667 11.6667 7.78 11.76C7.78 11.84 7.8 11.9 7.84 11.94C7.88 11.98 7.90667 12.0267 7.92 12.08C7.89333 12.1067 7.86667 12.1467 7.84 12.2C7.82667 12.24 7.80667 12.2867 7.78 12.34C7.80667 12.4467 7.82667 12.56 7.84 12.68C7.86667 12.8 7.84 12.9133 7.76 13.02C7.72 13.0333 7.67333 13.0533 7.62 13.08C7.58 13.12 7.53333 13.1333 7.48 13.12C7.34667 13.0933 7.21333 13.0933 7.08 13.12C6.96 13.1467 6.84 13.1667 6.72 13.18C6.62667 13.1933 6.54 13.22 6.46 13.26C6.38 13.3 6.3 13.3333 6.22 13.36C6.08667 13.3867 5.95333 13.4067 5.82 13.42C5.68667 13.4333 5.54667 13.4533 5.4 13.48L5.12 13.42C5 13.4333 4.86 13.4533 4.7 13.48L4.16 13.36C4.10667 13.32 4.05333 13.2733 4 13.22C3.96 13.18 3.90667 13.1467 3.84 13.12C3.82667 13.1067 3.8 13.1 3.76 13.1C3.73333 13.1133 3.72 13.1267 3.72 13.14C3.72 13.2733 3.64667 13.36 3.5 13.4C3.43333 13.3733 3.36 13.3533 3.28 13.34C3.2 13.3267 3.12667 13.3133 3.06 13.3C2.99333 13.2867 2.92 13.28 2.84 13.28C2.76 13.2933 2.68667 13.3 2.62 13.3C2.46 13.3 2.3 13.28 2.14 13.24C1.99333 13.2 1.84 13.1133 1.68 12.98C1.66667 12.94 1.64667 12.9 1.62 12.86C1.59333 12.82 1.56667 12.7733 1.54 12.72C1.48667 12.6933 1.43333 12.66 1.38 12.62C1.34 12.58 1.29333 12.5467 1.24 12.52L1.02 12.4C0.966667 12.32 0.94 12.2467 0.94 12.18C0.94 12.1 0.933333 12.0267 0.92 11.96C0.906667 11.8933 0.893333 11.8267 0.88 11.76C0.88 11.68 0.873333 11.6 0.86 11.52C0.886667 11.36 0.9 11.2 0.9 11.04C0.913333 10.88 0.913333 10.7133 0.9 10.54C0.886667 10.3933 0.886667 10.2467 0.9 10.1C0.926667 9.94 0.966667 9.78667 1.02 9.64C1.00667 9.58667 0.986667 9.54 0.96 9.5C0.946667 9.46 0.94 9.41333 0.94 9.36C0.94 9.29333 0.953333 9.22667 0.98 9.16C1.00667 9.09333 1.00667 9.02667 0.98 8.96C0.98 8.93333 0.986667 8.91333 1 8.9C1.02667 8.88667 1.04667 8.87333 1.06 8.86C1.1 8.76667 1.08667 8.71333 1.02 8.7C0.886667 8.66 0.82 8.59333 0.82 8.5C0.846667 8.42 0.853333 8.34 0.84 8.26C0.826667 8.18 0.82 8.09333 0.82 8C0.82 7.93333 0.826667 7.86667 0.84 7.8C0.853333 7.73333 0.846667 7.66667 0.82 7.6C0.82 7.58667 0.813333 7.56667 0.8 7.54C0.8 7.51333 0.806667 7.49333 0.82 7.48C0.886667 7.33333 0.906667 7.19333 0.88 7.06C0.866667 6.92667 0.84 6.79333 0.8 6.66C0.853333 6.54 0.886667 6.42667 0.9 6.32C0.913333 6.2 0.92 6.08 0.92 5.96V5.42C0.933333 5.38 0.94 5.34 0.94 5.3C0.94 5.24667 0.946667 5.20667 0.96 5.18C1.06667 4.88667 1.06 4.58 0.94 4.26C0.926667 4.23333 0.92 4.19333 0.92 4.14C0.946667 4.06 0.973333 3.98667 1 3.92C1.04 3.84 1.06667 3.76 1.08 3.68C1.10667 3.57333 1.13333 3.46 1.16 3.34C1.2 3.22 1.22667 3.10667 1.24 3V2.86C1.22667 2.79333 1.22 2.72667 1.22 2.66C1.23333 2.58 1.23333 2.50667 1.22 2.44C1.20667 2.37333 1.2 2.30667 1.2 2.24C1.21333 2.17333 1.22 2.11333 1.22 2.06C1.22 2.00667 1.21333 1.96667 1.2 1.94C1.2 1.9 1.19333 1.86 1.18 1.82C1.20667 1.72667 1.26 1.65333 1.34 1.6C1.42 1.54667 1.46667 1.48 1.48 1.4C1.64 1.29333 1.8 1.22667 1.96 1.2C2.13333 1.16 2.29333 1.1 2.44 1.02C2.58667 0.94 2.74 0.893333 2.9 0.88C3.06 0.866666 3.21333 0.833333 3.36 0.78C3.45333 0.806666 3.54 0.833333 3.62 0.859999C3.71333 0.886666 3.80667 0.913333 3.9 0.939999C3.95333 0.939999 4.00667 0.939999 4.06 0.939999C4.12667 0.926666 4.18667 0.913333 4.24 0.9C4.33333 0.913333 4.42 0.933333 4.5 0.959999C4.58 0.986666 4.66667 0.993333 4.76 0.98C4.90667 0.94 5.04667 0.94 5.18 0.98C5.24667 0.98 5.30667 0.986666 5.36 1C5.41333 1 5.46667 1.00667 5.52 1.02C5.72 0.873333 5.93333 0.833333 6.16 0.9C6.26667 0.939999 6.37333 0.953332 6.48 0.939999C6.58667 0.926666 6.69333 0.94 6.8 0.98C6.90667 1.00667 7.00667 1.02 7.1 1.02C7.20667 1.00667 7.30667 1 7.4 1C7.52 0.973332 7.64 0.973332 7.76 1C7.86667 1.02667 7.98 1.04667 8.1 1.06C8.23333 1.07333 8.35333 1.08 8.46 1.08C8.52667 1.08 8.62 1.12667 8.74 1.22C8.92667 1.95333 8.96 2.67333 8.84 3.38ZM18.9066 4.06C18.8399 4.3 18.7999 4.54667 18.7866 4.8C18.7732 5.04 18.7599 5.28 18.7466 5.52C18.7332 5.76 18.7266 6.00667 18.7266 6.26C18.7266 6.5 18.7266 6.74 18.7266 6.98C18.7266 7.18 18.7132 7.38 18.6866 7.58C18.6599 7.78 18.6399 7.98667 18.6266 8.2C18.6266 8.25333 18.6199 8.31333 18.6066 8.38C18.6066 8.44667 18.6066 8.51333 18.6066 8.58C18.6066 8.76667 18.5799 8.94 18.5266 9.1C18.4866 9.27333 18.4666 9.44667 18.4666 9.62C18.4666 9.71333 18.4599 9.81333 18.4466 9.92C18.4332 10.0267 18.4066 10.1333 18.3666 10.24C18.3532 10.3067 18.3466 10.4067 18.3466 10.54C18.3332 10.6467 18.3066 10.7533 18.2666 10.86C18.2399 10.9533 18.2132 11.0467 18.1866 11.14C18.1599 11.22 18.1332 11.3133 18.1066 11.42C18.0532 11.5 17.9999 11.5867 17.9466 11.68C17.9066 11.76 17.8599 11.84 17.8066 11.92C17.6866 11.9867 17.5866 12.0733 17.5066 12.18C17.3732 12.2867 17.2399 12.4 17.1066 12.52C16.9866 12.64 16.8666 12.7533 16.7466 12.86C16.5866 12.9933 16.4266 13.06 16.2666 13.06C16.2532 13.06 16.2332 13.0667 16.2066 13.08C16.1932 13.0933 16.1732 13.1 16.1466 13.1C15.8932 13.1267 15.6866 13.2067 15.5266 13.34C15.5132 13.3533 15.4932 13.36 15.4666 13.36C15.4532 13.3733 15.4332 13.3933 15.4066 13.42C15.2332 13.4467 15.0532 13.4333 14.8666 13.38C14.6932 13.3267 14.5332 13.26 14.3866 13.18H14.0666C14.0132 13.18 13.9599 13.1733 13.9066 13.16C13.8532 13.16 13.7932 13.1533 13.7266 13.14C13.3666 13.06 13.0199 12.9067 12.6866 12.68C12.6466 12.64 12.5999 12.6133 12.5466 12.6C12.4932 12.5867 12.4332 12.5733 12.3666 12.56C12.2866 12.5467 12.2066 12.5267 12.1266 12.5C12.0466 12.4733 11.9666 12.4467 11.8866 12.42C11.8199 12.38 11.7666 12.3267 11.7266 12.26C11.6866 12.18 11.6466 12.1133 11.6066 12.06C11.5399 11.9267 11.4799 11.8067 11.4266 11.7C11.3732 11.58 11.3132 11.4533 11.2466 11.32C11.1932 11.2133 11.1332 11.1067 11.0666 11C10.9999 10.88 10.9332 10.7733 10.8666 10.68C10.8666 10.6667 10.8732 10.66 10.8866 10.66C10.8999 10.66 10.9066 10.6533 10.9066 10.64L10.8666 10.6C10.8666 10.6133 10.8599 10.6267 10.8466 10.64C10.8466 10.64 10.8466 10.6467 10.8466 10.66C10.8332 10.6467 10.8132 10.64 10.7866 10.64C10.7732 10.6267 10.7599 10.6133 10.7466 10.6C10.6932 10.5733 10.6532 10.5333 10.6266 10.48C10.5999 10.4133 10.5732 10.3533 10.5466 10.3C10.5866 10.22 10.6066 10.1133 10.6066 9.98C10.6332 9.80667 10.6266 9.65333 10.5866 9.52C10.5332 9.32 10.5066 9.12 10.5066 8.92C10.5199 8.72 10.5332 8.51333 10.5466 8.3C10.5466 8.23333 10.5732 8.14667 10.6266 8.04C10.7199 7.81333 10.7732 7.61333 10.7866 7.44C10.9199 7.25333 11.0266 7.05333 11.1066 6.84C11.1866 6.62667 11.2799 6.42667 11.3866 6.24C11.4532 6.21333 11.5066 6.18667 11.5466 6.16C11.5999 6.13333 11.6532 6.11333 11.7066 6.1C11.7332 6.07333 11.7532 6.04 11.7666 6C11.7799 5.96 11.8066 5.92667 11.8466 5.9C11.8866 5.87333 11.9332 5.85333 11.9866 5.84C12.0399 5.81333 12.0999 5.79333 12.1666 5.78C12.1932 5.74 12.2132 5.7 12.2266 5.66C12.2532 5.62 12.2799 5.58 12.3066 5.54C12.3466 5.5 12.3732 5.48 12.3866 5.48C12.6932 5.37333 13.0132 5.29333 13.3466 5.24C13.3999 5.22667 13.4532 5.22 13.5066 5.22C13.5732 5.20667 13.6332 5.19333 13.6866 5.18C13.8599 5.12667 14.0332 5.10667 14.2066 5.12C14.3799 5.13333 14.5532 5.13333 14.7266 5.12C14.7666 5.12 14.8066 5.12667 14.8466 5.14C14.8999 5.15333 14.9466 5.16667 14.9866 5.18C15.0266 5.18 15.0799 5.19333 15.1466 5.22C15.2132 5.24667 15.2532 5.24667 15.2666 5.22C15.3999 5.19333 15.4932 5.20667 15.5466 5.26C15.6132 5.31333 15.6466 5.34 15.6466 5.34C15.6732 5.35333 15.7266 5.36 15.8066 5.36C15.8999 5.34667 15.9532 5.34 15.9666 5.34C16.0866 5.31333 16.1532 5.26 16.1666 5.18C16.1932 5.08667 16.1932 5.04 16.1666 5.04L16.1266 5C16.1399 4.82667 16.1332 4.65333 16.1066 4.48C16.0932 4.30667 16.0932 4.13333 16.1066 3.96C16.1199 3.89333 16.1266 3.82667 16.1266 3.76C16.1266 3.68 16.1266 3.60667 16.1266 3.54C16.1132 3.47333 16.1132 3.41333 16.1266 3.36C16.1399 3.29333 16.1466 3.22667 16.1466 3.16C16.1466 3.09333 16.1466 3.03333 16.1466 2.98C16.1599 2.91333 16.1532 2.86 16.1266 2.82C16.0866 2.71333 16.0666 2.60667 16.0666 2.5C16.0799 2.39333 16.0999 2.28667 16.1266 2.18C16.1666 2.03333 16.1932 1.88667 16.2066 1.74C16.2332 1.59333 16.2332 1.43333 16.2066 1.26V1.16C16.2599 1.02667 16.2866 0.893332 16.2866 0.759999C16.2999 0.626666 16.3132 0.506666 16.3266 0.399999C16.3932 0.306666 16.4732 0.246666 16.5666 0.219999C16.6732 0.179999 16.7532 0.133333 16.8066 0.0799994C17.0199 0.0666663 17.2199 0.0666663 17.4066 0.0799994C17.5932 0.0933326 17.7799 0.0733325 17.9666 0.019999C18.0599 0.0599993 18.1466 0.0933326 18.2266 0.119999C18.3199 0.133333 18.3999 0.146666 18.4666 0.16C18.6132 0.266666 18.6866 0.406666 18.6866 0.579999C18.6866 0.646666 18.6866 0.719999 18.6866 0.8C18.6866 0.879999 18.6799 0.959999 18.6666 1.04C18.6799 1.09333 18.6999 1.14 18.7266 1.18C18.7532 1.22 18.7732 1.27333 18.7866 1.34C18.7732 1.36667 18.7599 1.40667 18.7466 1.46C18.7466 1.5 18.7399 1.54667 18.7266 1.6C18.7399 1.65333 18.7532 1.72 18.7666 1.8C18.7799 1.88 18.7932 1.95333 18.8066 2.02C18.8066 2.23333 18.8066 2.44 18.8066 2.64C18.8199 2.84 18.8199 3.04 18.8066 3.24C18.8066 3.45333 18.8066 3.59333 18.8066 3.66C18.8199 3.72667 18.8532 3.86 18.9066 4.06ZM15.9866 9.1C15.9466 8.99333 15.9132 8.89333 15.8866 8.8C15.8732 8.69333 15.8532 8.6 15.8266 8.52C15.7866 8.42667 15.7332 8.34 15.6666 8.26C15.6132 8.18 15.5666 8.09333 15.5266 8C15.3932 7.93333 15.2932 7.86667 15.2266 7.8C15.1599 7.77333 15.0932 7.75333 15.0266 7.74C14.9732 7.72667 14.9132 7.71333 14.8466 7.7C14.7932 7.67333 14.7399 7.65333 14.6866 7.64C14.6466 7.61333 14.5999 7.59333 14.5466 7.58C14.4532 7.62 14.3599 7.66 14.2666 7.7C14.1866 7.74 14.1066 7.78 14.0266 7.82C13.8132 7.91333 13.6666 8.08667 13.5866 8.34C13.5732 8.39333 13.5666 8.44667 13.5666 8.5C13.5666 8.55333 13.5599 8.61333 13.5466 8.68C13.5332 8.72 13.5066 8.76 13.4666 8.8C13.4399 8.84 13.4132 8.89333 13.3866 8.96V9.32C13.4132 9.49333 13.4599 9.66 13.5266 9.82C13.6066 9.96667 13.7332 10.0933 13.9066 10.2C13.9466 10.2133 13.9799 10.24 14.0066 10.28C14.0466 10.3067 14.0932 10.3333 14.1466 10.36C14.2266 10.44 14.3066 10.48 14.3866 10.48C14.5999 10.4533 14.8066 10.4333 15.0066 10.42C15.2066 10.3933 15.3999 10.34 15.5866 10.26C15.6666 10.1933 15.7266 10.1267 15.7666 10.06C15.8066 10.0067 15.8399 9.96 15.8666 9.92C15.8932 9.86667 15.9266 9.81333 15.9666 9.76V9.42C15.9666 9.35333 15.9666 9.29333 15.9666 9.24C15.9666 9.18667 15.9732 9.14 15.9866 9.1ZM24.0075 2.32C24.0475 2.41333 24.0608 2.51333 24.0475 2.62C24.0342 2.71333 24.0142 2.80667 23.9875 2.9C23.9742 2.98 23.9475 3.06 23.9075 3.14C23.8675 3.20667 23.8342 3.27333 23.8075 3.34C23.7542 3.42 23.6942 3.49333 23.6275 3.56C23.5742 3.62667 23.5208 3.69333 23.4675 3.76C23.4275 3.77333 23.3942 3.8 23.3675 3.84C23.3408 3.86667 23.3075 3.89333 23.2675 3.92C23.1742 3.98667 23.0275 4.05333 22.8275 4.12C22.6275 4.17333 22.4675 4.2 22.3475 4.2C22.2808 4.2 22.2275 4.18667 22.1875 4.16C22.1075 4.16 22.0275 4.16 21.9475 4.16C21.8675 4.14667 21.7942 4.14 21.7275 4.14C21.6875 4.11333 21.6408 4.08667 21.5875 4.06C21.5475 4.03333 21.5142 4.00667 21.4875 3.98C21.4208 3.95333 21.3475 3.94 21.2675 3.94C21.2008 3.94 21.1342 3.94 21.0675 3.94C21.0142 3.9 20.9475 3.86667 20.8675 3.84C20.8008 3.8 20.7342 3.76667 20.6675 3.74L20.5475 3.38C20.5608 3.27333 20.5742 3.16 20.5875 3.04C20.6008 2.90667 20.5875 2.77333 20.5475 2.64C20.5075 2.61333 20.5075 2.58 20.5475 2.54C20.5875 2.44667 20.5875 2.35333 20.5475 2.26C20.5075 2.16667 20.5075 2.07333 20.5475 1.98C20.5608 1.95333 20.5675 1.91333 20.5675 1.86C20.5275 1.78 20.5275 1.70667 20.5675 1.64C20.6075 1.56 20.6408 1.49333 20.6675 1.44C20.6542 1.4 20.6475 1.36 20.6475 1.32C20.6475 1.26667 20.6475 1.22667 20.6475 1.2C20.6608 1.18667 20.6675 1.17333 20.6675 1.16C20.6808 1.13333 20.7008 1.11333 20.7275 1.1C20.8342 1.07333 20.9208 1.02667 20.9875 0.959999C21.0675 0.879999 21.1542 0.819999 21.2475 0.78C21.3408 0.699999 21.4408 0.633332 21.5475 0.579999C21.6675 0.526666 21.7808 0.473333 21.8875 0.42C21.9942 0.42 22.0875 0.42 22.1675 0.42C22.2475 0.42 22.3275 0.433333 22.4075 0.459999C22.4475 0.473332 22.4942 0.479999 22.5475 0.479999C22.6008 0.479999 22.6542 0.479999 22.7075 0.479999C22.8942 0.453333 23.0408 0.526666 23.1475 0.7C23.1742 0.766666 23.2208 0.806666 23.2875 0.819999C23.3542 0.833333 23.4142 0.853333 23.4675 0.88C23.6008 1 23.6875 1.15333 23.7275 1.34C23.7542 1.42 23.7808 1.5 23.8075 1.58C23.8475 1.66 23.8742 1.74 23.8875 1.82C23.9142 1.9 23.9342 1.98667 23.9475 2.08C23.9742 2.16 23.9942 2.24 24.0075 2.32ZM23.8875 6.92C23.8608 7 23.8475 7.09333 23.8475 7.2C23.8475 7.29333 23.8475 7.39333 23.8475 7.5C23.8608 7.59333 23.8608 7.69333 23.8475 7.8C23.8342 7.89333 23.8275 7.98667 23.8275 8.08L23.6875 8.28C23.7542 8.34667 23.7942 8.42 23.8075 8.5C23.8208 8.58 23.8275 8.66667 23.8275 8.76C23.8275 8.85333 23.8275 8.95333 23.8275 9.06C23.8275 9.15333 23.8208 9.25333 23.8075 9.36C23.7942 9.45333 23.7675 9.55333 23.7275 9.66C23.6875 9.76667 23.6542 9.88 23.6275 10C23.6275 10.1333 23.6208 10.2933 23.6075 10.48C23.6075 10.6533 23.6142 10.8267 23.6275 11C23.6408 11.2533 23.6275 11.5133 23.5875 11.78C23.5475 12.0333 23.4675 12.2733 23.3475 12.5C23.3475 12.6067 23.3608 12.7133 23.3875 12.82C23.4142 12.9133 23.4408 13.0133 23.4675 13.12C23.4675 13.1333 23.4608 13.1467 23.4475 13.16C23.4342 13.1867 23.4275 13.2133 23.4275 13.24C23.3608 13.3333 23.2808 13.4133 23.1875 13.48C23.1742 13.48 23.1608 13.4867 23.1475 13.5H23.0675C22.9208 13.5 22.7675 13.5067 22.6075 13.52C22.4608 13.5467 22.2942 13.54 22.1075 13.5C22.0542 13.4733 21.9942 13.44 21.9275 13.4C21.8742 13.36 21.8142 13.3267 21.7475 13.3C21.6942 13.3 21.6275 13.2933 21.5475 13.28C21.4808 13.28 21.4142 13.2733 21.3475 13.26C21.2408 13.14 21.1342 13.0133 21.0275 12.88C20.9875 12.8533 20.9408 12.8333 20.8875 12.82C20.8342 12.8067 20.7808 12.7867 20.7275 12.76C20.6342 12.6933 20.6008 12.5867 20.6275 12.44C20.6542 12.2933 20.6875 12.1667 20.7275 12.06C20.7675 11.8867 20.7608 11.72 20.7075 11.56L20.6275 11.28C20.6275 11.1733 20.6208 11.0733 20.6075 10.98C20.5942 10.8867 20.5942 10.7933 20.6075 10.7C20.6208 10.5667 20.6208 10.44 20.6075 10.32C20.6075 10.2 20.6075 10.0733 20.6075 9.94C20.6208 9.75333 20.6275 9.57333 20.6275 9.4C20.6275 9.21333 20.6275 9.03333 20.6275 8.86C20.6275 8.79333 20.6342 8.75333 20.6475 8.74C20.7142 8.63333 20.7475 8.53333 20.7475 8.44C20.7475 8.33333 20.7475 8.22667 20.7475 8.12C20.7342 8.01333 20.7342 7.90667 20.7475 7.8C20.7742 7.68 20.7742 7.57333 20.7475 7.48C20.7475 7.36 20.7475 7.24667 20.7475 7.14C20.7475 7.02 20.7542 6.9 20.7675 6.78C20.7808 6.71333 20.7875 6.64667 20.7875 6.58C20.8008 6.5 20.7942 6.41333 20.7675 6.32C20.8875 6.26667 20.9875 6.22667 21.0675 6.2C21.1608 6.17333 21.2475 6.16 21.3275 6.16C21.3808 6.16 21.4342 6.16 21.4875 6.16C21.5542 6.16 21.6142 6.15333 21.6675 6.14C21.8008 6.11333 21.9142 6.08667 22.0075 6.06C22.0742 6.07333 22.1275 6.1 22.1675 6.14C22.2208 6.16667 22.2742 6.19333 22.3275 6.22C22.4208 6.22 22.5142 6.2 22.6075 6.16C22.7008 6.14667 22.7808 6.15333 22.8475 6.18C22.9275 6.20667 22.9875 6.27333 23.0275 6.38C23.0408 6.39333 23.0475 6.40667 23.0475 6.42C23.0608 6.43333 23.0742 6.44667 23.0875 6.46L23.2275 6.54C23.3208 6.55333 23.4008 6.54 23.4675 6.5C23.5342 6.44667 23.6008 6.41333 23.6675 6.4C23.7475 6.4 23.7942 6.43333 23.8075 6.5C23.8475 6.59333 23.8742 6.73333 23.8875 6.92ZM32.2828 11.56C32.2161 11.6933 32.1561 11.8267 32.1028 11.96C32.0495 12.0933 31.9895 12.2267 31.9228 12.36L31.5028 12.76C31.2495 13.04 30.9495 13.2067 30.6028 13.26C30.4295 13.2867 30.2495 13.2933 30.0628 13.28C29.8895 13.28 29.7095 13.2533 29.5228 13.2C29.4161 13.1733 29.3028 13.1333 29.1828 13.08C29.0761 13.04 28.9695 12.9933 28.8628 12.94C28.7828 12.9 28.6961 12.8733 28.6028 12.86C28.5095 12.8333 28.4095 12.8133 28.3028 12.8C28.2628 12.7733 28.2161 12.7467 28.1628 12.72C28.1095 12.68 28.0495 12.64 27.9828 12.6C27.8895 12.44 27.7761 12.2933 27.6428 12.16C27.5228 12.0267 27.4295 11.86 27.3628 11.66C27.3628 11.5 27.3561 11.3933 27.3428 11.34C27.3295 11.2733 27.2895 11.1467 27.2228 10.96V9.64C27.2228 9.53333 27.2161 9.43333 27.2028 9.34C27.2028 9.23333 27.1895 9.13333 27.1628 9.04C27.1495 8.94667 27.1428 8.86667 27.1428 8.8C27.1561 8.73333 27.1695 8.65333 27.1828 8.56C27.2228 8.4 27.2228 8.23333 27.1828 8.06C27.2228 7.9 27.2695 7.74 27.3228 7.58C27.3228 7.5 27.3028 7.38667 27.2628 7.24C27.2228 7.09333 27.1761 6.95333 27.1228 6.82C27.0561 6.82 26.9895 6.81333 26.9228 6.8C26.8561 6.78667 26.7828 6.77333 26.7028 6.76C26.6228 6.78667 26.5361 6.81333 26.4428 6.84C26.3628 6.86667 26.2695 6.89333 26.1628 6.92C26.1228 6.94667 26.0628 6.96 25.9828 6.96C25.9695 6.96 25.9428 6.94667 25.9028 6.92C25.8761 6.88 25.8628 6.85333 25.8628 6.84C25.8495 6.8 25.8428 6.76 25.8428 6.72C25.8428 6.68 25.8428 6.64 25.8428 6.6C25.8295 6.49333 25.8228 6.38 25.8228 6.26C25.8228 6.14 25.8228 6.02667 25.8228 5.92C25.8228 5.81333 25.8161 5.71333 25.8028 5.62C25.7895 5.51333 25.7695 5.41333 25.7428 5.32C25.7561 5.25333 25.7695 5.19333 25.7828 5.14C25.7961 5.07333 25.8095 5.01333 25.8228 4.96V4.58C25.8228 4.47333 25.8361 4.38 25.8628 4.3C25.9028 4.22 25.9761 4.14667 26.0828 4.08C26.1628 4.05333 26.2495 4.04 26.3428 4.04C26.4495 4.04 26.5628 4.04 26.6828 4.04C26.7895 4.05333 26.8961 4.05333 27.0028 4.04C27.1228 4.01333 27.2295 3.95333 27.3228 3.86C27.3495 3.83333 27.3828 3.82 27.4228 3.82C27.4761 3.82 27.5161 3.82 27.5428 3.82C27.8095 3.83333 28.0428 3.72667 28.2428 3.5C28.2561 3.42 28.2961 3.30667 28.3628 3.16C28.3228 3.06667 28.2895 2.96667 28.2628 2.86C28.2361 2.74 28.2028 2.62667 28.1628 2.52C28.1895 2.48 28.2161 2.44 28.2428 2.4C28.2695 2.36 28.2895 2.31333 28.3028 2.26C28.3295 2.19333 28.3295 2.13333 28.3028 2.08C28.2761 2.01333 28.2695 1.96 28.2828 1.92C28.2561 1.85333 28.2428 1.80667 28.2428 1.78C28.2428 1.75333 28.2295 1.70667 28.2028 1.64C28.2161 1.61333 28.2295 1.58667 28.2428 1.56C28.2561 1.52 28.2695 1.48667 28.2828 1.46C28.2961 1.40667 28.3095 1.36667 28.3228 1.34C28.3361 1.3 28.3495 1.25333 28.3628 1.2H28.5828C28.6495 1.21333 28.7161 1.22667 28.7828 1.24C28.8628 1.24 28.9361 1.23333 29.0028 1.22C29.0295 1.22 29.0628 1.22667 29.1028 1.24C29.1428 1.24 29.1828 1.24 29.2228 1.24C29.4495 1.26667 29.6695 1.3 29.8828 1.34C30.1095 1.38 30.3295 1.4 30.5428 1.4C30.5695 1.4 30.5961 1.40667 30.6228 1.42C30.6628 1.43333 30.6895 1.44667 30.7028 1.46C30.7561 1.48667 30.8028 1.52 30.8428 1.56C30.8295 1.61333 30.8095 1.66667 30.7828 1.72C30.7561 1.76 30.7361 1.8 30.7228 1.84C30.7095 1.89333 30.6961 1.95333 30.6828 2.02C30.6828 2.08667 30.6761 2.15333 30.6628 2.22C30.6495 2.31333 30.6361 2.40667 30.6228 2.5C30.6095 2.59333 30.5895 2.7 30.5628 2.82C30.5761 2.83333 30.5828 2.86667 30.5828 2.92C30.5828 2.97333 30.5895 3.02 30.6028 3.06C30.5895 3.15333 30.5695 3.24 30.5428 3.32C30.5295 3.4 30.5161 3.49333 30.5028 3.6C30.6761 3.73333 30.8628 3.84667 31.0628 3.94C31.2761 4.03333 31.5295 4.12 31.8228 4.2C31.9695 4.29333 32.0561 4.44667 32.0828 4.66C32.0828 4.96667 32.0628 5.27333 32.0228 5.58C32.0095 5.7 31.9961 5.82 31.9828 5.94C31.9695 6.06 31.9695 6.18 31.9828 6.3C31.8095 6.40667 31.6028 6.46 31.3628 6.46C31.3228 6.46 31.2828 6.46667 31.2428 6.48C31.2028 6.49333 31.1695 6.5 31.1428 6.5C30.9295 6.51333 30.7628 6.53333 30.6428 6.56C30.5361 6.58667 30.3628 6.65333 30.1228 6.76C30.0828 6.81333 30.0628 6.88667 30.0628 6.98C30.0495 7.06 30.0361 7.14 30.0228 7.22C30.0228 7.3 30.0295 7.38667 30.0428 7.48C30.0428 7.48 30.0428 7.48667 30.0428 7.5C30.0428 7.5 30.0295 7.50667 30.0028 7.52C29.9228 7.68 29.8628 7.8 29.8228 7.88C29.7828 7.96 29.7561 8.04 29.7428 8.12C29.7428 8.2 29.7428 8.33333 29.7428 8.52V9.48C29.7428 9.54667 29.7495 9.58667 29.7628 9.6C29.7761 9.72 29.8361 9.82 29.9428 9.9C29.9961 9.91333 30.0428 9.92667 30.0828 9.94C30.1361 9.95333 30.1761 9.98667 30.2028 10.04C30.3228 10.2 30.4561 10.2867 30.6028 10.3C30.7628 10.3 30.9295 10.2733 31.1028 10.22C31.1561 10.1933 31.2095 10.1667 31.2628 10.14C31.3161 10.1133 31.3695 10.0933 31.4228 10.08C31.5295 10.1067 31.5961 10.1667 31.6228 10.26C31.6495 10.3533 31.6961 10.4333 31.7628 10.5C31.8295 10.5667 31.8828 10.64 31.9228 10.72C31.9761 10.8 32.0295 10.88 32.0828 10.96C32.1095 11.04 32.1428 11.1333 32.1828 11.24C32.2228 11.3333 32.2561 11.44 32.2828 11.56ZM45.1539 11.56C45.0872 11.6933 45.0272 11.8267 44.9739 11.96C44.9206 12.0933 44.8606 12.2267 44.7939 12.36L44.3739 12.76C44.1206 13.04 43.8206 13.2067 43.4739 13.26C43.3006 13.2867 43.1206 13.2933 42.9339 13.28C42.7606 13.28 42.5806 13.2533 42.3939 13.2C42.2872 13.1733 42.1739 13.1333 42.0539 13.08C41.9472 13.04 41.8406 12.9933 41.7339 12.94C41.6539 12.9 41.5672 12.8733 41.4739 12.86C41.3806 12.8333 41.2806 12.8133 41.1739 12.8C41.1339 12.7733 41.0872 12.7467 41.0339 12.72C40.9806 12.68 40.9206 12.64 40.8539 12.6C40.7606 12.44 40.6472 12.2933 40.5139 12.16C40.3939 12.0267 40.3006 11.86 40.2339 11.66C40.2339 11.5 40.2272 11.3933 40.2139 11.34C40.2006 11.2733 40.1606 11.1467 40.0939 10.96V9.64C40.0939 9.53333 40.0872 9.43333 40.0739 9.34C40.0739 9.23333 40.0606 9.13333 40.0339 9.04C40.0206 8.94667 40.0139 8.86667 40.0139 8.8C40.0272 8.73333 40.0406 8.65333 40.0539 8.56C40.0939 8.4 40.0939 8.23333 40.0539 8.06C40.0939 7.9 40.1406 7.74 40.1939 7.58C40.1939 7.5 40.1739 7.38667 40.1339 7.24C40.0939 7.09333 40.0472 6.95333 39.9939 6.82C39.9272 6.82 39.8606 6.81333 39.7939 6.8C39.7272 6.78667 39.6539 6.77333 39.5739 6.76C39.4939 6.78667 39.4072 6.81333 39.3139 6.84C39.2339 6.86667 39.1406 6.89333 39.0339 6.92C38.9939 6.94667 38.9339 6.96 38.8539 6.96C38.8406 6.96 38.8139 6.94667 38.7739 6.92C38.7472 6.88 38.7339 6.85333 38.7339 6.84C38.7206 6.8 38.7139 6.76 38.7139 6.72C38.7139 6.68 38.7139 6.64 38.7139 6.6C38.7006 6.49333 38.6939 6.38 38.6939 6.26C38.6939 6.14 38.6939 6.02667 38.6939 5.92C38.6939 5.81333 38.6872 5.71333 38.6739 5.62C38.6606 5.51333 38.6406 5.41333 38.6139 5.32C38.6272 5.25333 38.6406 5.19333 38.6539 5.14C38.6672 5.07333 38.6806 5.01333 38.6939 4.96V4.58C38.6939 4.47333 38.7072 4.38 38.7339 4.3C38.7739 4.22 38.8472 4.14667 38.9539 4.08C39.0339 4.05333 39.1206 4.04 39.2139 4.04C39.3206 4.04 39.4339 4.04 39.5539 4.04C39.6606 4.05333 39.7672 4.05333 39.8739 4.04C39.9939 4.01333 40.1006 3.95333 40.1939 3.86C40.2206 3.83333 40.2539 3.82 40.2939 3.82C40.3472 3.82 40.3872 3.82 40.4139 3.82C40.6806 3.83333 40.9139 3.72667 41.1139 3.5C41.1272 3.42 41.1672 3.30667 41.2339 3.16C41.1939 3.06667 41.1606 2.96667 41.1339 2.86C41.1072 2.74 41.0739 2.62667 41.0339 2.52C41.0606 2.48 41.0872 2.44 41.1139 2.4C41.1406 2.36 41.1606 2.31333 41.1739 2.26C41.2006 2.19333 41.2006 2.13333 41.1739 2.08C41.1472 2.01333 41.1406 1.96 41.1539 1.92C41.1272 1.85333 41.1139 1.80667 41.1139 1.78C41.1139 1.75333 41.1006 1.70667 41.0739 1.64C41.0872 1.61333 41.1006 1.58667 41.1139 1.56C41.1272 1.52 41.1406 1.48667 41.1539 1.46C41.1672 1.40667 41.1806 1.36667 41.1939 1.34C41.2072 1.3 41.2206 1.25333 41.2339 1.2H41.4539C41.5206 1.21333 41.5872 1.22667 41.6539 1.24C41.7339 1.24 41.8072 1.23333 41.8739 1.22C41.9006 1.22 41.9339 1.22667 41.9739 1.24C42.0139 1.24 42.0539 1.24 42.0939 1.24C42.3206 1.26667 42.5406 1.3 42.7539 1.34C42.9806 1.38 43.2006 1.4 43.4139 1.4C43.4406 1.4 43.4672 1.40667 43.4939 1.42C43.5339 1.43333 43.5606 1.44667 43.5739 1.46C43.6272 1.48667 43.6739 1.52 43.7139 1.56C43.7006 1.61333 43.6806 1.66667 43.6539 1.72C43.6272 1.76 43.6072 1.8 43.5939 1.84C43.5806 1.89333 43.5672 1.95333 43.5539 2.02C43.5539 2.08667 43.5472 2.15333 43.5339 2.22C43.5206 2.31333 43.5072 2.40667 43.4939 2.5C43.4806 2.59333 43.4606 2.7 43.4339 2.82C43.4472 2.83333 43.4539 2.86667 43.4539 2.92C43.4539 2.97333 43.4606 3.02 43.4739 3.06C43.4606 3.15333 43.4406 3.24 43.4139 3.32C43.4006 3.4 43.3872 3.49333 43.3739 3.6C43.5472 3.73333 43.7339 3.84667 43.9339 3.94C44.1472 4.03333 44.4006 4.12 44.6939 4.2C44.8406 4.29333 44.9272 4.44667 44.9539 4.66C44.9539 4.96667 44.9339 5.27333 44.8939 5.58C44.8806 5.7 44.8672 5.82 44.8539 5.94C44.8406 6.06 44.8406 6.18 44.8539 6.3C44.6806 6.40667 44.4739 6.46 44.2339 6.46C44.1939 6.46 44.1539 6.46667 44.1139 6.48C44.0739 6.49333 44.0406 6.5 44.0139 6.5C43.8006 6.51333 43.6339 6.53333 43.5139 6.56C43.4072 6.58667 43.2339 6.65333 42.9939 6.76C42.9539 6.81333 42.9339 6.88667 42.9339 6.98C42.9206 7.06 42.9072 7.14 42.8939 7.22C42.8939 7.3 42.9006 7.38667 42.9139 7.48C42.9139 7.48 42.9139 7.48667 42.9139 7.5C42.9139 7.5 42.9006 7.50667 42.8739 7.52C42.7939 7.68 42.7339 7.8 42.6939 7.88C42.6539 7.96 42.6272 8.04 42.6139 8.12C42.6139 8.2 42.6139 8.33333 42.6139 8.52V9.48C42.6139 9.54667 42.6206 9.58667 42.6339 9.6C42.6472 9.72 42.7072 9.82 42.8139 9.9C42.8672 9.91333 42.9139 9.92667 42.9539 9.94C43.0072 9.95333 43.0472 9.98667 43.0739 10.04C43.1939 10.2 43.3272 10.2867 43.4739 10.3C43.6339 10.3 43.8006 10.2733 43.9739 10.22C44.0272 10.1933 44.0806 10.1667 44.1339 10.14C44.1872 10.1133 44.2406 10.0933 44.2939 10.08C44.4006 10.1067 44.4672 10.1667 44.4939 10.26C44.5206 10.3533 44.5672 10.4333 44.6339 10.5C44.7006 10.5667 44.7539 10.64 44.7939 10.72C44.8472 10.8 44.9006 10.88 44.9539 10.96C44.9806 11.04 45.0139 11.1333 45.0539 11.24C45.0939 11.3333 45.1272 11.44 45.1539 11.56ZM55.6956 7.54C55.7356 7.7 55.729 7.84667 55.6756 7.98C55.649 8.04667 55.629 8.11333 55.6156 8.18C55.6023 8.24667 55.6023 8.31333 55.6156 8.38C55.629 8.39333 55.629 8.41333 55.6156 8.44C55.6156 8.45333 55.6156 8.47333 55.6156 8.5C55.5623 8.60667 55.5356 8.72 55.5356 8.84C55.549 8.96 55.5623 9.07333 55.5756 9.18L55.3756 9.46V9.72C55.349 9.74667 55.3156 9.78 55.2756 9.82C55.2356 9.84667 55.1823 9.88667 55.1156 9.94C55.089 10.0333 55.049 10.1333 54.9956 10.24C54.9556 10.3467 54.9223 10.4467 54.8956 10.54V10.74C54.8423 10.7933 54.7756 10.84 54.6956 10.88C54.6156 10.92 54.549 10.98 54.4956 11.06C54.4423 11.1 54.389 11.1333 54.3356 11.16C54.2823 11.1867 54.2223 11.22 54.1556 11.26C54.129 11.2733 54.0956 11.28 54.0556 11.28C54.029 11.2667 54.0023 11.2667 53.9756 11.28C53.7756 11.28 53.6756 11.3733 53.6756 11.56C53.529 11.6533 53.3823 11.7533 53.2356 11.86C53.1023 11.9667 52.9623 12.0733 52.8156 12.18C52.589 12.3533 52.2956 12.4733 51.9356 12.54C51.8156 12.5533 51.7023 12.5867 51.5956 12.64C51.489 12.68 51.3756 12.7133 51.2556 12.74C51.229 12.74 51.1956 12.7333 51.1556 12.72C51.1156 12.7067 51.0823 12.7067 51.0556 12.72C50.8956 12.7333 50.729 12.72 50.5556 12.68C50.5023 12.6667 50.449 12.6667 50.3956 12.68C50.3423 12.6933 50.2956 12.7067 50.2556 12.72C50.1623 12.7067 50.069 12.6933 49.9756 12.68C49.8823 12.6667 49.7823 12.6533 49.6756 12.64C49.5556 12.5867 49.4423 12.5267 49.3356 12.46C49.2423 12.3933 49.1423 12.3333 49.0356 12.28C48.9556 12.2533 48.8823 12.2067 48.8156 12.14C48.749 12.0733 48.6956 12.0067 48.6556 11.94C48.6423 11.9133 48.6223 11.8933 48.5956 11.88C48.5823 11.8533 48.5623 11.8267 48.5356 11.8C48.4956 11.7733 48.4556 11.7533 48.4156 11.74C48.3756 11.7133 48.3356 11.68 48.2956 11.64C48.0823 11.4933 47.889 11.3333 47.7156 11.16C47.5556 10.9867 47.4356 10.7733 47.3556 10.52C47.289 10.3467 47.209 10.1933 47.1156 10.06C47.089 10.0067 47.0556 9.96 47.0156 9.92C46.989 9.86667 46.9623 9.81333 46.9356 9.76C46.949 9.73333 46.969 9.68 46.9956 9.6C46.969 9.56 46.9423 9.52 46.9156 9.48C46.889 9.44 46.8756 9.39333 46.8756 9.34C46.8756 9.3 46.869 9.26 46.8556 9.22C46.8556 9.16667 46.8623 9.11333 46.8756 9.06C46.9023 8.96667 46.909 8.87333 46.8956 8.78C46.8823 8.68667 46.8823 8.59333 46.8956 8.5C46.909 8.42 46.9023 8.33333 46.8756 8.24C46.8623 8.14667 46.8756 8.06 46.9156 7.98C46.9423 7.88667 46.9623 7.8 46.9756 7.72C46.989 7.64 47.009 7.56 47.0356 7.48C47.0623 7.4 47.089 7.32667 47.1156 7.26C47.1423 7.18 47.169 7.10667 47.1956 7.04C47.2223 6.96 47.249 6.88 47.2756 6.8C47.3023 6.72 47.3423 6.63333 47.3956 6.54C47.3956 6.51333 47.3956 6.48 47.3956 6.44C47.3956 6.4 47.4023 6.37333 47.4156 6.36C47.469 6.25333 47.509 6.15333 47.5356 6.06C47.5623 5.96667 47.569 5.87333 47.5556 5.78C47.609 5.71333 47.6556 5.66 47.6956 5.62C47.7356 5.58 47.769 5.53333 47.7956 5.48C47.8223 5.41333 47.849 5.35333 47.8756 5.3C47.9156 5.23333 47.9556 5.17333 47.9956 5.12C48.0356 5.01333 48.0956 4.92 48.1756 4.84C48.229 4.77333 48.2756 4.72 48.3156 4.68C48.3556 4.62667 48.389 4.58667 48.4156 4.56C48.4556 4.48 48.469 4.41333 48.4556 4.36C48.4423 4.29333 48.4356 4.24 48.4356 4.2C48.4623 4.13333 48.4823 4.09333 48.4956 4.08C48.5356 4.06667 48.569 4.04667 48.5956 4.02C48.6356 3.99333 48.6756 3.97333 48.7156 3.96C48.8223 3.89333 48.9356 3.82667 49.0556 3.76C49.1756 3.69333 49.2956 3.64 49.4156 3.6C49.5356 3.52 49.6556 3.46667 49.7756 3.44C49.909 3.4 50.0423 3.36 50.1756 3.32C50.2823 3.32 50.389 3.32 50.4956 3.32C50.6023 3.32 50.7023 3.32667 50.7956 3.34H50.9756C51.1223 3.39333 51.269 3.42 51.4156 3.42C51.5756 3.42 51.729 3.41333 51.8756 3.4C51.9423 3.4 52.009 3.4 52.0756 3.4C52.1556 3.38667 52.229 3.38 52.2956 3.38C52.3623 3.43333 52.4156 3.48 52.4556 3.52C52.509 3.54667 52.5623 3.58667 52.6156 3.64C52.6556 3.65333 52.6956 3.67333 52.7356 3.7C52.7756 3.72667 52.8223 3.74667 52.8756 3.76C53.0623 3.77333 53.229 3.83333 53.3756 3.94C53.5356 4.04667 53.6823 4.15333 53.8156 4.26C53.8156 4.28667 53.8156 4.32667 53.8156 4.38C53.8156 4.42 53.8223 4.46 53.8356 4.5C53.8356 4.56667 53.8756 4.62667 53.9556 4.68C53.9956 4.69333 54.0423 4.7 54.0956 4.7C54.149 4.7 54.2023 4.71333 54.2556 4.74C54.2823 4.79333 54.3156 4.85333 54.3556 4.92C54.409 4.98667 54.4556 5.05333 54.4956 5.12C54.549 5.17333 54.6023 5.22667 54.6556 5.28C54.709 5.33333 54.749 5.39333 54.7756 5.46C54.8023 5.48667 54.8223 5.52 54.8356 5.56C54.8623 5.6 54.8823 5.63333 54.8956 5.66C54.9356 5.7 54.9756 5.74 55.0156 5.78C55.0556 5.82 55.0823 5.87333 55.0956 5.94C55.1223 6.03333 55.1623 6.12667 55.2156 6.22C55.269 6.31333 55.309 6.41333 55.3356 6.52C55.349 6.56 55.369 6.6 55.3956 6.64C55.4356 6.68 55.4756 6.72667 55.5156 6.78C55.5423 6.9 55.5623 7.02667 55.5756 7.16C55.6023 7.29333 55.6423 7.42 55.6956 7.54ZM52.8956 8.26C52.909 8.16667 52.8956 8.08667 52.8556 8.02C52.8156 7.94 52.8023 7.86 52.8156 7.78C52.8156 7.75333 52.7956 7.72 52.7556 7.68C52.7423 7.65333 52.7356 7.6 52.7356 7.52C52.749 7.49333 52.7556 7.46 52.7556 7.42C52.7556 7.36667 52.7556 7.33333 52.7556 7.32C52.6623 7.17333 52.5756 7.04 52.4956 6.92C52.4156 6.78667 52.329 6.66 52.2356 6.54C52.2356 6.51333 52.2223 6.5 52.1956 6.5C52.169 6.48667 52.1423 6.46 52.1156 6.42C51.889 6.42 51.6423 6.36 51.3756 6.24C51.2156 6.16 51.0223 6.15333 50.7956 6.22C50.7823 6.22 50.7623 6.22667 50.7356 6.24C50.7223 6.25333 50.7023 6.27333 50.6756 6.3H50.5756C50.3623 6.26 50.2223 6.34 50.1556 6.54C50.129 6.59333 50.0956 6.65333 50.0556 6.72C50.029 6.77333 50.009 6.83333 49.9956 6.9C49.9823 6.95333 49.9556 7.01333 49.9156 7.08C49.8756 7.13333 49.8423 7.18667 49.8156 7.24C49.7623 7.30667 49.7156 7.38 49.6756 7.46C49.6356 7.54 49.589 7.61333 49.5356 7.68C49.5223 7.81333 49.489 7.94667 49.4356 8.08C49.3956 8.21333 49.369 8.34 49.3556 8.46C49.3956 8.52667 49.4356 8.6 49.4756 8.68C49.5156 8.74667 49.549 8.81333 49.5756 8.88C49.6556 9.05333 49.689 9.22 49.6756 9.38C49.6756 9.40667 49.6823 9.43333 49.6956 9.46C49.709 9.48667 49.7223 9.51333 49.7356 9.54C49.8556 9.56667 49.969 9.59333 50.0756 9.62C50.1956 9.64667 50.309 9.68 50.4156 9.72C50.509 9.74667 50.6023 9.76667 50.6956 9.78C50.789 9.79333 50.8823 9.78 50.9756 9.74H51.0356C51.1423 9.76667 51.2423 9.77333 51.3356 9.76C51.4423 9.73333 51.5556 9.70667 51.6756 9.68C51.769 9.61333 51.8623 9.54 51.9556 9.46C52.0623 9.38 52.169 9.31333 52.2756 9.26C52.369 9.07333 52.4823 8.90667 52.6156 8.76C52.749 8.61333 52.8423 8.44667 52.8956 8.26ZM65.762 4.06C65.6954 4.3 65.6554 4.54667 65.642 4.8C65.6287 5.04 65.6154 5.28 65.602 5.52C65.5887 5.76 65.582 6.00667 65.582 6.26C65.582 6.5 65.582 6.74 65.582 6.98C65.582 7.18 65.5687 7.38 65.542 7.58C65.5154 7.78 65.4954 7.98667 65.482 8.2C65.482 8.25333 65.4754 8.31333 65.462 8.38C65.462 8.44667 65.462 8.51333 65.462 8.58C65.462 8.76667 65.4354 8.94 65.382 9.1C65.342 9.27333 65.322 9.44667 65.322 9.62C65.322 9.71333 65.3154 9.81333 65.302 9.92C65.2887 10.0267 65.262 10.1333 65.222 10.24C65.2087 10.3067 65.202 10.4067 65.202 10.54C65.1887 10.6467 65.162 10.7533 65.122 10.86C65.0954 10.9533 65.0687 11.0467 65.042 11.14C65.0154 11.22 64.9887 11.3133 64.962 11.42C64.9087 11.5 64.8554 11.5867 64.802 11.68C64.762 11.76 64.7154 11.84 64.662 11.92C64.542 11.9867 64.442 12.0733 64.362 12.18C64.2287 12.2867 64.0954 12.4 63.962 12.52C63.842 12.64 63.722 12.7533 63.602 12.86C63.442 12.9933 63.282 13.06 63.122 13.06C63.1087 13.06 63.0887 13.0667 63.062 13.08C63.0487 13.0933 63.0287 13.1 63.002 13.1C62.7487 13.1267 62.542 13.2067 62.382 13.34C62.3687 13.3533 62.3487 13.36 62.322 13.36C62.3087 13.3733 62.2887 13.3933 62.262 13.42C62.0887 13.4467 61.9087 13.4333 61.722 13.38C61.5487 13.3267 61.3887 13.26 61.242 13.18H60.922C60.8687 13.18 60.8154 13.1733 60.762 13.16C60.7087 13.16 60.6487 13.1533 60.582 13.14C60.222 13.06 59.8754 12.9067 59.542 12.68C59.502 12.64 59.4554 12.6133 59.402 12.6C59.3487 12.5867 59.2887 12.5733 59.222 12.56C59.142 12.5467 59.062 12.5267 58.982 12.5C58.902 12.4733 58.822 12.4467 58.742 12.42C58.6754 12.38 58.622 12.3267 58.582 12.26C58.542 12.18 58.502 12.1133 58.462 12.06C58.3954 11.9267 58.3354 11.8067 58.282 11.7C58.2287 11.58 58.1687 11.4533 58.102 11.32C58.0487 11.2133 57.9887 11.1067 57.922 11C57.8554 10.88 57.7887 10.7733 57.722 10.68C57.722 10.6667 57.7287 10.66 57.742 10.66C57.7554 10.66 57.762 10.6533 57.762 10.64L57.722 10.6C57.722 10.6133 57.7154 10.6267 57.702 10.64C57.702 10.64 57.702 10.6467 57.702 10.66C57.6887 10.6467 57.6687 10.64 57.642 10.64C57.6287 10.6267 57.6154 10.6133 57.602 10.6C57.5487 10.5733 57.5087 10.5333 57.482 10.48C57.4554 10.4133 57.4287 10.3533 57.402 10.3C57.442 10.22 57.462 10.1133 57.462 9.98C57.4887 9.80667 57.482 9.65333 57.442 9.52C57.3887 9.32 57.362 9.12 57.362 8.92C57.3754 8.72 57.3887 8.51333 57.402 8.3C57.402 8.23333 57.4287 8.14667 57.482 8.04C57.5754 7.81333 57.6287 7.61333 57.642 7.44C57.7754 7.25333 57.882 7.05333 57.962 6.84C58.042 6.62667 58.1354 6.42667 58.242 6.24C58.3087 6.21333 58.362 6.18667 58.402 6.16C58.4554 6.13333 58.5087 6.11333 58.562 6.1C58.5887 6.07333 58.6087 6.04 58.622 6C58.6354 5.96 58.662 5.92667 58.702 5.9C58.742 5.87333 58.7887 5.85333 58.842 5.84C58.8954 5.81333 58.9554 5.79333 59.022 5.78C59.0487 5.74 59.0687 5.7 59.082 5.66C59.1087 5.62 59.1354 5.58 59.162 5.54C59.202 5.5 59.2287 5.48 59.242 5.48C59.5487 5.37333 59.8687 5.29333 60.202 5.24C60.2554 5.22667 60.3087 5.22 60.362 5.22C60.4287 5.20667 60.4887 5.19333 60.542 5.18C60.7154 5.12667 60.8887 5.10667 61.062 5.12C61.2354 5.13333 61.4087 5.13333 61.582 5.12C61.622 5.12 61.662 5.12667 61.702 5.14C61.7554 5.15333 61.802 5.16667 61.842 5.18C61.882 5.18 61.9354 5.19333 62.002 5.22C62.0687 5.24667 62.1087 5.24667 62.122 5.22C62.2554 5.19333 62.3487 5.20667 62.402 5.26C62.4687 5.31333 62.502 5.34 62.502 5.34C62.5287 5.35333 62.582 5.36 62.662 5.36C62.7554 5.34667 62.8087 5.34 62.822 5.34C62.942 5.31333 63.0087 5.26 63.022 5.18C63.0487 5.08667 63.0487 5.04 63.022 5.04L62.982 5C62.9954 4.82667 62.9887 4.65333 62.962 4.48C62.9487 4.30667 62.9487 4.13333 62.962 3.96C62.9754 3.89333 62.982 3.82667 62.982 3.76C62.982 3.68 62.982 3.60667 62.982 3.54C62.9687 3.47333 62.9687 3.41333 62.982 3.36C62.9954 3.29333 63.002 3.22667 63.002 3.16C63.002 3.09333 63.002 3.03333 63.002 2.98C63.0154 2.91333 63.0087 2.86 62.982 2.82C62.942 2.71333 62.922 2.60667 62.922 2.5C62.9354 2.39333 62.9554 2.28667 62.982 2.18C63.022 2.03333 63.0487 1.88667 63.062 1.74C63.0887 1.59333 63.0887 1.43333 63.062 1.26V1.16C63.1154 1.02667 63.142 0.893332 63.142 0.759999C63.1554 0.626666 63.1687 0.506666 63.182 0.399999C63.2487 0.306666 63.3287 0.246666 63.422 0.219999C63.5287 0.179999 63.6087 0.133333 63.662 0.0799994C63.8754 0.0666663 64.0754 0.0666663 64.262 0.0799994C64.4487 0.0933326 64.6354 0.0733325 64.822 0.019999C64.9154 0.0599993 65.002 0.0933326 65.082 0.119999C65.1754 0.133333 65.2554 0.146666 65.322 0.16C65.4687 0.266666 65.542 0.406666 65.542 0.579999C65.542 0.646666 65.542 0.719999 65.542 0.8C65.542 0.879999 65.5354 0.959999 65.522 1.04C65.5354 1.09333 65.5554 1.14 65.582 1.18C65.6087 1.22 65.6287 1.27333 65.642 1.34C65.6287 1.36667 65.6154 1.40667 65.602 1.46C65.602 1.5 65.5954 1.54667 65.582 1.6C65.5954 1.65333 65.6087 1.72 65.622 1.8C65.6354 1.88 65.6487 1.95333 65.662 2.02C65.662 2.23333 65.662 2.44 65.662 2.64C65.6754 2.84 65.6754 3.04 65.662 3.24C65.662 3.45333 65.662 3.59333 65.662 3.66C65.6754 3.72667 65.7087 3.86 65.762 4.06ZM62.842 9.1C62.802 8.99333 62.7687 8.89333 62.742 8.8C62.7287 8.69333 62.7087 8.6 62.682 8.52C62.642 8.42667 62.5887 8.34 62.522 8.26C62.4687 8.18 62.422 8.09333 62.382 8C62.2487 7.93333 62.1487 7.86667 62.082 7.8C62.0154 7.77333 61.9487 7.75333 61.882 7.74C61.8287 7.72667 61.7687 7.71333 61.702 7.7C61.6487 7.67333 61.5954 7.65333 61.542 7.64C61.502 7.61333 61.4554 7.59333 61.402 7.58C61.3087 7.62 61.2154 7.66 61.122 7.7C61.042 7.74 60.962 7.78 60.882 7.82C60.6687 7.91333 60.522 8.08667 60.442 8.34C60.4287 8.39333 60.422 8.44667 60.422 8.5C60.422 8.55333 60.4154 8.61333 60.402 8.68C60.3887 8.72 60.362 8.76 60.322 8.8C60.2954 8.84 60.2687 8.89333 60.242 8.96V9.32C60.2687 9.49333 60.3154 9.66 60.382 9.82C60.462 9.96667 60.5887 10.0933 60.762 10.2C60.802 10.2133 60.8354 10.24 60.862 10.28C60.902 10.3067 60.9487 10.3333 61.002 10.36C61.082 10.44 61.162 10.48 61.242 10.48C61.4554 10.4533 61.662 10.4333 61.862 10.42C62.062 10.3933 62.2554 10.34 62.442 10.26C62.522 10.1933 62.582 10.1267 62.622 10.06C62.662 10.0067 62.6954 9.96 62.722 9.92C62.7487 9.86667 62.782 9.81333 62.822 9.76V9.42C62.822 9.35333 62.822 9.29333 62.822 9.24C62.822 9.18667 62.8287 9.14 62.842 9.1ZM76.223 7.54C76.263 7.7 76.2563 7.84667 76.203 7.98C76.1763 8.04667 76.1563 8.11333 76.143 8.18C76.1296 8.24667 76.1296 8.31333 76.143 8.38C76.1563 8.39333 76.1563 8.41333 76.143 8.44C76.143 8.45333 76.143 8.47333 76.143 8.5C76.0896 8.60667 76.063 8.72 76.063 8.84C76.0763 8.96 76.0896 9.07333 76.103 9.18L75.903 9.46V9.72C75.8763 9.74667 75.843 9.78 75.803 9.82C75.763 9.84667 75.7096 9.88667 75.643 9.94C75.6163 10.0333 75.5763 10.1333 75.523 10.24C75.483 10.3467 75.4496 10.4467 75.423 10.54V10.74C75.3696 10.7933 75.303 10.84 75.223 10.88C75.143 10.92 75.0763 10.98 75.023 11.06C74.9696 11.1 74.9163 11.1333 74.863 11.16C74.8096 11.1867 74.7496 11.22 74.683 11.26C74.6563 11.2733 74.623 11.28 74.583 11.28C74.5563 11.2667 74.5296 11.2667 74.503 11.28C74.303 11.28 74.203 11.3733 74.203 11.56C74.0563 11.6533 73.9096 11.7533 73.763 11.86C73.6296 11.9667 73.4896 12.0733 73.343 12.18C73.1163 12.3533 72.823 12.4733 72.463 12.54C72.343 12.5533 72.2296 12.5867 72.123 12.64C72.0163 12.68 71.903 12.7133 71.783 12.74C71.7563 12.74 71.723 12.7333 71.683 12.72C71.643 12.7067 71.6096 12.7067 71.583 12.72C71.423 12.7333 71.2563 12.72 71.083 12.68C71.0296 12.6667 70.9763 12.6667 70.923 12.68C70.8696 12.6933 70.823 12.7067 70.783 12.72C70.6896 12.7067 70.5963 12.6933 70.503 12.68C70.4096 12.6667 70.3096 12.6533 70.203 12.64C70.083 12.5867 69.9696 12.5267 69.863 12.46C69.7696 12.3933 69.6696 12.3333 69.563 12.28C69.483 12.2533 69.4096 12.2067 69.343 12.14C69.2763 12.0733 69.223 12.0067 69.183 11.94C69.1696 11.9133 69.1496 11.8933 69.123 11.88C69.1096 11.8533 69.0896 11.8267 69.063 11.8C69.023 11.7733 68.983 11.7533 68.943 11.74C68.903 11.7133 68.863 11.68 68.823 11.64C68.6096 11.4933 68.4163 11.3333 68.243 11.16C68.083 10.9867 67.963 10.7733 67.883 10.52C67.8163 10.3467 67.7363 10.1933 67.643 10.06C67.6163 10.0067 67.583 9.96 67.543 9.92C67.5163 9.86667 67.4896 9.81333 67.463 9.76C67.4763 9.73333 67.4963 9.68 67.523 9.6C67.4963 9.56 67.4696 9.52 67.443 9.48C67.4163 9.44 67.403 9.39333 67.403 9.34C67.403 9.3 67.3963 9.26 67.383 9.22C67.383 9.16667 67.3896 9.11333 67.403 9.06C67.4296 8.96667 67.4363 8.87333 67.423 8.78C67.4096 8.68667 67.4096 8.59333 67.423 8.5C67.4363 8.42 67.4296 8.33333 67.403 8.24C67.3896 8.14667 67.403 8.06 67.443 7.98C67.4696 7.88667 67.4896 7.8 67.503 7.72C67.5163 7.64 67.5363 7.56 67.563 7.48C67.5896 7.4 67.6163 7.32667 67.643 7.26C67.6696 7.18 67.6963 7.10667 67.723 7.04C67.7496 6.96 67.7763 6.88 67.803 6.8C67.8296 6.72 67.8696 6.63333 67.923 6.54C67.923 6.51333 67.923 6.48 67.923 6.44C67.923 6.4 67.9296 6.37333 67.943 6.36C67.9963 6.25333 68.0363 6.15333 68.063 6.06C68.0896 5.96667 68.0963 5.87333 68.083 5.78C68.1363 5.71333 68.183 5.66 68.223 5.62C68.263 5.58 68.2963 5.53333 68.323 5.48C68.3496 5.41333 68.3763 5.35333 68.403 5.3C68.443 5.23333 68.483 5.17333 68.523 5.12C68.563 5.01333 68.623 4.92 68.703 4.84C68.7563 4.77333 68.803 4.72 68.843 4.68C68.883 4.62667 68.9163 4.58667 68.943 4.56C68.983 4.48 68.9963 4.41333 68.983 4.36C68.9696 4.29333 68.963 4.24 68.963 4.2C68.9896 4.13333 69.0096 4.09333 69.023 4.08C69.063 4.06667 69.0963 4.04667 69.123 4.02C69.163 3.99333 69.203 3.97333 69.243 3.96C69.3496 3.89333 69.463 3.82667 69.583 3.76C69.703 3.69333 69.823 3.64 69.943 3.6C70.063 3.52 70.183 3.46667 70.303 3.44C70.4363 3.4 70.5696 3.36 70.703 3.32C70.8096 3.32 70.9163 3.32 71.023 3.32C71.1296 3.32 71.2296 3.32667 71.323 3.34H71.503C71.6496 3.39333 71.7963 3.42 71.943 3.42C72.103 3.42 72.2563 3.41333 72.403 3.4C72.4696 3.4 72.5363 3.4 72.603 3.4C72.683 3.38667 72.7563 3.38 72.823 3.38C72.8896 3.43333 72.943 3.48 72.983 3.52C73.0363 3.54667 73.0896 3.58667 73.143 3.64C73.183 3.65333 73.223 3.67333 73.263 3.7C73.303 3.72667 73.3496 3.74667 73.403 3.76C73.5896 3.77333 73.7563 3.83333 73.903 3.94C74.063 4.04667 74.2096 4.15333 74.343 4.26C74.343 4.28667 74.343 4.32667 74.343 4.38C74.343 4.42 74.3496 4.46 74.363 4.5C74.363 4.56667 74.403 4.62667 74.483 4.68C74.523 4.69333 74.5696 4.7 74.623 4.7C74.6763 4.7 74.7296 4.71333 74.783 4.74C74.8096 4.79333 74.843 4.85333 74.883 4.92C74.9363 4.98667 74.983 5.05333 75.023 5.12C75.0763 5.17333 75.1296 5.22667 75.183 5.28C75.2363 5.33333 75.2763 5.39333 75.303 5.46C75.3296 5.48667 75.3496 5.52 75.363 5.56C75.3896 5.6 75.4096 5.63333 75.423 5.66C75.463 5.7 75.503 5.74 75.543 5.78C75.583 5.82 75.6096 5.87333 75.623 5.94C75.6496 6.03333 75.6896 6.12667 75.743 6.22C75.7963 6.31333 75.8363 6.41333 75.863 6.52C75.8763 6.56 75.8963 6.6 75.923 6.64C75.963 6.68 76.003 6.72667 76.043 6.78C76.0696 6.9 76.0896 7.02667 76.103 7.16C76.1296 7.29333 76.1696 7.42 76.223 7.54ZM73.423 8.26C73.4363 8.16667 73.423 8.08667 73.383 8.02C73.343 7.94 73.3296 7.86 73.343 7.78C73.343 7.75333 73.323 7.72 73.283 7.68C73.2696 7.65333 73.263 7.6 73.263 7.52C73.2763 7.49333 73.283 7.46 73.283 7.42C73.283 7.36667 73.283 7.33333 73.283 7.32C73.1896 7.17333 73.103 7.04 73.023 6.92C72.943 6.78667 72.8563 6.66 72.763 6.54C72.763 6.51333 72.7496 6.5 72.723 6.5C72.6963 6.48667 72.6696 6.46 72.643 6.42C72.4163 6.42 72.1696 6.36 71.903 6.24C71.743 6.16 71.5496 6.15333 71.323 6.22C71.3096 6.22 71.2896 6.22667 71.263 6.24C71.2496 6.25333 71.2296 6.27333 71.203 6.3H71.103C70.8896 6.26 70.7496 6.34 70.683 6.54C70.6563 6.59333 70.623 6.65333 70.583 6.72C70.5563 6.77333 70.5363 6.83333 70.523 6.9C70.5096 6.95333 70.483 7.01333 70.443 7.08C70.403 7.13333 70.3696 7.18667 70.343 7.24C70.2896 7.30667 70.243 7.38 70.203 7.46C70.163 7.54 70.1163 7.61333 70.063 7.68C70.0496 7.81333 70.0163 7.94667 69.963 8.08C69.923 8.21333 69.8963 8.34 69.883 8.46C69.923 8.52667 69.963 8.6 70.003 8.68C70.043 8.74667 70.0763 8.81333 70.103 8.88C70.183 9.05333 70.2163 9.22 70.203 9.38C70.203 9.40667 70.2096 9.43333 70.223 9.46C70.2363 9.48667 70.2496 9.51333 70.263 9.54C70.383 9.56667 70.4963 9.59333 70.603 9.62C70.723 9.64667 70.8363 9.68 70.943 9.72C71.0363 9.74667 71.1296 9.76667 71.223 9.78C71.3163 9.79333 71.4096 9.78 71.503 9.74H71.563C71.6696 9.76667 71.7696 9.77333 71.863 9.76C71.9696 9.73333 72.083 9.70667 72.203 9.68C72.2963 9.61333 72.3896 9.54 72.483 9.46C72.5896 9.38 72.6963 9.31333 72.803 9.26C72.8963 9.07333 73.0096 8.90667 73.143 8.76C73.2763 8.61333 73.3696 8.44667 73.423 8.26Z" fill="white"/>
</svg>
