<svg width="25" height="25" viewBox="0 0 25 25" fill="none" xmlns="http://www.w3.org/2000/svg">
<path fill-rule="evenodd" clip-rule="evenodd" d="M9.37499 6.25C9.37499 4.52411 7.97588 3.125 6.24999 3.125H4.16666C2.44077 3.125 1.04166 4.52411 1.04166 6.25V8.33333C1.04166 10.0592 2.44077 11.4583 4.16666 11.4583H6.24999C7.97588 11.4583 9.37499 10.0592 9.37499 8.33333V6.25ZM7.29166 6.25C7.29166 5.6747 6.82529 5.20833 6.24999 5.20833H4.16666C3.59136 5.20833 3.12499 5.6747 3.12499 6.25V8.33333C3.12499 8.90863 3.59136 9.375 4.16666 9.375H6.24999C6.82529 9.375 7.29166 8.90863 7.29166 8.33333V6.25Z" fill="#F0C23A"/>
<path fill-rule="evenodd" clip-rule="evenodd" d="M9.37499 16.6667C9.37499 14.9408 7.97588 13.5417 6.24999 13.5417H4.16666C2.44077 13.5417 1.04166 14.9408 1.04166 16.6667V18.75C1.04166 20.4759 2.44077 21.875 4.16666 21.875H6.24999C7.97588 21.875 9.37499 20.4759 9.37499 18.75V16.6667ZM7.29166 16.6667C7.29166 16.0914 6.82529 15.625 6.24999 15.625H4.16666C3.59136 15.625 3.12499 16.0914 3.12499 16.6667V18.75C3.12499 19.3253 3.59136 19.7917 4.16666 19.7917H6.24999C6.82529 19.7917 7.29166 19.3253 7.29166 18.75V16.6667Z" fill="#F0C23A"/>
<path d="M11.4583 7.29167C11.4583 6.71637 11.9247 6.25 12.5 6.25H22.9167C23.492 6.25 23.9583 6.71637 23.9583 7.29167C23.9583 7.86696 23.492 8.33333 22.9167 8.33333H12.5C11.9247 8.33333 11.4583 7.86696 11.4583 7.29167Z" fill="#F0C23A"/>
<path d="M11.4583 17.7083C11.4583 17.133 11.9247 16.6667 12.5 16.6667H22.9167C23.492 16.6667 23.9583 17.133 23.9583 17.7083C23.9583 18.2836 23.492 18.75 22.9167 18.75H12.5C11.9247 18.75 11.4583 18.2836 11.4583 17.7083Z" fill="#F0C23A"/>
</svg>
