<svg width="25" height="25" viewBox="0 0 25 25" fill="none" xmlns="http://www.w3.org/2000/svg">
<path fill-rule="evenodd" clip-rule="evenodd" d="M9.37496 6.25C9.37496 4.52411 7.97585 3.125 6.24996 3.125H4.16663C2.44074 3.125 1.04163 4.52411 1.04163 6.25V8.33333C1.04163 10.0592 2.44074 11.4583 4.16663 11.4583H6.24996C7.97585 11.4583 9.37496 10.0592 9.37496 8.33333V6.25ZM7.29163 6.25C7.29163 5.6747 6.82526 5.20833 6.24996 5.20833H4.16663C3.59133 5.20833 3.12496 5.6747 3.12496 6.25V8.33333C3.12496 8.90863 3.59133 9.375 4.16663 9.375H6.24996C6.82526 9.375 7.29163 8.90863 7.29163 8.33333V6.25Z" fill="#656565"/>
<path fill-rule="evenodd" clip-rule="evenodd" d="M9.37496 16.6667C9.37496 14.9408 7.97585 13.5417 6.24996 13.5417H4.16663C2.44074 13.5417 1.04163 14.9408 1.04163 16.6667V18.75C1.04163 20.4759 2.44074 21.875 4.16663 21.875H6.24996C7.97585 21.875 9.37496 20.4759 9.37496 18.75V16.6667ZM7.29163 16.6667C7.29163 16.0914 6.82526 15.625 6.24996 15.625H4.16663C3.59133 15.625 3.12496 16.0914 3.12496 16.6667V18.75C3.12496 19.3253 3.59133 19.7917 4.16663 19.7917H6.24996C6.82526 19.7917 7.29163 19.3253 7.29163 18.75V16.6667Z" fill="#656565"/>
<path d="M11.4583 7.29167C11.4583 6.71637 11.9247 6.25 12.5 6.25H22.9166C23.4919 6.25 23.9583 6.71637 23.9583 7.29167C23.9583 7.86696 23.4919 8.33333 22.9166 8.33333H12.5C11.9247 8.33333 11.4583 7.86696 11.4583 7.29167Z" fill="#656565"/>
<path d="M11.4583 17.7083C11.4583 17.133 11.9247 16.6667 12.5 16.6667H22.9166C23.4919 16.6667 23.9583 17.133 23.9583 17.7083C23.9583 18.2836 23.4919 18.75 22.9166 18.75H12.5C11.9247 18.75 11.4583 18.2836 11.4583 17.7083Z" fill="#656565"/>
</svg>
