<svg width="18" height="19" viewBox="0 0 18 19" fill="none" xmlns="http://www.w3.org/2000/svg">
<path d="M18 9.4023C18 8.79694 17.9463 8.22223 17.8544 7.66284H9.19537V11.1188H14.1532C13.931 12.2529 13.2797 13.2107 12.3141 13.8621V16.1609H15.272C17.0038 14.5594 18 12.1992 18 9.4023Z" fill="#4285F4"/>
<path d="M9.19542 18.3908C11.6782 18.3908 13.7548 17.5632 15.272 16.1609L12.3142 13.8621C11.4866 14.4138 10.4368 14.751 9.19542 14.751C6.79695 14.751 4.7663 13.1341 4.03833 10.9502H0.988525V13.318C2.4981 16.3218 5.60155 18.3908 9.19542 18.3908Z" fill="#34A853"/>
<path d="M4.03831 10.9501C3.84674 10.3984 3.74712 9.80838 3.74712 9.19535C3.74712 8.58233 3.8544 7.99229 4.03831 7.44057V5.07275H0.988505C0.360152 6.31413 0 7.70877 0 9.19535C0 10.6819 0.360152 12.0766 0.988505 13.318L4.03831 10.9501Z" fill="#FBBC05"/>
<path d="M9.19542 3.63984C10.5517 3.63984 11.7625 4.10728 12.7203 5.01916L15.341 2.39847C13.7548 0.911878 11.6782 0 9.19542 0C5.60155 0 2.4981 2.06897 0.988525 5.0728L4.03833 7.44061C4.7663 5.2567 6.79695 3.63984 9.19542 3.63984Z" fill="#EA4335"/>
</svg>
