<svg width="25" height="25" viewBox="0 0 25 25" fill="none" xmlns="http://www.w3.org/2000/svg">
<path fill-rule="evenodd" clip-rule="evenodd" d="M4.36205 11.8528C4.19798 12.2488 4.16671 12.4511 4.16671 12.4998V20.8351C4.16671 21.4091 4.63183 21.8748 5.20837 21.8748H8.33337V15.6248C8.33337 14.4742 9.26611 13.5415 10.4167 13.5415H14.5834C15.734 13.5415 16.6667 14.4742 16.6667 15.6248V21.8748H19.7917C20.3682 21.8748 20.8334 21.4091 20.8334 20.8351V12.4998C20.8334 12.4511 20.8021 12.2488 20.638 11.8528C20.4856 11.4849 20.2545 11.0338 19.9529 10.5233C19.3504 9.50379 18.5052 8.31233 17.5592 7.17711C16.611 6.03929 15.5874 4.9891 14.6357 4.23373C14.1599 3.85613 13.7226 3.56868 13.3391 3.37942C12.947 3.1859 12.671 3.12484 12.5 3.12484C12.3291 3.12484 12.0531 3.1859 11.661 3.37942C11.2775 3.56868 10.8402 3.85613 10.3644 4.23373C9.41264 4.9891 8.38908 6.03929 7.4409 7.17711C6.49488 8.31233 5.64964 9.50379 5.04723 10.5233C4.74554 11.0338 4.51447 11.4849 4.36205 11.8528ZM10.739 1.5112C11.2868 1.24086 11.8897 1.0415 12.5 1.0415C13.1104 1.0415 13.7133 1.24086 14.2611 1.5112C14.8175 1.78582 15.3812 2.16568 15.9308 2.60188C17.0298 3.47412 18.1547 4.63746 19.1596 5.84339C20.1668 7.05193 21.0793 8.33442 21.7464 9.4634C22.0795 10.0271 22.3611 10.5688 22.5627 11.0554C22.7527 11.5139 22.9167 12.0277 22.9167 12.4998V20.8351C22.9167 22.5622 21.5164 23.9582 19.7917 23.9582H16.6667C15.5161 23.9582 14.5834 23.0254 14.5834 21.8748V15.6248H10.4167V21.8748C10.4167 23.0254 9.48397 23.9582 8.33337 23.9582H5.20837C3.48373 23.9582 2.08337 22.5622 2.08337 20.8351V12.4998C2.08337 12.0277 2.24742 11.5139 2.43735 11.0554C2.63894 10.5688 2.92055 10.0271 3.25363 9.4634C3.92076 8.33442 4.83332 7.05193 5.84044 5.84339C6.84538 4.63746 7.97026 3.47412 9.06928 2.60188C9.61889 2.16568 10.1826 1.78582 10.739 1.5112Z" fill="#656565"/>
</svg>
