<svg width="19" height="19" viewBox="0 0 19 19" fill="none" xmlns="http://www.w3.org/2000/svg">
<path fill-rule="evenodd" clip-rule="evenodd" d="M15.8333 18.2085L9.50001 18.2085C9.06278 18.2085 8.70834 17.8541 8.70834 17.4168C8.70834 16.9796 9.06278 16.6252 9.50001 16.6252L15.8333 16.6252C16.2706 16.6252 16.625 16.2707 16.625 15.8335L16.625 3.16683C16.625 2.7296 16.2706 2.37516 15.8333 2.37516L9.50001 2.37516C9.06278 2.37516 8.70834 2.02072 8.70834 1.58349C8.70834 1.14627 9.06278 0.791828 9.50001 0.791828L15.8333 0.791828C17.145 0.791828 18.2083 1.85515 18.2083 3.16683L18.2083 15.8335C18.2083 17.1452 17.145 18.2085 15.8333 18.2085Z" fill="white"/>
<path fill-rule="evenodd" clip-rule="evenodd" d="M14.7947 8.46317C15.3105 9.05829 15.3105 9.942 14.7947 10.5371L11.4882 14.3524C10.5282 15.46 8.70833 14.7811 8.70833 13.3154L8.70833 11.8751L3.95833 11.8751C3.08388 11.8751 2.375 11.1663 2.375 10.2918L2.375 8.70848C2.375 7.83403 3.08388 7.12515 3.95833 7.12515L8.70833 7.12515L8.70833 5.68489C8.70833 4.21919 10.5282 3.5403 11.4882 4.64791L14.7947 8.46317ZM13.1489 10.0186C13.4068 9.72107 13.4068 9.27922 13.1489 8.98166L10.2917 5.68489L10.2917 7.52098C10.2917 8.17682 9.76 8.70848 9.10417 8.70848L3.95833 8.70848L3.95833 10.2918L9.10417 10.2918C9.76 10.2918 10.2917 10.8235 10.2917 11.4793L10.2917 13.3154L13.1489 10.0186Z" fill="white"/>
</svg>
