<svg width="138" height="138" viewBox="0 0 138 138" fill="none" xmlns="http://www.w3.org/2000/svg">
<path d="M138 46.0368C138 20.6448 117.355 0 91.9632 0C83.5728 0 75.7344 2.20797 69 6.18237C62.2656 2.31837 54.4272 0 46.0368 0C20.6448 0 0 20.6448 0 46.0368C0 54.4272 2.20801 62.2656 6.18241 69C2.31841 75.7344 0 83.5728 0 91.9632C0 117.355 20.6448 138 46.0368 138C54.4272 138 62.2656 135.792 69 131.818C75.7344 135.682 83.5728 138 91.9632 138C117.355 138 138 117.355 138 91.9632C138 83.5728 135.792 75.7344 131.818 69C135.682 62.2656 138 54.4272 138 46.0368ZM68.8896 92.0736C56.1936 92.0736 45.9264 81.8064 45.9264 69.1104C45.9264 56.4144 56.1936 46.1472 68.8896 46.1472C81.5856 46.1472 91.8528 56.4144 91.8528 69.1104C91.8528 81.8064 81.696 92.0736 68.8896 92.0736Z" fill="#F0C23A"/>
</svg>
