<svg width="142" height="27" viewBox="0 0 142 27" fill="none" xmlns="http://www.w3.org/2000/svg">
<path d="M27.52 18.52C27.4933 18.7333 27.4667 18.9733 27.44 19.24C27.44 19.48 27.4267 19.72 27.4 19.96C27.3733 20.1733 27.36 20.3733 27.36 20.56C27.36 20.7467 27.32 20.9467 27.24 21.16C27.1867 21.2933 27.16 21.44 27.16 21.6C27.16 21.7333 27.16 21.88 27.16 22.04C27.16 22.1733 27.16 22.32 27.16 22.48C27.16 22.6133 27.1467 22.7467 27.12 22.88C27.0933 23.0933 27.0533 23.32 27 23.56C26.9733 23.7733 26.9333 23.9867 26.88 24.2C26.8533 24.3067 26.8133 24.4267 26.76 24.56C26.7067 24.6667 26.6533 24.76 26.6 24.84L26.32 25.12C26.16 25.28 25.9733 25.3333 25.76 25.28C25.6267 25.2267 25.4933 25.1867 25.36 25.16C25.2533 25.1333 25.1333 25.1733 25 25.28C24.8133 25.1467 24.5867 25.04 24.32 24.96H23.88C23.8267 24.96 23.7733 24.9467 23.72 24.92C23.6667 24.8933 23.6133 24.88 23.56 24.88C23.48 24.9067 23.4 24.9333 23.32 24.96C23.24 24.9867 23.1733 25.0133 23.12 25.04C22.96 25.04 22.8533 25.0267 22.8 25C22.5067 24.76 22.36 24.4667 22.36 24.12C22.3333 23.8267 22.28 23.5467 22.2 23.28C22.12 22.9867 22.04 22.6933 21.96 22.4C22.0133 22.1867 22.0267 21.96 22 21.72C22 21.48 22.0133 21.24 22.04 21C22.0667 20.8667 22.0667 20.7333 22.04 20.6C22.04 20.44 22.0933 20.2933 22.2 20.16C22.2 19.84 22.24 19.48 22.32 19.08C22.3467 18.9733 22.3467 18.8533 22.32 18.72C22.2933 18.4533 22.24 18.2 22.16 17.96C22.1067 17.6933 22.0133 17.44 21.88 17.2C21.8267 17.0933 21.76 17 21.68 16.92C21.6267 16.8133 21.5333 16.7467 21.4 16.72C21.2933 16.64 21.1733 16.5733 21.04 16.52C20.9067 16.4667 20.7867 16.4133 20.68 16.36C20.4933 16.44 20.3333 16.4933 20.2 16.52C20.1467 16.4933 20.08 16.4667 20 16.44C19.92 16.4133 19.8533 16.3867 19.8 16.36C19.7733 16.3867 19.7333 16.4 19.68 16.4C19.6533 16.4 19.6267 16.4133 19.6 16.44C19.44 16.68 19.24 16.88 19 17.04C18.8933 17.0667 18.7867 17.1333 18.68 17.24C18.5733 17.32 18.4667 17.4 18.36 17.48C18.28 17.56 18.1733 17.6133 18.04 17.64C17.9333 17.6667 17.8133 17.7067 17.68 17.76C17.6533 17.84 17.6267 17.92 17.6 18C17.6 18.08 17.5733 18.16 17.52 18.24C17.4933 18.2933 17.4533 18.36 17.4 18.44C17.3733 18.52 17.3467 18.5867 17.32 18.64C17.1867 19.0133 17.1067 19.36 17.08 19.68C17.0533 19.76 17.04 19.84 17.04 19.92C17.0933 20.08 17.08 20.2133 17 20.32C16.9467 20.4 16.8933 20.4933 16.84 20.6C16.8133 21.0533 16.7867 21.5067 16.76 21.96C16.76 22.4133 16.7467 22.8667 16.72 23.32C16.72 23.48 16.7067 23.6133 16.68 23.72C16.6267 23.88 16.5733 24.0533 16.52 24.24C16.4933 24.4 16.4533 24.5733 16.4 24.76L15.56 24.6C15.4267 24.6 15.28 24.6 15.12 24.6C14.96 24.6 14.8 24.5867 14.64 24.56H13.84C13.6533 24.56 13.4667 24.56 13.28 24.56C13.0933 24.56 12.9067 24.5467 12.72 24.52C12.4267 24.52 12.2133 24.4133 12.08 24.2C11.9733 23.88 11.88 23.56 11.8 23.24C11.72 22.8933 11.68 22.5467 11.68 22.2C11.68 22.0933 11.68 21.9867 11.68 21.88C11.7067 21.7733 11.7467 21.68 11.8 21.6C11.8533 21.3867 11.88 21.2 11.88 21.04C11.9067 20.88 11.92 20.7067 11.92 20.52C11.8933 20.1467 11.8933 19.76 11.92 19.36C11.9733 18.96 11.9867 18.5733 11.96 18.2C11.9333 18.0933 11.92 18 11.92 17.92C11.92 17.84 11.92 17.76 11.92 17.68C11.8933 17.5467 11.8533 17.4267 11.8 17.32C11.7467 17.2133 11.7333 17.1067 11.76 17C11.76 16.8667 11.76 16.7333 11.76 16.6C11.7867 16.4667 11.8 16.3333 11.8 16.2C11.72 16.0933 11.64 16 11.56 15.92C11.5067 15.84 11.4267 15.7467 11.32 15.64C11.24 15.64 11.1467 15.64 11.04 15.64C10.96 15.6133 10.8667 15.5867 10.76 15.56C10.6533 15.5067 10.52 15.44 10.36 15.36C10.2267 15.28 10.0933 15.2133 9.96 15.16C9.85333 15.1067 9.73333 15.0533 9.6 15C9.49333 14.9467 9.4 14.9067 9.32 14.88C9.10667 14.96 8.88 15.0667 8.64 15.2C8.56 15.2267 8.46667 15.2533 8.36 15.28C8.28 15.28 8.18667 15.2933 8.08 15.32C7.94667 15.4533 7.8 15.5867 7.64 15.72C7.50667 15.8533 7.36 16 7.2 16.16C7.14667 16.2667 7.09333 16.3867 7.04 16.52C6.98667 16.6267 6.93333 16.7467 6.88 16.88C6.72 17.2533 6.58667 17.64 6.48 18.04C6.4 18.4133 6.36 18.8267 6.36 19.28V20.6C6.36 21.0533 6.33333 21.5067 6.28 21.96C6.22667 22.3867 6.16 22.8267 6.08 23.28C6.05333 23.4667 6 23.64 5.92 23.8C5.86667 23.96 5.81333 24.1467 5.76 24.36C5.62667 24.5467 5.48 24.72 5.32 24.88C5.16 25.0133 4.97333 25.1067 4.76 25.16C4.38667 25.1333 4.13333 25.1333 4 25.16C3.89333 25.16 3.65333 25.2267 3.28 25.36C3.17333 25.3867 3.06667 25.4133 2.96 25.44C2.88 25.4667 2.77333 25.4933 2.64 25.52C2.50667 25.5467 2.38667 25.5467 2.28 25.52C2.17333 25.4933 1.98667 25.44 1.72 25.36C1.61333 25.2 1.48 25.0267 1.32 24.84C1.18667 24.6533 1.05333 24.4667 0.92 24.28C0.946667 24.2 0.96 24.12 0.96 24.04C0.986667 23.96 1.01333 23.8933 1.04 23.84C1.09333 23.4933 1.09333 23.16 1.04 22.84C0.96 22.52 0.893333 22.2 0.84 21.88C0.786667 21.56 0.72 21.2667 0.64 21C0.64 20.7867 0.68 20.6133 0.76 20.48C0.866667 20.3467 0.933333 20.1733 0.96 19.96C1.01333 19.7733 1.04 19.56 1.04 19.32C1.06667 19.0533 1.09333 18.8 1.12 18.56C1.12 18.2933 1.12 18.04 1.12 17.8C1.12 17.5333 1.14667 17.2933 1.2 17.08C1.2 16.8933 1.18667 16.7733 1.16 16.72C1.08 16.1867 1.10667 15.6667 1.24 15.16C1.29333 15.0267 1.32 14.92 1.32 14.84C1.34667 14.7333 1.37333 14.6533 1.4 14.6C1.48 14.44 1.58667 14.3333 1.72 14.28C1.85333 14.2267 1.97333 14.1467 2.08 14.04C2.21333 13.8 2.24 13.56 2.16 13.32C2.10667 13.08 2.06667 12.8267 2.04 12.56C2.09333 12.4267 2.14667 12.2933 2.2 12.16C2.25333 12 2.29333 11.84 2.32 11.68C2.53333 11.4667 2.72 11.24 2.88 11C3.06667 10.76 3.24 10.5333 3.4 10.32C3.45333 10.2667 3.48 10.1733 3.48 10.04C3.48 9.90667 3.53333 9.81333 3.64 9.76C3.69333 9.73333 3.74667 9.72 3.8 9.72C3.88 9.69333 3.93333 9.66667 3.96 9.64C4.41333 9.50667 4.86667 9.37333 5.32 9.24C5.77333 9.10667 6.21333 8.94667 6.64 8.76C7.12 8.54667 7.6 8.44 8.08 8.44C8.13333 8.44 8.18667 8.44 8.24 8.44C8.29333 8.41333 8.36 8.4 8.44 8.4C8.78667 8.26667 9.13333 8.18667 9.48 8.16C9.85333 8.13333 10.2267 8.12 10.6 8.12H11.08C11.2133 8.14667 11.3467 8.18667 11.48 8.24C11.64 8.26667 11.7867 8.33333 11.92 8.44C12.1333 8.54667 12.3333 8.65333 12.52 8.76C12.7333 8.84 12.96 8.89333 13.2 8.92C13.3067 8.94667 13.3867 9 13.44 9.08C13.52 9.13333 13.6 9.18667 13.68 9.24C13.8133 9.34667 13.92 9.46667 14 9.6C14.1067 9.73333 14.2133 9.86667 14.32 10C14.3733 10.1067 14.4133 10.2267 14.44 10.36C14.4933 10.4667 14.5333 10.5867 14.56 10.72C14.6667 10.8267 14.7733 10.9333 14.88 11.04C14.9867 11.1467 15.1333 11.1867 15.32 11.16C15.4533 11.0267 15.5867 10.9067 15.72 10.8C15.8533 10.6667 15.9733 10.5333 16.08 10.4C16.16 10.4267 16.28 10.44 16.44 10.44L17.44 9.76C17.4933 9.62667 17.5467 9.52 17.6 9.44C17.6533 9.36 17.6933 9.26667 17.72 9.16C17.8533 9.13333 17.9867 9.12 18.12 9.12C18.2533 9.09333 18.3867 9.06667 18.52 9.04C18.7067 8.93333 18.88 8.85333 19.04 8.8C19.2 8.72 19.36 8.62667 19.52 8.52C19.6533 8.52 19.7867 8.53333 19.92 8.56C20.08 8.56 20.2267 8.56 20.36 8.56C20.4667 8.58667 20.5733 8.6 20.68 8.6C20.8133 8.57333 20.9333 8.58667 21.04 8.64C21.3867 8.74667 21.7333 8.81333 22.08 8.84C22.4267 8.84 22.7733 8.86667 23.12 8.92C23.1733 8.97333 23.28 9 23.44 9L24.32 9.84C24.32 9.86667 24.3333 9.89333 24.36 9.92C24.3867 9.94667 24.4 9.97333 24.4 10C24.64 10.6933 25.04 11.1867 25.6 11.48C25.6267 11.5333 25.64 11.6133 25.64 11.72C25.6667 11.8 25.6933 11.8667 25.72 11.92C25.88 12.08 26.0533 12.16 26.24 12.16C26.56 12.2133 26.7067 12.36 26.68 12.6C26.68 12.92 26.72 13.24 26.8 13.56C26.9067 13.88 27.0133 14.1867 27.12 14.48L27.4 15.48C27.4 15.6667 27.4 15.88 27.4 16.12C27.4267 16.36 27.44 16.5867 27.44 16.8C27.44 16.9067 27.44 17.0133 27.44 17.12C27.4667 17.2 27.4933 17.2933 27.52 17.4C27.6 17.7467 27.6 18.12 27.52 18.52ZM48.6334 15.08C48.7134 15.4 48.7001 15.6933 48.5934 15.96C48.5401 16.0933 48.5001 16.2267 48.4734 16.36C48.4468 16.4933 48.4468 16.6267 48.4734 16.76C48.5001 16.7867 48.5001 16.8267 48.4734 16.88C48.4734 16.9067 48.4734 16.9467 48.4734 17C48.3668 17.2133 48.3134 17.44 48.3134 17.68C48.3401 17.92 48.3668 18.1467 48.3934 18.36L47.9934 18.92V19.44C47.9401 19.4933 47.8734 19.56 47.7934 19.64C47.7134 19.6933 47.6068 19.7733 47.4734 19.88C47.4201 20.0667 47.3401 20.2667 47.2334 20.48C47.1534 20.6933 47.0868 20.8933 47.0334 21.08V21.48C46.9268 21.5867 46.7934 21.68 46.6334 21.76C46.4734 21.84 46.3401 21.96 46.2334 22.12C46.1268 22.2 46.0201 22.2667 45.9134 22.32C45.8068 22.3733 45.6868 22.44 45.5534 22.52C45.5001 22.5467 45.4334 22.56 45.3534 22.56C45.3001 22.5333 45.2468 22.5333 45.1934 22.56C44.7934 22.56 44.5934 22.7467 44.5934 23.12C44.3001 23.3067 44.0068 23.5067 43.7134 23.72C43.4468 23.9333 43.1668 24.1467 42.8734 24.36C42.4201 24.7067 41.8334 24.9467 41.1134 25.08C40.8734 25.1067 40.6468 25.1733 40.4334 25.28C40.2201 25.36 39.9934 25.4267 39.7534 25.48C39.7001 25.48 39.6334 25.4667 39.5534 25.44C39.4734 25.4133 39.4068 25.4133 39.3534 25.44C39.0334 25.4667 38.7001 25.44 38.3534 25.36C38.2468 25.3333 38.1401 25.3333 38.0334 25.36C37.9268 25.3867 37.8334 25.4133 37.7534 25.44C37.5668 25.4133 37.3801 25.3867 37.1934 25.36C37.0068 25.3333 36.8068 25.3067 36.5934 25.28C36.3534 25.1733 36.1268 25.0533 35.9134 24.92C35.7268 24.7867 35.5268 24.6667 35.3134 24.56C35.1534 24.5067 35.0068 24.4133 34.8734 24.28C34.7401 24.1467 34.6334 24.0133 34.5534 23.88C34.5268 23.8267 34.4868 23.7867 34.4334 23.76C34.4068 23.7067 34.3668 23.6533 34.3134 23.6C34.2334 23.5467 34.1534 23.5067 34.0734 23.48C33.9934 23.4267 33.9134 23.36 33.8334 23.28C33.4068 22.9867 33.0201 22.6667 32.6734 22.32C32.3534 21.9733 32.1134 21.5467 31.9534 21.04C31.8201 20.6933 31.6601 20.3867 31.4734 20.12C31.4201 20.0133 31.3534 19.92 31.2734 19.84C31.2201 19.7333 31.1668 19.6267 31.1134 19.52C31.1401 19.4667 31.1801 19.36 31.2334 19.2C31.1801 19.12 31.1268 19.04 31.0734 18.96C31.0201 18.88 30.9934 18.7867 30.9934 18.68C30.9934 18.6 30.9801 18.52 30.9534 18.44C30.9534 18.3333 30.9668 18.2267 30.9934 18.12C31.0468 17.9333 31.0601 17.7467 31.0334 17.56C31.0068 17.3733 31.0068 17.1867 31.0334 17C31.0601 16.84 31.0468 16.6667 30.9934 16.48C30.9668 16.2933 30.9934 16.12 31.0734 15.96C31.1268 15.7733 31.1668 15.6 31.1934 15.44C31.2201 15.28 31.2601 15.12 31.3134 14.96C31.3668 14.8 31.4201 14.6533 31.4734 14.52C31.5268 14.36 31.5801 14.2133 31.6334 14.08C31.6868 13.92 31.7401 13.76 31.7934 13.6C31.8468 13.44 31.9268 13.2667 32.0334 13.08C32.0334 13.0267 32.0334 12.96 32.0334 12.88C32.0334 12.8 32.0468 12.7467 32.0734 12.72C32.1801 12.5067 32.2601 12.3067 32.3134 12.12C32.3668 11.9333 32.3801 11.7467 32.3534 11.56C32.4601 11.4267 32.5534 11.32 32.6334 11.24C32.7134 11.16 32.7801 11.0667 32.8334 10.96C32.8868 10.8267 32.9401 10.7067 32.9934 10.6C33.0734 10.4667 33.1534 10.3467 33.2334 10.24C33.3134 10.0267 33.4334 9.84 33.5934 9.68C33.7001 9.54667 33.7934 9.44 33.8734 9.36C33.9534 9.25333 34.0201 9.17333 34.0734 9.12C34.1534 8.96 34.1801 8.82667 34.1534 8.72C34.1268 8.58667 34.1134 8.48 34.1134 8.4C34.1668 8.26667 34.2068 8.18667 34.2334 8.16C34.3134 8.13333 34.3801 8.09333 34.4334 8.04C34.5134 7.98667 34.5934 7.94667 34.6734 7.92C34.8868 7.78667 35.1134 7.65333 35.3534 7.52C35.5934 7.38667 35.8334 7.28 36.0734 7.2C36.3134 7.04 36.5534 6.93333 36.7934 6.88C37.0601 6.8 37.3268 6.72 37.5934 6.64C37.8068 6.64 38.0201 6.64 38.2334 6.64C38.4468 6.64 38.6468 6.65333 38.8334 6.68H39.1934C39.4868 6.78667 39.7801 6.84 40.0734 6.84C40.3934 6.84 40.7001 6.82667 40.9934 6.8C41.1268 6.8 41.2601 6.8 41.3934 6.8C41.5534 6.77333 41.7001 6.76 41.8334 6.76C41.9668 6.86667 42.0734 6.96 42.1534 7.04C42.2601 7.09333 42.3668 7.17333 42.4734 7.28C42.5534 7.30667 42.6334 7.34667 42.7134 7.4C42.7934 7.45333 42.8868 7.49333 42.9934 7.52C43.3668 7.54667 43.7001 7.66667 43.9934 7.88C44.3134 8.09333 44.6068 8.30667 44.8734 8.52C44.8734 8.57333 44.8734 8.65333 44.8734 8.76C44.8734 8.84 44.8868 8.92 44.9134 9C44.9134 9.13333 44.9934 9.25333 45.1534 9.36C45.2334 9.38667 45.3268 9.4 45.4334 9.4C45.5401 9.4 45.6468 9.42667 45.7534 9.48C45.8068 9.58667 45.8734 9.70667 45.9534 9.84C46.0601 9.97333 46.1534 10.1067 46.2334 10.24C46.3401 10.3467 46.4468 10.4533 46.5534 10.56C46.6601 10.6667 46.7401 10.7867 46.7934 10.92C46.8468 10.9733 46.8868 11.04 46.9134 11.12C46.9668 11.2 47.0068 11.2667 47.0334 11.32C47.1134 11.4 47.1934 11.48 47.2734 11.56C47.3534 11.64 47.4068 11.7467 47.4334 11.88C47.4868 12.0667 47.5668 12.2533 47.6734 12.44C47.7801 12.6267 47.8601 12.8267 47.9134 13.04C47.9401 13.12 47.9801 13.2 48.0334 13.28C48.1134 13.36 48.1934 13.4533 48.2734 13.56C48.3268 13.8 48.3668 14.0533 48.3934 14.32C48.4468 14.5867 48.5268 14.84 48.6334 15.08ZM43.0334 16.52C43.0601 16.3333 43.0334 16.1733 42.9534 16.04C42.8734 15.88 42.8468 15.72 42.8734 15.56C42.8734 15.5067 42.8334 15.44 42.7534 15.36C42.7268 15.3067 42.7134 15.2 42.7134 15.04C42.7401 14.9867 42.7534 14.92 42.7534 14.84C42.7534 14.7333 42.7534 14.6667 42.7534 14.64C42.5668 14.3467 42.3934 14.08 42.2334 13.84C42.0734 13.5733 41.9001 13.32 41.7134 13.08C41.7134 13.0267 41.6868 13 41.6334 13C41.5801 12.9733 41.5268 12.92 41.4734 12.84C41.0201 12.84 40.5268 12.72 39.9934 12.48C39.6734 12.32 39.2868 12.3067 38.8334 12.44C38.8068 12.44 38.7668 12.4533 38.7134 12.48C38.6868 12.5067 38.6468 12.5467 38.5934 12.6H38.3934C37.9668 12.52 37.6868 12.68 37.5534 13.08C37.5001 13.1867 37.4334 13.3067 37.3534 13.44C37.3001 13.5467 37.2601 13.6667 37.2334 13.8C37.2068 13.9067 37.1534 14.0267 37.0734 14.16C36.9934 14.2667 36.9268 14.3733 36.8734 14.48C36.7668 14.6133 36.6734 14.76 36.5934 14.92C36.5134 15.08 36.4201 15.2267 36.3134 15.36C36.2868 15.6267 36.2201 15.8933 36.1134 16.16C36.0334 16.4267 35.9801 16.68 35.9534 16.92C36.0334 17.0533 36.1134 17.2 36.1934 17.36C36.2734 17.4933 36.3401 17.6267 36.3934 17.76C36.5534 18.1067 36.6201 18.44 36.5934 18.76C36.5934 18.8133 36.6068 18.8667 36.6334 18.92C36.6601 18.9733 36.6868 19.0267 36.7134 19.08C36.9534 19.1333 37.1801 19.1867 37.3934 19.24C37.6334 19.2933 37.8601 19.36 38.0734 19.44C38.2601 19.4933 38.4468 19.5333 38.6334 19.56C38.8201 19.5867 39.0068 19.56 39.1934 19.48H39.3134C39.5268 19.5333 39.7268 19.5467 39.9134 19.52C40.1268 19.4667 40.3534 19.4133 40.5934 19.36C40.7801 19.2267 40.9668 19.08 41.1534 18.92C41.3668 18.76 41.5801 18.6267 41.7934 18.52C41.9801 18.1467 42.2068 17.8133 42.4734 17.52C42.7401 17.2267 42.9268 16.8933 43.0334 16.52ZM78.9263 18.52C78.8996 18.7333 78.8729 18.9733 78.8463 19.24C78.8463 19.48 78.8329 19.72 78.8063 19.96C78.7796 20.1733 78.7663 20.3733 78.7663 20.56C78.7663 20.7467 78.7263 20.9467 78.6463 21.16C78.5929 21.2933 78.5663 21.44 78.5663 21.6C78.5663 21.7333 78.5663 21.88 78.5663 22.04C78.5663 22.1733 78.5663 22.32 78.5663 22.48C78.5663 22.6133 78.5529 22.7467 78.5263 22.88C78.4996 23.0933 78.4596 23.32 78.4063 23.56C78.3796 23.7733 78.3396 23.9867 78.2863 24.2C78.2596 24.3067 78.2196 24.4267 78.1663 24.56C78.1129 24.6667 78.0596 24.76 78.0063 24.84L77.7263 25.12C77.5663 25.28 77.3796 25.3333 77.1663 25.28C77.0329 25.2267 76.8996 25.1867 76.7663 25.16C76.6596 25.1333 76.5396 25.1733 76.4063 25.28C76.2196 25.1467 75.9929 25.04 75.7263 24.96H75.2863C75.2329 24.96 75.1796 24.9467 75.1263 24.92C75.0729 24.8933 75.0196 24.88 74.9663 24.88C74.8863 24.9067 74.8063 24.9333 74.7263 24.96C74.6463 24.9867 74.5796 25.0133 74.5263 25.04C74.3663 25.04 74.2596 25.0267 74.2063 25C73.9129 24.76 73.7663 24.4667 73.7663 24.12C73.7396 23.8267 73.6863 23.5467 73.6063 23.28C73.5263 22.9867 73.4463 22.6933 73.3663 22.4C73.4196 22.1867 73.4329 21.96 73.4063 21.72C73.4063 21.48 73.4196 21.24 73.4463 21C73.4729 20.8667 73.4729 20.7333 73.4463 20.6C73.4463 20.44 73.4996 20.2933 73.6063 20.16C73.6063 19.84 73.6463 19.48 73.7263 19.08C73.7529 18.9733 73.7529 18.8533 73.7263 18.72C73.6996 18.4533 73.6463 18.2 73.5663 17.96C73.5129 17.6933 73.4196 17.44 73.2863 17.2C73.2329 17.0933 73.1663 17 73.0863 16.92C73.0329 16.8133 72.9396 16.7467 72.8063 16.72C72.6996 16.64 72.5796 16.5733 72.4462 16.52C72.3129 16.4667 72.1929 16.4133 72.0863 16.36C71.8996 16.44 71.7396 16.4933 71.6063 16.52C71.5529 16.4933 71.4863 16.4667 71.4063 16.44C71.3263 16.4133 71.2596 16.3867 71.2063 16.36C71.1796 16.3867 71.1396 16.4 71.0863 16.4C71.0596 16.4 71.0329 16.4133 71.0063 16.44C70.8463 16.68 70.6463 16.88 70.4062 17.04C70.2996 17.0667 70.1929 17.1333 70.0863 17.24C69.9796 17.32 69.8729 17.4 69.7663 17.48C69.6863 17.56 69.5796 17.6133 69.4463 17.64C69.3396 17.6667 69.2196 17.7067 69.0863 17.76C69.0596 17.84 69.0329 17.92 69.0063 18C69.0063 18.08 68.9796 18.16 68.9263 18.24C68.8996 18.2933 68.8596 18.36 68.8063 18.44C68.7796 18.52 68.7529 18.5867 68.7263 18.64C68.5929 19.0133 68.5129 19.36 68.4863 19.68C68.4596 19.76 68.4463 19.84 68.4463 19.92C68.4996 20.08 68.4863 20.2133 68.4063 20.32C68.3529 20.4 68.2996 20.4933 68.2463 20.6C68.2196 21.0533 68.1929 21.5067 68.1663 21.96C68.1663 22.4133 68.1529 22.8667 68.1263 23.32C68.1263 23.48 68.1129 23.6133 68.0863 23.72C68.0329 23.88 67.9796 24.0533 67.9263 24.24C67.8996 24.4 67.8596 24.5733 67.8063 24.76L66.9663 24.6C66.8329 24.6 66.6863 24.6 66.5263 24.6C66.3663 24.6 66.2063 24.5867 66.0463 24.56H65.2463C65.0596 24.56 64.8729 24.56 64.6863 24.56C64.4996 24.56 64.3129 24.5467 64.1263 24.52C63.8329 24.52 63.6196 24.4133 63.4863 24.2C63.3796 23.88 63.2863 23.56 63.2063 23.24C63.1263 22.8933 63.0863 22.5467 63.0863 22.2C63.0863 22.0933 63.0863 21.9867 63.0863 21.88C63.1129 21.7733 63.1529 21.68 63.2063 21.6C63.2596 21.3867 63.2863 21.2 63.2863 21.04C63.3129 20.88 63.3263 20.7067 63.3263 20.52C63.2996 20.1467 63.2996 19.76 63.3263 19.36C63.3796 18.96 63.3929 18.5733 63.3663 18.2C63.3396 18.0933 63.3263 18 63.3263 17.92C63.3263 17.84 63.3263 17.76 63.3263 17.68C63.2996 17.5467 63.2596 17.4267 63.2063 17.32C63.1529 17.2133 63.1396 17.1067 63.1663 17C63.1663 16.8667 63.1663 16.7333 63.1663 16.6C63.1929 16.4667 63.2063 16.3333 63.2063 16.2C63.1263 16.0933 63.0463 16 62.9663 15.92C62.9129 15.84 62.8329 15.7467 62.7263 15.64C62.6463 15.64 62.5529 15.64 62.4463 15.64C62.3663 15.6133 62.2729 15.5867 62.1662 15.56C62.0596 15.5067 61.9263 15.44 61.7663 15.36C61.6329 15.28 61.4996 15.2133 61.3663 15.16C61.2596 15.1067 61.1396 15.0533 61.0063 15C60.8996 14.9467 60.8063 14.9067 60.7263 14.88C60.5129 14.96 60.2863 15.0667 60.0463 15.2C59.9663 15.2267 59.8729 15.2533 59.7663 15.28C59.6863 15.28 59.5929 15.2933 59.4863 15.32C59.3529 15.4533 59.2063 15.5867 59.0463 15.72C58.9129 15.8533 58.7663 16 58.6063 16.16C58.5529 16.2667 58.4996 16.3867 58.4463 16.52C58.3929 16.6267 58.3396 16.7467 58.2863 16.88C58.1263 17.2533 57.9929 17.64 57.8863 18.04C57.8063 18.4133 57.7663 18.8267 57.7663 19.28V20.6C57.7663 21.0533 57.7396 21.5067 57.6863 21.96C57.6329 22.3867 57.5663 22.8267 57.4863 23.28C57.4596 23.4667 57.4063 23.64 57.3263 23.8C57.2729 23.96 57.2196 24.1467 57.1663 24.36C57.0329 24.5467 56.8863 24.72 56.7263 24.88C56.5663 25.0133 56.3796 25.1067 56.1663 25.16C55.7929 25.1333 55.5396 25.1333 55.4062 25.16C55.2996 25.16 55.0596 25.2267 54.6863 25.36C54.5796 25.3867 54.4729 25.4133 54.3663 25.44C54.2863 25.4667 54.1796 25.4933 54.0463 25.52C53.9129 25.5467 53.7929 25.5467 53.6863 25.52C53.5796 25.4933 53.3929 25.44 53.1263 25.36C53.0196 25.2 52.8863 25.0267 52.7263 24.84C52.5929 24.6533 52.4596 24.4667 52.3263 24.28C52.3529 24.2 52.3663 24.12 52.3663 24.04C52.3929 23.96 52.4196 23.8933 52.4463 23.84C52.4996 23.4933 52.4996 23.16 52.4463 22.84C52.3663 22.52 52.2996 22.2 52.2463 21.88C52.1929 21.56 52.1263 21.2667 52.0463 21C52.0463 20.7867 52.0863 20.6133 52.1663 20.48C52.2729 20.3467 52.3396 20.1733 52.3663 19.96C52.4196 19.7733 52.4463 19.56 52.4463 19.32C52.4729 19.0533 52.4996 18.8 52.5263 18.56C52.5263 18.2933 52.5263 18.04 52.5263 17.8C52.5263 17.5333 52.5529 17.2933 52.6063 17.08C52.6063 16.8933 52.5929 16.7733 52.5663 16.72C52.4863 16.1867 52.5129 15.6667 52.6463 15.16C52.6996 15.0267 52.7263 14.92 52.7263 14.84C52.7529 14.7333 52.7796 14.6533 52.8063 14.6C52.8863 14.44 52.9929 14.3333 53.1263 14.28C53.2596 14.2267 53.3796 14.1467 53.4863 14.04C53.6196 13.8 53.6463 13.56 53.5663 13.32C53.5129 13.08 53.4729 12.8267 53.4463 12.56C53.4996 12.4267 53.5529 12.2933 53.6063 12.16C53.6596 12 53.6996 11.84 53.7263 11.68C53.9396 11.4667 54.1263 11.24 54.2863 11C54.4729 10.76 54.6463 10.5333 54.8063 10.32C54.8596 10.2667 54.8863 10.1733 54.8863 10.04C54.8863 9.90667 54.9396 9.81333 55.0463 9.76C55.0996 9.73333 55.1529 9.72 55.2063 9.72C55.2863 9.69333 55.3396 9.66667 55.3663 9.64C55.8196 9.50667 56.2729 9.37333 56.7263 9.24C57.1796 9.10667 57.6196 8.94667 58.0463 8.76C58.5263 8.54667 59.0063 8.44 59.4863 8.44C59.5396 8.44 59.5929 8.44 59.6463 8.44C59.6996 8.41333 59.7663 8.4 59.8463 8.4C60.1929 8.26667 60.5396 8.18667 60.8863 8.16C61.2596 8.13333 61.6329 8.12 62.0063 8.12H62.4863C62.6196 8.14667 62.7529 8.18667 62.8863 8.24C63.0463 8.26667 63.1929 8.33333 63.3263 8.44C63.5396 8.54667 63.7396 8.65333 63.9263 8.76C64.1396 8.84 64.3663 8.89333 64.6063 8.92C64.7129 8.94667 64.7929 9 64.8463 9.08C64.9263 9.13333 65.0063 9.18667 65.0863 9.24C65.2196 9.34667 65.3263 9.46667 65.4063 9.6C65.5129 9.73333 65.6196 9.86667 65.7263 10C65.7796 10.1067 65.8196 10.2267 65.8463 10.36C65.8996 10.4667 65.9396 10.5867 65.9663 10.72C66.0729 10.8267 66.1796 10.9333 66.2863 11.04C66.3929 11.1467 66.5396 11.1867 66.7263 11.16C66.8596 11.0267 66.9929 10.9067 67.1263 10.8C67.2596 10.6667 67.3796 10.5333 67.4863 10.4C67.5663 10.4267 67.6863 10.44 67.8463 10.44L68.8463 9.76C68.8996 9.62667 68.9529 9.52 69.0063 9.44C69.0596 9.36 69.0996 9.26667 69.1263 9.16C69.2596 9.13333 69.3929 9.12 69.5263 9.12C69.6596 9.09333 69.7929 9.06667 69.9263 9.04C70.1129 8.93333 70.2863 8.85333 70.4463 8.8C70.6063 8.72 70.7663 8.62667 70.9263 8.52C71.0596 8.52 71.1929 8.53333 71.3263 8.56C71.4863 8.56 71.6329 8.56 71.7663 8.56C71.8729 8.58667 71.9796 8.6 72.0863 8.6C72.2196 8.57333 72.3396 8.58667 72.4462 8.64C72.7929 8.74667 73.1396 8.81333 73.4863 8.84C73.8329 8.84 74.1796 8.86667 74.5263 8.92C74.5796 8.97333 74.6863 9 74.8463 9L75.7263 9.84C75.7263 9.86667 75.7396 9.89333 75.7663 9.92C75.7929 9.94667 75.8063 9.97333 75.8063 10C76.0463 10.6933 76.4463 11.1867 77.0063 11.48C77.0329 11.5333 77.0463 11.6133 77.0463 11.72C77.0729 11.8 77.0996 11.8667 77.1263 11.92C77.2863 12.08 77.4596 12.16 77.6463 12.16C77.9663 12.2133 78.1129 12.36 78.0863 12.6C78.0863 12.92 78.1263 13.24 78.2063 13.56C78.3129 13.88 78.4196 14.1867 78.5263 14.48L78.8063 15.48C78.8063 15.6667 78.8063 15.88 78.8063 16.12C78.8329 16.36 78.8463 16.5867 78.8463 16.8C78.8463 16.9067 78.8463 17.0133 78.8463 17.12C78.8729 17.2 78.8996 17.2933 78.9263 17.4C79.0063 17.7467 79.0063 18.12 78.9263 18.52ZM100.04 15.08C100.12 15.4 100.106 15.6933 99.9997 15.96C99.9464 16.0933 99.9064 16.2267 99.8797 16.36C99.853 16.4933 99.853 16.6267 99.8797 16.76C99.9064 16.7867 99.9064 16.8267 99.8797 16.88C99.8797 16.9067 99.8797 16.9467 99.8797 17C99.773 17.2133 99.7197 17.44 99.7197 17.68C99.7464 17.92 99.773 18.1467 99.7997 18.36L99.3997 18.92V19.44C99.3464 19.4933 99.2797 19.56 99.1997 19.64C99.1197 19.6933 99.013 19.7733 98.8797 19.88C98.8264 20.0667 98.7464 20.2667 98.6397 20.48C98.5597 20.6933 98.493 20.8933 98.4397 21.08V21.48C98.333 21.5867 98.1997 21.68 98.0397 21.76C97.8797 21.84 97.7464 21.96 97.6397 22.12C97.533 22.2 97.4264 22.2667 97.3197 22.32C97.213 22.3733 97.093 22.44 96.9597 22.52C96.9064 22.5467 96.8397 22.56 96.7597 22.56C96.7064 22.5333 96.653 22.5333 96.5997 22.56C96.1997 22.56 95.9997 22.7467 95.9997 23.12C95.7064 23.3067 95.413 23.5067 95.1197 23.72C94.853 23.9333 94.573 24.1467 94.2797 24.36C93.8264 24.7067 93.2397 24.9467 92.5197 25.08C92.2797 25.1067 92.053 25.1733 91.8397 25.28C91.6264 25.36 91.3997 25.4267 91.1597 25.48C91.1064 25.48 91.0397 25.4667 90.9597 25.44C90.8797 25.4133 90.813 25.4133 90.7597 25.44C90.4397 25.4667 90.1064 25.44 89.7597 25.36C89.653 25.3333 89.5464 25.3333 89.4397 25.36C89.333 25.3867 89.2397 25.4133 89.1597 25.44C88.973 25.4133 88.7864 25.3867 88.5997 25.36C88.413 25.3333 88.213 25.3067 87.9997 25.28C87.7597 25.1733 87.533 25.0533 87.3197 24.92C87.133 24.7867 86.933 24.6667 86.7197 24.56C86.5597 24.5067 86.413 24.4133 86.2797 24.28C86.1464 24.1467 86.0397 24.0133 85.9597 23.88C85.933 23.8267 85.893 23.7867 85.8397 23.76C85.813 23.7067 85.773 23.6533 85.7197 23.6C85.6397 23.5467 85.5597 23.5067 85.4797 23.48C85.3997 23.4267 85.3197 23.36 85.2397 23.28C84.813 22.9867 84.4264 22.6667 84.0797 22.32C83.7597 21.9733 83.5197 21.5467 83.3597 21.04C83.2264 20.6933 83.0664 20.3867 82.8797 20.12C82.8264 20.0133 82.7597 19.92 82.6797 19.84C82.6264 19.7333 82.573 19.6267 82.5197 19.52C82.5464 19.4667 82.5864 19.36 82.6397 19.2C82.5864 19.12 82.533 19.04 82.4797 18.96C82.4264 18.88 82.3997 18.7867 82.3997 18.68C82.3997 18.6 82.3864 18.52 82.3597 18.44C82.3597 18.3333 82.373 18.2267 82.3997 18.12C82.453 17.9333 82.4664 17.7467 82.4397 17.56C82.413 17.3733 82.413 17.1867 82.4397 17C82.4664 16.84 82.453 16.6667 82.3997 16.48C82.373 16.2933 82.3997 16.12 82.4797 15.96C82.533 15.7733 82.573 15.6 82.5997 15.44C82.6264 15.28 82.6664 15.12 82.7197 14.96C82.773 14.8 82.8264 14.6533 82.8797 14.52C82.933 14.36 82.9864 14.2133 83.0397 14.08C83.093 13.92 83.1464 13.76 83.1997 13.6C83.253 13.44 83.333 13.2667 83.4397 13.08C83.4397 13.0267 83.4397 12.96 83.4397 12.88C83.4397 12.8 83.453 12.7467 83.4797 12.72C83.5864 12.5067 83.6664 12.3067 83.7197 12.12C83.773 11.9333 83.7864 11.7467 83.7597 11.56C83.8664 11.4267 83.9597 11.32 84.0397 11.24C84.1197 11.16 84.1864 11.0667 84.2397 10.96C84.293 10.8267 84.3464 10.7067 84.3997 10.6C84.4797 10.4667 84.5597 10.3467 84.6397 10.24C84.7197 10.0267 84.8397 9.84 84.9997 9.68C85.1064 9.54667 85.1997 9.44 85.2797 9.36C85.3597 9.25333 85.4264 9.17333 85.4797 9.12C85.5597 8.96 85.5864 8.82667 85.5597 8.72C85.533 8.58667 85.5197 8.48 85.5197 8.4C85.573 8.26667 85.613 8.18667 85.6397 8.16C85.7197 8.13333 85.7864 8.09333 85.8397 8.04C85.9197 7.98667 85.9997 7.94667 86.0797 7.92C86.293 7.78667 86.5197 7.65333 86.7597 7.52C86.9997 7.38667 87.2397 7.28 87.4797 7.2C87.7197 7.04 87.9597 6.93333 88.1997 6.88C88.4664 6.8 88.733 6.72 88.9997 6.64C89.213 6.64 89.4264 6.64 89.6397 6.64C89.853 6.64 90.053 6.65333 90.2397 6.68H90.5997C90.893 6.78667 91.1864 6.84 91.4797 6.84C91.7997 6.84 92.1064 6.82667 92.3997 6.8C92.533 6.8 92.6664 6.8 92.7997 6.8C92.9597 6.77333 93.1064 6.76 93.2397 6.76C93.373 6.86667 93.4797 6.96 93.5597 7.04C93.6664 7.09333 93.773 7.17333 93.8797 7.28C93.9597 7.30667 94.0397 7.34667 94.1197 7.4C94.1997 7.45333 94.293 7.49333 94.3997 7.52C94.773 7.54667 95.1064 7.66667 95.3997 7.88C95.7197 8.09333 96.013 8.30667 96.2797 8.52C96.2797 8.57333 96.2797 8.65333 96.2797 8.76C96.2797 8.84 96.293 8.92 96.3197 9C96.3197 9.13333 96.3997 9.25333 96.5597 9.36C96.6397 9.38667 96.733 9.4 96.8397 9.4C96.9464 9.4 97.053 9.42667 97.1597 9.48C97.213 9.58667 97.2797 9.70667 97.3597 9.84C97.4664 9.97333 97.5597 10.1067 97.6397 10.24C97.7464 10.3467 97.853 10.4533 97.9597 10.56C98.0664 10.6667 98.1464 10.7867 98.1997 10.92C98.253 10.9733 98.293 11.04 98.3197 11.12C98.373 11.2 98.413 11.2667 98.4397 11.32C98.5197 11.4 98.5997 11.48 98.6797 11.56C98.7597 11.64 98.813 11.7467 98.8397 11.88C98.893 12.0667 98.973 12.2533 99.0797 12.44C99.1864 12.6267 99.2664 12.8267 99.3197 13.04C99.3464 13.12 99.3864 13.2 99.4397 13.28C99.5197 13.36 99.5997 13.4533 99.6797 13.56C99.733 13.8 99.773 14.0533 99.7997 14.32C99.853 14.5867 99.933 14.84 100.04 15.08ZM94.4397 16.52C94.4664 16.3333 94.4397 16.1733 94.3597 16.04C94.2797 15.88 94.253 15.72 94.2797 15.56C94.2797 15.5067 94.2397 15.44 94.1597 15.36C94.133 15.3067 94.1197 15.2 94.1197 15.04C94.1464 14.9867 94.1597 14.92 94.1597 14.84C94.1597 14.7333 94.1597 14.6667 94.1597 14.64C93.973 14.3467 93.7997 14.08 93.6397 13.84C93.4797 13.5733 93.3064 13.32 93.1197 13.08C93.1197 13.0267 93.093 13 93.0397 13C92.9864 12.9733 92.933 12.92 92.8797 12.84C92.4264 12.84 91.933 12.72 91.3997 12.48C91.0797 12.32 90.693 12.3067 90.2397 12.44C90.213 12.44 90.173 12.4533 90.1197 12.48C90.093 12.5067 90.053 12.5467 89.9997 12.6H89.7997C89.373 12.52 89.093 12.68 88.9597 13.08C88.9064 13.1867 88.8397 13.3067 88.7597 13.44C88.7064 13.5467 88.6664 13.6667 88.6397 13.8C88.613 13.9067 88.5597 14.0267 88.4797 14.16C88.3997 14.2667 88.333 14.3733 88.2797 14.48C88.173 14.6133 88.0797 14.76 87.9997 14.92C87.9197 15.08 87.8264 15.2267 87.7197 15.36C87.693 15.6267 87.6264 15.8933 87.5197 16.16C87.4397 16.4267 87.3864 16.68 87.3597 16.92C87.4397 17.0533 87.5197 17.2 87.5997 17.36C87.6797 17.4933 87.7464 17.6267 87.7997 17.76C87.9597 18.1067 88.0264 18.44 87.9997 18.76C87.9997 18.8133 88.013 18.8667 88.0397 18.92C88.0664 18.9733 88.093 19.0267 88.1197 19.08C88.3597 19.1333 88.5864 19.1867 88.7997 19.24C89.0397 19.2933 89.2664 19.36 89.4797 19.44C89.6664 19.4933 89.853 19.5333 90.0397 19.56C90.2264 19.5867 90.413 19.56 90.5997 19.48H90.7197C90.933 19.5333 91.133 19.5467 91.3197 19.52C91.533 19.4667 91.7597 19.4133 91.9997 19.36C92.1864 19.2267 92.373 19.08 92.5597 18.92C92.773 18.76 92.9864 18.6267 93.1997 18.52C93.3864 18.1467 93.613 17.8133 93.8797 17.52C94.1464 17.2267 94.333 16.8933 94.4397 16.52ZM120.173 8.12C120.039 8.6 119.959 9.09333 119.933 9.6C119.906 10.08 119.879 10.56 119.853 11.04C119.826 11.52 119.813 12.0133 119.813 12.52C119.813 13 119.813 13.48 119.813 13.96C119.813 14.36 119.786 14.76 119.733 15.16C119.679 15.56 119.639 15.9733 119.613 16.4C119.613 16.5067 119.599 16.6267 119.573 16.76C119.573 16.8933 119.573 17.0267 119.573 17.16C119.573 17.5333 119.519 17.88 119.413 18.2C119.333 18.5467 119.293 18.8933 119.293 19.24C119.293 19.4267 119.279 19.6267 119.253 19.84C119.226 20.0533 119.173 20.2667 119.093 20.48C119.066 20.6133 119.053 20.8133 119.053 21.08C119.026 21.2933 118.973 21.5067 118.893 21.72C118.839 21.9067 118.786 22.0933 118.733 22.28C118.679 22.44 118.626 22.6267 118.573 22.84C118.466 23 118.359 23.1733 118.253 23.36C118.173 23.52 118.079 23.68 117.973 23.84C117.733 23.9733 117.533 24.1467 117.373 24.36C117.106 24.5733 116.839 24.8 116.573 25.04C116.333 25.28 116.093 25.5067 115.853 25.72C115.533 25.9867 115.213 26.12 114.893 26.12C114.866 26.12 114.826 26.1333 114.773 26.16C114.746 26.1867 114.706 26.2 114.653 26.2C114.146 26.2533 113.733 26.4133 113.413 26.68C113.386 26.7067 113.346 26.72 113.293 26.72C113.266 26.7467 113.226 26.7867 113.173 26.84C112.826 26.8933 112.466 26.8667 112.092 26.76C111.746 26.6533 111.426 26.52 111.133 26.36H110.493C110.386 26.36 110.279 26.3467 110.173 26.32C110.066 26.32 109.946 26.3067 109.813 26.28C109.093 26.12 108.399 25.8133 107.733 25.36C107.653 25.28 107.559 25.2267 107.453 25.2C107.346 25.1733 107.226 25.1467 107.092 25.12C106.933 25.0933 106.773 25.0533 106.613 25C106.453 24.9467 106.293 24.8933 106.133 24.84C105.999 24.76 105.893 24.6533 105.813 24.52C105.733 24.36 105.653 24.2267 105.573 24.12C105.439 23.8533 105.319 23.6133 105.213 23.4C105.106 23.16 104.986 22.9067 104.853 22.64C104.746 22.4267 104.626 22.2133 104.493 22C104.359 21.76 104.226 21.5467 104.093 21.36C104.093 21.3333 104.106 21.32 104.133 21.32C104.159 21.32 104.173 21.3067 104.173 21.28L104.093 21.2C104.093 21.2267 104.079 21.2533 104.053 21.28C104.053 21.28 104.053 21.2933 104.053 21.32C104.026 21.2933 103.986 21.28 103.933 21.28C103.906 21.2533 103.879 21.2267 103.853 21.2C103.746 21.1467 103.666 21.0667 103.613 20.96C103.559 20.8267 103.506 20.7067 103.453 20.6C103.533 20.44 103.573 20.2267 103.573 19.96C103.626 19.6133 103.613 19.3067 103.533 19.04C103.426 18.64 103.373 18.24 103.373 17.84C103.399 17.44 103.426 17.0267 103.453 16.6C103.453 16.4667 103.506 16.2933 103.613 16.08C103.799 15.6267 103.906 15.2267 103.933 14.88C104.199 14.5067 104.413 14.1067 104.573 13.68C104.733 13.2533 104.919 12.8533 105.133 12.48C105.266 12.4267 105.373 12.3733 105.453 12.32C105.559 12.2667 105.666 12.2267 105.773 12.2C105.826 12.1467 105.866 12.08 105.893 12C105.919 11.92 105.973 11.8533 106.053 11.8C106.133 11.7467 106.226 11.7067 106.333 11.68C106.439 11.6267 106.559 11.5867 106.693 11.56C106.746 11.48 106.786 11.4 106.812 11.32C106.866 11.24 106.919 11.16 106.973 11.08C107.053 11 107.106 10.96 107.133 10.96C107.746 10.7467 108.386 10.5867 109.053 10.48C109.159 10.4533 109.266 10.44 109.373 10.44C109.506 10.4133 109.626 10.3867 109.733 10.36C110.079 10.2533 110.426 10.2133 110.773 10.24C111.119 10.2667 111.466 10.2667 111.812 10.24C111.893 10.24 111.973 10.2533 112.053 10.28C112.159 10.3067 112.253 10.3333 112.333 10.36C112.413 10.36 112.519 10.3867 112.653 10.44C112.786 10.4933 112.866 10.4933 112.893 10.44C113.159 10.3867 113.346 10.4133 113.453 10.52C113.586 10.6267 113.653 10.68 113.653 10.68C113.706 10.7067 113.813 10.72 113.973 10.72C114.159 10.6933 114.266 10.68 114.293 10.68C114.533 10.6267 114.666 10.52 114.693 10.36C114.746 10.1733 114.746 10.08 114.693 10.08L114.613 10C114.639 9.65333 114.626 9.30667 114.573 8.96C114.546 8.61333 114.546 8.26667 114.573 7.92C114.599 7.78667 114.613 7.65333 114.613 7.52C114.613 7.36 114.613 7.21333 114.613 7.08C114.586 6.94667 114.586 6.82667 114.613 6.72C114.639 6.58667 114.653 6.45333 114.653 6.32C114.653 6.18667 114.653 6.06667 114.653 5.96C114.679 5.82666 114.666 5.72 114.613 5.64C114.533 5.42667 114.493 5.21333 114.493 5C114.519 4.78666 114.559 4.57333 114.613 4.36C114.693 4.06667 114.746 3.77333 114.773 3.48C114.826 3.18667 114.826 2.86667 114.773 2.52V2.32C114.879 2.05333 114.933 1.78666 114.933 1.52C114.959 1.25333 114.986 1.01333 115.013 0.799998C115.146 0.613332 115.306 0.493332 115.493 0.439998C115.706 0.359999 115.866 0.266666 115.973 0.159999C116.399 0.133333 116.799 0.133333 117.173 0.159999C117.546 0.186665 117.919 0.146665 118.293 0.0399981C118.479 0.119999 118.653 0.186665 118.813 0.239998C118.999 0.266666 119.159 0.293333 119.293 0.319999C119.586 0.533333 119.733 0.813333 119.733 1.16C119.733 1.29333 119.733 1.44 119.733 1.6C119.733 1.76 119.719 1.92 119.693 2.08C119.719 2.18666 119.759 2.28 119.813 2.36C119.866 2.44 119.906 2.54667 119.933 2.68C119.906 2.73333 119.879 2.81333 119.853 2.92C119.853 3 119.839 3.09333 119.813 3.2C119.839 3.30666 119.866 3.44 119.893 3.6C119.919 3.76 119.946 3.90667 119.973 4.04C119.973 4.46666 119.973 4.88 119.973 5.28C119.999 5.68 119.999 6.08 119.973 6.48C119.973 6.90667 119.973 7.18667 119.973 7.32C119.999 7.45333 120.066 7.72 120.173 8.12ZM114.333 18.2C114.253 17.9867 114.186 17.7867 114.133 17.6C114.106 17.3867 114.066 17.2 114.013 17.04C113.933 16.8533 113.826 16.68 113.693 16.52C113.586 16.36 113.493 16.1867 113.413 16C113.146 15.8667 112.946 15.7333 112.813 15.6C112.679 15.5467 112.546 15.5067 112.413 15.48C112.306 15.4533 112.186 15.4267 112.053 15.4C111.946 15.3467 111.839 15.3067 111.733 15.28C111.653 15.2267 111.559 15.1867 111.453 15.16C111.266 15.24 111.079 15.32 110.893 15.4C110.733 15.48 110.573 15.56 110.413 15.64C109.986 15.8267 109.693 16.1733 109.533 16.68C109.506 16.7867 109.493 16.8933 109.493 17C109.493 17.1067 109.479 17.2267 109.453 17.36C109.426 17.44 109.373 17.52 109.293 17.6C109.239 17.68 109.186 17.7867 109.133 17.92V18.64C109.186 18.9867 109.279 19.32 109.413 19.64C109.573 19.9333 109.826 20.1867 110.173 20.4C110.253 20.4267 110.319 20.48 110.373 20.56C110.453 20.6133 110.546 20.6667 110.653 20.72C110.813 20.88 110.973 20.96 111.133 20.96C111.559 20.9067 111.973 20.8667 112.372 20.84C112.773 20.7867 113.159 20.68 113.533 20.52C113.693 20.3867 113.813 20.2533 113.893 20.12C113.973 20.0133 114.039 19.92 114.093 19.84C114.146 19.7333 114.213 19.6267 114.293 19.52V18.84C114.293 18.7067 114.293 18.5867 114.293 18.48C114.293 18.3733 114.306 18.28 114.333 18.2ZM141.094 15.08C141.174 15.4 141.161 15.6933 141.054 15.96C141.001 16.0933 140.961 16.2267 140.934 16.36C140.908 16.4933 140.908 16.6267 140.934 16.76C140.961 16.7867 140.961 16.8267 140.934 16.88C140.934 16.9067 140.934 16.9467 140.934 17C140.828 17.2133 140.774 17.44 140.774 17.68C140.801 17.92 140.828 18.1467 140.854 18.36L140.454 18.92V19.44C140.401 19.4933 140.334 19.56 140.254 19.64C140.174 19.6933 140.068 19.7733 139.934 19.88C139.881 20.0667 139.801 20.2667 139.694 20.48C139.614 20.6933 139.548 20.8933 139.494 21.08V21.48C139.388 21.5867 139.254 21.68 139.094 21.76C138.934 21.84 138.801 21.96 138.694 22.12C138.588 22.2 138.481 22.2667 138.374 22.32C138.268 22.3733 138.148 22.44 138.014 22.52C137.961 22.5467 137.894 22.56 137.814 22.56C137.761 22.5333 137.708 22.5333 137.654 22.56C137.254 22.56 137.054 22.7467 137.054 23.12C136.761 23.3067 136.468 23.5067 136.174 23.72C135.908 23.9333 135.628 24.1467 135.334 24.36C134.881 24.7067 134.294 24.9467 133.574 25.08C133.334 25.1067 133.108 25.1733 132.894 25.28C132.681 25.36 132.454 25.4267 132.214 25.48C132.161 25.48 132.094 25.4667 132.014 25.44C131.934 25.4133 131.868 25.4133 131.814 25.44C131.494 25.4667 131.161 25.44 130.814 25.36C130.708 25.3333 130.601 25.3333 130.494 25.36C130.388 25.3867 130.294 25.4133 130.214 25.44C130.028 25.4133 129.841 25.3867 129.654 25.36C129.468 25.3333 129.268 25.3067 129.054 25.28C128.814 25.1733 128.588 25.0533 128.374 24.92C128.188 24.7867 127.988 24.6667 127.774 24.56C127.614 24.5067 127.468 24.4133 127.334 24.28C127.201 24.1467 127.094 24.0133 127.014 23.88C126.988 23.8267 126.948 23.7867 126.894 23.76C126.868 23.7067 126.828 23.6533 126.774 23.6C126.694 23.5467 126.614 23.5067 126.534 23.48C126.454 23.4267 126.374 23.36 126.294 23.28C125.868 22.9867 125.481 22.6667 125.134 22.32C124.814 21.9733 124.574 21.5467 124.414 21.04C124.281 20.6933 124.121 20.3867 123.934 20.12C123.881 20.0133 123.814 19.92 123.734 19.84C123.681 19.7333 123.628 19.6267 123.574 19.52C123.601 19.4667 123.641 19.36 123.694 19.2C123.641 19.12 123.588 19.04 123.534 18.96C123.481 18.88 123.454 18.7867 123.454 18.68C123.454 18.6 123.441 18.52 123.414 18.44C123.414 18.3333 123.428 18.2267 123.454 18.12C123.508 17.9333 123.521 17.7467 123.494 17.56C123.468 17.3733 123.468 17.1867 123.494 17C123.521 16.84 123.508 16.6667 123.454 16.48C123.428 16.2933 123.454 16.12 123.534 15.96C123.588 15.7733 123.628 15.6 123.654 15.44C123.681 15.28 123.721 15.12 123.774 14.96C123.828 14.8 123.881 14.6533 123.934 14.52C123.988 14.36 124.041 14.2133 124.094 14.08C124.148 13.92 124.201 13.76 124.254 13.6C124.308 13.44 124.388 13.2667 124.494 13.08C124.494 13.0267 124.494 12.96 124.494 12.88C124.494 12.8 124.508 12.7467 124.534 12.72C124.641 12.5067 124.721 12.3067 124.774 12.12C124.828 11.9333 124.841 11.7467 124.814 11.56C124.921 11.4267 125.014 11.32 125.094 11.24C125.174 11.16 125.241 11.0667 125.294 10.96C125.348 10.8267 125.401 10.7067 125.454 10.6C125.534 10.4667 125.614 10.3467 125.694 10.24C125.774 10.0267 125.894 9.84 126.054 9.68C126.161 9.54667 126.254 9.44 126.334 9.36C126.414 9.25333 126.481 9.17333 126.534 9.12C126.614 8.96 126.641 8.82667 126.614 8.72C126.588 8.58667 126.574 8.48 126.574 8.4C126.628 8.26667 126.668 8.18667 126.694 8.16C126.774 8.13333 126.841 8.09333 126.894 8.04C126.974 7.98667 127.054 7.94667 127.134 7.92C127.348 7.78667 127.574 7.65333 127.814 7.52C128.054 7.38667 128.294 7.28 128.534 7.2C128.774 7.04 129.014 6.93333 129.254 6.88C129.521 6.8 129.788 6.72 130.054 6.64C130.268 6.64 130.481 6.64 130.694 6.64C130.908 6.64 131.108 6.65333 131.294 6.68H131.654C131.948 6.78667 132.241 6.84 132.534 6.84C132.854 6.84 133.161 6.82667 133.454 6.8C133.588 6.8 133.721 6.8 133.854 6.8C134.014 6.77333 134.161 6.76 134.294 6.76C134.428 6.86667 134.534 6.96 134.614 7.04C134.721 7.09333 134.828 7.17333 134.934 7.28C135.014 7.30667 135.094 7.34667 135.174 7.4C135.254 7.45333 135.348 7.49333 135.454 7.52C135.828 7.54667 136.161 7.66667 136.454 7.88C136.774 8.09333 137.068 8.30667 137.334 8.52C137.334 8.57333 137.334 8.65333 137.334 8.76C137.334 8.84 137.348 8.92 137.374 9C137.374 9.13333 137.454 9.25333 137.614 9.36C137.694 9.38667 137.788 9.4 137.894 9.4C138.001 9.4 138.108 9.42667 138.214 9.48C138.268 9.58667 138.334 9.70667 138.414 9.84C138.521 9.97333 138.614 10.1067 138.694 10.24C138.801 10.3467 138.908 10.4533 139.014 10.56C139.121 10.6667 139.201 10.7867 139.254 10.92C139.308 10.9733 139.348 11.04 139.374 11.12C139.428 11.2 139.468 11.2667 139.494 11.32C139.574 11.4 139.654 11.48 139.734 11.56C139.814 11.64 139.868 11.7467 139.894 11.88C139.948 12.0667 140.028 12.2533 140.134 12.44C140.241 12.6267 140.321 12.8267 140.374 13.04C140.401 13.12 140.441 13.2 140.494 13.28C140.574 13.36 140.654 13.4533 140.734 13.56C140.788 13.8 140.828 14.0533 140.854 14.32C140.908 14.5867 140.988 14.84 141.094 15.08ZM135.494 16.52C135.521 16.3333 135.494 16.1733 135.414 16.04C135.334 15.88 135.308 15.72 135.334 15.56C135.334 15.5067 135.294 15.44 135.214 15.36C135.188 15.3067 135.174 15.2 135.174 15.04C135.201 14.9867 135.214 14.92 135.214 14.84C135.214 14.7333 135.214 14.6667 135.214 14.64C135.028 14.3467 134.854 14.08 134.694 13.84C134.534 13.5733 134.361 13.32 134.174 13.08C134.174 13.0267 134.148 13 134.094 13C134.041 12.9733 133.988 12.92 133.934 12.84C133.481 12.84 132.988 12.72 132.454 12.48C132.134 12.32 131.748 12.3067 131.294 12.44C131.268 12.44 131.228 12.4533 131.174 12.48C131.148 12.5067 131.108 12.5467 131.054 12.6H130.854C130.428 12.52 130.148 12.68 130.014 13.08C129.961 13.1867 129.894 13.3067 129.814 13.44C129.761 13.5467 129.721 13.6667 129.694 13.8C129.668 13.9067 129.614 14.0267 129.534 14.16C129.454 14.2667 129.388 14.3733 129.334 14.48C129.228 14.6133 129.134 14.76 129.054 14.92C128.974 15.08 128.881 15.2267 128.774 15.36C128.748 15.6267 128.681 15.8933 128.574 16.16C128.494 16.4267 128.441 16.68 128.414 16.92C128.494 17.0533 128.574 17.2 128.654 17.36C128.734 17.4933 128.801 17.6267 128.854 17.76C129.014 18.1067 129.081 18.44 129.054 18.76C129.054 18.8133 129.068 18.8667 129.094 18.92C129.121 18.9733 129.148 19.0267 129.174 19.08C129.414 19.1333 129.641 19.1867 129.854 19.24C130.094 19.2933 130.321 19.36 130.534 19.44C130.721 19.4933 130.908 19.5333 131.094 19.56C131.281 19.5867 131.468 19.56 131.654 19.48H131.774C131.988 19.5333 132.188 19.5467 132.374 19.52C132.588 19.4667 132.814 19.4133 133.054 19.36C133.241 19.2267 133.428 19.08 133.614 18.92C133.828 18.76 134.041 18.6267 134.254 18.52C134.441 18.1467 134.668 17.8133 134.934 17.52C135.201 17.2267 135.388 16.8933 135.494 16.52Z" fill="white"/>
</svg>
