<svg width="79" height="14" viewBox="0 0 79 14" fill="none" xmlns="http://www.w3.org/2000/svg">
<path d="M8.78 10.06C8.78 10.1667 8.78 10.28 8.78 10.4C8.79333 10.5067 8.78667 10.6133 8.76 10.72C8.73333 10.7867 8.72667 10.8467 8.74 10.9C8.76667 10.9667 8.76667 11.04 8.74 11.12C8.72667 11.1867 8.72667 11.2533 8.74 11.32C8.76667 11.4133 8.77333 11.52 8.76 11.64C8.74667 11.7467 8.74667 11.8533 8.76 11.96C8.70667 12.0533 8.62 12.1 8.5 12.1C8.36667 12.1 8.22 12.1067 8.06 12.12C7.91333 12.1333 7.76667 12.1667 7.62 12.22C7.54 12.2467 7.45333 12.26 7.36 12.26C7.26667 12.26 7.17333 12.26 7.08 12.26C7 12.2067 6.94 12.16 6.9 12.12C6.74 12.1733 6.60667 12.1133 6.5 11.94C6.44667 11.86 6.4 11.7733 6.36 11.68C6.33333 11.5867 6.32 11.4867 6.32 11.38C6.33333 11.2733 6.33333 11.1667 6.32 11.06C6.30667 10.9533 6.30667 10.84 6.32 10.72C6.34667 10.52 6.32 10.3267 6.24 10.14C6.22667 10.1 6.21333 10.06 6.2 10.02C6.18667 9.98 6.18 9.94 6.18 9.9C6.18 9.75333 6.17333 9.60667 6.16 9.46C6.14667 9.3 6.12 9.15333 6.08 9.02C6.06667 8.95333 6.05333 8.89333 6.04 8.84C6.04 8.77333 6.04 8.71333 6.04 8.66C6 8.5 5.91333 8.37333 5.78 8.28C5.76667 8.17333 5.75333 8.08 5.74 8C5.72667 7.90667 5.70667 7.80667 5.68 7.7C5.65333 7.67333 5.6 7.63333 5.52 7.58C5.46667 7.54 5.4 7.50667 5.32 7.48C5.25333 7.45333 5.18667 7.42 5.12 7.38C5.09333 7.35333 5.06 7.32 5.02 7.28C4.99333 7.22667 4.96 7.18 4.92 7.14H4.8C4.74667 7.15333 4.7 7.16667 4.66 7.18C4.62 7.18 4.56667 7.17333 4.5 7.16C4.47333 7.14667 4.44 7.14667 4.4 7.16C4.36 7.16 4.32667 7.16 4.3 7.16C4.23333 7.25333 4.16667 7.35333 4.1 7.46C4.04667 7.5 3.99333 7.54 3.94 7.58C3.9 7.60667 3.86667 7.63333 3.84 7.66C3.8 7.7 3.78 7.74 3.78 7.78L3.64 8.2C3.66667 8.28 3.66667 8.36 3.64 8.44C3.61333 8.50667 3.62 8.58 3.66 8.66C3.67333 8.7 3.67333 8.74 3.66 8.78C3.64667 8.82 3.63333 8.85333 3.62 8.88C3.58 8.93333 3.57333 8.97333 3.6 9C3.62667 9.02667 3.64667 9.06 3.66 9.1C3.67333 9.11333 3.68667 9.14 3.7 9.18C3.7 9.34 3.7 9.49333 3.7 9.64C3.7 9.78667 3.67333 9.93333 3.62 10.08C3.63333 10.1333 3.64 10.1867 3.64 10.24C3.65333 10.28 3.66667 10.3333 3.68 10.4C3.66667 10.48 3.64667 10.5733 3.62 10.68C3.60667 10.7733 3.60667 10.8733 3.62 10.98C3.63333 11.0467 3.63333 11.12 3.62 11.2C3.62 11.28 3.60667 11.36 3.58 11.44C3.56667 11.48 3.56667 11.52 3.58 11.56C3.62 11.72 3.62 11.86 3.58 11.98C3.54 12.1 3.46667 12.2267 3.36 12.36C3.34667 12.3733 3.32 12.3867 3.28 12.4C3.24 12.4133 3.20667 12.4267 3.18 12.44C3.15333 12.4667 3.12667 12.4867 3.1 12.5C3.07333 12.5 3.04667 12.5067 3.02 12.52C2.96667 12.52 2.91333 12.52 2.86 12.52C2.80667 12.5067 2.76 12.5 2.72 12.5C2.66667 12.5133 2.62 12.5333 2.58 12.56C2.55333 12.5733 2.50667 12.6 2.44 12.64C2.26667 12.6133 2.08667 12.58 1.9 12.54C1.72667 12.5 1.55333 12.5133 1.38 12.58C1.3 12.5667 1.23333 12.5333 1.18 12.48C1.12667 12.4267 1.08 12.3667 1.04 12.3C0.986667 12.22 0.953333 12.1333 0.94 12.04C0.926667 11.9333 0.906667 11.8333 0.88 11.74C0.906667 11.5133 0.92 11.36 0.92 11.28C0.92 11.1867 0.9 10.9867 0.86 10.68C0.9 10.4667 0.926667 10.2533 0.94 10.04C0.953333 9.81333 0.96 9.59333 0.96 9.38C0.96 9.1 0.96 8.81333 0.96 8.52C0.96 8.22667 0.966667 7.93333 0.98 7.64C0.98 7.56 0.986667 7.48 1 7.4C1.01333 7.32 1.02667 7.24667 1.04 7.18C1.06667 7.03333 1.09333 6.89333 1.12 6.76C1.14667 6.62667 1.18 6.5 1.22 6.38C1.24667 6.28667 1.29333 6.20667 1.36 6.14C1.42667 6.07333 1.47333 5.99333 1.5 5.9C1.52667 5.71333 1.58 5.55333 1.66 5.42C1.75333 5.27333 1.84667 5.13333 1.94 5C2.00667 4.81333 2.12667 4.74 2.3 4.78C2.32667 4.78 2.34 4.77333 2.34 4.76C2.38 4.72 2.38667 4.66667 2.36 4.6C2.34667 4.53333 2.36667 4.47333 2.42 4.42C2.54 4.31333 2.68 4.23333 2.84 4.18C3 4.11333 3.14667 4.05333 3.28 4C3.4 4 3.48 4.01333 3.52 4.04C3.69333 4.09333 3.86 4.09333 4.02 4.04C4.14 4.01333 4.24667 4.04667 4.34 4.14C4.47333 4.16667 4.6 4.19333 4.72 4.22C4.84 4.24667 4.96667 4.27333 5.1 4.3C5.15333 4.28667 5.20667 4.28 5.26 4.28C5.31333 4.26667 5.36667 4.25333 5.42 4.24C5.55333 4.29333 5.66 4.37333 5.74 4.48C5.83333 4.57333 5.92667 4.67333 6.02 4.78C6.08667 4.83333 6.16 4.85333 6.24 4.84C6.32 4.82667 6.40667 4.83333 6.5 4.86C6.56667 4.92667 6.63333 5 6.7 5.08C6.78 5.16 6.86 5.23333 6.94 5.3C6.95333 5.35333 6.96667 5.40667 6.98 5.46C7.00667 5.5 7.02667 5.54667 7.04 5.6C7.10667 5.61333 7.15333 5.64667 7.18 5.7C7.20667 5.75333 7.22667 5.8 7.24 5.84C7.37333 5.89333 7.50667 5.93333 7.64 5.96C7.70667 6.02667 7.76667 6.10667 7.82 6.2C7.87333 6.28 7.96 6.32 8.08 6.32C8.10667 6.45333 8.13333 6.57333 8.16 6.68C8.18667 6.78667 8.21333 6.89333 8.24 7C8.26667 7.2 8.31333 7.37333 8.38 7.52C8.43333 7.62667 8.48 7.74 8.52 7.86C8.56 7.96667 8.58 8.08667 8.58 8.22C8.59333 8.3 8.62 8.37333 8.66 8.44C8.71333 8.50667 8.75333 8.58 8.78 8.66C8.76667 8.71333 8.75333 8.76667 8.74 8.82C8.74 8.87333 8.74 8.93333 8.74 9C8.74 9.05333 8.74 9.1 8.74 9.14C8.75333 9.18 8.76667 9.23333 8.78 9.3C8.78 9.32667 8.78 9.36667 8.78 9.42C8.79333 9.46 8.79333 9.49333 8.78 9.52C8.75333 9.61333 8.74667 9.70667 8.76 9.8C8.77333 9.89333 8.78 9.98 8.78 10.06ZM19.168 5.94C19.1546 6.07333 19.1413 6.21333 19.128 6.36C19.128 6.49333 19.1146 6.62667 19.088 6.76C19.0746 6.89333 19.068 7.04 19.068 7.2C19.068 7.34667 19.0413 7.5 18.988 7.66C18.9613 7.7 18.928 7.74667 18.888 7.8C18.848 7.84 18.808 7.89333 18.768 7.96C18.768 8.01333 18.768 8.06 18.768 8.1C18.7813 8.14 18.7946 8.18667 18.808 8.24C18.7813 8.30667 18.7413 8.36667 18.688 8.42C18.6346 8.46 18.5813 8.49333 18.528 8.52C18.3946 8.56 18.268 8.6 18.148 8.64C18.0413 8.68 17.928 8.71333 17.808 8.74C17.6213 8.76667 17.428 8.77333 17.228 8.76C17.028 8.73333 16.828 8.72667 16.628 8.74C16.4546 8.74 16.268 8.74667 16.068 8.76C15.8813 8.76 15.688 8.76 15.488 8.76H14.368C14.3146 8.8 14.2546 8.81333 14.188 8.8C14.1346 8.78667 14.0813 8.79333 14.028 8.82C13.9746 8.79333 13.9146 8.79333 13.848 8.82C13.7813 8.83333 13.7146 8.82667 13.648 8.8C13.5946 8.81333 13.5413 8.82667 13.488 8.84C13.448 8.84 13.3946 8.84667 13.328 8.86C13.2746 8.84667 13.228 8.83333 13.188 8.82C13.148 8.79333 13.1013 8.8 13.048 8.84C13.0746 8.88 13.1013 8.92667 13.128 8.98C13.168 9.02 13.1946 9.07333 13.208 9.14C13.248 9.19333 13.2813 9.24667 13.308 9.3C13.3346 9.35333 13.3613 9.41333 13.388 9.48C13.4146 9.53333 13.4346 9.59333 13.448 9.66C13.4613 9.71333 13.4746 9.76667 13.488 9.82C13.5546 9.88667 13.628 9.95333 13.708 10.02C13.788 10.0867 13.868 10.1533 13.948 10.22C14.0146 10.2333 14.0813 10.2467 14.148 10.26C14.228 10.2733 14.3013 10.2867 14.368 10.3C14.448 10.3133 14.528 10.3267 14.608 10.34C14.688 10.3533 14.7746 10.3533 14.868 10.34C14.9613 10.3133 15.048 10.32 15.128 10.36C15.208 10.3867 15.2946 10.4067 15.388 10.42C15.508 10.4067 15.628 10.3933 15.748 10.38C15.8813 10.3667 16.008 10.3533 16.128 10.34C16.1813 10.3 16.2346 10.2667 16.288 10.24C16.3546 10.2 16.4146 10.16 16.468 10.12C16.6413 10.08 16.8146 10.0867 16.988 10.14C17.028 10.2067 17.0746 10.2733 17.128 10.34C17.1946 10.4067 17.2546 10.48 17.308 10.56C17.388 10.68 17.468 10.8 17.548 10.92C17.628 11.0267 17.6813 11.1533 17.708 11.3C17.7346 11.3667 17.7746 11.4333 17.828 11.5C17.8813 11.5667 17.9213 11.6267 17.948 11.68C17.9613 11.7467 17.9546 11.8067 17.928 11.86C17.9146 11.9133 17.9013 11.9733 17.888 12.04C17.8346 12.0933 17.768 12.14 17.688 12.18C17.6746 12.18 17.6613 12.1933 17.648 12.22C17.6346 12.2467 17.6146 12.2667 17.588 12.28C17.508 12.3333 17.428 12.3867 17.348 12.44C17.268 12.4933 17.1946 12.5467 17.128 12.6C16.9413 12.76 16.748 12.84 16.548 12.84C16.468 12.84 16.408 12.8467 16.368 12.86C16.3013 12.8733 16.2346 12.9 16.168 12.94C16.1013 12.98 16.028 13.0133 15.948 13.04C15.8813 13.04 15.8146 13.0467 15.748 13.06C15.6813 13.0867 15.6146 13.1067 15.548 13.12C15.508 13.12 15.4613 13.1133 15.408 13.1C15.3546 13.1 15.3013 13.1 15.248 13.1C15.128 13.1133 15.008 13.1067 14.888 13.08C14.768 13.0533 14.648 13.04 14.528 13.04C14.488 13.0267 14.448 13.0133 14.408 13C14.368 12.9867 14.328 12.98 14.288 12.98C14.0613 12.9933 13.848 12.96 13.648 12.88C13.448 12.7867 13.248 12.6933 13.048 12.6C12.888 12.56 12.7746 12.4867 12.708 12.38C12.6146 12.2733 12.508 12.1867 12.388 12.12C12.2813 12.04 12.1613 11.9733 12.028 11.92C11.948 11.8933 11.868 11.86 11.788 11.82C11.708 11.7667 11.6213 11.7133 11.528 11.66C11.5146 11.6067 11.4946 11.5533 11.468 11.5C11.4413 11.4467 11.4146 11.3933 11.388 11.34C11.3613 11.3 11.3213 11.26 11.268 11.22C11.228 11.18 11.188 11.14 11.148 11.1C11.108 11.06 11.0746 11.0133 11.048 10.96C10.9813 10.7333 10.9146 10.5133 10.848 10.3C10.7813 10.0733 10.6946 9.85333 10.588 9.64C10.6013 9.54667 10.608 9.45333 10.608 9.36C10.6213 9.25333 10.6146 9.14 10.588 9.02C10.5746 8.99333 10.568 8.96 10.568 8.92C10.568 8.88 10.568 8.84667 10.568 8.82C10.568 8.75333 10.568 8.7 10.568 8.66C10.5813 8.60667 10.5813 8.56 10.568 8.52C10.5546 8.41333 10.5413 8.30667 10.528 8.2C10.5146 8.09333 10.5213 7.99333 10.548 7.9C10.5746 7.79333 10.6013 7.68667 10.628 7.58C10.6546 7.47333 10.688 7.36 10.728 7.24C10.7146 7.21333 10.708 7.17333 10.708 7.12C10.708 7.06667 10.7013 7.01333 10.688 6.96C10.7146 6.81333 10.7413 6.66667 10.768 6.52C10.7946 6.37333 10.828 6.23333 10.868 6.1C10.908 6.02 10.948 5.94667 10.988 5.88C11.0413 5.8 11.0946 5.72 11.148 5.64C11.2413 5.48 11.3146 5.32667 11.368 5.18C11.528 5.1 11.6213 5.05333 11.648 5.04C11.688 5.01333 11.7213 4.98 11.748 4.94C11.7746 4.9 11.8613 4.82 12.008 4.7C11.9946 4.66 12.028 4.6 12.108 4.52C12.188 4.44 12.2146 4.37333 12.188 4.32C12.308 4.09333 12.4813 3.91333 12.708 3.78C12.788 3.72667 12.8613 3.67333 12.928 3.62C13.008 3.55333 13.0746 3.49333 13.128 3.44C13.1946 3.4 13.2546 3.38667 13.308 3.4C13.3746 3.4 13.4346 3.4 13.488 3.4C13.528 3.38667 13.568 3.38 13.608 3.38C13.6613 3.36667 13.7146 3.35333 13.768 3.34C13.7946 3.32667 13.828 3.31333 13.868 3.3C13.908 3.28667 13.9413 3.26667 13.968 3.24C13.9946 3.22667 14.0213 3.21333 14.048 3.2C14.0746 3.18667 14.1013 3.18 14.128 3.18C14.248 3.16667 14.3613 3.13333 14.468 3.08C14.5746 3.02667 14.6746 2.97333 14.768 2.92C14.968 3 15.1746 3.02667 15.388 3C15.5213 2.98667 15.648 2.99333 15.768 3.02C15.9013 3.04667 16.0213 3.08 16.128 3.12L16.408 3.04C16.5146 3.05333 16.6146 3.08667 16.708 3.14C16.8013 3.19333 16.8946 3.24667 16.988 3.3H17.168C17.1813 3.31333 17.1946 3.32667 17.208 3.34C17.2213 3.34 17.2346 3.34667 17.248 3.36C17.3946 3.49333 17.5346 3.62 17.668 3.74C17.8013 3.84667 17.9413 3.96 18.088 4.08C18.288 4.21333 18.4146 4.37333 18.468 4.56C18.5213 4.64 18.568 4.7 18.608 4.74C18.768 4.87333 18.908 5.05333 19.028 5.28C19.028 5.30667 19.028 5.34667 19.028 5.4C19.0413 5.44 19.048 5.48 19.048 5.52C19.0346 5.58667 19.048 5.65333 19.088 5.72C19.128 5.78667 19.1546 5.86 19.168 5.94ZM16.628 6.6V6.1C16.628 6.03333 16.6213 5.99333 16.608 5.98C16.5946 5.94 16.5746 5.9 16.548 5.86C16.5346 5.82 16.5213 5.79333 16.508 5.78V5.44L16.448 5.38C16.3946 5.38 16.328 5.36667 16.248 5.34C16.2213 5.22 16.188 5.12667 16.148 5.06C16.108 5.00667 16.0546 4.97333 15.988 4.96C15.9213 4.94667 15.848 4.92667 15.768 4.9C15.5946 4.95333 15.408 5 15.208 5.04C15.008 5.08 14.8146 5.13333 14.628 5.2C14.5346 5.21333 14.448 5.22 14.368 5.22C14.288 5.22 14.208 5.22667 14.128 5.24C13.9946 5.29333 13.8746 5.38 13.768 5.5C13.6746 5.60667 13.5813 5.71333 13.488 5.82C13.4346 5.88667 13.388 5.96 13.348 6.04C13.308 6.12 13.2613 6.19333 13.208 6.26C13.1946 6.27333 13.188 6.31333 13.188 6.38C13.228 6.48667 13.288 6.55333 13.368 6.58C13.448 6.59333 13.528 6.61333 13.608 6.64C13.688 6.66667 13.7746 6.69333 13.868 6.72C13.908 6.70667 13.9413 6.7 13.968 6.7C14.008 6.7 14.048 6.69333 14.088 6.68C14.248 6.61333 14.3813 6.60667 14.488 6.66C14.5946 6.67333 14.688 6.67333 14.768 6.66C14.8613 6.64667 14.9546 6.63333 15.048 6.62C15.128 6.66 15.208 6.68667 15.288 6.7C15.3813 6.71333 15.468 6.73333 15.548 6.76C15.7213 6.81333 15.888 6.84 16.048 6.84C16.208 6.84 16.368 6.82 16.528 6.78C16.5946 6.71333 16.628 6.65333 16.628 6.6ZM34.1595 6.04C34.1329 6.16 34.1062 6.28 34.0795 6.4C34.0662 6.52 34.0262 6.63333 33.9595 6.74C33.9062 6.86 33.8662 6.98 33.8395 7.1C33.8129 7.22 33.7862 7.34 33.7595 7.46C33.7862 7.55333 33.7729 7.64 33.7195 7.72C33.6662 7.78667 33.6395 7.86667 33.6395 7.96C33.5595 8.09333 33.4929 8.22667 33.4395 8.36C33.3995 8.49333 33.3662 8.62 33.3395 8.74C33.2062 9.02 33.0662 9.28 32.9195 9.52C32.8529 9.64 32.7795 9.76 32.6995 9.88C32.6329 10 32.5595 10.1333 32.4795 10.28C32.3729 10.32 32.2662 10.3533 32.1595 10.38C32.0795 10.4867 32.0062 10.6067 31.9395 10.74C31.8862 10.8733 31.8529 11.0133 31.8395 11.16C31.8395 11.1733 31.8329 11.2 31.8195 11.24C31.8062 11.2667 31.7929 11.2933 31.7795 11.32C31.7662 11.3733 31.7462 11.42 31.7195 11.46C31.7062 11.5 31.6862 11.5467 31.6595 11.6C31.6195 11.6267 31.5795 11.66 31.5395 11.7C31.4995 11.74 31.4595 11.7733 31.4195 11.8C31.3929 11.8667 31.3662 11.94 31.3395 12.02C31.3129 12.1 31.2862 12.1867 31.2595 12.28C31.2062 12.3333 31.1462 12.3933 31.0795 12.46C31.0262 12.5267 30.9729 12.5933 30.9195 12.66C30.8929 12.66 30.8662 12.6667 30.8395 12.68C30.8262 12.68 30.8062 12.68 30.7795 12.68C30.6862 12.6667 30.5862 12.66 30.4795 12.66C30.3729 12.6467 30.2662 12.6533 30.1595 12.68C30.1062 12.6933 30.0529 12.7 29.9995 12.7C29.9462 12.7 29.8862 12.7 29.8195 12.7C29.7262 12.6733 29.6395 12.6467 29.5595 12.62C29.4795 12.58 29.4062 12.5533 29.3395 12.54C29.1795 12.4333 29.0929 12.3133 29.0795 12.18C29.0795 12.14 29.0729 12.1 29.0595 12.06C29.0595 12.02 29.0462 11.98 29.0195 11.94C28.9929 11.9267 28.9662 11.92 28.9395 11.92C28.9262 11.92 28.9062 11.9133 28.8795 11.9C28.7729 11.86 28.7329 11.7867 28.7595 11.68C28.7595 11.6533 28.7662 11.6267 28.7795 11.6C28.7929 11.5733 28.7995 11.5467 28.7995 11.52V11.32C28.6662 11.2133 28.5462 11.1133 28.4395 11.02C28.3729 10.8067 28.2995 10.6067 28.2195 10.42C28.1529 10.22 28.0862 10.02 28.0195 9.82C28.0062 9.79333 27.9862 9.77333 27.9595 9.76C27.9329 9.73333 27.9062 9.70667 27.8795 9.68L27.7795 9.58C27.7662 9.52667 27.7595 9.48 27.7595 9.44C27.7729 9.38667 27.7662 9.34667 27.7395 9.32C27.7262 9.21333 27.6595 9.14 27.5395 9.1C27.4995 9.1 27.4662 9.10667 27.4395 9.12C27.4262 9.14667 27.4129 9.18 27.3995 9.22C27.3862 9.26 27.3662 9.29333 27.3395 9.32C27.3262 9.41333 27.2929 9.48667 27.2395 9.54C27.0795 9.75333 26.9862 10.0267 26.9595 10.36C26.9595 10.36 26.9462 10.4067 26.9195 10.5C26.8929 10.54 26.8595 10.5867 26.8195 10.64C26.7795 10.6933 26.7395 10.7533 26.6995 10.82C26.6462 11.06 26.6062 11.2133 26.5795 11.28C26.5662 11.3467 26.5062 11.46 26.3995 11.62C26.3729 11.7667 26.3595 11.9267 26.3595 12.1C26.3595 12.26 26.2862 12.4267 26.1395 12.6C26.1529 12.5867 26.1462 12.5933 26.1195 12.62C26.1062 12.6467 26.0862 12.66 26.0595 12.66C26.0062 12.6733 25.9462 12.6867 25.8795 12.7C25.8129 12.7 25.7462 12.7133 25.6795 12.74C25.6262 12.7667 25.5662 12.8 25.4995 12.84C25.4329 12.8667 25.3729 12.9 25.3195 12.94C25.2662 12.94 25.2062 12.9333 25.1395 12.92C25.0729 12.9067 25.0062 12.9 24.9395 12.9C24.8862 12.9133 24.8329 12.9333 24.7795 12.96C24.7395 12.9733 24.6929 12.9933 24.6395 13.02C24.5995 13.0333 24.5529 13.04 24.4995 13.04C24.4595 13.04 24.4062 13.0467 24.3395 13.06C24.3262 13.1 24.3062 13.1333 24.2795 13.16C24.2662 13.2 24.2462 13.2333 24.2195 13.26C24.1929 13.2333 24.1662 13.2133 24.1395 13.2C24.1262 13.2 24.1129 13.1933 24.0995 13.18C24.0595 13.1133 24.0195 13.04 23.9795 12.96C23.9529 12.88 23.9195 12.8067 23.8795 12.74C23.8262 12.54 23.7195 12.3533 23.5595 12.18C23.4262 12.0333 23.3529 11.8933 23.3395 11.76C23.2595 11.5067 23.1395 11.3 22.9795 11.14C22.9662 10.94 22.9062 10.7533 22.7995 10.58C22.7062 10.4067 22.6395 10.1933 22.5995 9.94C22.5995 9.94 22.5995 9.90667 22.5995 9.84C22.6129 9.77333 22.6129 9.70667 22.5995 9.64C22.5862 9.46667 22.5529 9.3 22.4995 9.14C22.4462 8.96667 22.3862 8.80667 22.3195 8.66C22.2262 8.44667 22.1195 8.24667 21.9995 8.06C21.8795 7.87333 21.7595 7.69333 21.6395 7.52C21.5462 7.26667 21.4462 7.02 21.3395 6.78C21.2329 6.54 21.0929 6.32667 20.9195 6.14C20.8395 5.95333 20.8395 5.78 20.9195 5.62L21.1395 5.38C21.1929 5.32667 21.2395 5.28667 21.2795 5.26C21.3329 5.22 21.3795 5.18 21.4195 5.14C21.4862 5.07333 21.5529 5.00667 21.6195 4.94C21.6862 4.87333 21.7529 4.8 21.8195 4.72C21.8729 4.69333 21.9329 4.66667 21.9995 4.64C22.0662 4.6 22.1329 4.56 22.1995 4.52C22.3062 4.45333 22.4129 4.4 22.5195 4.36C22.6395 4.30667 22.7595 4.25333 22.8795 4.2C22.9729 4.22667 23.0529 4.26667 23.1195 4.32C23.1862 4.37333 23.2595 4.43333 23.3395 4.5C23.4062 4.60667 23.4795 4.72 23.5595 4.84C23.6395 4.96 23.7195 5.07333 23.7995 5.18C23.7862 5.27333 23.7995 5.34667 23.8395 5.4C23.8929 5.45333 23.9329 5.52 23.9595 5.6L23.9995 5.92C24.0262 6.01333 24.0729 6.09333 24.1395 6.16C24.2062 6.22667 24.2062 6.31333 24.1395 6.42C24.2862 6.51333 24.4062 6.62 24.4995 6.74C24.5929 6.86 24.6662 6.99333 24.7195 7.14C24.7462 7.19333 24.7662 7.24667 24.7795 7.3C24.8062 7.35333 24.8395 7.41333 24.8795 7.48C25.0262 7.72 25.1129 8.00667 25.1395 8.34C25.1395 8.35333 25.1462 8.36667 25.1595 8.38C25.1729 8.38 25.1795 8.38667 25.1795 8.4C25.2062 8.41333 25.2195 8.42667 25.2195 8.44C25.2329 8.45333 25.2462 8.46 25.2595 8.46C25.3262 8.46 25.3595 8.44667 25.3595 8.42C25.4395 8.23333 25.5195 8.04 25.5995 7.84C25.6929 7.64 25.7862 7.44 25.8795 7.24C25.9329 7.14667 25.9729 7.03333 25.9995 6.9C26.0662 6.75333 26.1195 6.6 26.1595 6.44C26.1995 6.28 26.2595 6.12667 26.3395 5.98C26.3529 5.95333 26.3662 5.92667 26.3795 5.9C26.3929 5.86 26.3995 5.83333 26.3995 5.82C26.4395 5.51333 26.5195 5.24 26.6395 5C26.6662 4.96 26.6795 4.92 26.6795 4.88C26.6929 4.84 26.7062 4.80667 26.7195 4.78C26.7595 4.71333 26.8062 4.68 26.8595 4.68C26.9262 4.66667 26.9862 4.64 27.0395 4.6C27.0795 4.57333 27.1195 4.55333 27.1595 4.54C27.1995 4.51333 27.2395 4.48667 27.2795 4.46C27.5729 4.52667 27.8595 4.56 28.1395 4.56C28.4329 4.54667 28.7262 4.53333 29.0195 4.52C29.0329 4.53333 29.0462 4.54667 29.0595 4.56C29.0862 4.56 29.0995 4.56667 29.0995 4.58C29.1929 4.9 29.3395 5.16667 29.5395 5.38C29.5929 5.48667 29.6329 5.58667 29.6595 5.68C29.6995 5.77333 29.7395 5.86 29.7795 5.94C29.8195 6.02 29.8595 6.1 29.8995 6.18C29.9529 6.24667 29.9929 6.31333 30.0195 6.38C30.0862 6.67333 30.1529 6.96 30.2195 7.24C30.2862 7.52 30.3462 7.79333 30.3995 8.06C30.4262 8.11333 30.4595 8.15333 30.4995 8.18C30.5395 8.19333 30.5795 8.20667 30.6195 8.22C30.6729 8.16667 30.6862 8.11333 30.6595 8.06C30.6462 8.00667 30.6595 7.93333 30.6995 7.84C30.7529 7.73333 30.7995 7.67333 30.8395 7.66C30.9195 7.58 30.9595 7.46667 30.9595 7.32C30.9862 7.25333 31.0062 7.19333 31.0195 7.14C31.0329 7.08667 31.0529 7.03333 31.0795 6.98C31.1329 6.9 31.1729 6.80667 31.1995 6.7C31.2262 6.59333 31.2462 6.49333 31.2595 6.4C31.2862 6.26667 31.3129 6.14 31.3395 6.02C31.3795 5.9 31.4195 5.77333 31.4595 5.64C31.4995 5.57333 31.5395 5.51333 31.5795 5.46C31.6195 5.39333 31.6529 5.33333 31.6795 5.28C31.7462 5.14667 31.8195 5.02667 31.8995 4.92C31.9795 4.8 32.0195 4.67333 32.0195 4.54C32.1262 4.47333 32.2129 4.43333 32.2795 4.42C32.3595 4.40667 32.4462 4.39333 32.5395 4.38C32.6062 4.43333 32.6795 4.48667 32.7595 4.54C32.8529 4.58 32.9329 4.64 32.9995 4.72C33.0395 4.77333 33.0862 4.82 33.1395 4.86C33.2062 4.88667 33.2662 4.92667 33.3195 4.98C33.3862 5.03333 33.4395 5.1 33.4795 5.18C33.5329 5.26 33.5995 5.32 33.6795 5.36C33.7595 5.4 33.8329 5.45333 33.8995 5.52C33.9662 5.57333 34.0329 5.62 34.0995 5.66C34.1529 5.79333 34.1729 5.92 34.1595 6.04ZM47.0289 11.56C46.9622 11.6933 46.9022 11.8267 46.8489 11.96C46.7956 12.0933 46.7356 12.2267 46.6689 12.36L46.2489 12.76C45.9956 13.04 45.6956 13.2067 45.3489 13.26C45.1756 13.2867 44.9956 13.2933 44.8089 13.28C44.6356 13.28 44.4556 13.2533 44.2689 13.2C44.1622 13.1733 44.0489 13.1333 43.9289 13.08C43.8222 13.04 43.7156 12.9933 43.6089 12.94C43.5289 12.9 43.4422 12.8733 43.3489 12.86C43.2556 12.8333 43.1556 12.8133 43.0489 12.8C43.0089 12.7733 42.9622 12.7467 42.9089 12.72C42.8556 12.68 42.7956 12.64 42.7289 12.6C42.6356 12.44 42.5222 12.2933 42.3889 12.16C42.2689 12.0267 42.1756 11.86 42.1089 11.66C42.1089 11.5 42.1022 11.3933 42.0889 11.34C42.0756 11.2733 42.0356 11.1467 41.9689 10.96V9.64C41.9689 9.53333 41.9622 9.43333 41.9489 9.34C41.9489 9.23333 41.9356 9.13333 41.9089 9.04C41.8956 8.94667 41.8889 8.86667 41.8889 8.8C41.9022 8.73333 41.9156 8.65333 41.9289 8.56C41.9689 8.4 41.9689 8.23333 41.9289 8.06C41.9689 7.9 42.0156 7.74 42.0689 7.58C42.0689 7.5 42.0489 7.38667 42.0089 7.24C41.9689 7.09333 41.9222 6.95333 41.8689 6.82C41.8022 6.82 41.7356 6.81333 41.6689 6.8C41.6022 6.78667 41.5289 6.77333 41.4489 6.76C41.3689 6.78667 41.2822 6.81333 41.1889 6.84C41.1089 6.86667 41.0156 6.89333 40.9089 6.92C40.8689 6.94667 40.8089 6.96 40.7289 6.96C40.7156 6.96 40.6889 6.94667 40.6489 6.92C40.6222 6.88 40.6089 6.85333 40.6089 6.84C40.5956 6.8 40.5889 6.76 40.5889 6.72C40.5889 6.68 40.5889 6.64 40.5889 6.6C40.5756 6.49333 40.5689 6.38 40.5689 6.26C40.5689 6.14 40.5689 6.02667 40.5689 5.92C40.5689 5.81333 40.5622 5.71333 40.5489 5.62C40.5356 5.51333 40.5156 5.41333 40.4889 5.32C40.5022 5.25333 40.5156 5.19333 40.5289 5.14C40.5422 5.07333 40.5556 5.01333 40.5689 4.96V4.58C40.5689 4.47333 40.5822 4.38 40.6089 4.3C40.6489 4.22 40.7222 4.14667 40.8289 4.08C40.9089 4.05333 40.9956 4.04 41.0889 4.04C41.1956 4.04 41.3089 4.04 41.4289 4.04C41.5356 4.05333 41.6422 4.05333 41.7489 4.04C41.8689 4.01333 41.9756 3.95333 42.0689 3.86C42.0956 3.83333 42.1289 3.82 42.1689 3.82C42.2222 3.82 42.2622 3.82 42.2889 3.82C42.5556 3.83333 42.7889 3.72667 42.9889 3.5C43.0022 3.42 43.0422 3.30667 43.1089 3.16C43.0689 3.06667 43.0356 2.96667 43.0089 2.86C42.9822 2.74 42.9489 2.62667 42.9089 2.52C42.9356 2.48 42.9622 2.44 42.9889 2.4C43.0156 2.36 43.0356 2.31333 43.0489 2.26C43.0756 2.19333 43.0756 2.13333 43.0489 2.08C43.0222 2.01333 43.0156 1.96 43.0289 1.92C43.0022 1.85333 42.9889 1.80667 42.9889 1.78C42.9889 1.75333 42.9756 1.70667 42.9489 1.64C42.9622 1.61333 42.9756 1.58667 42.9889 1.56C43.0022 1.52 43.0156 1.48667 43.0289 1.46C43.0422 1.40667 43.0556 1.36667 43.0689 1.34C43.0822 1.3 43.0956 1.25333 43.1089 1.2H43.3289C43.3956 1.21333 43.4622 1.22667 43.5289 1.24C43.6089 1.24 43.6822 1.23333 43.7489 1.22C43.7756 1.22 43.8089 1.22667 43.8489 1.24C43.8889 1.24 43.9289 1.24 43.9689 1.24C44.1956 1.26667 44.4156 1.3 44.6289 1.34C44.8556 1.38 45.0756 1.4 45.2889 1.4C45.3156 1.4 45.3422 1.40667 45.3689 1.42C45.4089 1.43333 45.4356 1.44667 45.4489 1.46C45.5022 1.48667 45.5489 1.52 45.5889 1.56C45.5756 1.61333 45.5556 1.66667 45.5289 1.72C45.5022 1.76 45.4822 1.8 45.4689 1.84C45.4556 1.89333 45.4422 1.95333 45.4289 2.02C45.4289 2.08667 45.4222 2.15333 45.4089 2.22C45.3956 2.31333 45.3822 2.40667 45.3689 2.5C45.3556 2.59333 45.3356 2.7 45.3089 2.82C45.3222 2.83333 45.3289 2.86667 45.3289 2.92C45.3289 2.97333 45.3356 3.02 45.3489 3.06C45.3356 3.15333 45.3156 3.24 45.2889 3.32C45.2756 3.4 45.2622 3.49333 45.2489 3.6C45.4222 3.73333 45.6089 3.84667 45.8089 3.94C46.0222 4.03333 46.2756 4.12 46.5689 4.2C46.7156 4.29333 46.8022 4.44667 46.8289 4.66C46.8289 4.96667 46.8089 5.27333 46.7689 5.58C46.7556 5.7 46.7422 5.82 46.7289 5.94C46.7156 6.06 46.7156 6.18 46.7289 6.3C46.5556 6.40667 46.3489 6.46 46.1089 6.46C46.0689 6.46 46.0289 6.46667 45.9889 6.48C45.9489 6.49333 45.9156 6.5 45.8889 6.5C45.6756 6.51333 45.5089 6.53333 45.3889 6.56C45.2822 6.58667 45.1089 6.65333 44.8689 6.76C44.8289 6.81333 44.8089 6.88667 44.8089 6.98C44.7956 7.06 44.7822 7.14 44.7689 7.22C44.7689 7.3 44.7756 7.38667 44.7889 7.48C44.7889 7.48 44.7889 7.48667 44.7889 7.5C44.7889 7.5 44.7756 7.50667 44.7489 7.52C44.6689 7.68 44.6089 7.8 44.5689 7.88C44.5289 7.96 44.5022 8.04 44.4889 8.12C44.4889 8.2 44.4889 8.33333 44.4889 8.52V9.48C44.4889 9.54667 44.4956 9.58667 44.5089 9.6C44.5222 9.72 44.5822 9.82 44.6889 9.9C44.7422 9.91333 44.7889 9.92667 44.8289 9.94C44.8822 9.95333 44.9222 9.98667 44.9489 10.04C45.0689 10.2 45.2022 10.2867 45.3489 10.3C45.5089 10.3 45.6756 10.2733 45.8489 10.22C45.9022 10.1933 45.9556 10.1667 46.0089 10.14C46.0622 10.1133 46.1156 10.0933 46.1689 10.08C46.2756 10.1067 46.3422 10.1667 46.3689 10.26C46.3956 10.3533 46.4422 10.4333 46.5089 10.5C46.5756 10.5667 46.6289 10.64 46.6689 10.72C46.7222 10.8 46.7756 10.88 46.8289 10.96C46.8556 11.04 46.8889 11.1333 46.9289 11.24C46.9689 11.3333 47.0022 11.44 47.0289 11.56ZM57.5706 7.54C57.6106 7.7 57.604 7.84667 57.5506 7.98C57.524 8.04667 57.504 8.11333 57.4906 8.18C57.4773 8.24667 57.4773 8.31333 57.4906 8.38C57.504 8.39333 57.504 8.41333 57.4906 8.44C57.4906 8.45333 57.4906 8.47333 57.4906 8.5C57.4373 8.60667 57.4106 8.72 57.4106 8.84C57.424 8.96 57.4373 9.07333 57.4506 9.18L57.2506 9.46V9.72C57.224 9.74667 57.1906 9.78 57.1506 9.82C57.1106 9.84667 57.0573 9.88667 56.9906 9.94C56.964 10.0333 56.924 10.1333 56.8706 10.24C56.8306 10.3467 56.7973 10.4467 56.7706 10.54V10.74C56.7173 10.7933 56.6506 10.84 56.5706 10.88C56.4906 10.92 56.424 10.98 56.3706 11.06C56.3173 11.1 56.264 11.1333 56.2106 11.16C56.1573 11.1867 56.0973 11.22 56.0306 11.26C56.004 11.2733 55.9706 11.28 55.9306 11.28C55.904 11.2667 55.8773 11.2667 55.8506 11.28C55.6506 11.28 55.5506 11.3733 55.5506 11.56C55.404 11.6533 55.2573 11.7533 55.1106 11.86C54.9773 11.9667 54.8373 12.0733 54.6906 12.18C54.464 12.3533 54.1706 12.4733 53.8106 12.54C53.6906 12.5533 53.5773 12.5867 53.4706 12.64C53.364 12.68 53.2506 12.7133 53.1306 12.74C53.104 12.74 53.0706 12.7333 53.0306 12.72C52.9906 12.7067 52.9573 12.7067 52.9306 12.72C52.7706 12.7333 52.604 12.72 52.4306 12.68C52.3773 12.6667 52.324 12.6667 52.2706 12.68C52.2173 12.6933 52.1706 12.7067 52.1306 12.72C52.0373 12.7067 51.944 12.6933 51.8506 12.68C51.7573 12.6667 51.6573 12.6533 51.5506 12.64C51.4306 12.5867 51.3173 12.5267 51.2106 12.46C51.1173 12.3933 51.0173 12.3333 50.9106 12.28C50.8306 12.2533 50.7573 12.2067 50.6906 12.14C50.624 12.0733 50.5706 12.0067 50.5306 11.94C50.5173 11.9133 50.4973 11.8933 50.4706 11.88C50.4573 11.8533 50.4373 11.8267 50.4106 11.8C50.3706 11.7733 50.3306 11.7533 50.2906 11.74C50.2506 11.7133 50.2106 11.68 50.1706 11.64C49.9573 11.4933 49.764 11.3333 49.5906 11.16C49.4306 10.9867 49.3106 10.7733 49.2306 10.52C49.164 10.3467 49.084 10.1933 48.9906 10.06C48.964 10.0067 48.9306 9.96 48.8906 9.92C48.864 9.86667 48.8373 9.81333 48.8106 9.76C48.824 9.73333 48.844 9.68 48.8706 9.6C48.844 9.56 48.8173 9.52 48.7906 9.48C48.764 9.44 48.7506 9.39333 48.7506 9.34C48.7506 9.3 48.744 9.26 48.7306 9.22C48.7306 9.16667 48.7373 9.11333 48.7506 9.06C48.7773 8.96667 48.784 8.87333 48.7706 8.78C48.7573 8.68667 48.7573 8.59333 48.7706 8.5C48.784 8.42 48.7773 8.33333 48.7506 8.24C48.7373 8.14667 48.7506 8.06 48.7906 7.98C48.8173 7.88667 48.8373 7.8 48.8506 7.72C48.864 7.64 48.884 7.56 48.9106 7.48C48.9373 7.4 48.964 7.32667 48.9906 7.26C49.0173 7.18 49.044 7.10667 49.0706 7.04C49.0973 6.96 49.124 6.88 49.1506 6.8C49.1773 6.72 49.2173 6.63333 49.2706 6.54C49.2706 6.51333 49.2706 6.48 49.2706 6.44C49.2706 6.4 49.2773 6.37333 49.2906 6.36C49.344 6.25333 49.384 6.15333 49.4106 6.06C49.4373 5.96667 49.444 5.87333 49.4306 5.78C49.484 5.71333 49.5306 5.66 49.5706 5.62C49.6106 5.58 49.644 5.53333 49.6706 5.48C49.6973 5.41333 49.724 5.35333 49.7506 5.3C49.7906 5.23333 49.8306 5.17333 49.8706 5.12C49.9106 5.01333 49.9706 4.92 50.0506 4.84C50.104 4.77333 50.1506 4.72 50.1906 4.68C50.2306 4.62667 50.264 4.58667 50.2906 4.56C50.3306 4.48 50.344 4.41333 50.3306 4.36C50.3173 4.29333 50.3106 4.24 50.3106 4.2C50.3373 4.13333 50.3573 4.09333 50.3706 4.08C50.4106 4.06667 50.444 4.04667 50.4706 4.02C50.5106 3.99333 50.5506 3.97333 50.5906 3.96C50.6973 3.89333 50.8106 3.82667 50.9306 3.76C51.0506 3.69333 51.1706 3.64 51.2906 3.6C51.4106 3.52 51.5306 3.46667 51.6506 3.44C51.784 3.4 51.9173 3.36 52.0506 3.32C52.1573 3.32 52.264 3.32 52.3706 3.32C52.4773 3.32 52.5773 3.32667 52.6706 3.34H52.8506C52.9973 3.39333 53.144 3.42 53.2906 3.42C53.4506 3.42 53.604 3.41333 53.7506 3.4C53.8173 3.4 53.884 3.4 53.9506 3.4C54.0306 3.38667 54.104 3.38 54.1706 3.38C54.2373 3.43333 54.2906 3.48 54.3306 3.52C54.384 3.54667 54.4373 3.58667 54.4906 3.64C54.5306 3.65333 54.5706 3.67333 54.6106 3.7C54.6506 3.72667 54.6973 3.74667 54.7506 3.76C54.9373 3.77333 55.104 3.83333 55.2506 3.94C55.4106 4.04667 55.5573 4.15333 55.6906 4.26C55.6906 4.28667 55.6906 4.32667 55.6906 4.38C55.6906 4.42 55.6973 4.46 55.7106 4.5C55.7106 4.56667 55.7506 4.62667 55.8306 4.68C55.8706 4.69333 55.9173 4.7 55.9706 4.7C56.024 4.7 56.0773 4.71333 56.1306 4.74C56.1573 4.79333 56.1906 4.85333 56.2306 4.92C56.284 4.98667 56.3306 5.05333 56.3706 5.12C56.424 5.17333 56.4773 5.22667 56.5306 5.28C56.584 5.33333 56.624 5.39333 56.6506 5.46C56.6773 5.48667 56.6973 5.52 56.7106 5.56C56.7373 5.6 56.7573 5.63333 56.7706 5.66C56.8106 5.7 56.8506 5.74 56.8906 5.78C56.9306 5.82 56.9573 5.87333 56.9706 5.94C56.9973 6.03333 57.0373 6.12667 57.0906 6.22C57.144 6.31333 57.184 6.41333 57.2106 6.52C57.224 6.56 57.244 6.6 57.2706 6.64C57.3106 6.68 57.3506 6.72667 57.3906 6.78C57.4173 6.9 57.4373 7.02667 57.4506 7.16C57.4773 7.29333 57.5173 7.42 57.5706 7.54ZM54.7706 8.26C54.784 8.16667 54.7706 8.08667 54.7306 8.02C54.6906 7.94 54.6773 7.86 54.6906 7.78C54.6906 7.75333 54.6706 7.72 54.6306 7.68C54.6173 7.65333 54.6106 7.6 54.6106 7.52C54.624 7.49333 54.6306 7.46 54.6306 7.42C54.6306 7.36667 54.6306 7.33333 54.6306 7.32C54.5373 7.17333 54.4506 7.04 54.3706 6.92C54.2906 6.78667 54.204 6.66 54.1106 6.54C54.1106 6.51333 54.0973 6.5 54.0706 6.5C54.044 6.48667 54.0173 6.46 53.9906 6.42C53.764 6.42 53.5173 6.36 53.2506 6.24C53.0906 6.16 52.8973 6.15333 52.6706 6.22C52.6573 6.22 52.6373 6.22667 52.6106 6.24C52.5973 6.25333 52.5773 6.27333 52.5506 6.3H52.4506C52.2373 6.26 52.0973 6.34 52.0306 6.54C52.004 6.59333 51.9706 6.65333 51.9306 6.72C51.904 6.77333 51.884 6.83333 51.8706 6.9C51.8573 6.95333 51.8306 7.01333 51.7906 7.08C51.7506 7.13333 51.7173 7.18667 51.6906 7.24C51.6373 7.30667 51.5906 7.38 51.5506 7.46C51.5106 7.54 51.464 7.61333 51.4106 7.68C51.3973 7.81333 51.364 7.94667 51.3106 8.08C51.2706 8.21333 51.244 8.34 51.2306 8.46C51.2706 8.52667 51.3106 8.6 51.3506 8.68C51.3906 8.74667 51.424 8.81333 51.4506 8.88C51.5306 9.05333 51.564 9.22 51.5506 9.38C51.5506 9.40667 51.5573 9.43333 51.5706 9.46C51.584 9.48667 51.5973 9.51333 51.6106 9.54C51.7306 9.56667 51.844 9.59333 51.9506 9.62C52.0706 9.64667 52.184 9.68 52.2906 9.72C52.384 9.74667 52.4773 9.76667 52.5706 9.78C52.664 9.79333 52.7573 9.78 52.8506 9.74H52.9106C53.0173 9.76667 53.1173 9.77333 53.2106 9.76C53.3173 9.73333 53.4306 9.70667 53.5506 9.68C53.644 9.61333 53.7373 9.54 53.8306 9.46C53.9373 9.38 54.044 9.31333 54.1506 9.26C54.244 9.07333 54.3573 8.90667 54.4906 8.76C54.624 8.61333 54.7173 8.44667 54.7706 8.26ZM67.637 4.06C67.5704 4.3 67.5304 4.54667 67.517 4.8C67.5037 5.04 67.4904 5.28 67.477 5.52C67.4637 5.76 67.457 6.00667 67.457 6.26C67.457 6.5 67.457 6.74 67.457 6.98C67.457 7.18 67.4437 7.38 67.417 7.58C67.3904 7.78 67.3704 7.98667 67.357 8.2C67.357 8.25333 67.3504 8.31333 67.337 8.38C67.337 8.44667 67.337 8.51333 67.337 8.58C67.337 8.76667 67.3104 8.94 67.257 9.1C67.217 9.27333 67.197 9.44667 67.197 9.62C67.197 9.71333 67.1904 9.81333 67.177 9.92C67.1637 10.0267 67.137 10.1333 67.097 10.24C67.0837 10.3067 67.077 10.4067 67.077 10.54C67.0637 10.6467 67.037 10.7533 66.997 10.86C66.9704 10.9533 66.9437 11.0467 66.917 11.14C66.8904 11.22 66.8637 11.3133 66.837 11.42C66.7837 11.5 66.7304 11.5867 66.677 11.68C66.637 11.76 66.5904 11.84 66.537 11.92C66.417 11.9867 66.317 12.0733 66.237 12.18C66.1037 12.2867 65.9704 12.4 65.837 12.52C65.717 12.64 65.597 12.7533 65.477 12.86C65.317 12.9933 65.157 13.06 64.997 13.06C64.9837 13.06 64.9637 13.0667 64.937 13.08C64.9237 13.0933 64.9037 13.1 64.877 13.1C64.6237 13.1267 64.417 13.2067 64.257 13.34C64.2437 13.3533 64.2237 13.36 64.197 13.36C64.1837 13.3733 64.1637 13.3933 64.137 13.42C63.9637 13.4467 63.7837 13.4333 63.597 13.38C63.4237 13.3267 63.2637 13.26 63.117 13.18H62.797C62.7437 13.18 62.6904 13.1733 62.637 13.16C62.5837 13.16 62.5237 13.1533 62.457 13.14C62.097 13.06 61.7504 12.9067 61.417 12.68C61.377 12.64 61.3304 12.6133 61.277 12.6C61.2237 12.5867 61.1637 12.5733 61.097 12.56C61.017 12.5467 60.937 12.5267 60.857 12.5C60.777 12.4733 60.697 12.4467 60.617 12.42C60.5504 12.38 60.497 12.3267 60.457 12.26C60.417 12.18 60.377 12.1133 60.337 12.06C60.2704 11.9267 60.2104 11.8067 60.157 11.7C60.1037 11.58 60.0437 11.4533 59.977 11.32C59.9237 11.2133 59.8637 11.1067 59.797 11C59.7304 10.88 59.6637 10.7733 59.597 10.68C59.597 10.6667 59.6037 10.66 59.617 10.66C59.6304 10.66 59.637 10.6533 59.637 10.64L59.597 10.6C59.597 10.6133 59.5904 10.6267 59.577 10.64C59.577 10.64 59.577 10.6467 59.577 10.66C59.5637 10.6467 59.5437 10.64 59.517 10.64C59.5037 10.6267 59.4904 10.6133 59.477 10.6C59.4237 10.5733 59.3837 10.5333 59.357 10.48C59.3304 10.4133 59.3037 10.3533 59.277 10.3C59.317 10.22 59.337 10.1133 59.337 9.98C59.3637 9.80667 59.357 9.65333 59.317 9.52C59.2637 9.32 59.237 9.12 59.237 8.92C59.2504 8.72 59.2637 8.51333 59.277 8.3C59.277 8.23333 59.3037 8.14667 59.357 8.04C59.4504 7.81333 59.5037 7.61333 59.517 7.44C59.6504 7.25333 59.757 7.05333 59.837 6.84C59.917 6.62667 60.0104 6.42667 60.117 6.24C60.1837 6.21333 60.237 6.18667 60.277 6.16C60.3304 6.13333 60.3837 6.11333 60.437 6.1C60.4637 6.07333 60.4837 6.04 60.497 6C60.5104 5.96 60.537 5.92667 60.577 5.9C60.617 5.87333 60.6637 5.85333 60.717 5.84C60.7704 5.81333 60.8304 5.79333 60.897 5.78C60.9237 5.74 60.9437 5.7 60.957 5.66C60.9837 5.62 61.0104 5.58 61.037 5.54C61.077 5.5 61.1037 5.48 61.117 5.48C61.4237 5.37333 61.7437 5.29333 62.077 5.24C62.1304 5.22667 62.1837 5.22 62.237 5.22C62.3037 5.20667 62.3637 5.19333 62.417 5.18C62.5904 5.12667 62.7637 5.10667 62.937 5.12C63.1104 5.13333 63.2837 5.13333 63.457 5.12C63.497 5.12 63.537 5.12667 63.577 5.14C63.6304 5.15333 63.677 5.16667 63.717 5.18C63.757 5.18 63.8104 5.19333 63.877 5.22C63.9437 5.24667 63.9837 5.24667 63.997 5.22C64.1304 5.19333 64.2237 5.20667 64.277 5.26C64.3437 5.31333 64.377 5.34 64.377 5.34C64.4037 5.35333 64.457 5.36 64.537 5.36C64.6304 5.34667 64.6837 5.34 64.697 5.34C64.817 5.31333 64.8837 5.26 64.897 5.18C64.9237 5.08667 64.9237 5.04 64.897 5.04L64.857 5C64.8704 4.82667 64.8637 4.65333 64.837 4.48C64.8237 4.30667 64.8237 4.13333 64.837 3.96C64.8504 3.89333 64.857 3.82667 64.857 3.76C64.857 3.68 64.857 3.60667 64.857 3.54C64.8437 3.47333 64.8437 3.41333 64.857 3.36C64.8704 3.29333 64.877 3.22667 64.877 3.16C64.877 3.09333 64.877 3.03333 64.877 2.98C64.8904 2.91333 64.8837 2.86 64.857 2.82C64.817 2.71333 64.797 2.60667 64.797 2.5C64.8104 2.39333 64.8304 2.28667 64.857 2.18C64.897 2.03333 64.9237 1.88667 64.937 1.74C64.9637 1.59333 64.9637 1.43333 64.937 1.26V1.16C64.9904 1.02667 65.017 0.893332 65.017 0.759999C65.0304 0.626666 65.0437 0.506666 65.057 0.399999C65.1237 0.306666 65.2037 0.246666 65.297 0.219999C65.4037 0.179999 65.4837 0.133333 65.537 0.0799994C65.7504 0.0666663 65.9504 0.0666663 66.137 0.0799994C66.3237 0.0933326 66.5104 0.0733325 66.697 0.019999C66.7904 0.0599993 66.877 0.0933326 66.957 0.119999C67.0504 0.133333 67.1304 0.146666 67.197 0.16C67.3437 0.266666 67.417 0.406666 67.417 0.579999C67.417 0.646666 67.417 0.719999 67.417 0.8C67.417 0.879999 67.4104 0.959999 67.397 1.04C67.4104 1.09333 67.4304 1.14 67.457 1.18C67.4837 1.22 67.5037 1.27333 67.517 1.34C67.5037 1.36667 67.4904 1.40667 67.477 1.46C67.477 1.5 67.4704 1.54667 67.457 1.6C67.4704 1.65333 67.4837 1.72 67.497 1.8C67.5104 1.88 67.5237 1.95333 67.537 2.02C67.537 2.23333 67.537 2.44 67.537 2.64C67.5504 2.84 67.5504 3.04 67.537 3.24C67.537 3.45333 67.537 3.59333 67.537 3.66C67.5504 3.72667 67.5837 3.86 67.637 4.06ZM64.717 9.1C64.677 8.99333 64.6437 8.89333 64.617 8.8C64.6037 8.69333 64.5837 8.6 64.557 8.52C64.517 8.42667 64.4637 8.34 64.397 8.26C64.3437 8.18 64.297 8.09333 64.257 8C64.1237 7.93333 64.0237 7.86667 63.957 7.8C63.8904 7.77333 63.8237 7.75333 63.757 7.74C63.7037 7.72667 63.6437 7.71333 63.577 7.7C63.5237 7.67333 63.4704 7.65333 63.417 7.64C63.377 7.61333 63.3304 7.59333 63.277 7.58C63.1837 7.62 63.0904 7.66 62.997 7.7C62.917 7.74 62.837 7.78 62.757 7.82C62.5437 7.91333 62.397 8.08667 62.317 8.34C62.3037 8.39333 62.297 8.44667 62.297 8.5C62.297 8.55333 62.2904 8.61333 62.277 8.68C62.2637 8.72 62.237 8.76 62.197 8.8C62.1704 8.84 62.1437 8.89333 62.117 8.96V9.32C62.1437 9.49333 62.1904 9.66 62.257 9.82C62.337 9.96667 62.4637 10.0933 62.637 10.2C62.677 10.2133 62.7104 10.24 62.737 10.28C62.777 10.3067 62.8237 10.3333 62.877 10.36C62.957 10.44 63.037 10.48 63.117 10.48C63.3304 10.4533 63.537 10.4333 63.737 10.42C63.937 10.3933 64.1304 10.34 64.317 10.26C64.397 10.1933 64.457 10.1267 64.497 10.06C64.537 10.0067 64.5704 9.96 64.597 9.92C64.6237 9.86667 64.657 9.81333 64.697 9.76V9.42C64.697 9.35333 64.697 9.29333 64.697 9.24C64.697 9.18667 64.7037 9.14 64.717 9.1ZM78.098 7.54C78.138 7.7 78.1313 7.84667 78.078 7.98C78.0513 8.04667 78.0313 8.11333 78.018 8.18C78.0046 8.24667 78.0046 8.31333 78.018 8.38C78.0313 8.39333 78.0313 8.41333 78.018 8.44C78.018 8.45333 78.018 8.47333 78.018 8.5C77.9646 8.60667 77.938 8.72 77.938 8.84C77.9513 8.96 77.9646 9.07333 77.978 9.18L77.778 9.46V9.72C77.7513 9.74667 77.718 9.78 77.678 9.82C77.638 9.84667 77.5846 9.88667 77.518 9.94C77.4913 10.0333 77.4513 10.1333 77.398 10.24C77.358 10.3467 77.3246 10.4467 77.298 10.54V10.74C77.2446 10.7933 77.178 10.84 77.098 10.88C77.018 10.92 76.9513 10.98 76.898 11.06C76.8446 11.1 76.7913 11.1333 76.738 11.16C76.6846 11.1867 76.6246 11.22 76.558 11.26C76.5313 11.2733 76.498 11.28 76.458 11.28C76.4313 11.2667 76.4046 11.2667 76.378 11.28C76.178 11.28 76.078 11.3733 76.078 11.56C75.9313 11.6533 75.7846 11.7533 75.638 11.86C75.5046 11.9667 75.3646 12.0733 75.218 12.18C74.9913 12.3533 74.698 12.4733 74.338 12.54C74.218 12.5533 74.1046 12.5867 73.998 12.64C73.8913 12.68 73.778 12.7133 73.658 12.74C73.6313 12.74 73.598 12.7333 73.558 12.72C73.518 12.7067 73.4846 12.7067 73.458 12.72C73.298 12.7333 73.1313 12.72 72.958 12.68C72.9046 12.6667 72.8513 12.6667 72.798 12.68C72.7446 12.6933 72.698 12.7067 72.658 12.72C72.5646 12.7067 72.4713 12.6933 72.378 12.68C72.2846 12.6667 72.1846 12.6533 72.078 12.64C71.958 12.5867 71.8446 12.5267 71.738 12.46C71.6446 12.3933 71.5446 12.3333 71.438 12.28C71.358 12.2533 71.2846 12.2067 71.218 12.14C71.1513 12.0733 71.098 12.0067 71.058 11.94C71.0446 11.9133 71.0246 11.8933 70.998 11.88C70.9846 11.8533 70.9646 11.8267 70.938 11.8C70.898 11.7733 70.858 11.7533 70.818 11.74C70.778 11.7133 70.738 11.68 70.698 11.64C70.4846 11.4933 70.2913 11.3333 70.118 11.16C69.958 10.9867 69.838 10.7733 69.758 10.52C69.6913 10.3467 69.6113 10.1933 69.518 10.06C69.4913 10.0067 69.458 9.96 69.418 9.92C69.3913 9.86667 69.3646 9.81333 69.338 9.76C69.3513 9.73333 69.3713 9.68 69.398 9.6C69.3713 9.56 69.3446 9.52 69.318 9.48C69.2913 9.44 69.278 9.39333 69.278 9.34C69.278 9.3 69.2713 9.26 69.258 9.22C69.258 9.16667 69.2646 9.11333 69.278 9.06C69.3046 8.96667 69.3113 8.87333 69.298 8.78C69.2846 8.68667 69.2846 8.59333 69.298 8.5C69.3113 8.42 69.3046 8.33333 69.278 8.24C69.2646 8.14667 69.278 8.06 69.318 7.98C69.3446 7.88667 69.3646 7.8 69.378 7.72C69.3913 7.64 69.4113 7.56 69.438 7.48C69.4646 7.4 69.4913 7.32667 69.518 7.26C69.5446 7.18 69.5713 7.10667 69.598 7.04C69.6246 6.96 69.6513 6.88 69.678 6.8C69.7046 6.72 69.7446 6.63333 69.798 6.54C69.798 6.51333 69.798 6.48 69.798 6.44C69.798 6.4 69.8046 6.37333 69.818 6.36C69.8713 6.25333 69.9113 6.15333 69.938 6.06C69.9646 5.96667 69.9713 5.87333 69.958 5.78C70.0113 5.71333 70.058 5.66 70.098 5.62C70.138 5.58 70.1713 5.53333 70.198 5.48C70.2246 5.41333 70.2513 5.35333 70.278 5.3C70.318 5.23333 70.358 5.17333 70.398 5.12C70.438 5.01333 70.498 4.92 70.578 4.84C70.6313 4.77333 70.678 4.72 70.718 4.68C70.758 4.62667 70.7913 4.58667 70.818 4.56C70.858 4.48 70.8713 4.41333 70.858 4.36C70.8446 4.29333 70.838 4.24 70.838 4.2C70.8646 4.13333 70.8846 4.09333 70.898 4.08C70.938 4.06667 70.9713 4.04667 70.998 4.02C71.038 3.99333 71.078 3.97333 71.118 3.96C71.2246 3.89333 71.338 3.82667 71.458 3.76C71.578 3.69333 71.698 3.64 71.818 3.6C71.938 3.52 72.058 3.46667 72.178 3.44C72.3113 3.4 72.4446 3.36 72.578 3.32C72.6846 3.32 72.7913 3.32 72.898 3.32C73.0046 3.32 73.1046 3.32667 73.198 3.34H73.378C73.5246 3.39333 73.6713 3.42 73.818 3.42C73.978 3.42 74.1313 3.41333 74.278 3.4C74.3446 3.4 74.4113 3.4 74.478 3.4C74.558 3.38667 74.6313 3.38 74.698 3.38C74.7646 3.43333 74.818 3.48 74.858 3.52C74.9113 3.54667 74.9646 3.58667 75.018 3.64C75.058 3.65333 75.098 3.67333 75.138 3.7C75.178 3.72667 75.2246 3.74667 75.278 3.76C75.4646 3.77333 75.6313 3.83333 75.778 3.94C75.938 4.04667 76.0846 4.15333 76.218 4.26C76.218 4.28667 76.218 4.32667 76.218 4.38C76.218 4.42 76.2246 4.46 76.238 4.5C76.238 4.56667 76.278 4.62667 76.358 4.68C76.398 4.69333 76.4446 4.7 76.498 4.7C76.5513 4.7 76.6046 4.71333 76.658 4.74C76.6846 4.79333 76.718 4.85333 76.758 4.92C76.8113 4.98667 76.858 5.05333 76.898 5.12C76.9513 5.17333 77.0046 5.22667 77.058 5.28C77.1113 5.33333 77.1513 5.39333 77.178 5.46C77.2046 5.48667 77.2246 5.52 77.238 5.56C77.2646 5.6 77.2846 5.63333 77.298 5.66C77.338 5.7 77.378 5.74 77.418 5.78C77.458 5.82 77.4846 5.87333 77.498 5.94C77.5246 6.03333 77.5646 6.12667 77.618 6.22C77.6713 6.31333 77.7113 6.41333 77.738 6.52C77.7513 6.56 77.7713 6.6 77.798 6.64C77.838 6.68 77.878 6.72667 77.918 6.78C77.9446 6.9 77.9646 7.02667 77.978 7.16C78.0046 7.29333 78.0446 7.42 78.098 7.54ZM75.298 8.26C75.3113 8.16667 75.298 8.08667 75.258 8.02C75.218 7.94 75.2046 7.86 75.218 7.78C75.218 7.75333 75.198 7.72 75.158 7.68C75.1446 7.65333 75.138 7.6 75.138 7.52C75.1513 7.49333 75.158 7.46 75.158 7.42C75.158 7.36667 75.158 7.33333 75.158 7.32C75.0646 7.17333 74.978 7.04 74.898 6.92C74.818 6.78667 74.7313 6.66 74.638 6.54C74.638 6.51333 74.6246 6.5 74.598 6.5C74.5713 6.48667 74.5446 6.46 74.518 6.42C74.2913 6.42 74.0446 6.36 73.778 6.24C73.618 6.16 73.4246 6.15333 73.198 6.22C73.1846 6.22 73.1646 6.22667 73.138 6.24C73.1246 6.25333 73.1046 6.27333 73.078 6.3H72.978C72.7646 6.26 72.6246 6.34 72.558 6.54C72.5313 6.59333 72.498 6.65333 72.458 6.72C72.4313 6.77333 72.4113 6.83333 72.398 6.9C72.3846 6.95333 72.358 7.01333 72.318 7.08C72.278 7.13333 72.2446 7.18667 72.218 7.24C72.1646 7.30667 72.118 7.38 72.078 7.46C72.038 7.54 71.9913 7.61333 71.938 7.68C71.9246 7.81333 71.8913 7.94667 71.838 8.08C71.798 8.21333 71.7713 8.34 71.758 8.46C71.798 8.52667 71.838 8.6 71.878 8.68C71.918 8.74667 71.9513 8.81333 71.978 8.88C72.058 9.05333 72.0913 9.22 72.078 9.38C72.078 9.40667 72.0846 9.43333 72.098 9.46C72.1113 9.48667 72.1246 9.51333 72.138 9.54C72.258 9.56667 72.3713 9.59333 72.478 9.62C72.598 9.64667 72.7113 9.68 72.818 9.72C72.9113 9.74667 73.0046 9.76667 73.098 9.78C73.1913 9.79333 73.2846 9.78 73.378 9.74H73.438C73.5446 9.76667 73.6446 9.77333 73.738 9.76C73.8446 9.73333 73.958 9.70667 74.078 9.68C74.1713 9.61333 74.2646 9.54 74.358 9.46C74.4646 9.38 74.5713 9.31333 74.678 9.26C74.7713 9.07333 74.8846 8.90667 75.018 8.76C75.1513 8.61333 75.2446 8.44667 75.298 8.26Z" fill="white"/>
</svg>
