<svg width="16" height="17" viewBox="0 0 16 17" fill="none" xmlns="http://www.w3.org/2000/svg">
<path d="M8.66671 2.88883C8.66671 2.52064 8.36823 2.22217 8.00004 2.22217C7.63185 2.22217 7.33338 2.52064 7.33338 2.88883V8.22217H2.00004C1.63185 8.22217 1.33337 8.52065 1.33337 8.88884C1.33337 9.25703 1.63185 9.5555 2.00004 9.5555H7.33337V14.8888C7.33337 15.257 7.63185 15.5555 8.00004 15.5555C8.36823 15.5555 8.66671 15.257 8.66671 14.8888V9.5555H14C14.3682 9.5555 14.6667 9.25703 14.6667 8.88884C14.6667 8.52065 14.3682 8.22217 14 8.22217H8.66671V2.88883Z" fill="#0F0F0F" stroke="black" stroke-width="2"/>
</svg>
