<svg width="25" height="25" viewBox="0 0 25 25" fill="none" xmlns="http://www.w3.org/2000/svg">
<path fill-rule="evenodd" clip-rule="evenodd" d="M12.5 12.5C15.3765 12.5 17.7083 9.93495 17.7083 6.77082C17.7083 3.60669 15.3765 1.04166 12.5 1.04166C9.62352 1.04166 7.29167 3.60669 7.29167 6.77082C7.29167 9.93495 9.62352 12.5 12.5 12.5ZM12.5 10.2083C10.7741 10.2083 9.375 8.6693 9.375 6.77082C9.375 4.87234 10.7741 3.33332 12.5 3.33332C14.2259 3.33332 15.625 4.87234 15.625 6.77082C15.625 8.6693 14.2259 10.2083 12.5 10.2083Z" fill="#F0C23A"/>
<path fill-rule="evenodd" clip-rule="evenodd" d="M19.8988 14.6965C19.0213 13.816 17.6635 13.6261 16.5793 14.2695C16.3809 14.3872 16.2064 14.4949 16.0454 14.5942C15.6184 14.8578 15.287 15.0623 14.8597 15.2378C14.3229 15.4584 13.6286 15.625 12.5 15.625C11.3821 15.625 10.6763 15.4678 10.1313 15.2549C9.64953 15.0667 9.26898 14.8302 8.76755 14.5186C8.66975 14.4578 8.56717 14.3941 8.45853 14.3274C7.3707 13.6596 5.97358 13.8148 5.06682 14.7311C4.67129 15.1309 4.20871 15.6478 3.83844 16.2111C3.48545 16.748 3.125 17.4623 3.125 18.2292V20.8336C3.125 22.5597 4.52431 23.9583 6.25 23.9583H18.75C20.4757 23.9583 21.875 22.5597 21.875 20.8336V18.2292C21.875 17.4522 21.5049 16.7283 21.1454 16.1865C20.7677 15.6174 20.2971 15.0962 19.8988 14.6965ZM17.6424 16.0611C17.8915 15.9133 18.2063 15.9495 18.4232 16.1672C18.7723 16.5175 19.1379 16.9293 19.4095 17.3386C19.6993 17.7752 19.7917 18.075 19.7917 18.2292V20.8336C19.7917 21.4087 19.3255 21.875 18.75 21.875H6.25C5.6745 21.875 5.20833 21.4087 5.20833 20.8336V18.2292C5.20833 18.078 5.29739 17.7843 5.5793 17.3555C5.84393 16.9529 6.20165 16.5462 6.5477 16.1965C6.76471 15.9772 7.09485 15.9348 7.36863 16.1029C7.45481 16.1558 7.54257 16.2106 7.63223 16.2665C8.13478 16.5803 8.69707 16.9313 9.3733 17.1954C10.2011 17.5188 11.171 17.7083 12.5 17.7083C13.8544 17.7083 14.8243 17.5047 15.6515 17.1649C16.2506 16.9187 16.7791 16.5919 17.2457 16.3033C17.3832 16.2182 17.5154 16.1365 17.6424 16.0611Z" fill="#F0C23A"/>
</svg>
