<svg width="24" height="24" viewBox="0 0 24 24" fill="none" xmlns="http://www.w3.org/2000/svg">
<path d="M24 7.49118V3.9375C24 3.52323 23.5653 3.18706 23.0303 3.18706H16.6058V0.75C16.6058 0.336177 16.1717 0 15.6366 0H8.36392C7.82831 0 7.39365 0.336177 7.39365 0.75V3.18706H0.969697C0.434082 3.18706 0 3.52323 0 3.9375V7.49118C0 7.905 0.434082 8.24073 0.969697 8.24073H1.24806V23.25C1.24806 23.6638 1.68214 24 2.21718 24H19.0334C21.0841 24 22.7525 22.71 22.7525 21.1244V8.24118H23.0297C23.5653 8.24118 24 7.90544 24 7.49118ZM9.33305 1.5H14.6664V3.18706H9.33305V1.5ZM20.8137 21.1249C20.8137 21.8832 20.0151 22.5 19.034 22.5H3.18802V8.24118L20.8137 8.24206V21.1249ZM22.06 6.74118H1.93882V4.6875H8.36392H15.6366H22.0606L22.06 6.74118Z" fill="#BDBCBC"/>
<path d="M8.12036 11.25H6.18097V20.0625H8.12036V11.25Z" fill="#BDBCBC"/>
<path d="M12.9688 11.25H11.0294V20.0625H12.9688V11.25Z" fill="#BDBCBC"/>
<path d="M17.8173 11.25H15.8779V20.0625H17.8173V11.25Z" fill="#BDBCBC"/>
</svg>
