<svg width="25" height="25" viewBox="0 0 25 25" fill="none" xmlns="http://www.w3.org/2000/svg">
<path fill-rule="evenodd" clip-rule="evenodd" d="M17.7491 16.2752C19.0327 14.6706 19.8002 12.6353 19.8002 10.4208C19.8002 5.24075 15.6009 1.0415 10.4209 1.0415C5.24087 1.0415 1.04163 5.24075 1.04163 10.4208C1.04163 15.6008 5.24087 19.8001 10.4209 19.8001C12.6355 19.8001 14.6708 19.0325 16.2753 17.749L22.1792 23.6529C22.5862 24.0599 23.2461 24.0599 23.6531 23.6529C24.06 23.246 24.06 22.5861 23.6531 22.1791L17.7491 16.2752ZM10.4209 17.7262C6.38621 17.7262 3.11545 14.4555 3.11545 10.4208C3.11545 6.38609 6.38621 3.11533 10.4209 3.11533C14.4556 3.11533 17.7264 6.38609 17.7264 10.4208C17.7264 14.4555 14.4556 17.7262 10.4209 17.7262Z" fill="#656565"/>
</svg>
