<svg width="15" height="15" viewBox="0 0 15 15" fill="none" xmlns="http://www.w3.org/2000/svg">
<path d="M2.82616 4.375H4.375C4.72018 4.375 5 4.65483 5 5C5 5.34518 4.72018 5.625 4.375 5.625H1.875C1.18464 5.625 0.625 5.06536 0.625 4.375V1.875C0.625 1.52983 0.904822 1.25 1.25 1.25C1.59518 1.25 1.875 1.52983 1.875 1.875V3.54714C2.58881 2.53136 3.56787 1.72319 4.71239 1.21551C6.11714 0.592406 7.69016 0.457913 9.1803 0.833504C10.6704 1.2091 11.9918 2.07311 12.9334 3.28761C13.7468 4.33688 14.2363 5.59548 14.3496 6.90949C14.3792 7.25339 14.0923 7.5324 13.7471 7.53071C13.402 7.52901 13.1244 7.24695 13.0877 6.90372C12.9775 5.87085 12.5825 4.88426 11.9411 4.05691C11.1715 3.0642 10.0914 2.35798 8.87343 2.05098C7.65543 1.74398 6.36969 1.85391 5.22148 2.36322C4.26452 2.7877 3.44908 3.4692 2.86246 4.32643C2.85098 4.34321 2.83886 4.35941 2.82616 4.375Z" fill="#909090"/>
<path d="M13.125 11.4529C12.4112 12.4686 11.4321 13.2768 10.2876 13.7845C8.88286 14.4076 7.30984 14.5421 5.8197 14.1665C4.32956 13.7909 3.00822 12.9269 2.06664 11.7124C1.25316 10.6631 0.763666 9.40453 0.650399 8.09052C0.620756 7.74661 0.907679 7.4676 1.25285 7.4693C1.59803 7.47099 1.87565 7.75306 1.91227 8.09628C2.02248 9.12916 2.41748 10.1157 3.05891 10.9431C3.82854 11.9358 4.90857 12.642 6.12657 12.949C7.34457 13.256 8.63031 13.1461 9.77852 12.6368C10.7355 12.2123 11.5509 11.5308 12.1375 10.6736C12.149 10.6568 12.1611 10.6406 12.1738 10.625H10.625C10.2798 10.625 10 10.3452 10 10C10 9.65483 10.2798 9.375 10.625 9.375H13.125C13.8154 9.375 14.375 9.93465 14.375 10.625V13.125C14.375 13.4702 14.0952 13.75 13.75 13.75C13.4048 13.75 13.125 13.4702 13.125 13.125V11.4529Z" fill="#909090"/>
</svg>
