<svg width="175" height="125" viewBox="0 0 175 125" fill="none" xmlns="http://www.w3.org/2000/svg">
<path d="M125 41.7C125 18.7 106.3 0 83.3 0C75.7 0 68.6 1.99998 62.5 5.59998C56.4 2.09998 49.3 0 41.7 0C18.7 0 0 18.7 0 41.7C0 49.3 2.00001 56.4 5.60001 62.5C2.10001 68.6 0 75.7 0 83.3C0 106.3 18.7 125 41.7 125C49.3 125 56.4 123 62.5 119.4C68.6 122.9 75.7 125 83.3 125C106.3 125 125 106.3 125 83.3C125 75.7 123 68.6 119.4 62.5C122.9 56.4 125 49.3 125 41.7ZM62.4 83.4C50.9 83.4 41.6 74.1 41.6 62.6C41.6 51.1 50.9 41.8 62.4 41.8C73.9 41.8 83.2 51.1 83.2 62.6C83.2 74.1 74 83.4 62.4 83.4Z" fill="#34A853"/>
<path d="M167.483 74.0744C160.675 61.4401 138.464 54.7584 123.193 56.8465C119.266 57.3834 109.765 61.3076 105.225 66.4983C106.059 66.1481 106.675 69.723 107.538 69.4686C128.153 63.3917 149.907 71.3566 155.956 91.876C156.888 95.0402 157.381 98.1257 157.462 101.228C168.535 95.2189 171.423 81.928 167.483 74.0744Z" fill="#34A853"/>
</svg>
