<svg width="32" height="32" viewBox="0 0 32 32" fill="none" xmlns="http://www.w3.org/2000/svg">
<path d="M32 10.6752C32 4.7872 27.2128 0 21.3248 0C19.3792 0 17.5616 0.511994 16 1.43359C14.4384 0.537594 12.6208 0 10.6752 0C4.7872 0 0 4.7872 0 10.6752C0 12.6208 0.512002 14.4384 1.4336 16C0.537601 17.5616 0 19.3792 0 21.3248C0 27.2128 4.7872 32 10.6752 32C12.6208 32 14.4384 31.488 16 30.5664C17.5616 31.4624 19.3792 32 21.3248 32C27.2128 32 32 27.2128 32 21.3248C32 19.3792 31.488 17.5616 30.5664 16C31.4624 14.4384 32 12.6208 32 10.6752Z" fill="#F0C23A"/>
</svg>
