<svg width="94" height="16" viewBox="0 0 94 16" fill="none" xmlns="http://www.w3.org/2000/svg">
<path d="M7.4 11.56C7.33333 11.6933 7.27333 11.8267 7.22 11.96C7.16667 12.0933 7.10667 12.2267 7.04 12.36L6.62 12.76C6.36667 13.04 6.06667 13.2067 5.72 13.26C5.54667 13.2867 5.36667 13.2933 5.18 13.28C5.00667 13.28 4.82667 13.2533 4.64 13.2C4.53333 13.1733 4.42 13.1333 4.3 13.08C4.19333 13.04 4.08667 12.9933 3.98 12.94C3.9 12.9 3.81333 12.8733 3.72 12.86C3.62667 12.8333 3.52667 12.8133 3.42 12.8C3.38 12.7733 3.33333 12.7467 3.28 12.72C3.22667 12.68 3.16667 12.64 3.1 12.6C3.00667 12.44 2.89333 12.2933 2.76 12.16C2.64 12.0267 2.54667 11.86 2.48 11.66C2.48 11.5 2.47333 11.3933 2.46 11.34C2.44667 11.2733 2.40667 11.1467 2.34 10.96V9.64C2.34 9.53333 2.33333 9.43333 2.32 9.34C2.32 9.23333 2.30667 9.13333 2.28 9.04C2.26667 8.94667 2.26 8.86667 2.26 8.8C2.27333 8.73333 2.28667 8.65333 2.3 8.56C2.34 8.4 2.34 8.23333 2.3 8.06C2.34 7.9 2.38667 7.74 2.44 7.58C2.44 7.5 2.42 7.38667 2.38 7.24C2.34 7.09333 2.29333 6.95333 2.24 6.82C2.17333 6.82 2.10667 6.81333 2.04 6.8C1.97333 6.78667 1.9 6.77333 1.82 6.76C1.74 6.78667 1.65333 6.81333 1.56 6.84C1.48 6.86667 1.38667 6.89333 1.28 6.92C1.24 6.94667 1.18 6.96 1.1 6.96C1.08667 6.96 1.06 6.94667 1.02 6.92C0.993333 6.88 0.98 6.85333 0.98 6.84C0.966667 6.8 0.96 6.76 0.96 6.72C0.96 6.68 0.96 6.64 0.96 6.6C0.946667 6.49333 0.94 6.38 0.94 6.26C0.94 6.14 0.94 6.02667 0.94 5.92C0.94 5.81333 0.933333 5.71333 0.92 5.62C0.906667 5.51333 0.886667 5.41333 0.86 5.32C0.873333 5.25333 0.886667 5.19333 0.9 5.14C0.913333 5.07333 0.926667 5.01333 0.94 4.96V4.58C0.94 4.47333 0.953333 4.38 0.98 4.3C1.02 4.22 1.09333 4.14667 1.2 4.08C1.28 4.05333 1.36667 4.04 1.46 4.04C1.56667 4.04 1.68 4.04 1.8 4.04C1.90667 4.05333 2.01333 4.05333 2.12 4.04C2.24 4.01333 2.34667 3.95333 2.44 3.86C2.46667 3.83333 2.5 3.82 2.54 3.82C2.59333 3.82 2.63333 3.82 2.66 3.82C2.92667 3.83333 3.16 3.72667 3.36 3.5C3.37333 3.42 3.41333 3.30667 3.48 3.16C3.44 3.06667 3.40667 2.96667 3.38 2.86C3.35333 2.74 3.32 2.62667 3.28 2.52C3.30667 2.48 3.33333 2.44 3.36 2.4C3.38667 2.36 3.40667 2.31333 3.42 2.26C3.44667 2.19333 3.44667 2.13333 3.42 2.08C3.39333 2.01333 3.38667 1.96 3.4 1.92C3.37333 1.85333 3.36 1.80667 3.36 1.78C3.36 1.75333 3.34667 1.70667 3.32 1.64C3.33333 1.61333 3.34667 1.58667 3.36 1.56C3.37333 1.52 3.38667 1.48667 3.4 1.46C3.41333 1.40667 3.42667 1.36667 3.44 1.34C3.45333 1.3 3.46667 1.25333 3.48 1.2H3.7C3.76667 1.21333 3.83333 1.22667 3.9 1.24C3.98 1.24 4.05333 1.23333 4.12 1.22C4.14667 1.22 4.18 1.22667 4.22 1.24C4.26 1.24 4.3 1.24 4.34 1.24C4.56667 1.26667 4.78667 1.3 5 1.34C5.22667 1.38 5.44667 1.4 5.66 1.4C5.68667 1.4 5.71333 1.40667 5.74 1.42C5.78 1.43333 5.80667 1.44667 5.82 1.46C5.87333 1.48667 5.92 1.52 5.96 1.56C5.94667 1.61333 5.92667 1.66667 5.9 1.72C5.87333 1.76 5.85333 1.8 5.84 1.84C5.82667 1.89333 5.81333 1.95333 5.8 2.02C5.8 2.08667 5.79333 2.15333 5.78 2.22C5.76667 2.31333 5.75333 2.40667 5.74 2.5C5.72667 2.59333 5.70667 2.7 5.68 2.82C5.69333 2.83333 5.7 2.86667 5.7 2.92C5.7 2.97333 5.70667 3.02 5.72 3.06C5.70667 3.15333 5.68667 3.24 5.66 3.32C5.64667 3.4 5.63333 3.49333 5.62 3.6C5.79333 3.73333 5.98 3.84667 6.18 3.94C6.39333 4.03333 6.64667 4.12 6.94 4.2C7.08667 4.29333 7.17333 4.44667 7.2 4.66C7.2 4.96667 7.18 5.27333 7.14 5.58C7.12667 5.7 7.11333 5.82 7.1 5.94C7.08667 6.06 7.08667 6.18 7.1 6.3C6.92667 6.40667 6.72 6.46 6.48 6.46C6.44 6.46 6.4 6.46667 6.36 6.48C6.32 6.49333 6.28667 6.5 6.26 6.5C6.04667 6.51333 5.88 6.53333 5.76 6.56C5.65333 6.58667 5.48 6.65333 5.24 6.76C5.2 6.81333 5.18 6.88667 5.18 6.98C5.16667 7.06 5.15333 7.14 5.14 7.22C5.14 7.3 5.14667 7.38667 5.16 7.48C5.16 7.48 5.16 7.48667 5.16 7.5C5.16 7.5 5.14667 7.50667 5.12 7.52C5.04 7.68 4.98 7.8 4.94 7.88C4.9 7.96 4.87333 8.04 4.86 8.12C4.86 8.2 4.86 8.33333 4.86 8.52V9.48C4.86 9.54667 4.86667 9.58667 4.88 9.6C4.89333 9.72 4.95333 9.82 5.06 9.9C5.11333 9.91333 5.16 9.92667 5.2 9.94C5.25333 9.95333 5.29333 9.98667 5.32 10.04C5.44 10.2 5.57333 10.2867 5.72 10.3C5.88 10.3 6.04667 10.2733 6.22 10.22C6.27333 10.1933 6.32667 10.1667 6.38 10.14C6.43333 10.1133 6.48667 10.0933 6.54 10.08C6.64667 10.1067 6.71333 10.1667 6.74 10.26C6.76667 10.3533 6.81333 10.4333 6.88 10.5C6.94667 10.5667 7 10.64 7.04 10.72C7.09333 10.8 7.14667 10.88 7.2 10.96C7.22667 11.04 7.26 11.1333 7.3 11.24C7.34 11.3333 7.37333 11.44 7.4 11.56ZM17.9417 7.54C17.9817 7.7 17.9751 7.84667 17.9217 7.98C17.8951 8.04667 17.8751 8.11333 17.8617 8.18C17.8484 8.24667 17.8484 8.31333 17.8617 8.38C17.8751 8.39333 17.8751 8.41333 17.8617 8.44C17.8617 8.45333 17.8617 8.47333 17.8617 8.5C17.8084 8.60667 17.7817 8.72 17.7817 8.84C17.7951 8.96 17.8084 9.07333 17.8217 9.18L17.6217 9.46V9.72C17.5951 9.74667 17.5617 9.78 17.5217 9.82C17.4817 9.84667 17.4284 9.88667 17.3617 9.94C17.3351 10.0333 17.2951 10.1333 17.2417 10.24C17.2017 10.3467 17.1684 10.4467 17.1417 10.54V10.74C17.0884 10.7933 17.0217 10.84 16.9417 10.88C16.8617 10.92 16.7951 10.98 16.7417 11.06C16.6884 11.1 16.6351 11.1333 16.5817 11.16C16.5284 11.1867 16.4684 11.22 16.4017 11.26C16.3751 11.2733 16.3417 11.28 16.3017 11.28C16.2751 11.2667 16.2484 11.2667 16.2217 11.28C16.0217 11.28 15.9217 11.3733 15.9217 11.56C15.7751 11.6533 15.6284 11.7533 15.4817 11.86C15.3484 11.9667 15.2084 12.0733 15.0617 12.18C14.8351 12.3533 14.5417 12.4733 14.1817 12.54C14.0617 12.5533 13.9484 12.5867 13.8417 12.64C13.7351 12.68 13.6217 12.7133 13.5017 12.74C13.4751 12.74 13.4417 12.7333 13.4017 12.72C13.3617 12.7067 13.3284 12.7067 13.3017 12.72C13.1417 12.7333 12.9751 12.72 12.8017 12.68C12.7484 12.6667 12.6951 12.6667 12.6417 12.68C12.5884 12.6933 12.5417 12.7067 12.5017 12.72C12.4084 12.7067 12.3151 12.6933 12.2217 12.68C12.1284 12.6667 12.0284 12.6533 11.9217 12.64C11.8017 12.5867 11.6884 12.5267 11.5817 12.46C11.4884 12.3933 11.3884 12.3333 11.2817 12.28C11.2017 12.2533 11.1284 12.2067 11.0617 12.14C10.9951 12.0733 10.9417 12.0067 10.9017 11.94C10.8884 11.9133 10.8684 11.8933 10.8417 11.88C10.8284 11.8533 10.8084 11.8267 10.7817 11.8C10.7417 11.7733 10.7017 11.7533 10.6617 11.74C10.6217 11.7133 10.5817 11.68 10.5417 11.64C10.3284 11.4933 10.1351 11.3333 9.96172 11.16C9.80172 10.9867 9.68172 10.7733 9.60172 10.52C9.53505 10.3467 9.45505 10.1933 9.36172 10.06C9.33505 10.0067 9.30172 9.96 9.26172 9.92C9.23505 9.86667 9.20839 9.81333 9.18172 9.76C9.19505 9.73333 9.21505 9.68 9.24172 9.6C9.21505 9.56 9.18839 9.52 9.16172 9.48C9.13505 9.44 9.12172 9.39333 9.12172 9.34C9.12172 9.3 9.11505 9.26 9.10172 9.22C9.10172 9.16667 9.10839 9.11333 9.12172 9.06C9.14839 8.96667 9.15505 8.87333 9.14172 8.78C9.12839 8.68667 9.12839 8.59333 9.14172 8.5C9.15505 8.42 9.14839 8.33333 9.12172 8.24C9.10839 8.14667 9.12172 8.06 9.16172 7.98C9.18839 7.88667 9.20839 7.8 9.22172 7.72C9.23505 7.64 9.25505 7.56 9.28172 7.48C9.30839 7.4 9.33505 7.32667 9.36172 7.26C9.38839 7.18 9.41505 7.10667 9.44172 7.04C9.46839 6.96 9.49505 6.88 9.52172 6.8C9.54839 6.72 9.58839 6.63333 9.64172 6.54C9.64172 6.51333 9.64172 6.48 9.64172 6.44C9.64172 6.4 9.64839 6.37333 9.66172 6.36C9.71505 6.25333 9.75505 6.15333 9.78172 6.06C9.80839 5.96667 9.81505 5.87333 9.80172 5.78C9.85505 5.71333 9.90172 5.66 9.94172 5.62C9.98172 5.58 10.0151 5.53333 10.0417 5.48C10.0684 5.41333 10.0951 5.35333 10.1217 5.3C10.1617 5.23333 10.2017 5.17333 10.2417 5.12C10.2817 5.01333 10.3417 4.92 10.4217 4.84C10.4751 4.77333 10.5217 4.72 10.5617 4.68C10.6017 4.62667 10.6351 4.58667 10.6617 4.56C10.7017 4.48 10.7151 4.41333 10.7017 4.36C10.6884 4.29333 10.6817 4.24 10.6817 4.2C10.7084 4.13333 10.7284 4.09333 10.7417 4.08C10.7817 4.06667 10.8151 4.04667 10.8417 4.02C10.8817 3.99333 10.9217 3.97333 10.9617 3.96C11.0684 3.89333 11.1817 3.82667 11.3017 3.76C11.4217 3.69333 11.5417 3.64 11.6617 3.6C11.7817 3.52 11.9017 3.46667 12.0217 3.44C12.1551 3.4 12.2884 3.36 12.4217 3.32C12.5284 3.32 12.6351 3.32 12.7417 3.32C12.8484 3.32 12.9484 3.32667 13.0417 3.34H13.2217C13.3684 3.39333 13.5151 3.42 13.6617 3.42C13.8217 3.42 13.9751 3.41333 14.1217 3.4C14.1884 3.4 14.2551 3.4 14.3217 3.4C14.4017 3.38667 14.4751 3.38 14.5417 3.38C14.6084 3.43333 14.6617 3.48 14.7017 3.52C14.7551 3.54667 14.8084 3.58667 14.8617 3.64C14.9017 3.65333 14.9417 3.67333 14.9817 3.7C15.0217 3.72667 15.0684 3.74667 15.1217 3.76C15.3084 3.77333 15.4751 3.83333 15.6217 3.94C15.7817 4.04667 15.9284 4.15333 16.0617 4.26C16.0617 4.28667 16.0617 4.32667 16.0617 4.38C16.0617 4.42 16.0684 4.46 16.0817 4.5C16.0817 4.56667 16.1217 4.62667 16.2017 4.68C16.2417 4.69333 16.2884 4.7 16.3417 4.7C16.3951 4.7 16.4484 4.71333 16.5017 4.74C16.5284 4.79333 16.5617 4.85333 16.6017 4.92C16.6551 4.98667 16.7017 5.05333 16.7417 5.12C16.7951 5.17333 16.8484 5.22667 16.9017 5.28C16.9551 5.33333 16.9951 5.39333 17.0217 5.46C17.0484 5.48667 17.0684 5.52 17.0817 5.56C17.1084 5.6 17.1284 5.63333 17.1417 5.66C17.1817 5.7 17.2217 5.74 17.2617 5.78C17.3017 5.82 17.3284 5.87333 17.3417 5.94C17.3684 6.03333 17.4084 6.12667 17.4617 6.22C17.5151 6.31333 17.5551 6.41333 17.5817 6.52C17.5951 6.56 17.6151 6.6 17.6417 6.64C17.6817 6.68 17.7217 6.72667 17.7617 6.78C17.7884 6.9 17.8084 7.02667 17.8217 7.16C17.8484 7.29333 17.8884 7.42 17.9417 7.54ZM15.1417 8.26C15.1551 8.16667 15.1417 8.08667 15.1017 8.02C15.0617 7.94 15.0484 7.86 15.0617 7.78C15.0617 7.75333 15.0417 7.72 15.0017 7.68C14.9884 7.65333 14.9817 7.6 14.9817 7.52C14.9951 7.49333 15.0017 7.46 15.0017 7.42C15.0017 7.36667 15.0017 7.33333 15.0017 7.32C14.9084 7.17333 14.8217 7.04 14.7417 6.92C14.6617 6.78667 14.5751 6.66 14.4817 6.54C14.4817 6.51333 14.4684 6.5 14.4417 6.5C14.4151 6.48667 14.3884 6.46 14.3617 6.42C14.1351 6.42 13.8884 6.36 13.6217 6.24C13.4617 6.16 13.2684 6.15333 13.0417 6.22C13.0284 6.22 13.0084 6.22667 12.9817 6.24C12.9684 6.25333 12.9484 6.27333 12.9217 6.3H12.8217C12.6084 6.26 12.4684 6.34 12.4017 6.54C12.3751 6.59333 12.3417 6.65333 12.3017 6.72C12.2751 6.77333 12.2551 6.83333 12.2417 6.9C12.2284 6.95333 12.2017 7.01333 12.1617 7.08C12.1217 7.13333 12.0884 7.18667 12.0617 7.24C12.0084 7.30667 11.9617 7.38 11.9217 7.46C11.8817 7.54 11.8351 7.61333 11.7817 7.68C11.7684 7.81333 11.7351 7.94667 11.6817 8.08C11.6417 8.21333 11.6151 8.34 11.6017 8.46C11.6417 8.52667 11.6817 8.6 11.7217 8.68C11.7617 8.74667 11.7951 8.81333 11.8217 8.88C11.9017 9.05333 11.9351 9.22 11.9217 9.38C11.9217 9.40667 11.9284 9.43333 11.9417 9.46C11.9551 9.48667 11.9684 9.51333 11.9817 9.54C12.1017 9.56667 12.2151 9.59333 12.3217 9.62C12.4417 9.64667 12.5551 9.68 12.6617 9.72C12.7551 9.74667 12.8484 9.76667 12.9417 9.78C13.0351 9.79333 13.1284 9.78 13.2217 9.74H13.2817C13.3884 9.76667 13.4884 9.77333 13.5817 9.76C13.6884 9.73333 13.8017 9.70667 13.9217 9.68C14.0151 9.61333 14.1084 9.54 14.2017 9.46C14.3084 9.38 14.4151 9.31333 14.5217 9.26C14.6151 9.07333 14.7284 8.90667 14.8617 8.76C14.9951 8.61333 15.0884 8.44667 15.1417 8.26ZM28.0081 4.06C27.9415 4.3 27.9015 4.54667 27.8881 4.8C27.8748 5.04 27.8615 5.28 27.8481 5.52C27.8348 5.76 27.8281 6.00667 27.8281 6.26C27.8281 6.5 27.8281 6.74 27.8281 6.98C27.8281 7.18 27.8148 7.38 27.7881 7.58C27.7615 7.78 27.7415 7.98667 27.7281 8.2C27.7281 8.25333 27.7215 8.31333 27.7081 8.38C27.7081 8.44667 27.7081 8.51333 27.7081 8.58C27.7081 8.76667 27.6815 8.94 27.6281 9.1C27.5881 9.27333 27.5681 9.44667 27.5681 9.62C27.5681 9.71333 27.5615 9.81333 27.5481 9.92C27.5348 10.0267 27.5081 10.1333 27.4681 10.24C27.4548 10.3067 27.4481 10.4067 27.4481 10.54C27.4348 10.6467 27.4081 10.7533 27.3681 10.86C27.3415 10.9533 27.3148 11.0467 27.2881 11.14C27.2615 11.22 27.2348 11.3133 27.2081 11.42C27.1548 11.5 27.1015 11.5867 27.0481 11.68C27.0081 11.76 26.9615 11.84 26.9081 11.92C26.7881 11.9867 26.6881 12.0733 26.6081 12.18C26.4748 12.2867 26.3415 12.4 26.2081 12.52C26.0881 12.64 25.9681 12.7533 25.8481 12.86C25.6881 12.9933 25.5281 13.06 25.3681 13.06C25.3548 13.06 25.3348 13.0667 25.3081 13.08C25.2948 13.0933 25.2748 13.1 25.2481 13.1C24.9948 13.1267 24.7881 13.2067 24.6281 13.34C24.6148 13.3533 24.5948 13.36 24.5681 13.36C24.5548 13.3733 24.5348 13.3933 24.5081 13.42C24.3348 13.4467 24.1548 13.4333 23.9681 13.38C23.7948 13.3267 23.6348 13.26 23.4881 13.18H23.1681C23.1148 13.18 23.0615 13.1733 23.0081 13.16C22.9548 13.16 22.8948 13.1533 22.8281 13.14C22.4681 13.06 22.1215 12.9067 21.7881 12.68C21.7481 12.64 21.7015 12.6133 21.6481 12.6C21.5948 12.5867 21.5348 12.5733 21.4681 12.56C21.3881 12.5467 21.3081 12.5267 21.2281 12.5C21.1481 12.4733 21.0681 12.4467 20.9881 12.42C20.9215 12.38 20.8681 12.3267 20.8281 12.26C20.7881 12.18 20.7481 12.1133 20.7081 12.06C20.6415 11.9267 20.5815 11.8067 20.5281 11.7C20.4748 11.58 20.4148 11.4533 20.3481 11.32C20.2948 11.2133 20.2348 11.1067 20.1681 11C20.1015 10.88 20.0348 10.7733 19.9681 10.68C19.9681 10.6667 19.9748 10.66 19.9881 10.66C20.0015 10.66 20.0081 10.6533 20.0081 10.64L19.9681 10.6C19.9681 10.6133 19.9615 10.6267 19.9481 10.64C19.9481 10.64 19.9481 10.6467 19.9481 10.66C19.9348 10.6467 19.9148 10.64 19.8881 10.64C19.8748 10.6267 19.8615 10.6133 19.8481 10.6C19.7948 10.5733 19.7548 10.5333 19.7281 10.48C19.7015 10.4133 19.6748 10.3533 19.6481 10.3C19.6881 10.22 19.7081 10.1133 19.7081 9.98C19.7348 9.80667 19.7281 9.65333 19.6881 9.52C19.6348 9.32 19.6081 9.12 19.6081 8.92C19.6215 8.72 19.6348 8.51333 19.6481 8.3C19.6481 8.23333 19.6748 8.14667 19.7281 8.04C19.8215 7.81333 19.8748 7.61333 19.8881 7.44C20.0215 7.25333 20.1281 7.05333 20.2081 6.84C20.2881 6.62667 20.3815 6.42667 20.4881 6.24C20.5548 6.21333 20.6081 6.18667 20.6481 6.16C20.7015 6.13333 20.7548 6.11333 20.8081 6.1C20.8348 6.07333 20.8548 6.04 20.8681 6C20.8815 5.96 20.9081 5.92667 20.9481 5.9C20.9881 5.87333 21.0348 5.85333 21.0881 5.84C21.1415 5.81333 21.2015 5.79333 21.2681 5.78C21.2948 5.74 21.3148 5.7 21.3281 5.66C21.3548 5.62 21.3815 5.58 21.4081 5.54C21.4481 5.5 21.4748 5.48 21.4881 5.48C21.7948 5.37333 22.1148 5.29333 22.4481 5.24C22.5015 5.22667 22.5548 5.22 22.6081 5.22C22.6748 5.20667 22.7348 5.19333 22.7881 5.18C22.9615 5.12667 23.1348 5.10667 23.3081 5.12C23.4815 5.13333 23.6548 5.13333 23.8281 5.12C23.8681 5.12 23.9081 5.12667 23.9481 5.14C24.0015 5.15333 24.0481 5.16667 24.0881 5.18C24.1281 5.18 24.1815 5.19333 24.2481 5.22C24.3148 5.24667 24.3548 5.24667 24.3681 5.22C24.5015 5.19333 24.5948 5.20667 24.6481 5.26C24.7148 5.31333 24.7481 5.34 24.7481 5.34C24.7748 5.35333 24.8281 5.36 24.9081 5.36C25.0015 5.34667 25.0548 5.34 25.0681 5.34C25.1881 5.31333 25.2548 5.26 25.2681 5.18C25.2948 5.08667 25.2948 5.04 25.2681 5.04L25.2281 5C25.2415 4.82667 25.2348 4.65333 25.2081 4.48C25.1948 4.30667 25.1948 4.13333 25.2081 3.96C25.2215 3.89333 25.2281 3.82667 25.2281 3.76C25.2281 3.68 25.2281 3.60667 25.2281 3.54C25.2148 3.47333 25.2148 3.41333 25.2281 3.36C25.2415 3.29333 25.2481 3.22667 25.2481 3.16C25.2481 3.09333 25.2481 3.03333 25.2481 2.98C25.2615 2.91333 25.2548 2.86 25.2281 2.82C25.1881 2.71333 25.1681 2.60667 25.1681 2.5C25.1815 2.39333 25.2015 2.28667 25.2281 2.18C25.2681 2.03333 25.2948 1.88667 25.3081 1.74C25.3348 1.59333 25.3348 1.43333 25.3081 1.26V1.16C25.3615 1.02667 25.3881 0.893332 25.3881 0.759999C25.4015 0.626666 25.4148 0.506666 25.4281 0.399999C25.4948 0.306666 25.5748 0.246666 25.6681 0.219999C25.7748 0.179999 25.8548 0.133333 25.9081 0.0799994C26.1215 0.0666663 26.3215 0.0666663 26.5081 0.0799994C26.6948 0.0933326 26.8815 0.0733325 27.0681 0.019999C27.1615 0.0599993 27.2481 0.0933326 27.3281 0.119999C27.4215 0.133333 27.5015 0.146666 27.5681 0.16C27.7148 0.266666 27.7881 0.406666 27.7881 0.579999C27.7881 0.646666 27.7881 0.719999 27.7881 0.8C27.7881 0.879999 27.7815 0.959999 27.7681 1.04C27.7815 1.09333 27.8015 1.14 27.8281 1.18C27.8548 1.22 27.8748 1.27333 27.8881 1.34C27.8748 1.36667 27.8615 1.40667 27.8481 1.46C27.8481 1.5 27.8415 1.54667 27.8281 1.6C27.8415 1.65333 27.8548 1.72 27.8681 1.8C27.8815 1.88 27.8948 1.95333 27.9081 2.02C27.9081 2.23333 27.9081 2.44 27.9081 2.64C27.9215 2.84 27.9215 3.04 27.9081 3.24C27.9081 3.45333 27.9081 3.59333 27.9081 3.66C27.9215 3.72667 27.9548 3.86 28.0081 4.06ZM25.0881 9.1C25.0481 8.99333 25.0148 8.89333 24.9881 8.8C24.9748 8.69333 24.9548 8.6 24.9281 8.52C24.8881 8.42667 24.8348 8.34 24.7681 8.26C24.7148 8.18 24.6681 8.09333 24.6281 8C24.4948 7.93333 24.3948 7.86667 24.3281 7.8C24.2615 7.77333 24.1948 7.75333 24.1281 7.74C24.0748 7.72667 24.0148 7.71333 23.9481 7.7C23.8948 7.67333 23.8415 7.65333 23.7881 7.64C23.7481 7.61333 23.7015 7.59333 23.6481 7.58C23.5548 7.62 23.4615 7.66 23.3681 7.7C23.2881 7.74 23.2081 7.78 23.1281 7.82C22.9148 7.91333 22.7681 8.08667 22.6881 8.34C22.6748 8.39333 22.6681 8.44667 22.6681 8.5C22.6681 8.55333 22.6615 8.61333 22.6481 8.68C22.6348 8.72 22.6081 8.76 22.5681 8.8C22.5415 8.84 22.5148 8.89333 22.4881 8.96V9.32C22.5148 9.49333 22.5615 9.66 22.6281 9.82C22.7081 9.96667 22.8348 10.0933 23.0081 10.2C23.0481 10.2133 23.0815 10.24 23.1081 10.28C23.1481 10.3067 23.1948 10.3333 23.2481 10.36C23.3281 10.44 23.4081 10.48 23.4881 10.48C23.7015 10.4533 23.9081 10.4333 24.1081 10.42C24.3081 10.3933 24.5015 10.34 24.6881 10.26C24.7681 10.1933 24.8281 10.1267 24.8681 10.06C24.9081 10.0067 24.9415 9.96 24.9681 9.92C24.9948 9.86667 25.0281 9.81333 25.0681 9.76V9.42C25.0681 9.35333 25.0681 9.29333 25.0681 9.24C25.0681 9.18667 25.0748 9.14 25.0881 9.1ZM39.2691 12.02C39.3091 12.1133 39.3224 12.2 39.3091 12.28C39.2957 12.36 39.2691 12.44 39.2291 12.52C39.2157 12.5333 39.1891 12.5533 39.1491 12.58C39.1091 12.5933 39.0757 12.6133 39.0491 12.64C38.9957 12.6533 38.9491 12.66 38.9091 12.66C38.8691 12.66 38.8224 12.6733 38.7691 12.7C38.5691 12.74 38.4491 12.8467 38.4091 13.02C38.3957 13.0467 38.3691 13.08 38.3291 13.12C38.2357 13.1333 38.1691 13.1467 38.1291 13.16C38.0891 13.1867 38.0091 13.2333 37.8891 13.3C37.7957 13.3 37.7024 13.3133 37.6091 13.34C37.5157 13.3667 37.4291 13.42 37.3491 13.5C37.3224 13.5 37.3024 13.5 37.2891 13.5C37.2757 13.5133 37.2557 13.52 37.2291 13.52C37.1757 13.5467 37.1157 13.5333 37.0491 13.48C36.9824 13.44 36.9491 13.3867 36.9491 13.32V13.2C36.8957 13.1733 36.8291 13.1733 36.7491 13.2C36.6824 13.2267 36.6291 13.2 36.5891 13.12V12.82C36.5491 12.7933 36.5091 12.7733 36.4691 12.76C36.4424 12.7333 36.4091 12.7133 36.3691 12.7C36.3157 12.5933 36.2557 12.48 36.1891 12.36C36.1224 12.24 36.0557 12.1333 35.9891 12.04C35.9357 12 35.8891 11.9867 35.8491 12C35.8091 12.0133 35.7757 12.0333 35.7491 12.06C35.7224 12.0867 35.7024 12.12 35.6891 12.16C35.6757 12.1867 35.6557 12.2133 35.6291 12.24C35.6024 12.2667 35.5824 12.3 35.5691 12.34C35.5557 12.38 35.5357 12.4133 35.5091 12.44C35.3357 12.52 35.1624 12.5933 34.9891 12.66C34.8157 12.7133 34.6491 12.76 34.4891 12.8C34.3957 12.8667 34.3024 12.9267 34.2091 12.98C34.1157 13.0333 34.0291 13.0867 33.9491 13.14C33.8691 13.1533 33.7891 13.1733 33.7091 13.2C33.6291 13.2267 33.5557 13.2467 33.4891 13.26C33.4091 13.22 33.3291 13.2067 33.2491 13.22C33.1824 13.2467 33.0957 13.2733 32.9891 13.3C32.8691 13.2733 32.7424 13.24 32.6091 13.2C32.4757 13.1733 32.3357 13.1467 32.1891 13.12C32.1491 13.1333 32.1091 13.14 32.0691 13.14C32.0291 13.14 31.9957 13.1467 31.9691 13.16C31.9157 13.1333 31.8691 13.1067 31.8291 13.08C31.8024 13.0533 31.7624 13.0333 31.7091 13.02C31.6424 12.9933 31.5824 12.9933 31.5291 13.02C31.4757 13.0467 31.4157 13.0733 31.3491 13.1C31.2824 13.0733 31.2091 13.0533 31.1291 13.04C31.0491 13.04 30.9691 13.0333 30.8891 13.02C30.8224 12.9533 30.7624 12.8933 30.7091 12.84C30.6691 12.7867 30.6424 12.72 30.6291 12.64C30.6024 12.6133 30.5757 12.5933 30.5491 12.58C30.5224 12.5533 30.5024 12.5333 30.4891 12.52C30.4357 12.3333 30.3757 12.1733 30.3091 12.04C30.1224 11.64 29.9957 11.2 29.9291 10.72C29.9024 10.6933 29.8757 10.6667 29.8491 10.64C29.8224 10.6 29.7891 10.56 29.7491 10.52C29.7357 10.4 29.7224 10.2867 29.7091 10.18C29.6957 10.06 29.6757 9.93333 29.6491 9.8C29.6757 9.72 29.6891 9.64667 29.6891 9.58C29.6624 9.44667 29.6357 9.32667 29.6091 9.22C29.6624 9.06 29.7157 8.9 29.7691 8.74C29.8357 8.58 29.8557 8.41333 29.8291 8.24C29.8557 8.18667 29.8891 8.14 29.9291 8.1C29.9691 8.04667 30.0024 8 30.0291 7.96C30.1491 7.82667 30.2357 7.67333 30.2891 7.5C30.3291 7.35333 30.3957 7.22667 30.4891 7.12C30.5957 7.01333 30.7091 6.92667 30.8291 6.86C30.9757 6.79333 31.1157 6.72667 31.2491 6.66C31.3957 6.58 31.5357 6.51333 31.6691 6.46C31.6957 6.46 31.7291 6.46667 31.7691 6.48C31.8224 6.48 31.8624 6.47333 31.8891 6.46C32.1291 6.42 32.3357 6.40667 32.5091 6.42C32.5891 6.43333 32.6691 6.43333 32.7491 6.42C32.8291 6.40667 32.9024 6.4 32.9691 6.4L33.3891 6.32C33.4691 6.33333 33.5491 6.35333 33.6291 6.38C33.7091 6.40667 33.7891 6.4 33.8691 6.36C33.8957 6.36 33.9157 6.36667 33.9291 6.38C33.9557 6.38 33.9757 6.38 33.9891 6.38C34.0557 6.40667 34.1157 6.44 34.1691 6.48C34.2224 6.50667 34.2824 6.52 34.3491 6.52C34.4957 6.54667 34.5891 6.52 34.6291 6.44C34.6157 6.21333 34.5957 6.06667 34.5691 6C34.5557 5.93333 34.5157 5.82667 34.4491 5.68C34.4091 5.6 34.3824 5.52 34.3691 5.44C34.3557 5.34667 34.3424 5.26 34.3291 5.18C34.3157 5.12667 34.3024 5.08 34.2891 5.04C34.2891 4.98667 34.2624 4.93333 34.2091 4.88C34.0357 4.82667 33.8224 4.78667 33.5691 4.76H33.4491C33.3291 4.81333 33.2024 4.84 33.0691 4.84C32.9357 4.84 32.7957 4.85333 32.6491 4.88C32.5557 4.89333 32.4557 4.92 32.3491 4.96C32.2557 5 32.1557 5.03333 32.0491 5.06C31.9424 5.11333 31.8357 5.08667 31.7291 4.98C31.6891 4.86 31.6691 4.74 31.6691 4.62C31.6824 4.48667 31.6957 4.35333 31.7091 4.22C31.6824 4.12667 31.6491 4.02 31.6091 3.9C31.5691 3.76667 31.5491 3.61333 31.5491 3.44L31.5691 3.3C31.5557 3.27333 31.5291 3.24667 31.4891 3.22C31.4624 3.19333 31.4357 3.17333 31.4091 3.16C31.3691 3.12 31.3624 3.08 31.3891 3.04C31.3891 3 31.4091 2.98 31.4491 2.98C31.5557 2.95333 31.6557 2.93333 31.7491 2.92C31.8424 2.90667 31.9357 2.89333 32.0291 2.88L32.2691 2.64C32.2957 2.62667 32.3291 2.62 32.3691 2.62C32.6757 2.67333 32.8957 2.69333 33.0291 2.68C33.1757 2.66667 33.3957 2.61333 33.6891 2.52C33.8357 2.53333 33.9757 2.55333 34.1091 2.58C34.2557 2.60667 34.4024 2.61333 34.5491 2.6C34.5891 2.64 34.6291 2.68 34.6691 2.72C34.7224 2.74667 34.7757 2.78 34.8291 2.82C34.8957 2.79333 34.9624 2.77333 35.0291 2.76C35.0957 2.73333 35.1557 2.71333 35.2091 2.7C35.2891 2.75333 35.3757 2.80667 35.4691 2.86C35.5357 2.87333 35.5891 2.86 35.6291 2.82C35.6824 2.78 35.7357 2.76 35.7891 2.76C35.9091 2.77333 36.0024 2.83333 36.0691 2.94C36.1491 3.03333 36.2357 3.11333 36.3291 3.18C36.4091 3.23333 36.4824 3.3 36.5491 3.38C36.6291 3.46 36.7091 3.53333 36.7891 3.6C36.8157 3.64 36.8424 3.68 36.8691 3.72C36.8957 3.76 36.9157 3.8 36.9291 3.84C36.9957 3.89333 37.0557 3.94 37.1091 3.98C37.1624 4.00667 37.2091 4.04667 37.2491 4.1C37.3157 4.15333 37.3824 4.19333 37.4491 4.22C37.5291 4.24667 37.5891 4.29333 37.6291 4.36C37.6557 4.42667 37.6824 4.5 37.7091 4.58C37.7357 4.64667 37.7824 4.70667 37.8491 4.76C37.8891 4.89333 37.9291 5.03333 37.9691 5.18C38.0091 5.31333 38.0157 5.45333 37.9891 5.6C37.9891 5.66667 37.9824 5.72667 37.9691 5.78C37.9957 5.84667 38.0157 5.92 38.0291 6C38.0424 6.08 38.0624 6.15333 38.0891 6.22V6.32C38.0891 6.36 38.0824 6.40667 38.0691 6.46C38.0691 6.5 38.0757 6.53333 38.0891 6.56C38.1157 6.64 38.1491 6.7 38.1891 6.74C38.1891 6.82 38.1557 6.89333 38.0891 6.96C38.0624 6.97333 38.0291 6.98667 37.9891 7C37.9491 7.01333 37.9157 7.03333 37.8891 7.06C37.7291 7.15333 37.7091 7.27333 37.8291 7.42C37.8424 7.43333 37.8624 7.46 37.8891 7.5C37.9291 7.52667 37.9557 7.56 37.9691 7.6C37.9824 7.65333 37.9891 7.71333 37.9891 7.78C37.9891 7.83333 37.9957 7.89333 38.0091 7.96C37.9557 8.21333 37.8557 8.45333 37.7091 8.68C37.7491 8.86667 37.8091 9.04667 37.8891 9.22C37.9824 9.39333 38.0624 9.57333 38.1291 9.76C38.1957 9.8 38.2491 9.84 38.2891 9.88C38.3291 9.92 38.3757 9.95333 38.4291 9.98C38.4424 10.02 38.4491 10.0467 38.4491 10.06C38.4624 10.0733 38.4691 10.0933 38.4691 10.12C38.4691 10.2533 38.4824 10.3867 38.5091 10.52C38.5491 10.6533 38.5957 10.78 38.6491 10.9C38.7024 11.02 38.7557 11.1333 38.8091 11.24C38.8624 11.3467 38.9291 11.4533 39.0091 11.56C39.0757 11.6133 39.1291 11.6867 39.1691 11.78C39.2091 11.8733 39.2424 11.9533 39.2691 12.02ZM34.8891 9.32C34.8091 9.12 34.7091 8.98667 34.5891 8.92C34.4424 8.85333 34.3491 8.76667 34.3091 8.66C34.2957 8.60667 34.2691 8.57333 34.2291 8.56C34.1891 8.54667 34.1491 8.53333 34.1091 8.52C34.0557 8.52 33.9891 8.52667 33.9091 8.54C33.8424 8.54 33.7757 8.54667 33.7091 8.56C33.6291 8.56 33.5491 8.54667 33.4691 8.52C33.4024 8.49333 33.3357 8.47333 33.2691 8.46C33.1491 8.46 33.0357 8.49333 32.9291 8.56C32.8757 8.6 32.8291 8.64 32.7891 8.68C32.7491 8.70667 32.7091 8.74667 32.6691 8.8L32.4091 9.28C32.4357 9.36 32.4691 9.43333 32.5091 9.5C32.5491 9.55333 32.5491 9.63333 32.5091 9.74C32.5357 9.86 32.5624 9.98667 32.5891 10.12C32.6291 10.24 32.6824 10.36 32.7491 10.48C32.7757 10.5067 32.7957 10.52 32.8091 10.52C32.9557 10.5467 33.1024 10.56 33.2491 10.56C33.3957 10.56 33.5357 10.5533 33.6691 10.54C33.7224 10.54 33.7624 10.5333 33.7891 10.52C33.9357 10.44 34.1157 10.3667 34.3291 10.3C34.4091 10.2867 34.4824 10.2267 34.5491 10.12C34.6024 10 34.6557 9.87333 34.7091 9.74C34.7624 9.59333 34.8224 9.45333 34.8891 9.32ZM30.6491 12.6C30.6491 12.6 30.6424 12.6 30.6291 12.6C30.6291 12.6 30.6291 12.6133 30.6291 12.64C30.6557 12.6133 30.6624 12.6 30.6491 12.6ZM49.8967 4.86C49.9367 5.04667 49.9167 5.24 49.8367 5.44C49.8101 5.50667 49.7834 5.58 49.7567 5.66C49.7434 5.72667 49.7234 5.79333 49.6967 5.86C49.6167 6.1 49.5034 6.32667 49.3567 6.54C49.2501 6.7 49.1501 6.86 49.0567 7.02C48.9634 7.18 48.8834 7.35333 48.8167 7.54C48.7901 7.60667 48.7567 7.67333 48.7167 7.74C48.6901 7.79333 48.6634 7.85333 48.6367 7.92C48.6234 7.94667 48.6101 7.98 48.5967 8.02C48.5834 8.06 48.5634 8.09333 48.5367 8.12C48.5234 8.16 48.5167 8.2 48.5167 8.24C48.5167 8.28 48.5034 8.31333 48.4767 8.34C48.4234 8.39333 48.3634 8.45333 48.2967 8.52C48.2434 8.58667 48.1967 8.66 48.1567 8.74C48.1034 8.84667 48.0501 8.95333 47.9967 9.06C47.9434 9.15333 47.8701 9.23333 47.7767 9.3C47.6834 9.44667 47.5967 9.59333 47.5167 9.74C47.4367 9.87333 47.3567 10.0067 47.2767 10.14C47.2501 10.2733 47.1901 10.3933 47.0967 10.5C47.0167 10.6067 46.9501 10.7267 46.8967 10.86C46.8967 10.9 46.8767 10.9333 46.8367 10.96C46.6767 11.0933 46.5434 11.2533 46.4367 11.44C46.3434 11.6267 46.2301 11.8067 46.0967 11.98C46.0834 12.0333 46.0634 12.0867 46.0367 12.14C46.0234 12.18 46.0034 12.2133 45.9767 12.24C45.9501 12.32 45.9167 12.4 45.8767 12.48C45.8501 12.5467 45.8234 12.6133 45.7967 12.68C45.7167 12.84 45.6301 12.9867 45.5367 13.12C45.4434 13.2667 45.3234 13.3933 45.1767 13.5C45.1234 13.5533 45.0767 13.6 45.0367 13.64C44.9967 13.6933 44.9567 13.7467 44.9167 13.8C44.8234 13.9333 44.7234 14.06 44.6167 14.18C44.5101 14.3133 44.4101 14.4467 44.3167 14.58C44.1034 14.8867 43.8434 15.1733 43.5367 15.44C43.4701 15.4533 43.4034 15.4533 43.3367 15.44C43.2834 15.4267 43.2234 15.4333 43.1567 15.46C43.1034 15.4333 43.0567 15.4 43.0167 15.36C42.9901 15.3333 42.9434 15.3067 42.8767 15.28C42.8234 15.28 42.7701 15.2733 42.7167 15.26C42.6767 15.2467 42.6234 15.24 42.5567 15.24C42.4501 15.2133 42.3701 15.1533 42.3167 15.06C42.2634 14.98 42.1967 14.9067 42.1167 14.84C41.9834 14.7333 41.8501 14.66 41.7167 14.62C41.6367 14.58 41.5767 14.5333 41.5367 14.48C41.5234 14.4133 41.5234 14.32 41.5367 14.2C41.5501 14.1467 41.5834 14.1133 41.6367 14.1C41.7567 14.0067 41.8434 13.9267 41.8967 13.86C41.9501 13.7933 42.0101 13.6933 42.0767 13.56C42.1301 13.4133 42.1834 13.3133 42.2367 13.26C42.4367 13.0467 42.5701 12.84 42.6367 12.64C42.7034 12.52 42.7634 12.4067 42.8167 12.3C42.8834 12.1933 42.9434 12.08 42.9967 11.96C43.0634 11.8533 43.1234 11.7533 43.1767 11.66C43.2434 11.5533 43.3167 11.4467 43.3967 11.34C43.4101 11.3133 43.4234 11.2933 43.4367 11.28C43.4634 11.2533 43.4834 11.2267 43.4967 11.2C43.5634 11.0667 43.6367 10.9467 43.7167 10.84C43.7967 10.72 43.8901 10.6133 43.9967 10.52C44.0634 10.3733 44.1167 10.22 44.1567 10.06C44.2101 9.9 44.2901 9.76 44.3967 9.64C44.3701 9.58667 44.3501 9.54667 44.3367 9.52C44.3367 9.49333 44.3234 9.47333 44.2967 9.46C44.2567 9.39333 44.2101 9.34 44.1567 9.3C44.1167 9.26 44.0634 9.21333 43.9967 9.16C43.9834 9.13333 43.9567 9.10667 43.9167 9.08C43.8901 9.05333 43.8634 9.02667 43.8367 9C43.7301 8.82667 43.5901 8.67333 43.4167 8.54C43.2567 8.39333 43.0901 8.25333 42.9167 8.12C42.8767 8.09333 42.8301 8.06 42.7767 8.02C42.7367 7.98 42.6901 7.94667 42.6367 7.92C42.5834 7.82667 42.5234 7.73333 42.4567 7.64C42.3901 7.53333 42.3234 7.43333 42.2567 7.34C42.2034 7.31333 42.1501 7.28 42.0967 7.24C42.0434 7.2 41.9967 7.16 41.9567 7.12C41.9034 7.06667 41.8634 7.01333 41.8367 6.96C41.8234 6.90667 41.8034 6.86 41.7767 6.82C41.8034 6.76667 41.7901 6.72 41.7367 6.68C41.6967 6.62667 41.6834 6.58 41.6967 6.54C41.6434 6.48667 41.6034 6.46667 41.5767 6.48C41.5634 6.49333 41.5301 6.47333 41.4767 6.42C41.4634 6.40667 41.4434 6.39333 41.4167 6.38C41.4034 6.35333 41.3967 6.32667 41.3967 6.3C41.3834 6.20667 41.3701 6.14 41.3567 6.1C41.3434 6.06 41.3501 6.00667 41.3767 5.94L41.2767 5.84C41.2234 5.84 41.1967 5.83333 41.1967 5.82C41.2101 5.79333 41.1967 5.77333 41.1567 5.76C41.1167 5.76 41.0501 5.71333 40.9567 5.62C40.9834 5.58 40.9967 5.54667 40.9967 5.52C41.0101 5.49333 41.0234 5.47333 41.0367 5.46C41.0634 5.40667 41.0834 5.37333 41.0967 5.36C41.4434 5.14667 41.6767 4.82667 41.7967 4.4C41.8367 4.34667 41.8767 4.30667 41.9167 4.28C41.9701 4.24 42.0101 4.19333 42.0367 4.14C42.0767 4.1 42.1101 4.06 42.1367 4.02C42.1767 3.96667 42.2101 3.92667 42.2367 3.9C42.3034 3.86 42.3567 3.84667 42.3967 3.86C42.4501 3.87333 42.4967 3.89333 42.5367 3.92C42.6434 4.01333 42.7434 4.11333 42.8367 4.22C42.9434 4.31333 43.0567 4.41333 43.1767 4.52C43.3367 4.64 43.4967 4.77333 43.6567 4.92C43.8167 5.05333 43.9701 5.19333 44.1167 5.34C44.1834 5.42 44.2634 5.48667 44.3567 5.54C44.4501 5.59333 44.5367 5.66 44.6167 5.74C44.9234 5.91333 45.2101 6.13333 45.4767 6.4C45.5034 6.41333 45.5367 6.43333 45.5767 6.46C45.6167 6.47333 45.6567 6.47333 45.6967 6.46C45.7767 6.42 45.8367 6.36 45.8767 6.28C45.9167 6.2 45.9634 6.13333 46.0167 6.08C46.0701 6.02667 46.1034 5.97333 46.1167 5.92C46.1301 5.89333 46.1367 5.86667 46.1367 5.84C46.1501 5.81333 46.1567 5.78667 46.1567 5.76C46.1701 5.65333 46.1967 5.56667 46.2367 5.5C46.2901 5.42 46.3434 5.33333 46.3967 5.24C46.4901 5.10667 46.5634 4.97333 46.6167 4.84C46.6701 4.69333 46.7167 4.6 46.7567 4.56C46.8101 4.50667 46.9167 4.44 47.0767 4.36C47.1034 4.30667 47.1301 4.25333 47.1567 4.2C47.1834 4.14667 47.2101 4.1 47.2367 4.06C47.3034 3.99333 47.3634 3.92667 47.4167 3.86C47.4701 3.79333 47.5101 3.72 47.5367 3.64C47.6434 3.46667 47.7767 3.36 47.9367 3.32C48.0167 3.33333 48.0901 3.36 48.1567 3.4C48.2234 3.42667 48.2767 3.48667 48.3167 3.58C48.3834 3.66 48.4567 3.72667 48.5367 3.78C48.6301 3.82 48.7034 3.88 48.7567 3.96C48.8367 4 48.9101 4.00667 48.9767 3.98C49.0567 3.95333 49.1301 3.95333 49.1967 3.98C49.2501 4.00667 49.2901 4.04 49.3167 4.08C49.3434 4.10667 49.3701 4.13333 49.3967 4.16C49.5701 4.30667 49.6767 4.41333 49.7167 4.48C49.7567 4.53333 49.8167 4.66 49.8967 4.86ZM62.7516 11.56C62.6849 11.6933 62.6249 11.8267 62.5716 11.96C62.5182 12.0933 62.4582 12.2267 62.3916 12.36L61.9716 12.76C61.7182 13.04 61.4182 13.2067 61.0716 13.26C60.8982 13.2867 60.7182 13.2933 60.5316 13.28C60.3582 13.28 60.1782 13.2533 59.9916 13.2C59.8849 13.1733 59.7716 13.1333 59.6516 13.08C59.5449 13.04 59.4382 12.9933 59.3316 12.94C59.2516 12.9 59.1649 12.8733 59.0716 12.86C58.9782 12.8333 58.8782 12.8133 58.7716 12.8C58.7316 12.7733 58.6849 12.7467 58.6316 12.72C58.5782 12.68 58.5182 12.64 58.4516 12.6C58.3582 12.44 58.2449 12.2933 58.1116 12.16C57.9916 12.0267 57.8982 11.86 57.8316 11.66C57.8316 11.5 57.8249 11.3933 57.8116 11.34C57.7982 11.2733 57.7582 11.1467 57.6916 10.96V9.64C57.6916 9.53333 57.6849 9.43333 57.6716 9.34C57.6716 9.23333 57.6582 9.13333 57.6316 9.04C57.6182 8.94667 57.6116 8.86667 57.6116 8.8C57.6249 8.73333 57.6382 8.65333 57.6516 8.56C57.6916 8.4 57.6916 8.23333 57.6516 8.06C57.6916 7.9 57.7382 7.74 57.7916 7.58C57.7916 7.5 57.7716 7.38667 57.7316 7.24C57.6916 7.09333 57.6449 6.95333 57.5916 6.82C57.5249 6.82 57.4582 6.81333 57.3916 6.8C57.3249 6.78667 57.2516 6.77333 57.1716 6.76C57.0916 6.78667 57.0049 6.81333 56.9116 6.84C56.8316 6.86667 56.7382 6.89333 56.6316 6.92C56.5916 6.94667 56.5316 6.96 56.4516 6.96C56.4382 6.96 56.4116 6.94667 56.3716 6.92C56.3449 6.88 56.3316 6.85333 56.3316 6.84C56.3182 6.8 56.3116 6.76 56.3116 6.72C56.3116 6.68 56.3116 6.64 56.3116 6.6C56.2982 6.49333 56.2916 6.38 56.2916 6.26C56.2916 6.14 56.2916 6.02667 56.2916 5.92C56.2916 5.81333 56.2849 5.71333 56.2716 5.62C56.2582 5.51333 56.2382 5.41333 56.2116 5.32C56.2249 5.25333 56.2382 5.19333 56.2516 5.14C56.2649 5.07333 56.2782 5.01333 56.2916 4.96V4.58C56.2916 4.47333 56.3049 4.38 56.3316 4.3C56.3716 4.22 56.4449 4.14667 56.5516 4.08C56.6316 4.05333 56.7182 4.04 56.8116 4.04C56.9182 4.04 57.0316 4.04 57.1516 4.04C57.2582 4.05333 57.3649 4.05333 57.4716 4.04C57.5916 4.01333 57.6982 3.95333 57.7916 3.86C57.8182 3.83333 57.8516 3.82 57.8916 3.82C57.9449 3.82 57.9849 3.82 58.0116 3.82C58.2782 3.83333 58.5116 3.72667 58.7116 3.5C58.7249 3.42 58.7649 3.30667 58.8316 3.16C58.7916 3.06667 58.7582 2.96667 58.7316 2.86C58.7049 2.74 58.6716 2.62667 58.6316 2.52C58.6582 2.48 58.6849 2.44 58.7116 2.4C58.7382 2.36 58.7582 2.31333 58.7716 2.26C58.7982 2.19333 58.7982 2.13333 58.7716 2.08C58.7449 2.01333 58.7382 1.96 58.7516 1.92C58.7249 1.85333 58.7116 1.80667 58.7116 1.78C58.7116 1.75333 58.6982 1.70667 58.6716 1.64C58.6849 1.61333 58.6982 1.58667 58.7116 1.56C58.7249 1.52 58.7382 1.48667 58.7516 1.46C58.7649 1.40667 58.7782 1.36667 58.7916 1.34C58.8049 1.3 58.8182 1.25333 58.8316 1.2H59.0516C59.1182 1.21333 59.1849 1.22667 59.2516 1.24C59.3316 1.24 59.4049 1.23333 59.4716 1.22C59.4982 1.22 59.5316 1.22667 59.5716 1.24C59.6116 1.24 59.6516 1.24 59.6916 1.24C59.9182 1.26667 60.1382 1.3 60.3516 1.34C60.5782 1.38 60.7982 1.4 61.0116 1.4C61.0382 1.4 61.0649 1.40667 61.0916 1.42C61.1316 1.43333 61.1582 1.44667 61.1716 1.46C61.2249 1.48667 61.2716 1.52 61.3116 1.56C61.2982 1.61333 61.2782 1.66667 61.2516 1.72C61.2249 1.76 61.2049 1.8 61.1916 1.84C61.1782 1.89333 61.1649 1.95333 61.1516 2.02C61.1516 2.08667 61.1449 2.15333 61.1316 2.22C61.1182 2.31333 61.1049 2.40667 61.0916 2.5C61.0782 2.59333 61.0582 2.7 61.0316 2.82C61.0449 2.83333 61.0516 2.86667 61.0516 2.92C61.0516 2.97333 61.0582 3.02 61.0716 3.06C61.0582 3.15333 61.0382 3.24 61.0116 3.32C60.9982 3.4 60.9849 3.49333 60.9716 3.6C61.1449 3.73333 61.3316 3.84667 61.5316 3.94C61.7449 4.03333 61.9982 4.12 62.2916 4.2C62.4382 4.29333 62.5249 4.44667 62.5516 4.66C62.5516 4.96667 62.5316 5.27333 62.4916 5.58C62.4782 5.7 62.4649 5.82 62.4516 5.94C62.4382 6.06 62.4382 6.18 62.4516 6.3C62.2782 6.40667 62.0716 6.46 61.8316 6.46C61.7916 6.46 61.7516 6.46667 61.7116 6.48C61.6716 6.49333 61.6382 6.5 61.6116 6.5C61.3982 6.51333 61.2316 6.53333 61.1116 6.56C61.0049 6.58667 60.8316 6.65333 60.5916 6.76C60.5516 6.81333 60.5316 6.88667 60.5316 6.98C60.5182 7.06 60.5049 7.14 60.4916 7.22C60.4916 7.3 60.4982 7.38667 60.5116 7.48C60.5116 7.48 60.5116 7.48667 60.5116 7.5C60.5116 7.5 60.4982 7.50667 60.4716 7.52C60.3916 7.68 60.3316 7.8 60.2916 7.88C60.2516 7.96 60.2249 8.04 60.2116 8.12C60.2116 8.2 60.2116 8.33333 60.2116 8.52V9.48C60.2116 9.54667 60.2182 9.58667 60.2316 9.6C60.2449 9.72 60.3049 9.82 60.4116 9.9C60.4649 9.91333 60.5116 9.92667 60.5516 9.94C60.6049 9.95333 60.6449 9.98667 60.6716 10.04C60.7916 10.2 60.9249 10.2867 61.0716 10.3C61.2316 10.3 61.3982 10.2733 61.5716 10.22C61.6249 10.1933 61.6782 10.1667 61.7316 10.14C61.7849 10.1133 61.8382 10.0933 61.8916 10.08C61.9982 10.1067 62.0649 10.1667 62.0916 10.26C62.1182 10.3533 62.1649 10.4333 62.2316 10.5C62.2982 10.5667 62.3516 10.64 62.3916 10.72C62.4449 10.8 62.4982 10.88 62.5516 10.96C62.5782 11.04 62.6116 11.1333 62.6516 11.24C62.6916 11.3333 62.7249 11.44 62.7516 11.56ZM73.2933 7.54C73.3333 7.7 73.3266 7.84667 73.2733 7.98C73.2466 8.04667 73.2266 8.11333 73.2133 8.18C73.1999 8.24667 73.1999 8.31333 73.2133 8.38C73.2266 8.39333 73.2266 8.41333 73.2133 8.44C73.2133 8.45333 73.2133 8.47333 73.2133 8.5C73.1599 8.60667 73.1333 8.72 73.1333 8.84C73.1466 8.96 73.1599 9.07333 73.1733 9.18L72.9733 9.46V9.72C72.9466 9.74667 72.9133 9.78 72.8733 9.82C72.8333 9.84667 72.7799 9.88667 72.7133 9.94C72.6866 10.0333 72.6466 10.1333 72.5933 10.24C72.5533 10.3467 72.5199 10.4467 72.4933 10.54V10.74C72.4399 10.7933 72.3733 10.84 72.2933 10.88C72.2133 10.92 72.1466 10.98 72.0933 11.06C72.0399 11.1 71.9866 11.1333 71.9333 11.16C71.8799 11.1867 71.8199 11.22 71.7533 11.26C71.7266 11.2733 71.6933 11.28 71.6533 11.28C71.6266 11.2667 71.5999 11.2667 71.5733 11.28C71.3733 11.28 71.2733 11.3733 71.2733 11.56C71.1266 11.6533 70.9799 11.7533 70.8333 11.86C70.6999 11.9667 70.5599 12.0733 70.4133 12.18C70.1866 12.3533 69.8933 12.4733 69.5333 12.54C69.4133 12.5533 69.2999 12.5867 69.1933 12.64C69.0866 12.68 68.9733 12.7133 68.8533 12.74C68.8266 12.74 68.7933 12.7333 68.7533 12.72C68.7133 12.7067 68.6799 12.7067 68.6533 12.72C68.4933 12.7333 68.3266 12.72 68.1533 12.68C68.0999 12.6667 68.0466 12.6667 67.9933 12.68C67.9399 12.6933 67.8933 12.7067 67.8533 12.72C67.7599 12.7067 67.6666 12.6933 67.5733 12.68C67.4799 12.6667 67.3799 12.6533 67.2733 12.64C67.1533 12.5867 67.0399 12.5267 66.9333 12.46C66.8399 12.3933 66.7399 12.3333 66.6333 12.28C66.5533 12.2533 66.4799 12.2067 66.4133 12.14C66.3466 12.0733 66.2933 12.0067 66.2533 11.94C66.2399 11.9133 66.2199 11.8933 66.1933 11.88C66.1799 11.8533 66.1599 11.8267 66.1333 11.8C66.0933 11.7733 66.0533 11.7533 66.0133 11.74C65.9733 11.7133 65.9333 11.68 65.8933 11.64C65.6799 11.4933 65.4866 11.3333 65.3133 11.16C65.1533 10.9867 65.0333 10.7733 64.9533 10.52C64.8866 10.3467 64.8066 10.1933 64.7133 10.06C64.6866 10.0067 64.6533 9.96 64.6133 9.92C64.5866 9.86667 64.5599 9.81333 64.5333 9.76C64.5466 9.73333 64.5666 9.68 64.5933 9.6C64.5666 9.56 64.5399 9.52 64.5133 9.48C64.4866 9.44 64.4733 9.39333 64.4733 9.34C64.4733 9.3 64.4666 9.26 64.4533 9.22C64.4533 9.16667 64.4599 9.11333 64.4733 9.06C64.4999 8.96667 64.5066 8.87333 64.4933 8.78C64.4799 8.68667 64.4799 8.59333 64.4933 8.5C64.5066 8.42 64.4999 8.33333 64.4733 8.24C64.4599 8.14667 64.4733 8.06 64.5133 7.98C64.5399 7.88667 64.5599 7.8 64.5733 7.72C64.5866 7.64 64.6066 7.56 64.6333 7.48C64.6599 7.4 64.6866 7.32667 64.7133 7.26C64.7399 7.18 64.7666 7.10667 64.7933 7.04C64.8199 6.96 64.8466 6.88 64.8733 6.8C64.8999 6.72 64.9399 6.63333 64.9933 6.54C64.9933 6.51333 64.9933 6.48 64.9933 6.44C64.9933 6.4 64.9999 6.37333 65.0133 6.36C65.0666 6.25333 65.1066 6.15333 65.1333 6.06C65.1599 5.96667 65.1666 5.87333 65.1533 5.78C65.2066 5.71333 65.2533 5.66 65.2933 5.62C65.3333 5.58 65.3666 5.53333 65.3933 5.48C65.4199 5.41333 65.4466 5.35333 65.4733 5.3C65.5133 5.23333 65.5533 5.17333 65.5933 5.12C65.6333 5.01333 65.6933 4.92 65.7733 4.84C65.8266 4.77333 65.8733 4.72 65.9133 4.68C65.9533 4.62667 65.9866 4.58667 66.0133 4.56C66.0533 4.48 66.0666 4.41333 66.0533 4.36C66.0399 4.29333 66.0333 4.24 66.0333 4.2C66.0599 4.13333 66.0799 4.09333 66.0933 4.08C66.1333 4.06667 66.1666 4.04667 66.1933 4.02C66.2333 3.99333 66.2733 3.97333 66.3133 3.96C66.4199 3.89333 66.5333 3.82667 66.6533 3.76C66.7733 3.69333 66.8933 3.64 67.0133 3.6C67.1333 3.52 67.2533 3.46667 67.3733 3.44C67.5066 3.4 67.6399 3.36 67.7733 3.32C67.8799 3.32 67.9866 3.32 68.0933 3.32C68.1999 3.32 68.2999 3.32667 68.3933 3.34H68.5733C68.7199 3.39333 68.8666 3.42 69.0133 3.42C69.1733 3.42 69.3266 3.41333 69.4733 3.4C69.5399 3.4 69.6066 3.4 69.6733 3.4C69.7533 3.38667 69.8266 3.38 69.8933 3.38C69.9599 3.43333 70.0133 3.48 70.0533 3.52C70.1066 3.54667 70.1599 3.58667 70.2133 3.64C70.2533 3.65333 70.2933 3.67333 70.3333 3.7C70.3733 3.72667 70.4199 3.74667 70.4733 3.76C70.6599 3.77333 70.8266 3.83333 70.9733 3.94C71.1333 4.04667 71.2799 4.15333 71.4133 4.26C71.4133 4.28667 71.4133 4.32667 71.4133 4.38C71.4133 4.42 71.4199 4.46 71.4333 4.5C71.4333 4.56667 71.4733 4.62667 71.5533 4.68C71.5933 4.69333 71.6399 4.7 71.6933 4.7C71.7466 4.7 71.7999 4.71333 71.8533 4.74C71.8799 4.79333 71.9133 4.85333 71.9533 4.92C72.0066 4.98667 72.0533 5.05333 72.0933 5.12C72.1466 5.17333 72.1999 5.22667 72.2533 5.28C72.3066 5.33333 72.3466 5.39333 72.3733 5.46C72.3999 5.48667 72.4199 5.52 72.4333 5.56C72.4599 5.6 72.4799 5.63333 72.4933 5.66C72.5333 5.7 72.5733 5.74 72.6133 5.78C72.6533 5.82 72.6799 5.87333 72.6933 5.94C72.7199 6.03333 72.7599 6.12667 72.8133 6.22C72.8666 6.31333 72.9066 6.41333 72.9333 6.52C72.9466 6.56 72.9666 6.6 72.9933 6.64C73.0333 6.68 73.0733 6.72667 73.1133 6.78C73.1399 6.9 73.1599 7.02667 73.1733 7.16C73.1999 7.29333 73.2399 7.42 73.2933 7.54ZM70.4933 8.26C70.5066 8.16667 70.4933 8.08667 70.4533 8.02C70.4133 7.94 70.3999 7.86 70.4133 7.78C70.4133 7.75333 70.3933 7.72 70.3533 7.68C70.3399 7.65333 70.3333 7.6 70.3333 7.52C70.3466 7.49333 70.3533 7.46 70.3533 7.42C70.3533 7.36667 70.3533 7.33333 70.3533 7.32C70.2599 7.17333 70.1733 7.04 70.0933 6.92C70.0133 6.78667 69.9266 6.66 69.8333 6.54C69.8333 6.51333 69.8199 6.5 69.7933 6.5C69.7666 6.48667 69.7399 6.46 69.7133 6.42C69.4866 6.42 69.2399 6.36 68.9733 6.24C68.8133 6.16 68.6199 6.15333 68.3933 6.22C68.3799 6.22 68.3599 6.22667 68.3333 6.24C68.3199 6.25333 68.2999 6.27333 68.2733 6.3H68.1733C67.9599 6.26 67.8199 6.34 67.7533 6.54C67.7266 6.59333 67.6933 6.65333 67.6533 6.72C67.6266 6.77333 67.6066 6.83333 67.5933 6.9C67.5799 6.95333 67.5533 7.01333 67.5133 7.08C67.4733 7.13333 67.4399 7.18667 67.4133 7.24C67.3599 7.30667 67.3133 7.38 67.2733 7.46C67.2333 7.54 67.1866 7.61333 67.1333 7.68C67.1199 7.81333 67.0866 7.94667 67.0333 8.08C66.9933 8.21333 66.9666 8.34 66.9533 8.46C66.9933 8.52667 67.0333 8.6 67.0733 8.68C67.1133 8.74667 67.1466 8.81333 67.1733 8.88C67.2533 9.05333 67.2866 9.22 67.2733 9.38C67.2733 9.40667 67.2799 9.43333 67.2933 9.46C67.3066 9.48667 67.3199 9.51333 67.3333 9.54C67.4533 9.56667 67.5666 9.59333 67.6733 9.62C67.7933 9.64667 67.9066 9.68 68.0133 9.72C68.1066 9.74667 68.1999 9.76667 68.2933 9.78C68.3866 9.79333 68.4799 9.78 68.5733 9.74H68.6333C68.7399 9.76667 68.8399 9.77333 68.9333 9.76C69.0399 9.73333 69.1533 9.70667 69.2733 9.68C69.3666 9.61333 69.4599 9.54 69.5533 9.46C69.6599 9.38 69.7666 9.31333 69.8733 9.26C69.9666 9.07333 70.0799 8.90667 70.2133 8.76C70.3466 8.61333 70.4399 8.44667 70.4933 8.26ZM83.3597 4.06C83.293 4.3 83.253 4.54667 83.2397 4.8C83.2264 5.04 83.213 5.28 83.1997 5.52C83.1864 5.76 83.1797 6.00667 83.1797 6.26C83.1797 6.5 83.1797 6.74 83.1797 6.98C83.1797 7.18 83.1664 7.38 83.1397 7.58C83.113 7.78 83.093 7.98667 83.0797 8.2C83.0797 8.25333 83.073 8.31333 83.0597 8.38C83.0597 8.44667 83.0597 8.51333 83.0597 8.58C83.0597 8.76667 83.033 8.94 82.9797 9.1C82.9397 9.27333 82.9197 9.44667 82.9197 9.62C82.9197 9.71333 82.913 9.81333 82.8997 9.92C82.8864 10.0267 82.8597 10.1333 82.8197 10.24C82.8064 10.3067 82.7997 10.4067 82.7997 10.54C82.7864 10.6467 82.7597 10.7533 82.7197 10.86C82.693 10.9533 82.6664 11.0467 82.6397 11.14C82.613 11.22 82.5864 11.3133 82.5597 11.42C82.5064 11.5 82.453 11.5867 82.3997 11.68C82.3597 11.76 82.313 11.84 82.2597 11.92C82.1397 11.9867 82.0397 12.0733 81.9597 12.18C81.8264 12.2867 81.693 12.4 81.5597 12.52C81.4397 12.64 81.3197 12.7533 81.1997 12.86C81.0397 12.9933 80.8797 13.06 80.7197 13.06C80.7064 13.06 80.6864 13.0667 80.6597 13.08C80.6464 13.0933 80.6264 13.1 80.5997 13.1C80.3464 13.1267 80.1397 13.2067 79.9797 13.34C79.9664 13.3533 79.9464 13.36 79.9197 13.36C79.9064 13.3733 79.8864 13.3933 79.8597 13.42C79.6864 13.4467 79.5064 13.4333 79.3197 13.38C79.1464 13.3267 78.9864 13.26 78.8397 13.18H78.5197C78.4664 13.18 78.413 13.1733 78.3597 13.16C78.3064 13.16 78.2464 13.1533 78.1797 13.14C77.8197 13.06 77.473 12.9067 77.1397 12.68C77.0997 12.64 77.053 12.6133 76.9997 12.6C76.9464 12.5867 76.8864 12.5733 76.8197 12.56C76.7397 12.5467 76.6597 12.5267 76.5797 12.5C76.4997 12.4733 76.4197 12.4467 76.3397 12.42C76.273 12.38 76.2197 12.3267 76.1797 12.26C76.1397 12.18 76.0997 12.1133 76.0597 12.06C75.993 11.9267 75.933 11.8067 75.8797 11.7C75.8264 11.58 75.7664 11.4533 75.6997 11.32C75.6464 11.2133 75.5864 11.1067 75.5197 11C75.453 10.88 75.3864 10.7733 75.3197 10.68C75.3197 10.6667 75.3264 10.66 75.3397 10.66C75.353 10.66 75.3597 10.6533 75.3597 10.64L75.3197 10.6C75.3197 10.6133 75.313 10.6267 75.2997 10.64C75.2997 10.64 75.2997 10.6467 75.2997 10.66C75.2864 10.6467 75.2664 10.64 75.2397 10.64C75.2264 10.6267 75.213 10.6133 75.1997 10.6C75.1464 10.5733 75.1064 10.5333 75.0797 10.48C75.053 10.4133 75.0264 10.3533 74.9997 10.3C75.0397 10.22 75.0597 10.1133 75.0597 9.98C75.0864 9.80667 75.0797 9.65333 75.0397 9.52C74.9864 9.32 74.9597 9.12 74.9597 8.92C74.973 8.72 74.9864 8.51333 74.9997 8.3C74.9997 8.23333 75.0264 8.14667 75.0797 8.04C75.173 7.81333 75.2264 7.61333 75.2397 7.44C75.373 7.25333 75.4797 7.05333 75.5597 6.84C75.6397 6.62667 75.733 6.42667 75.8397 6.24C75.9064 6.21333 75.9597 6.18667 75.9997 6.16C76.053 6.13333 76.1064 6.11333 76.1597 6.1C76.1864 6.07333 76.2064 6.04 76.2197 6C76.233 5.96 76.2597 5.92667 76.2997 5.9C76.3397 5.87333 76.3864 5.85333 76.4397 5.84C76.493 5.81333 76.553 5.79333 76.6197 5.78C76.6464 5.74 76.6664 5.7 76.6797 5.66C76.7064 5.62 76.733 5.58 76.7597 5.54C76.7997 5.5 76.8264 5.48 76.8397 5.48C77.1464 5.37333 77.4664 5.29333 77.7997 5.24C77.853 5.22667 77.9064 5.22 77.9597 5.22C78.0264 5.20667 78.0864 5.19333 78.1397 5.18C78.313 5.12667 78.4864 5.10667 78.6597 5.12C78.833 5.13333 79.0064 5.13333 79.1797 5.12C79.2197 5.12 79.2597 5.12667 79.2997 5.14C79.353 5.15333 79.3997 5.16667 79.4397 5.18C79.4797 5.18 79.533 5.19333 79.5997 5.22C79.6664 5.24667 79.7064 5.24667 79.7197 5.22C79.853 5.19333 79.9464 5.20667 79.9997 5.26C80.0664 5.31333 80.0997 5.34 80.0997 5.34C80.1264 5.35333 80.1797 5.36 80.2597 5.36C80.353 5.34667 80.4064 5.34 80.4197 5.34C80.5397 5.31333 80.6064 5.26 80.6197 5.18C80.6464 5.08667 80.6464 5.04 80.6197 5.04L80.5797 5C80.593 4.82667 80.5864 4.65333 80.5597 4.48C80.5464 4.30667 80.5464 4.13333 80.5597 3.96C80.573 3.89333 80.5797 3.82667 80.5797 3.76C80.5797 3.68 80.5797 3.60667 80.5797 3.54C80.5664 3.47333 80.5664 3.41333 80.5797 3.36C80.593 3.29333 80.5997 3.22667 80.5997 3.16C80.5997 3.09333 80.5997 3.03333 80.5997 2.98C80.613 2.91333 80.6064 2.86 80.5797 2.82C80.5397 2.71333 80.5197 2.60667 80.5197 2.5C80.533 2.39333 80.553 2.28667 80.5797 2.18C80.6197 2.03333 80.6464 1.88667 80.6597 1.74C80.6864 1.59333 80.6864 1.43333 80.6597 1.26V1.16C80.713 1.02667 80.7397 0.893332 80.7397 0.759999C80.753 0.626666 80.7664 0.506666 80.7797 0.399999C80.8464 0.306666 80.9264 0.246666 81.0197 0.219999C81.1264 0.179999 81.2064 0.133333 81.2597 0.0799994C81.473 0.0666663 81.673 0.0666663 81.8597 0.0799994C82.0464 0.0933326 82.233 0.0733325 82.4197 0.019999C82.513 0.0599993 82.5997 0.0933326 82.6797 0.119999C82.773 0.133333 82.853 0.146666 82.9197 0.16C83.0664 0.266666 83.1397 0.406666 83.1397 0.579999C83.1397 0.646666 83.1397 0.719999 83.1397 0.8C83.1397 0.879999 83.133 0.959999 83.1197 1.04C83.133 1.09333 83.153 1.14 83.1797 1.18C83.2064 1.22 83.2264 1.27333 83.2397 1.34C83.2264 1.36667 83.213 1.40667 83.1997 1.46C83.1997 1.5 83.193 1.54667 83.1797 1.6C83.193 1.65333 83.2064 1.72 83.2197 1.8C83.233 1.88 83.2464 1.95333 83.2597 2.02C83.2597 2.23333 83.2597 2.44 83.2597 2.64C83.273 2.84 83.273 3.04 83.2597 3.24C83.2597 3.45333 83.2597 3.59333 83.2597 3.66C83.273 3.72667 83.3064 3.86 83.3597 4.06ZM80.4397 9.1C80.3997 8.99333 80.3664 8.89333 80.3397 8.8C80.3264 8.69333 80.3064 8.6 80.2797 8.52C80.2397 8.42667 80.1864 8.34 80.1197 8.26C80.0664 8.18 80.0197 8.09333 79.9797 8C79.8464 7.93333 79.7464 7.86667 79.6797 7.8C79.613 7.77333 79.5464 7.75333 79.4797 7.74C79.4264 7.72667 79.3664 7.71333 79.2997 7.7C79.2464 7.67333 79.193 7.65333 79.1397 7.64C79.0997 7.61333 79.053 7.59333 78.9997 7.58C78.9064 7.62 78.813 7.66 78.7197 7.7C78.6397 7.74 78.5597 7.78 78.4797 7.82C78.2664 7.91333 78.1197 8.08667 78.0397 8.34C78.0264 8.39333 78.0197 8.44667 78.0197 8.5C78.0197 8.55333 78.013 8.61333 77.9997 8.68C77.9864 8.72 77.9597 8.76 77.9197 8.8C77.893 8.84 77.8664 8.89333 77.8397 8.96V9.32C77.8664 9.49333 77.913 9.66 77.9797 9.82C78.0597 9.96667 78.1864 10.0933 78.3597 10.2C78.3997 10.2133 78.433 10.24 78.4597 10.28C78.4997 10.3067 78.5464 10.3333 78.5997 10.36C78.6797 10.44 78.7597 10.48 78.8397 10.48C79.053 10.4533 79.2597 10.4333 79.4597 10.42C79.6597 10.3933 79.853 10.34 80.0397 10.26C80.1197 10.1933 80.1797 10.1267 80.2197 10.06C80.2597 10.0067 80.293 9.96 80.3197 9.92C80.3464 9.86667 80.3797 9.81333 80.4197 9.76V9.42C80.4197 9.35333 80.4197 9.29333 80.4197 9.24C80.4197 9.18667 80.4264 9.14 80.4397 9.1ZM93.8206 7.54C93.8606 7.7 93.854 7.84667 93.8006 7.98C93.774 8.04667 93.754 8.11333 93.7406 8.18C93.7273 8.24667 93.7273 8.31333 93.7406 8.38C93.754 8.39333 93.754 8.41333 93.7406 8.44C93.7406 8.45333 93.7406 8.47333 93.7406 8.5C93.6873 8.60667 93.6606 8.72 93.6606 8.84C93.674 8.96 93.6873 9.07333 93.7006 9.18L93.5006 9.46V9.72C93.474 9.74667 93.4406 9.78 93.4006 9.82C93.3606 9.84667 93.3073 9.88667 93.2406 9.94C93.214 10.0333 93.174 10.1333 93.1206 10.24C93.0806 10.3467 93.0473 10.4467 93.0206 10.54V10.74C92.9673 10.7933 92.9006 10.84 92.8206 10.88C92.7406 10.92 92.674 10.98 92.6206 11.06C92.5673 11.1 92.514 11.1333 92.4606 11.16C92.4073 11.1867 92.3473 11.22 92.2806 11.26C92.254 11.2733 92.2206 11.28 92.1806 11.28C92.154 11.2667 92.1273 11.2667 92.1006 11.28C91.9006 11.28 91.8006 11.3733 91.8006 11.56C91.654 11.6533 91.5073 11.7533 91.3606 11.86C91.2273 11.9667 91.0873 12.0733 90.9406 12.18C90.714 12.3533 90.4206 12.4733 90.0606 12.54C89.9406 12.5533 89.8273 12.5867 89.7206 12.64C89.614 12.68 89.5006 12.7133 89.3806 12.74C89.354 12.74 89.3206 12.7333 89.2806 12.72C89.2406 12.7067 89.2073 12.7067 89.1806 12.72C89.0206 12.7333 88.854 12.72 88.6806 12.68C88.6273 12.6667 88.574 12.6667 88.5206 12.68C88.4673 12.6933 88.4206 12.7067 88.3806 12.72C88.2873 12.7067 88.194 12.6933 88.1006 12.68C88.0073 12.6667 87.9073 12.6533 87.8006 12.64C87.6806 12.5867 87.5673 12.5267 87.4606 12.46C87.3673 12.3933 87.2673 12.3333 87.1606 12.28C87.0806 12.2533 87.0073 12.2067 86.9406 12.14C86.874 12.0733 86.8206 12.0067 86.7806 11.94C86.7673 11.9133 86.7473 11.8933 86.7206 11.88C86.7073 11.8533 86.6873 11.8267 86.6606 11.8C86.6206 11.7733 86.5806 11.7533 86.5406 11.74C86.5006 11.7133 86.4606 11.68 86.4206 11.64C86.2073 11.4933 86.014 11.3333 85.8406 11.16C85.6806 10.9867 85.5606 10.7733 85.4806 10.52C85.414 10.3467 85.334 10.1933 85.2406 10.06C85.214 10.0067 85.1806 9.96 85.1406 9.92C85.114 9.86667 85.0873 9.81333 85.0606 9.76C85.074 9.73333 85.094 9.68 85.1206 9.6C85.094 9.56 85.0673 9.52 85.0406 9.48C85.014 9.44 85.0006 9.39333 85.0006 9.34C85.0006 9.3 84.994 9.26 84.9806 9.22C84.9806 9.16667 84.9873 9.11333 85.0006 9.06C85.0273 8.96667 85.034 8.87333 85.0206 8.78C85.0073 8.68667 85.0073 8.59333 85.0206 8.5C85.034 8.42 85.0273 8.33333 85.0006 8.24C84.9873 8.14667 85.0006 8.06 85.0406 7.98C85.0673 7.88667 85.0873 7.8 85.1006 7.72C85.114 7.64 85.134 7.56 85.1606 7.48C85.1873 7.4 85.214 7.32667 85.2406 7.26C85.2673 7.18 85.294 7.10667 85.3206 7.04C85.3473 6.96 85.374 6.88 85.4006 6.8C85.4273 6.72 85.4673 6.63333 85.5206 6.54C85.5206 6.51333 85.5206 6.48 85.5206 6.44C85.5206 6.4 85.5273 6.37333 85.5406 6.36C85.594 6.25333 85.634 6.15333 85.6606 6.06C85.6873 5.96667 85.694 5.87333 85.6806 5.78C85.734 5.71333 85.7806 5.66 85.8206 5.62C85.8606 5.58 85.894 5.53333 85.9206 5.48C85.9473 5.41333 85.974 5.35333 86.0006 5.3C86.0406 5.23333 86.0806 5.17333 86.1206 5.12C86.1606 5.01333 86.2206 4.92 86.3006 4.84C86.354 4.77333 86.4006 4.72 86.4406 4.68C86.4806 4.62667 86.514 4.58667 86.5406 4.56C86.5806 4.48 86.594 4.41333 86.5806 4.36C86.5673 4.29333 86.5606 4.24 86.5606 4.2C86.5873 4.13333 86.6073 4.09333 86.6206 4.08C86.6606 4.06667 86.694 4.04667 86.7206 4.02C86.7606 3.99333 86.8006 3.97333 86.8406 3.96C86.9473 3.89333 87.0606 3.82667 87.1806 3.76C87.3006 3.69333 87.4206 3.64 87.5406 3.6C87.6606 3.52 87.7806 3.46667 87.9006 3.44C88.034 3.4 88.1673 3.36 88.3006 3.32C88.4073 3.32 88.514 3.32 88.6206 3.32C88.7273 3.32 88.8273 3.32667 88.9206 3.34H89.1006C89.2473 3.39333 89.394 3.42 89.5406 3.42C89.7006 3.42 89.854 3.41333 90.0006 3.4C90.0673 3.4 90.134 3.4 90.2006 3.4C90.2806 3.38667 90.354 3.38 90.4206 3.38C90.4873 3.43333 90.5406 3.48 90.5806 3.52C90.634 3.54667 90.6873 3.58667 90.7406 3.64C90.7806 3.65333 90.8206 3.67333 90.8606 3.7C90.9006 3.72667 90.9473 3.74667 91.0006 3.76C91.1873 3.77333 91.354 3.83333 91.5006 3.94C91.6606 4.04667 91.8073 4.15333 91.9406 4.26C91.9406 4.28667 91.9406 4.32667 91.9406 4.38C91.9406 4.42 91.9473 4.46 91.9606 4.5C91.9606 4.56667 92.0006 4.62667 92.0806 4.68C92.1206 4.69333 92.1673 4.7 92.2206 4.7C92.274 4.7 92.3273 4.71333 92.3806 4.74C92.4073 4.79333 92.4406 4.85333 92.4806 4.92C92.534 4.98667 92.5806 5.05333 92.6206 5.12C92.674 5.17333 92.7273 5.22667 92.7806 5.28C92.834 5.33333 92.874 5.39333 92.9006 5.46C92.9273 5.48667 92.9473 5.52 92.9606 5.56C92.9873 5.6 93.0073 5.63333 93.0206 5.66C93.0606 5.7 93.1006 5.74 93.1406 5.78C93.1806 5.82 93.2073 5.87333 93.2206 5.94C93.2473 6.03333 93.2873 6.12667 93.3406 6.22C93.394 6.31333 93.434 6.41333 93.4606 6.52C93.474 6.56 93.494 6.6 93.5206 6.64C93.5606 6.68 93.6006 6.72667 93.6406 6.78C93.6673 6.9 93.6873 7.02667 93.7006 7.16C93.7273 7.29333 93.7673 7.42 93.8206 7.54ZM91.0206 8.26C91.034 8.16667 91.0206 8.08667 90.9806 8.02C90.9406 7.94 90.9273 7.86 90.9406 7.78C90.9406 7.75333 90.9206 7.72 90.8806 7.68C90.8673 7.65333 90.8606 7.6 90.8606 7.52C90.874 7.49333 90.8806 7.46 90.8806 7.42C90.8806 7.36667 90.8806 7.33333 90.8806 7.32C90.7873 7.17333 90.7006 7.04 90.6206 6.92C90.5406 6.78667 90.454 6.66 90.3606 6.54C90.3606 6.51333 90.3473 6.5 90.3206 6.5C90.294 6.48667 90.2673 6.46 90.2406 6.42C90.014 6.42 89.7673 6.36 89.5006 6.24C89.3406 6.16 89.1473 6.15333 88.9206 6.22C88.9073 6.22 88.8873 6.22667 88.8606 6.24C88.8473 6.25333 88.8273 6.27333 88.8006 6.3H88.7006C88.4873 6.26 88.3473 6.34 88.2806 6.54C88.254 6.59333 88.2206 6.65333 88.1806 6.72C88.154 6.77333 88.134 6.83333 88.1206 6.9C88.1073 6.95333 88.0806 7.01333 88.0406 7.08C88.0006 7.13333 87.9673 7.18667 87.9406 7.24C87.8873 7.30667 87.8406 7.38 87.8006 7.46C87.7606 7.54 87.714 7.61333 87.6606 7.68C87.6473 7.81333 87.614 7.94667 87.5606 8.08C87.5206 8.21333 87.494 8.34 87.4806 8.46C87.5206 8.52667 87.5606 8.6 87.6006 8.68C87.6406 8.74667 87.674 8.81333 87.7006 8.88C87.7806 9.05333 87.814 9.22 87.8006 9.38C87.8006 9.40667 87.8073 9.43333 87.8206 9.46C87.834 9.48667 87.8473 9.51333 87.8606 9.54C87.9806 9.56667 88.094 9.59333 88.2006 9.62C88.3206 9.64667 88.434 9.68 88.5406 9.72C88.634 9.74667 88.7273 9.76667 88.8206 9.78C88.914 9.79333 89.0073 9.78 89.1006 9.74H89.1606C89.2673 9.76667 89.3673 9.77333 89.4606 9.76C89.5673 9.73333 89.6806 9.70667 89.8006 9.68C89.894 9.61333 89.9873 9.54 90.0806 9.46C90.1873 9.38 90.294 9.31333 90.4006 9.26C90.494 9.07333 90.6073 8.90667 90.7406 8.76C90.874 8.61333 90.9673 8.44667 91.0206 8.26Z" fill="white"/>
</svg>
