<svg width="25" height="25" viewBox="0 0 25 25" fill="none" xmlns="http://www.w3.org/2000/svg">
<path d="M16.6667 1.04166C18.3926 1.04166 19.7917 2.44077 19.7917 4.16666C19.7917 4.74195 19.3254 5.20832 18.7501 5.20832C18.1748 5.20832 17.7084 4.74195 17.7084 4.16666C17.7084 3.59136 17.242 3.12499 16.6667 3.12499H4.16675C3.59145 3.12499 3.12508 3.59136 3.12508 4.16666V20.8333C3.12508 21.4086 3.59145 21.875 4.16675 21.875H16.6667C17.242 21.875 17.7084 21.4086 17.7084 20.8333V19.7917C17.7084 19.2164 18.1748 18.75 18.7501 18.75C19.3254 18.75 19.7917 19.2164 19.7917 19.7917V20.8333C19.7917 22.5592 18.3926 23.9583 16.6667 23.9583H4.16675C2.44086 23.9583 1.04175 22.5592 1.04175 20.8333V4.16666C1.04175 2.44077 2.44086 1.04166 4.16675 1.04166H16.6667Z" fill="#656565"/>
<path fill-rule="evenodd" clip-rule="evenodd" d="M21.6658 8.54256C21.3535 8.23024 20.8471 8.23024 20.5348 8.54256L12.4132 16.6642C12.2596 16.8177 12.1579 17.0154 12.1222 17.2295L11.9509 18.2575L12.9789 18.0862C13.193 18.0505 13.3907 17.9488 13.5442 17.7952L21.6658 9.67359C21.9782 9.36126 21.9782 8.85489 21.6658 8.54256ZM19.0617 7.06942C20.1876 5.94351 22.0131 5.9435 23.139 7.06942C24.2649 8.19534 24.2649 10.0208 23.139 11.1467L15.0173 19.2684C14.5568 19.7289 13.9638 20.0341 13.3214 20.1412L12.2934 20.3125C10.8834 20.5475 9.66092 19.325 9.89592 17.915L10.0672 16.887C10.1743 16.2446 10.4795 15.6516 10.94 15.1911L19.0617 7.06942Z" fill="#656565"/>
<path d="M5.20841 7.29166C5.20841 6.71636 5.67478 6.24999 6.25008 6.24999H14.5834C15.1587 6.24999 15.6251 6.71636 15.6251 7.29166C15.6251 7.86695 15.1587 8.33332 14.5834 8.33332H6.25008C5.67478 8.33332 5.20841 7.86695 5.20841 7.29166Z" fill="#656565"/>
<path d="M5.20841 11.4583C5.20841 10.883 5.67478 10.4167 6.25008 10.4167H10.4167C10.992 10.4167 11.4584 10.883 11.4584 11.4583C11.4584 12.0336 10.992 12.5 10.4167 12.5H6.25008C5.67478 12.5 5.20841 12.0336 5.20841 11.4583Z" fill="#656565"/>
<path d="M5.20841 15.625C5.20841 15.0497 5.67478 14.5833 6.25008 14.5833H7.29175C7.86704 14.5833 8.33341 15.0497 8.33341 15.625C8.33341 16.2003 7.86704 16.6667 7.29175 16.6667H6.25008C5.67478 16.6667 5.20841 16.2003 5.20841 15.625Z" fill="#656565"/>
</svg>
