<svg width="125" height="12" viewBox="0 0 125 12" fill="none" xmlns="http://www.w3.org/2000/svg">
<path d="M9.285 2.2C9.225 2.39 9.2 2.57 9.21 2.74C9.22 2.79 9.22 2.845 9.21 2.905C9.2 2.955 9.19 3.005 9.18 3.055C9.17 3.095 9.165 3.145 9.165 3.205C9.175 3.265 9.17 3.315 9.15 3.355C9.13 3.425 9.13 3.495 9.15 3.565C9.17 3.625 9.185 3.685 9.195 3.745C9.175 3.815 9.155 3.895 9.135 3.985C9.115 4.065 9.11 4.155 9.12 4.255C9.12 4.375 9.105 4.495 9.075 4.615C9.065 4.685 9.065 4.755 9.075 4.825C9.115 4.955 9.13 5.08 9.12 5.2C9.11 5.32 9.085 5.44 9.045 5.56C9.005 5.63 8.985 5.7 8.985 5.77C8.995 5.88 8.98 5.985 8.94 6.085C8.9 6.185 8.855 6.285 8.805 6.385C8.795 6.415 8.775 6.44 8.745 6.46C8.715 6.48 8.69 6.505 8.67 6.535C8.6 6.765 8.545 6.93 8.505 7.03C8.465 7.12 8.39 7.265 8.28 7.465C8.27 7.485 8.25 7.51 8.22 7.54C8.19 7.57 8.165 7.595 8.145 7.615C8.135 7.635 8.12 7.65 8.1 7.66C8.09 7.67 8.085 7.68 8.085 7.69C8.045 7.82 7.985 7.93 7.905 8.02C7.825 8.11 7.745 8.195 7.665 8.275C7.625 8.315 7.59 8.36 7.56 8.41C7.54 8.45 7.51 8.495 7.47 8.545C7.37 8.615 7.275 8.685 7.185 8.755C7.095 8.825 7 8.895 6.9 8.965C6.84 9.005 6.78 9.04 6.72 9.07C6.65 9.09 6.58 9.12 6.51 9.16C6.44 9.19 6.37 9.215 6.3 9.235C6.23 9.275 6.16 9.31 6.09 9.34C6.02 9.36 5.95 9.39 5.88 9.43H5.535C5.485 9.45 5.43 9.475 5.37 9.505C5.32 9.525 5.265 9.53 5.205 9.52C5.145 9.51 5.085 9.525 5.025 9.565C4.975 9.595 4.92 9.615 4.86 9.625C4.83 9.615 4.795 9.605 4.755 9.595C4.715 9.585 4.675 9.58 4.635 9.58C4.595 9.61 4.555 9.64 4.515 9.67C4.485 9.69 4.45 9.715 4.41 9.745C4.4 9.745 4.385 9.75 4.365 9.76C4.355 9.76 4.34 9.76 4.32 9.76C4.28 9.76 4.235 9.765 4.185 9.775C4.145 9.775 4.105 9.77 4.065 9.76C3.995 9.72 3.93 9.705 3.87 9.715C3.81 9.725 3.745 9.715 3.675 9.685C3.595 9.665 3.555 9.62 3.555 9.55C3.555 9.46 3.505 9.405 3.405 9.385C3.375 9.385 3.345 9.39 3.315 9.4C3.295 9.4 3.27 9.4 3.24 9.4C3.2 9.39 3.165 9.37 3.135 9.34C3.105 9.31 3.07 9.285 3.03 9.265C2.98 9.225 2.925 9.19 2.865 9.16C2.805 9.12 2.74 9.095 2.67 9.085C2.61 9.075 2.55 9.06 2.49 9.04C2.44 9.01 2.39 8.99 2.34 8.98C2.23 8.94 2.15 8.85 2.1 8.71C2.07 8.58 2.015 8.475 1.935 8.395C1.905 8.355 1.88 8.32 1.86 8.29C1.84 8.25 1.82 8.21 1.8 8.17C1.78 8.15 1.76 8.12 1.74 8.08C1.72 8.04 1.7 8.015 1.68 8.005C1.58 7.945 1.5 7.87 1.44 7.78C1.39 7.69 1.345 7.595 1.305 7.495C1.295 7.485 1.285 7.47 1.275 7.45C1.275 7.43 1.27 7.415 1.26 7.405C1.19 7.365 1.155 7.305 1.155 7.225C1.155 7.145 1.145 7.07 1.125 7C1.105 6.98 1.08 6.955 1.05 6.925C1.02 6.895 0.99 6.86 0.96 6.82C0.94 6.74 0.915 6.66 0.885 6.58C0.855 6.5 0.83 6.415 0.81 6.325C0.81 6.165 0.805 6.05 0.795 5.98C0.795 5.9 0.79 5.825 0.78 5.755C0.77 5.675 0.745 5.565 0.705 5.425C0.705 5.345 0.72 5.265 0.75 5.185C0.79 5.105 0.8 5.01 0.78 4.9C0.75 4.85 0.72 4.79 0.69 4.72C0.67 4.65 0.64 4.58 0.6 4.51C0.6 4.49 0.595 4.465 0.585 4.435C0.585 4.405 0.585 4.38 0.585 4.36C0.595 4.28 0.6 4.205 0.6 4.135C0.6 4.065 0.6 3.995 0.6 3.925C0.6 3.845 0.61 3.765 0.63 3.685C0.65 3.595 0.665 3.515 0.675 3.445C0.695 3.335 0.71 3.23 0.72 3.13C0.74 3.02 0.76 2.91 0.78 2.8C0.8 2.64 0.835 2.48 0.885 2.32C0.935 2.16 0.99 2 1.05 1.84C1.16 1.77 1.26 1.705 1.35 1.645C1.45 1.585 1.55 1.52 1.65 1.45H2.295L2.46 1.51C2.51 1.52 2.56 1.52 2.61 1.51C2.66 1.49 2.71 1.475 2.76 1.465C2.81 1.495 2.865 1.53 2.925 1.57C2.995 1.6 3.065 1.64 3.135 1.69C3.135 1.71 3.14 1.735 3.15 1.765C3.17 1.795 3.18 1.82 3.18 1.84C3.18 1.91 3.175 1.985 3.165 2.065C3.165 2.145 3.15 2.225 3.12 2.305C3.1 2.395 3.1 2.49 3.12 2.59C3.13 2.62 3.135 2.67 3.135 2.74C3.125 2.82 3.11 2.905 3.09 2.995C3.07 3.085 3.045 3.17 3.015 3.25C3.005 3.29 3 3.33 3 3.37C3 3.4 3.005 3.43 3.015 3.46C3.045 3.54 3.045 3.615 3.015 3.685C2.995 3.755 2.995 3.825 3.015 3.895C3.075 4.015 3.095 4.155 3.075 4.315C3.075 4.395 3.09 4.46 3.12 4.51C3.17 4.6 3.195 4.69 3.195 4.78C3.205 4.86 3.205 4.945 3.195 5.035C3.175 5.115 3.17 5.195 3.18 5.275C3.2 5.355 3.225 5.43 3.255 5.5C3.295 5.56 3.325 5.62 3.345 5.68C3.365 5.73 3.395 5.79 3.435 5.86C3.485 5.91 3.54 5.965 3.6 6.025C3.66 6.085 3.71 6.155 3.75 6.235C3.76 6.285 3.8 6.345 3.87 6.415C3.87 6.415 3.885 6.425 3.915 6.445C3.965 6.455 4.015 6.46 4.065 6.46C4.125 6.46 4.18 6.46 4.23 6.46C4.28 6.5 4.325 6.535 4.365 6.565C4.405 6.595 4.445 6.625 4.485 6.655C4.545 6.625 4.6 6.595 4.65 6.565C4.7 6.535 4.75 6.5 4.8 6.46L5.01 6.415C5.02 6.415 5.03 6.415 5.04 6.415C5.06 6.405 5.075 6.405 5.085 6.415C5.365 6.505 5.58 6.41 5.73 6.13C5.75 6.07 5.78 6.01 5.82 5.95C5.86 5.89 5.89 5.825 5.91 5.755C5.93 5.705 5.955 5.66 5.985 5.62C6.015 5.58 6.045 5.54 6.075 5.5V5.29C6.105 5.27 6.135 5.245 6.165 5.215C6.205 5.175 6.245 5.145 6.285 5.125C6.305 5.075 6.32 5.025 6.33 4.975C6.35 4.925 6.375 4.875 6.405 4.825C6.425 4.785 6.44 4.75 6.45 4.72C6.47 4.68 6.495 4.64 6.525 4.6C6.515 4.55 6.505 4.51 6.495 4.48C6.485 4.45 6.475 4.415 6.465 4.375C6.535 4.215 6.575 4.06 6.585 3.91C6.595 3.86 6.595 3.81 6.585 3.76C6.585 3.7 6.58 3.64 6.57 3.58C6.59 3.53 6.605 3.485 6.615 3.445C6.635 3.395 6.65 3.35 6.66 3.31C6.66 3.23 6.65 3.155 6.63 3.085C6.62 3.005 6.625 2.93 6.645 2.86C6.665 2.79 6.67 2.74 6.66 2.71C6.62 2.55 6.61 2.395 6.63 2.245C6.65 2.095 6.68 1.955 6.72 1.825C6.71 1.775 6.7 1.725 6.69 1.675C6.69 1.625 6.69 1.575 6.69 1.525C6.71 1.505 6.73 1.49 6.75 1.48C6.77 1.47 6.785 1.45 6.795 1.42C6.845 1.44 6.885 1.46 6.915 1.48C6.955 1.49 6.995 1.5 7.035 1.51C7.175 1.56 7.315 1.6 7.455 1.63C7.595 1.66 7.74 1.655 7.89 1.615C8.06 1.625 8.23 1.635 8.4 1.645C8.58 1.645 8.755 1.67 8.925 1.72C9.065 1.76 9.15 1.835 9.18 1.945L9.285 2.2ZM16.458 7.795C16.458 7.875 16.458 7.96 16.458 8.05C16.468 8.13 16.463 8.21 16.443 8.29C16.423 8.34 16.418 8.385 16.428 8.425C16.448 8.475 16.448 8.53 16.428 8.59C16.418 8.64 16.418 8.69 16.428 8.74C16.448 8.81 16.453 8.89 16.443 8.98C16.433 9.06 16.433 9.14 16.443 9.22C16.403 9.29 16.338 9.325 16.248 9.325C16.148 9.325 16.038 9.33 15.918 9.34C15.808 9.35 15.698 9.375 15.588 9.415C15.528 9.435 15.463 9.445 15.393 9.445C15.323 9.445 15.253 9.445 15.183 9.445C15.123 9.405 15.078 9.37 15.048 9.34C14.928 9.38 14.828 9.335 14.748 9.205C14.708 9.145 14.673 9.08 14.643 9.01C14.623 8.94 14.613 8.865 14.613 8.785C14.623 8.705 14.623 8.625 14.613 8.545C14.603 8.465 14.603 8.38 14.613 8.29C14.633 8.14 14.613 7.995 14.553 7.855C14.543 7.825 14.533 7.795 14.523 7.765C14.513 7.735 14.508 7.705 14.508 7.675C14.508 7.565 14.503 7.455 14.493 7.345C14.483 7.225 14.463 7.115 14.433 7.015C14.423 6.965 14.413 6.92 14.403 6.88C14.403 6.83 14.403 6.785 14.403 6.745C14.373 6.625 14.308 6.53 14.208 6.46C14.198 6.38 14.188 6.31 14.178 6.25C14.168 6.18 14.153 6.105 14.133 6.025C14.113 6.005 14.073 5.975 14.013 5.935C13.973 5.905 13.923 5.88 13.863 5.86C13.813 5.84 13.763 5.815 13.713 5.785C13.693 5.765 13.668 5.74 13.638 5.71C13.618 5.67 13.593 5.635 13.563 5.605H13.473C13.433 5.615 13.398 5.625 13.368 5.635C13.338 5.635 13.298 5.63 13.248 5.62C13.228 5.61 13.203 5.61 13.173 5.62C13.143 5.62 13.118 5.62 13.098 5.62C13.048 5.69 12.998 5.765 12.948 5.845C12.908 5.875 12.868 5.905 12.828 5.935C12.798 5.955 12.773 5.975 12.753 5.995C12.723 6.025 12.708 6.055 12.708 6.085L12.603 6.4C12.623 6.46 12.623 6.52 12.603 6.58C12.583 6.63 12.588 6.685 12.618 6.745C12.628 6.775 12.628 6.805 12.618 6.835C12.608 6.865 12.598 6.89 12.588 6.91C12.558 6.95 12.553 6.98 12.573 7C12.593 7.02 12.608 7.045 12.618 7.075C12.628 7.085 12.638 7.105 12.648 7.135C12.648 7.255 12.648 7.37 12.648 7.48C12.648 7.59 12.628 7.7 12.588 7.81C12.598 7.85 12.603 7.89 12.603 7.93C12.613 7.96 12.623 8 12.633 8.05C12.623 8.11 12.608 8.18 12.588 8.26C12.578 8.33 12.578 8.405 12.588 8.485C12.598 8.535 12.598 8.59 12.588 8.65C12.588 8.71 12.578 8.77 12.558 8.83C12.548 8.86 12.548 8.89 12.558 8.92C12.588 9.04 12.588 9.145 12.558 9.235C12.528 9.325 12.473 9.42 12.393 9.52C12.383 9.53 12.363 9.54 12.333 9.55C12.303 9.56 12.278 9.57 12.258 9.58C12.238 9.6 12.218 9.615 12.198 9.625C12.178 9.625 12.158 9.63 12.138 9.64C12.098 9.64 12.058 9.64 12.018 9.64C11.978 9.63 11.943 9.625 11.913 9.625C11.873 9.635 11.838 9.65 11.808 9.67C11.788 9.68 11.753 9.7 11.703 9.73C11.573 9.71 11.438 9.685 11.298 9.655C11.168 9.625 11.038 9.635 10.908 9.685C10.848 9.675 10.798 9.65 10.758 9.61C10.718 9.57 10.683 9.525 10.653 9.475C10.613 9.415 10.588 9.35 10.578 9.28C10.568 9.2 10.553 9.125 10.533 9.055C10.553 8.885 10.563 8.77 10.563 8.71C10.563 8.64 10.548 8.49 10.518 8.26C10.548 8.1 10.568 7.94 10.578 7.78C10.588 7.61 10.593 7.445 10.593 7.285C10.593 7.075 10.593 6.86 10.593 6.64C10.593 6.42 10.598 6.2 10.608 5.98C10.608 5.92 10.613 5.86 10.623 5.8C10.633 5.74 10.643 5.685 10.653 5.635C10.673 5.525 10.693 5.42 10.713 5.32C10.733 5.22 10.758 5.125 10.788 5.035C10.808 4.965 10.843 4.905 10.893 4.855C10.943 4.805 10.978 4.745 10.998 4.675C11.018 4.535 11.058 4.415 11.118 4.315C11.188 4.205 11.258 4.1 11.328 4C11.378 3.86 11.468 3.805 11.598 3.835C11.618 3.835 11.628 3.83 11.628 3.82C11.658 3.79 11.663 3.75 11.643 3.7C11.633 3.65 11.648 3.605 11.688 3.565C11.778 3.485 11.883 3.425 12.003 3.385C12.123 3.335 12.233 3.29 12.333 3.25C12.423 3.25 12.483 3.26 12.513 3.28C12.643 3.32 12.768 3.32 12.888 3.28C12.978 3.26 13.058 3.285 13.128 3.355C13.228 3.375 13.323 3.395 13.413 3.415C13.503 3.435 13.598 3.455 13.698 3.475C13.738 3.465 13.778 3.46 13.818 3.46C13.858 3.45 13.898 3.44 13.938 3.43C14.038 3.47 14.118 3.53 14.178 3.61C14.248 3.68 14.318 3.755 14.388 3.835C14.438 3.875 14.493 3.89 14.553 3.88C14.613 3.87 14.678 3.875 14.748 3.895C14.798 3.945 14.848 4 14.898 4.06C14.958 4.12 15.018 4.175 15.078 4.225C15.088 4.265 15.098 4.305 15.108 4.345C15.128 4.375 15.143 4.41 15.153 4.45C15.203 4.46 15.238 4.485 15.258 4.525C15.278 4.565 15.293 4.6 15.303 4.63C15.403 4.67 15.503 4.7 15.603 4.72C15.653 4.77 15.698 4.83 15.738 4.9C15.778 4.96 15.843 4.99 15.933 4.99C15.953 5.09 15.973 5.18 15.993 5.26C16.013 5.34 16.033 5.42 16.053 5.5C16.073 5.65 16.108 5.78 16.158 5.89C16.198 5.97 16.233 6.055 16.263 6.145C16.293 6.225 16.308 6.315 16.308 6.415C16.318 6.475 16.338 6.53 16.368 6.58C16.408 6.63 16.438 6.685 16.458 6.745C16.448 6.785 16.438 6.825 16.428 6.865C16.428 6.905 16.428 6.95 16.428 7C16.428 7.04 16.428 7.075 16.428 7.105C16.438 7.135 16.448 7.175 16.458 7.225C16.458 7.245 16.458 7.275 16.458 7.315C16.468 7.345 16.468 7.37 16.458 7.39C16.438 7.46 16.433 7.53 16.443 7.6C16.453 7.67 16.458 7.735 16.458 7.795ZM23.799 3.82C23.749 3.9 23.704 3.985 23.664 4.075C23.624 4.155 23.604 4.25 23.604 4.36C23.524 4.41 23.449 4.475 23.379 4.555C23.319 4.635 23.264 4.72 23.214 4.81C23.174 4.88 23.134 4.95 23.094 5.02C23.064 5.08 23.024 5.145 22.974 5.215C22.964 5.235 22.944 5.235 22.914 5.215C22.894 5.195 22.879 5.17 22.869 5.14C22.869 5.1 22.849 5.08 22.809 5.08C22.779 5.08 22.754 5.095 22.734 5.125C22.714 5.135 22.694 5.155 22.674 5.185C22.654 5.205 22.634 5.225 22.614 5.245C22.604 5.255 22.584 5.265 22.554 5.275C22.534 5.275 22.514 5.28 22.494 5.29C22.454 5.25 22.409 5.215 22.359 5.185C22.309 5.145 22.259 5.105 22.209 5.065C22.149 5.045 22.089 5.025 22.029 5.005C21.969 4.985 21.914 4.97 21.864 4.96C21.824 4.94 21.809 4.93 21.819 4.93C21.789 4.91 21.764 4.885 21.744 4.855C21.724 4.825 21.689 4.82 21.639 4.84C21.609 4.87 21.594 4.9 21.594 4.93C21.604 4.95 21.604 4.98 21.594 5.02C21.524 5.02 21.474 5.025 21.444 5.035C21.424 5.045 21.404 5.055 21.384 5.065C21.364 5.075 21.339 5.085 21.309 5.095C21.279 5.085 21.244 5.08 21.204 5.08C21.164 5.07 21.119 5.06 21.069 5.05C20.979 5.06 20.889 5.09 20.799 5.14C20.719 5.18 20.639 5.22 20.559 5.26C20.499 5.27 20.454 5.31 20.424 5.38C20.384 5.48 20.324 5.575 20.244 5.665C20.164 5.755 20.094 5.85 20.034 5.95C20.024 5.97 20.009 6 19.989 6.04C19.969 6.07 19.949 6.1 19.929 6.13C19.919 6.16 19.909 6.19 19.899 6.22C19.899 6.24 19.899 6.265 19.899 6.295C19.919 6.355 19.939 6.395 19.959 6.415C19.939 6.445 19.919 6.475 19.899 6.505C19.879 6.535 19.859 6.565 19.839 6.595C19.849 6.625 19.854 6.655 19.854 6.685C19.854 6.715 19.859 6.74 19.869 6.76C19.899 6.86 19.939 6.94 19.989 7C20.019 7.04 20.044 7.085 20.064 7.135C20.084 7.175 20.109 7.225 20.139 7.285C20.179 7.315 20.219 7.345 20.259 7.375C20.299 7.405 20.339 7.44 20.379 7.48C20.419 7.52 20.454 7.56 20.484 7.6C20.524 7.63 20.559 7.665 20.589 7.705C20.629 7.695 20.664 7.69 20.694 7.69C20.734 7.69 20.779 7.685 20.829 7.675C20.849 7.685 20.869 7.695 20.889 7.705C20.919 7.705 20.944 7.71 20.964 7.72C21.034 7.73 21.099 7.74 21.159 7.75C21.229 7.76 21.294 7.75 21.354 7.72C21.434 7.7 21.519 7.68 21.609 7.66C21.699 7.63 21.779 7.61 21.849 7.6C21.919 7.61 21.984 7.625 22.044 7.645C22.114 7.665 22.184 7.685 22.254 7.705C22.324 7.655 22.394 7.615 22.464 7.585C22.544 7.545 22.629 7.52 22.719 7.51C22.809 7.54 22.874 7.595 22.914 7.675C22.954 7.725 22.984 7.78 23.004 7.84C23.034 7.9 23.064 7.96 23.094 8.02C23.114 8.09 23.139 8.155 23.169 8.215C23.209 8.275 23.249 8.335 23.289 8.395C23.319 8.435 23.349 8.48 23.379 8.53C23.419 8.58 23.449 8.625 23.469 8.665C23.499 8.825 23.489 8.965 23.439 9.085C23.369 9.135 23.299 9.19 23.229 9.25C23.159 9.31 23.089 9.37 23.019 9.43C22.999 9.47 22.979 9.51 22.959 9.55C22.939 9.58 22.919 9.615 22.899 9.655C22.859 9.665 22.819 9.68 22.779 9.7C22.739 9.71 22.699 9.73 22.659 9.76C22.629 9.77 22.594 9.78 22.554 9.79C22.524 9.79 22.489 9.8 22.449 9.82C22.389 9.86 22.314 9.905 22.224 9.955C22.154 9.915 22.074 9.89 21.984 9.88C21.914 9.93 21.834 9.955 21.744 9.955C21.654 9.955 21.569 9.965 21.489 9.985C21.399 9.995 21.314 9.985 21.234 9.955C21.164 9.915 21.089 9.885 21.009 9.865L20.799 9.97L20.484 9.865C20.444 9.875 20.399 9.88 20.349 9.88C20.309 9.88 20.264 9.885 20.214 9.895C20.174 9.875 20.129 9.855 20.079 9.835C20.029 9.815 19.979 9.8 19.929 9.79C19.899 9.79 19.864 9.79 19.824 9.79C19.794 9.79 19.759 9.795 19.719 9.805C19.659 9.765 19.614 9.73 19.584 9.7C19.544 9.67 19.504 9.64 19.464 9.61C19.424 9.57 19.379 9.545 19.329 9.535C19.159 9.445 19.014 9.33 18.894 9.19C18.824 9.11 18.749 9.035 18.669 8.965C18.599 8.885 18.514 8.81 18.414 8.74C18.364 8.69 18.309 8.62 18.249 8.53C18.229 8.4 18.184 8.28 18.114 8.17C18.044 8.05 17.974 7.935 17.904 7.825C17.914 7.755 17.904 7.695 17.874 7.645C17.844 7.595 17.819 7.54 17.799 7.48C17.819 7.4 17.824 7.315 17.814 7.225C17.814 7.125 17.819 7.025 17.829 6.925C17.839 6.875 17.809 6.815 17.739 6.745C17.739 6.705 17.749 6.68 17.769 6.67C17.799 6.65 17.819 6.625 17.829 6.595C17.879 6.565 17.904 6.515 17.904 6.445C17.884 6.425 17.864 6.4 17.844 6.37C17.834 6.33 17.819 6.3 17.799 6.28C17.819 6.24 17.839 6.195 17.859 6.145C17.879 6.095 17.889 6.05 17.889 6.01V5.74C17.929 5.68 17.969 5.635 18.009 5.605C18.009 5.525 17.979 5.48 17.919 5.47C17.869 5.46 17.829 5.435 17.799 5.395C17.869 5.165 17.914 5.025 17.934 4.975C17.964 4.915 18.024 4.82 18.114 4.69C18.124 4.58 18.129 4.47 18.129 4.36C18.129 4.25 18.169 4.135 18.249 4.015C18.269 4.005 18.294 3.985 18.324 3.955C18.354 3.925 18.384 3.895 18.414 3.865C18.434 3.815 18.449 3.77 18.459 3.73C18.479 3.68 18.494 3.635 18.504 3.595C18.564 3.545 18.624 3.5 18.684 3.46C18.744 3.41 18.809 3.36 18.879 3.31C18.899 3.29 18.919 3.275 18.939 3.265C18.969 3.255 19.004 3.245 19.044 3.235C19.094 3.225 19.139 3.205 19.179 3.175C19.219 3.145 19.259 3.115 19.299 3.085C19.319 3.095 19.344 3.1 19.374 3.1C19.404 3.1 19.434 3.105 19.464 3.115C19.544 3.095 19.614 3.06 19.674 3.01C19.734 2.96 19.799 2.905 19.869 2.845C19.989 2.815 20.109 2.79 20.229 2.77C20.359 2.74 20.479 2.7 20.589 2.65C20.659 2.65 20.724 2.665 20.784 2.695C20.854 2.725 20.924 2.72 20.994 2.68C21.014 2.66 21.039 2.66 21.069 2.68C21.169 2.68 21.269 2.685 21.369 2.695C21.479 2.705 21.584 2.715 21.684 2.725C21.834 2.745 21.954 2.71 22.044 2.62C22.054 2.61 22.064 2.6 22.074 2.59C22.084 2.58 22.094 2.57 22.104 2.56C22.124 2.57 22.144 2.58 22.164 2.59C22.194 2.6 22.214 2.61 22.224 2.62C22.474 2.84 22.759 2.965 23.079 2.995C23.129 2.995 23.179 3.005 23.229 3.025C23.279 3.045 23.324 3.065 23.364 3.085L23.679 3.4C23.779 3.48 23.814 3.58 23.784 3.7C23.784 3.72 23.784 3.74 23.784 3.76C23.794 3.78 23.799 3.8 23.799 3.82ZM31.6789 5.905C31.7089 6.025 31.7039 6.135 31.6639 6.235C31.6439 6.285 31.6289 6.335 31.6189 6.385C31.6089 6.435 31.6089 6.485 31.6189 6.535C31.6289 6.545 31.6289 6.56 31.6189 6.58C31.6189 6.59 31.6189 6.605 31.6189 6.625C31.5789 6.705 31.5589 6.79 31.5589 6.88C31.5689 6.97 31.5789 7.055 31.5889 7.135L31.4389 7.345V7.54C31.4189 7.56 31.3939 7.585 31.3639 7.615C31.3339 7.635 31.2939 7.665 31.2439 7.705C31.2239 7.775 31.1939 7.85 31.1539 7.93C31.1239 8.01 31.0989 8.085 31.0789 8.155V8.305C31.0389 8.345 30.9889 8.38 30.9289 8.41C30.8689 8.44 30.8189 8.485 30.7789 8.545C30.7389 8.575 30.6989 8.6 30.6589 8.62C30.6189 8.64 30.5739 8.665 30.5239 8.695C30.5039 8.705 30.4789 8.71 30.4489 8.71C30.4289 8.7 30.4089 8.7 30.3889 8.71C30.2389 8.71 30.1639 8.78 30.1639 8.92C30.0539 8.99 29.9439 9.065 29.8339 9.145C29.7339 9.225 29.6289 9.305 29.5189 9.385C29.3489 9.515 29.1289 9.605 28.8589 9.655C28.7689 9.665 28.6839 9.69 28.6039 9.73C28.5239 9.76 28.4389 9.785 28.3489 9.805C28.3289 9.805 28.3039 9.8 28.2739 9.79C28.2439 9.78 28.2189 9.78 28.1989 9.79C28.0789 9.8 27.9539 9.79 27.8239 9.76C27.7839 9.75 27.7439 9.75 27.7039 9.76C27.6639 9.77 27.6289 9.78 27.5989 9.79C27.5289 9.78 27.4589 9.77 27.3889 9.76C27.3189 9.75 27.2439 9.74 27.1639 9.73C27.0739 9.69 26.9889 9.645 26.9089 9.595C26.8389 9.545 26.7639 9.5 26.6839 9.46C26.6239 9.44 26.5689 9.405 26.5189 9.355C26.4689 9.305 26.4289 9.255 26.3989 9.205C26.3889 9.185 26.3739 9.17 26.3539 9.16C26.3439 9.14 26.3289 9.12 26.3089 9.1C26.2789 9.08 26.2489 9.065 26.2189 9.055C26.1889 9.035 26.1589 9.01 26.1289 8.98C25.9689 8.87 25.8239 8.75 25.6939 8.62C25.5739 8.49 25.4839 8.33 25.4239 8.14C25.3739 8.01 25.3139 7.895 25.2439 7.795C25.2239 7.755 25.1989 7.72 25.1689 7.69C25.1489 7.65 25.1289 7.61 25.1089 7.57C25.1189 7.55 25.1339 7.51 25.1539 7.45C25.1339 7.42 25.1139 7.39 25.0939 7.36C25.0739 7.33 25.0639 7.295 25.0639 7.255C25.0639 7.225 25.0589 7.195 25.0489 7.165C25.0489 7.125 25.0539 7.085 25.0639 7.045C25.0839 6.975 25.0889 6.905 25.0789 6.835C25.0689 6.765 25.0689 6.695 25.0789 6.625C25.0889 6.565 25.0839 6.5 25.0639 6.43C25.0539 6.36 25.0639 6.295 25.0939 6.235C25.1139 6.165 25.1289 6.1 25.1389 6.04C25.1489 5.98 25.1639 5.92 25.1839 5.86C25.2039 5.8 25.2239 5.745 25.2439 5.695C25.2639 5.635 25.2839 5.58 25.3039 5.53C25.3239 5.47 25.3439 5.41 25.3639 5.35C25.3839 5.29 25.4139 5.225 25.4539 5.155C25.4539 5.135 25.4539 5.11 25.4539 5.08C25.4539 5.05 25.4589 5.03 25.4689 5.02C25.5089 4.94 25.5389 4.865 25.5589 4.795C25.5789 4.725 25.5839 4.655 25.5739 4.585C25.6139 4.535 25.6489 4.495 25.6789 4.465C25.7089 4.435 25.7339 4.4 25.7539 4.36C25.7739 4.31 25.7939 4.265 25.8139 4.225C25.8439 4.175 25.8739 4.13 25.9039 4.09C25.9339 4.01 25.9789 3.94 26.0389 3.88C26.0789 3.83 26.1139 3.79 26.1439 3.76C26.1739 3.72 26.1989 3.69 26.2189 3.67C26.2489 3.61 26.2589 3.56 26.2489 3.52C26.2389 3.47 26.2339 3.43 26.2339 3.4C26.2539 3.35 26.2689 3.32 26.2789 3.31C26.3089 3.3 26.3339 3.285 26.3539 3.265C26.3839 3.245 26.4139 3.23 26.4439 3.22C26.5239 3.17 26.6089 3.12 26.6989 3.07C26.7889 3.02 26.8789 2.98 26.9689 2.95C27.0589 2.89 27.1489 2.85 27.2389 2.83C27.3389 2.8 27.4389 2.77 27.5389 2.74C27.6189 2.74 27.6989 2.74 27.7789 2.74C27.8589 2.74 27.9339 2.745 28.0039 2.755H28.1389C28.2489 2.795 28.3589 2.815 28.4689 2.815C28.5889 2.815 28.7039 2.81 28.8139 2.8C28.8639 2.8 28.9139 2.8 28.9639 2.8C29.0239 2.79 29.0789 2.785 29.1289 2.785C29.1789 2.825 29.2189 2.86 29.2489 2.89C29.2889 2.91 29.3289 2.94 29.3689 2.98C29.3989 2.99 29.4289 3.005 29.4589 3.025C29.4889 3.045 29.5239 3.06 29.5639 3.07C29.7039 3.08 29.8289 3.125 29.9389 3.205C30.0589 3.285 30.1689 3.365 30.2689 3.445C30.2689 3.465 30.2689 3.495 30.2689 3.535C30.2689 3.565 30.2739 3.595 30.2839 3.625C30.2839 3.675 30.3139 3.72 30.3739 3.76C30.4039 3.77 30.4389 3.775 30.4789 3.775C30.5189 3.775 30.5589 3.785 30.5989 3.805C30.6189 3.845 30.6439 3.89 30.6739 3.94C30.7139 3.99 30.7489 4.04 30.7789 4.09C30.8189 4.13 30.8589 4.17 30.8989 4.21C30.9389 4.25 30.9689 4.295 30.9889 4.345C31.0089 4.365 31.0239 4.39 31.0339 4.42C31.0539 4.45 31.0689 4.475 31.0789 4.495C31.1089 4.525 31.1389 4.555 31.1689 4.585C31.1989 4.615 31.2189 4.655 31.2289 4.705C31.2489 4.775 31.2789 4.845 31.3189 4.915C31.3589 4.985 31.3889 5.06 31.4089 5.14C31.4189 5.17 31.4339 5.2 31.4539 5.23C31.4839 5.26 31.5139 5.295 31.5439 5.335C31.5639 5.425 31.5789 5.52 31.5889 5.62C31.6089 5.72 31.6389 5.815 31.6789 5.905ZM29.5789 6.445C29.5889 6.375 29.5789 6.315 29.5489 6.265C29.5189 6.205 29.5089 6.145 29.5189 6.085C29.5189 6.065 29.5039 6.04 29.4739 6.01C29.4639 5.99 29.4589 5.95 29.4589 5.89C29.4689 5.87 29.4739 5.845 29.4739 5.815C29.4739 5.775 29.4739 5.75 29.4739 5.74C29.4039 5.63 29.3389 5.53 29.2789 5.44C29.2189 5.34 29.1539 5.245 29.0839 5.155C29.0839 5.135 29.0739 5.125 29.0539 5.125C29.0339 5.115 29.0139 5.095 28.9939 5.065C28.8239 5.065 28.6389 5.02 28.4389 4.93C28.3189 4.87 28.1739 4.865 28.0039 4.915C27.9939 4.915 27.9789 4.92 27.9589 4.93C27.9489 4.94 27.9339 4.955 27.9139 4.975H27.8389C27.6789 4.945 27.5739 5.005 27.5239 5.155C27.5039 5.195 27.4789 5.24 27.4489 5.29C27.4289 5.33 27.4139 5.375 27.4039 5.425C27.3939 5.465 27.3739 5.51 27.3439 5.56C27.3139 5.6 27.2889 5.64 27.2689 5.68C27.2289 5.73 27.1939 5.785 27.1639 5.845C27.1339 5.905 27.0989 5.96 27.0589 6.01C27.0489 6.11 27.0239 6.21 26.9839 6.31C26.9539 6.41 26.9339 6.505 26.9239 6.595C26.9539 6.645 26.9839 6.7 27.0139 6.76C27.0439 6.81 27.0689 6.86 27.0889 6.91C27.1489 7.04 27.1739 7.165 27.1639 7.285C27.1639 7.305 27.1689 7.325 27.1789 7.345C27.1889 7.365 27.1989 7.385 27.2089 7.405C27.2989 7.425 27.3839 7.445 27.4639 7.465C27.5539 7.485 27.6389 7.51 27.7189 7.54C27.7889 7.56 27.8589 7.575 27.9289 7.585C27.9989 7.595 28.0689 7.585 28.1389 7.555H28.1839C28.2639 7.575 28.3389 7.58 28.4089 7.57C28.4889 7.55 28.5739 7.53 28.6639 7.51C28.7339 7.46 28.8039 7.405 28.8739 7.345C28.9539 7.285 29.0339 7.235 29.1139 7.195C29.1839 7.055 29.2689 6.93 29.3689 6.82C29.4689 6.71 29.5389 6.585 29.5789 6.445ZM43.0388 7.195C43.0288 7.275 43.0188 7.365 43.0088 7.465C43.0088 7.555 43.0038 7.645 42.9938 7.735C42.9838 7.815 42.9788 7.89 42.9788 7.96C42.9788 8.03 42.9638 8.105 42.9338 8.185C42.9138 8.235 42.9038 8.29 42.9038 8.35C42.9038 8.4 42.9038 8.455 42.9038 8.515C42.9038 8.565 42.9038 8.62 42.9038 8.68C42.9038 8.73 42.8988 8.78 42.8888 8.83C42.8788 8.91 42.8638 8.995 42.8438 9.085C42.8338 9.165 42.8188 9.245 42.7988 9.325C42.7888 9.365 42.7738 9.41 42.7538 9.46C42.7338 9.5 42.7138 9.535 42.6938 9.565L42.5888 9.67C42.5288 9.73 42.4588 9.75 42.3788 9.73C42.3288 9.71 42.2788 9.695 42.2288 9.685C42.1888 9.675 42.1438 9.69 42.0938 9.73C42.0238 9.68 41.9388 9.64 41.8388 9.61H41.6738C41.6538 9.61 41.6338 9.605 41.6138 9.595C41.5938 9.585 41.5738 9.58 41.5538 9.58C41.5238 9.59 41.4938 9.6 41.4638 9.61C41.4338 9.62 41.4088 9.63 41.3888 9.64C41.3288 9.64 41.2888 9.635 41.2688 9.625C41.1588 9.535 41.1038 9.425 41.1038 9.295C41.0938 9.185 41.0738 9.08 41.0438 8.98C41.0138 8.87 40.9838 8.76 40.9538 8.65C40.9738 8.57 40.9788 8.485 40.9688 8.395C40.9688 8.305 40.9738 8.215 40.9838 8.125C40.9938 8.075 40.9938 8.025 40.9838 7.975C40.9838 7.915 41.0038 7.86 41.0438 7.81C41.0438 7.69 41.0588 7.555 41.0888 7.405C41.0988 7.365 41.0988 7.32 41.0888 7.27C41.0788 7.17 41.0588 7.075 41.0288 6.985C41.0088 6.885 40.9738 6.79 40.9238 6.7C40.9038 6.66 40.8788 6.625 40.8488 6.595C40.8288 6.555 40.7937 6.53 40.7438 6.52C40.7038 6.49 40.6588 6.465 40.6087 6.445C40.5588 6.425 40.5138 6.405 40.4738 6.385C40.4038 6.415 40.3438 6.435 40.2938 6.445C40.2738 6.435 40.2488 6.425 40.2188 6.415C40.1888 6.405 40.1638 6.395 40.1438 6.385C40.1338 6.395 40.1188 6.4 40.0988 6.4C40.0888 6.4 40.0788 6.405 40.0688 6.415C40.0088 6.505 39.9338 6.58 39.8438 6.64C39.8038 6.65 39.7638 6.675 39.7238 6.715C39.6838 6.745 39.6438 6.775 39.6038 6.805C39.5738 6.835 39.5338 6.855 39.4838 6.865C39.4438 6.875 39.3988 6.89 39.3488 6.91C39.3388 6.94 39.3288 6.97 39.3188 7C39.3188 7.03 39.3088 7.06 39.2888 7.09C39.2788 7.11 39.2638 7.135 39.2438 7.165C39.2338 7.195 39.2238 7.22 39.2138 7.24C39.1638 7.38 39.1338 7.51 39.1238 7.63C39.1138 7.66 39.1088 7.69 39.1088 7.72C39.1288 7.78 39.1238 7.83 39.0938 7.87C39.0738 7.9 39.0538 7.935 39.0338 7.975C39.0238 8.145 39.0138 8.315 39.0038 8.485C39.0038 8.655 38.9988 8.825 38.9888 8.995C38.9888 9.055 38.9838 9.105 38.9738 9.145C38.9538 9.205 38.9338 9.27 38.9138 9.34C38.9038 9.4 38.8888 9.465 38.8688 9.535L38.5538 9.475C38.5038 9.475 38.4488 9.475 38.3888 9.475C38.3288 9.475 38.2688 9.47 38.2088 9.46H37.9088C37.8388 9.46 37.7688 9.46 37.6988 9.46C37.6288 9.46 37.5588 9.455 37.4888 9.445C37.3788 9.445 37.2988 9.405 37.2488 9.325C37.2088 9.205 37.1738 9.085 37.1438 8.965C37.1138 8.835 37.0988 8.705 37.0988 8.575C37.0988 8.535 37.0988 8.495 37.0988 8.455C37.1088 8.415 37.1238 8.38 37.1438 8.35C37.1638 8.27 37.1738 8.2 37.1738 8.14C37.1838 8.08 37.1888 8.015 37.1888 7.945C37.1788 7.805 37.1788 7.66 37.1888 7.51C37.2088 7.36 37.2138 7.215 37.2038 7.075C37.1938 7.035 37.1888 7 37.1888 6.97C37.1888 6.94 37.1888 6.91 37.1888 6.88C37.1788 6.83 37.1638 6.785 37.1438 6.745C37.1238 6.705 37.1188 6.665 37.1288 6.625C37.1288 6.575 37.1288 6.525 37.1288 6.475C37.1388 6.425 37.1438 6.375 37.1438 6.325C37.1138 6.285 37.0838 6.25 37.0538 6.22C37.0338 6.19 37.0038 6.155 36.9638 6.115C36.9338 6.115 36.8988 6.115 36.8588 6.115C36.8288 6.105 36.7938 6.095 36.7537 6.085C36.7138 6.065 36.6638 6.04 36.6038 6.01C36.5538 5.98 36.5038 5.955 36.4538 5.935C36.4138 5.915 36.3688 5.895 36.3188 5.875C36.2788 5.855 36.2438 5.84 36.2138 5.83C36.1338 5.86 36.0488 5.9 35.9588 5.95C35.9288 5.96 35.8938 5.97 35.8538 5.98C35.8238 5.98 35.7888 5.985 35.7488 5.995C35.6988 6.045 35.6438 6.095 35.5838 6.145C35.5338 6.195 35.4788 6.25 35.4188 6.31C35.3988 6.35 35.3788 6.395 35.3588 6.445C35.3388 6.485 35.3188 6.53 35.2988 6.58C35.2388 6.72 35.1888 6.865 35.1488 7.015C35.1188 7.155 35.1038 7.31 35.1038 7.48V7.975C35.1038 8.145 35.0938 8.315 35.0738 8.485C35.0538 8.645 35.0288 8.81 34.9988 8.98C34.9888 9.05 34.9688 9.115 34.9388 9.175C34.9188 9.235 34.8988 9.305 34.8788 9.385C34.8288 9.455 34.7738 9.52 34.7138 9.58C34.6538 9.63 34.5838 9.665 34.5038 9.685C34.3638 9.675 34.2688 9.675 34.2188 9.685C34.1788 9.685 34.0888 9.71 33.9488 9.76C33.9088 9.77 33.8688 9.78 33.8288 9.79C33.7988 9.8 33.7588 9.81 33.7088 9.82C33.6588 9.83 33.6138 9.83 33.5738 9.82C33.5338 9.81 33.4638 9.79 33.3638 9.76C33.3238 9.7 33.2738 9.635 33.2138 9.565C33.1638 9.495 33.1138 9.425 33.0638 9.355C33.0738 9.325 33.0788 9.295 33.0788 9.265C33.0888 9.235 33.0988 9.21 33.1088 9.19C33.1288 9.06 33.1288 8.935 33.1088 8.815C33.0788 8.695 33.0538 8.575 33.0338 8.455C33.0138 8.335 32.9888 8.225 32.9588 8.125C32.9588 8.045 32.9738 7.98 33.0038 7.93C33.0438 7.88 33.0688 7.815 33.0788 7.735C33.0988 7.665 33.1088 7.585 33.1088 7.495C33.1188 7.395 33.1288 7.3 33.1388 7.21C33.1388 7.11 33.1388 7.015 33.1388 6.925C33.1388 6.825 33.1488 6.735 33.1688 6.655C33.1688 6.585 33.1638 6.54 33.1538 6.52C33.1238 6.32 33.1338 6.125 33.1838 5.935C33.2038 5.885 33.2138 5.845 33.2138 5.815C33.2238 5.775 33.2338 5.745 33.2438 5.725C33.2738 5.665 33.3138 5.625 33.3638 5.605C33.4138 5.585 33.4588 5.555 33.4988 5.515C33.5488 5.425 33.5588 5.335 33.5288 5.245C33.5088 5.155 33.4938 5.06 33.4838 4.96C33.5038 4.91 33.5238 4.86 33.5438 4.81C33.5638 4.75 33.5788 4.69 33.5888 4.63C33.6688 4.55 33.7388 4.465 33.7988 4.375C33.8688 4.285 33.9338 4.2 33.9938 4.12C34.0138 4.1 34.0238 4.065 34.0238 4.015C34.0238 3.965 34.0438 3.93 34.0838 3.91C34.1038 3.9 34.1238 3.895 34.1438 3.895C34.1738 3.885 34.1938 3.875 34.2038 3.865C34.3738 3.815 34.5438 3.765 34.7138 3.715C34.8838 3.665 35.0488 3.605 35.2088 3.535C35.3888 3.455 35.5688 3.415 35.7488 3.415C35.7688 3.415 35.7888 3.415 35.8088 3.415C35.8288 3.405 35.8538 3.4 35.8838 3.4C36.0138 3.35 36.1438 3.32 36.2738 3.31C36.4138 3.3 36.5538 3.295 36.6938 3.295H36.8738C36.9238 3.305 36.9738 3.32 37.0238 3.34C37.0838 3.35 37.1388 3.375 37.1888 3.415C37.2688 3.455 37.3438 3.495 37.4138 3.535C37.4938 3.565 37.5788 3.585 37.6688 3.595C37.7088 3.605 37.7388 3.625 37.7588 3.655C37.7888 3.675 37.8188 3.695 37.8488 3.715C37.8988 3.755 37.9388 3.8 37.9688 3.85C38.0088 3.9 38.0488 3.95 38.0888 4C38.1088 4.04 38.1238 4.085 38.1338 4.135C38.1538 4.175 38.1688 4.22 38.1788 4.27C38.2188 4.31 38.2588 4.35 38.2988 4.39C38.3388 4.43 38.3938 4.445 38.4638 4.435C38.5138 4.385 38.5638 4.34 38.6138 4.3C38.6638 4.25 38.7088 4.2 38.7488 4.15C38.7788 4.16 38.8238 4.165 38.8838 4.165L39.2588 3.91C39.2788 3.86 39.2988 3.82 39.3188 3.79C39.3388 3.76 39.3538 3.725 39.3638 3.685C39.4138 3.675 39.4638 3.67 39.5138 3.67C39.5638 3.66 39.6138 3.65 39.6638 3.64C39.7338 3.6 39.7988 3.57 39.8588 3.55C39.9188 3.52 39.9788 3.485 40.0388 3.445C40.0888 3.445 40.1388 3.45 40.1888 3.46C40.2488 3.46 40.3038 3.46 40.3538 3.46C40.3938 3.47 40.4338 3.475 40.4738 3.475C40.5238 3.465 40.5688 3.47 40.6087 3.49C40.7388 3.53 40.8688 3.555 40.9988 3.565C41.1288 3.565 41.2588 3.575 41.3888 3.595C41.4088 3.615 41.4488 3.625 41.5088 3.625L41.8388 3.94C41.8388 3.95 41.8438 3.96 41.8538 3.97C41.8638 3.98 41.8688 3.99 41.8688 4C41.9588 4.26 42.1088 4.445 42.3188 4.555C42.3288 4.575 42.3338 4.605 42.3338 4.645C42.3438 4.675 42.3538 4.7 42.3638 4.72C42.4238 4.78 42.4888 4.81 42.5588 4.81C42.6788 4.83 42.7338 4.885 42.7238 4.975C42.7238 5.095 42.7388 5.215 42.7688 5.335C42.8088 5.455 42.8488 5.57 42.8888 5.68L42.9938 6.055C42.9938 6.125 42.9938 6.205 42.9938 6.295C43.0038 6.385 43.0088 6.47 43.0088 6.55C43.0088 6.59 43.0088 6.63 43.0088 6.67C43.0188 6.7 43.0288 6.735 43.0388 6.775C43.0688 6.905 43.0688 7.045 43.0388 7.195ZM50.9113 6.655C50.9013 6.665 50.8963 6.68 50.8963 6.7C50.9063 6.72 50.9063 6.735 50.8963 6.745C50.8663 6.815 50.8363 6.885 50.8063 6.955C50.7863 7.015 50.7613 7.08 50.7313 7.15C50.6813 7.29 50.6113 7.41 50.5213 7.51C50.4513 7.61 50.3813 7.71 50.3113 7.81C50.2513 7.9 50.1913 7.99 50.1313 8.08C50.0313 8.16 49.9263 8.235 49.8163 8.305C49.7163 8.365 49.6063 8.42 49.4863 8.47C49.4263 8.49 49.3813 8.515 49.3513 8.545C49.3013 8.605 49.2413 8.645 49.1713 8.665C49.1213 8.685 49.0713 8.71 49.0213 8.74C48.9713 8.76 48.9213 8.795 48.8713 8.845C48.7713 8.885 48.6713 8.93 48.5713 8.98C48.4813 9.03 48.3813 9.06 48.2713 9.07C48.2413 9.07 48.2113 9.075 48.1813 9.085C48.1613 9.085 48.1313 9.09 48.0913 9.1C48.0513 9.08 48.0063 9.065 47.9563 9.055C47.9063 9.035 47.8563 9.01 47.8063 8.98C47.7163 8.99 47.6263 9.005 47.5363 9.025C47.4463 9.035 47.3513 9.05 47.2513 9.07C47.2113 9.05 47.1713 9.03 47.1313 9.01C47.1013 8.99 47.0663 8.975 47.0263 8.965C46.9863 8.945 46.9513 8.93 46.9213 8.92C46.8913 8.9 46.8513 8.9 46.8013 8.92C46.7613 8.96 46.7263 9.005 46.6963 9.055C46.6663 9.105 46.6363 9.16 46.6063 9.22C46.5963 9.26 46.5913 9.3 46.5913 9.34C46.5913 9.38 46.5913 9.415 46.5913 9.445L46.6513 9.7C46.6513 9.77 46.6413 9.825 46.6213 9.865C46.5813 9.975 46.5763 10.09 46.6063 10.21C46.6463 10.34 46.6613 10.475 46.6513 10.615C46.6513 10.755 46.6513 10.895 46.6513 11.035C46.6113 11.135 46.5913 11.24 46.5913 11.35C46.5913 11.46 46.5813 11.57 46.5613 11.68C46.5613 11.71 46.5563 11.735 46.5463 11.755C46.4663 11.865 46.3663 11.92 46.2463 11.92C46.1363 11.92 46.0213 11.92 45.9013 11.92C45.7913 11.92 45.6813 11.895 45.5713 11.845C45.5413 11.835 45.5063 11.83 45.4663 11.83C45.4263 11.83 45.3863 11.83 45.3463 11.83C45.2563 11.84 45.1663 11.84 45.0763 11.83C44.9863 11.83 44.8963 11.81 44.8063 11.77C44.7663 11.75 44.7163 11.74 44.6563 11.74C44.6063 11.74 44.5563 11.74 44.5063 11.74C44.4963 11.72 44.4863 11.705 44.4763 11.695C44.4663 11.695 44.4613 11.69 44.4613 11.68C44.4313 11.6 44.4063 11.52 44.3863 11.44C44.3663 11.36 44.3513 11.285 44.3413 11.215C44.3413 11.165 44.3313 11.115 44.3113 11.065C44.2913 11.015 44.2763 10.965 44.2663 10.915C44.2663 10.835 44.2813 10.755 44.3113 10.675C44.3413 10.605 44.3613 10.535 44.3713 10.465C44.3613 10.395 44.3513 10.325 44.3413 10.255C44.3413 10.195 44.3463 10.135 44.3563 10.075C44.3563 10.015 44.3463 9.955 44.3263 9.895C44.3163 9.835 44.3013 9.77 44.2813 9.7C44.3013 9.67 44.3213 9.63 44.3413 9.58C44.3713 9.53 44.3913 9.485 44.4013 9.445C44.4213 9.375 44.4163 9.31 44.3863 9.25C44.3563 9.19 44.3463 9.11 44.3563 9.01C44.3763 8.97 44.3913 8.93 44.4013 8.89C44.4213 8.84 44.4413 8.79 44.4613 8.74C44.4413 8.62 44.4263 8.43 44.4163 8.17C44.4063 7.9 44.3963 7.64 44.3863 7.39C44.3863 7.14 44.3913 6.975 44.4013 6.895C44.3813 6.755 44.3813 6.625 44.4013 6.505C44.4213 6.375 44.4513 6.245 44.4913 6.115C44.5013 6.065 44.5113 6.025 44.5213 5.995C44.5413 5.955 44.5613 5.915 44.5813 5.875C44.6013 5.805 44.6213 5.71 44.6413 5.59C44.6713 5.46 44.6913 5.39 44.7013 5.38C44.7413 5.22 44.7663 5.11 44.7763 5.05C44.7863 4.98 44.8063 4.92 44.8363 4.87C44.8763 4.81 44.9463 4.715 45.0463 4.585C45.1463 4.455 45.2363 4.295 45.3163 4.105C45.3163 4.105 45.3213 4.09 45.3313 4.06C45.3513 4.03 45.3663 3.99 45.3763 3.94C45.3963 3.92 45.4113 3.905 45.4213 3.895C45.4313 3.885 45.4413 3.875 45.4513 3.865L45.5563 3.655C45.6463 3.465 45.7913 3.33 45.9913 3.25C46.0513 3.23 46.1113 3.2 46.1713 3.16C46.2413 3.11 46.3213 3.06 46.4113 3.01C46.5413 2.98 46.6763 2.94 46.8163 2.89C46.9563 2.84 47.1063 2.795 47.2663 2.755C47.3263 2.735 47.3913 2.725 47.4613 2.725C47.5313 2.725 47.6013 2.72 47.6713 2.71C47.7213 2.72 47.7713 2.73 47.8213 2.74C47.8713 2.74 47.9263 2.74 47.9863 2.74C48.0763 2.75 48.1613 2.76 48.2413 2.77C48.3313 2.78 48.4163 2.81 48.4963 2.86C48.5363 2.87 48.5763 2.88 48.6163 2.89C48.6663 2.89 48.7113 2.895 48.7513 2.905C48.8213 2.905 48.8963 2.905 48.9763 2.905C49.0563 2.905 49.1313 2.915 49.2013 2.935C49.2313 2.955 49.2963 2.99 49.3963 3.04C49.5063 3.09 49.5663 3.115 49.5763 3.115C49.6163 3.135 49.6413 3.155 49.6513 3.175C49.6713 3.195 49.6913 3.22 49.7113 3.25C49.7313 3.28 49.7563 3.305 49.7863 3.325C49.9263 3.425 50.0463 3.54 50.1463 3.67C50.2563 3.79 50.3613 3.92 50.4613 4.06C50.5113 4.15 50.5663 4.215 50.6263 4.255C50.6563 4.285 50.6813 4.32 50.7013 4.36C50.7313 4.39 50.7613 4.425 50.7913 4.465C50.7913 4.525 50.7913 4.59 50.7913 4.66C50.7913 4.72 50.7963 4.78 50.8063 4.84C50.8063 4.88 50.8113 4.925 50.8213 4.975C50.8413 5.025 50.8563 5.075 50.8663 5.125C50.8563 5.155 50.8513 5.24 50.8513 5.38C50.8513 5.51 50.8563 5.6 50.8663 5.65C50.9163 5.79 50.9163 5.915 50.8663 6.025C50.8463 6.085 50.8563 6.145 50.8963 6.205C50.9063 6.245 50.9063 6.32 50.8963 6.43C50.8963 6.54 50.9013 6.615 50.9113 6.655ZM48.9613 6.085C48.9513 5.915 48.9163 5.765 48.8563 5.635C48.8063 5.495 48.7263 5.365 48.6163 5.245C48.5263 5.145 48.4363 5.065 48.3463 5.005C48.2663 4.935 48.1713 4.87 48.0613 4.81C47.8813 4.78 47.7213 4.785 47.5813 4.825C47.5413 4.865 47.4663 4.89 47.3563 4.9C47.2563 4.91 47.1913 4.935 47.1613 4.975C47.1213 5.055 47.0613 5.145 46.9813 5.245C46.9113 5.335 46.8663 5.385 46.8463 5.395C46.7863 5.525 46.7463 5.67 46.7263 5.83C46.7163 5.99 46.7263 6.13 46.7563 6.25C46.7763 6.35 46.7963 6.445 46.8163 6.535C46.8363 6.625 46.8563 6.71 46.8763 6.79C46.8763 6.82 46.8863 6.845 46.9063 6.865C46.9263 6.875 46.9413 6.915 46.9513 6.985C46.9613 7.055 46.9813 7.1 47.0113 7.12C47.0313 7.18 47.0663 7.22 47.1163 7.24C47.1663 7.25 47.2263 7.28 47.2963 7.33C47.3263 7.33 47.3563 7.335 47.3863 7.345C47.4163 7.345 47.4513 7.345 47.4913 7.345C47.5713 7.345 47.6463 7.35 47.7163 7.36C47.7863 7.36 47.8563 7.37 47.9263 7.39C48.0263 7.44 48.1463 7.435 48.2863 7.375C48.3063 7.355 48.3363 7.34 48.3763 7.33C48.4263 7.31 48.4613 7.285 48.4813 7.255C48.5413 7.245 48.5713 7.215 48.5713 7.165C48.5813 7.105 48.5963 7.065 48.6163 7.045C48.7463 6.885 48.8313 6.725 48.8713 6.565C48.9213 6.395 48.9513 6.235 48.9613 6.085ZM56.1096 8.785C56.1096 8.875 56.0696 8.95 55.9896 9.01C55.9096 9.09 55.8896 9.185 55.9296 9.295C55.9496 9.365 55.9596 9.44 55.9596 9.52C55.9596 9.6 55.9596 9.68 55.9596 9.76C55.9496 9.78 55.9346 9.805 55.9146 9.835C55.9046 9.855 55.8896 9.875 55.8696 9.895C55.8296 9.915 55.8046 9.925 55.7946 9.925C55.7146 9.935 55.6346 9.945 55.5546 9.955C55.4746 9.955 55.3946 9.955 55.3146 9.955C55.2646 9.955 55.2396 9.955 55.2396 9.955C55.0996 9.915 54.9596 9.895 54.8196 9.895C54.6896 9.885 54.5596 9.87 54.4296 9.85C54.3496 9.83 54.2746 9.82 54.2046 9.82C54.1346 9.82 54.0646 9.83 53.9946 9.85C53.8946 9.8 53.7946 9.75 53.6946 9.7C53.6046 9.64 53.5046 9.585 53.3946 9.535C53.3246 9.425 53.2346 9.335 53.1246 9.265C53.0246 9.185 52.9346 9.09 52.8546 8.98C52.8346 8.93 52.8096 8.88 52.7796 8.83C52.7596 8.78 52.7346 8.735 52.7046 8.695C52.6046 8.545 52.5396 8.38 52.5096 8.2C52.5096 8.13 52.4846 8.07 52.4346 8.02C52.3546 7.87 52.3346 7.73 52.3746 7.6C52.3846 7.58 52.3846 7.56 52.3746 7.54C52.3746 7.51 52.3796 7.49 52.3896 7.48C52.3496 7.43 52.3196 7.39 52.2996 7.36C52.2796 7.33 52.2596 7.3 52.2396 7.27C52.2396 7.2 52.2446 7.15 52.2546 7.12L52.1346 6.97C52.1546 6.86 52.1696 6.75 52.1796 6.64C52.1996 6.52 52.2196 6.41 52.2396 6.31L52.1346 6.16C52.1346 6.12 52.1496 6.09 52.1796 6.07C52.2096 6.04 52.2346 6.005 52.2546 5.965C52.2946 5.855 52.3196 5.75 52.3296 5.65C52.3596 5.53 52.3746 5.415 52.3746 5.305C52.3546 5.085 52.3546 4.87 52.3746 4.66C52.3946 4.45 52.3996 4.235 52.3896 4.015C52.4396 3.795 52.4596 3.575 52.4496 3.355C52.4396 3.135 52.4546 2.92 52.4946 2.71C52.4946 2.66 52.4946 2.635 52.4946 2.635C52.4646 2.515 52.4646 2.4 52.4946 2.29C52.5246 2.18 52.5596 2.08 52.5996 1.99C52.5896 1.97 52.5846 1.945 52.5846 1.915C52.5846 1.885 52.5746 1.86 52.5546 1.84C52.5746 1.77 52.6046 1.715 52.6446 1.675C52.6846 1.625 52.7196 1.58 52.7496 1.54C52.7696 1.5 52.7846 1.46 52.7946 1.42C52.8146 1.37 52.8296 1.325 52.8396 1.285L52.9446 1.18C53.0346 1.16 53.1296 1.155 53.2296 1.165C53.2596 1.175 53.2896 1.19 53.3196 1.21C53.3596 1.23 53.3996 1.25 53.4396 1.27C53.5096 1.31 53.5746 1.345 53.6346 1.375C53.7046 1.395 53.7796 1.4 53.8596 1.39C53.9696 1.43 54.0746 1.455 54.1746 1.465C54.2846 1.475 54.3896 1.475 54.4896 1.465H54.5496C54.5496 1.465 54.5496 1.47 54.5496 1.48C54.5596 1.48 54.5696 1.48 54.5796 1.48C54.6296 1.49 54.6746 1.515 54.7146 1.555C54.7546 1.595 54.7646 1.64 54.7446 1.69C54.7246 1.84 54.7096 1.99 54.6996 2.14C54.6996 2.29 54.6896 2.44 54.6696 2.59C54.6496 2.73 54.6296 2.875 54.6096 3.025C54.5896 3.165 54.5646 3.305 54.5346 3.445C54.5246 3.665 54.5046 3.885 54.4746 4.105C54.4546 4.315 54.4446 4.525 54.4446 4.735C54.4446 4.765 54.4446 4.79 54.4446 4.81C54.4546 4.83 54.4596 4.85 54.4596 4.87C54.4096 4.97 54.3696 5.07 54.3396 5.17C54.3196 5.27 54.2946 5.375 54.2646 5.485C54.2446 5.565 54.2446 5.65 54.2646 5.74C54.2946 5.86 54.3046 5.98 54.2946 6.1C54.2946 6.22 54.2846 6.345 54.2646 6.475V6.565C54.2846 6.605 54.3046 6.65 54.3246 6.7C54.3546 6.75 54.3796 6.8 54.3996 6.85C54.3896 6.88 54.3796 6.915 54.3696 6.955C54.3596 6.985 54.3496 7.015 54.3396 7.045C54.3596 7.095 54.3696 7.15 54.3696 7.21C54.3796 7.27 54.3896 7.325 54.3996 7.375C54.4396 7.425 54.4796 7.475 54.5196 7.525C54.5596 7.565 54.5846 7.615 54.5946 7.675C54.5946 7.695 54.6046 7.72 54.6246 7.75C54.6446 7.78 54.6596 7.805 54.6696 7.825C54.6896 7.875 54.7196 7.915 54.7596 7.945C54.8096 7.975 54.8546 8 54.8946 8.02C54.9646 8.03 55.0296 8.045 55.0896 8.065C55.1496 8.085 55.2146 8.105 55.2846 8.125C55.3246 8.125 55.3546 8.125 55.3746 8.125C55.4046 8.115 55.4346 8.11 55.4646 8.11C55.4846 8.12 55.5096 8.13 55.5396 8.14C55.5796 8.15 55.6146 8.16 55.6446 8.17C55.6546 8.18 55.6646 8.195 55.6746 8.215C55.6846 8.225 55.6946 8.235 55.7046 8.245C55.7246 8.325 55.7796 8.41 55.8696 8.5C55.9196 8.54 55.9646 8.585 56.0046 8.635C56.0546 8.675 56.0896 8.725 56.1096 8.785ZM63.8877 4.705C63.8777 4.805 63.8677 4.91 63.8577 5.02C63.8577 5.12 63.8477 5.22 63.8277 5.32C63.8177 5.42 63.8127 5.53 63.8127 5.65C63.8127 5.76 63.7927 5.875 63.7527 5.995C63.7327 6.025 63.7077 6.06 63.6777 6.1C63.6477 6.13 63.6177 6.17 63.5877 6.22C63.5877 6.26 63.5877 6.295 63.5877 6.325C63.5977 6.355 63.6077 6.39 63.6177 6.43C63.5977 6.48 63.5677 6.525 63.5277 6.565C63.4877 6.595 63.4477 6.62 63.4077 6.64C63.3077 6.67 63.2127 6.7 63.1227 6.73C63.0427 6.76 62.9577 6.785 62.8677 6.805C62.7277 6.825 62.5827 6.83 62.4327 6.82C62.2827 6.8 62.1327 6.795 61.9827 6.805C61.8527 6.805 61.7127 6.81 61.5627 6.82C61.4227 6.82 61.2777 6.82 61.1277 6.82H60.2877C60.2477 6.85 60.2027 6.86 60.1527 6.85C60.1127 6.84 60.0727 6.845 60.0327 6.865C59.9927 6.845 59.9477 6.845 59.8977 6.865C59.8477 6.875 59.7977 6.87 59.7477 6.85C59.7077 6.86 59.6677 6.87 59.6277 6.88C59.5977 6.88 59.5577 6.885 59.5077 6.895C59.4677 6.885 59.4327 6.875 59.4027 6.865C59.3727 6.845 59.3377 6.85 59.2977 6.88C59.3177 6.91 59.3377 6.945 59.3577 6.985C59.3877 7.015 59.4077 7.055 59.4177 7.105C59.4477 7.145 59.4727 7.185 59.4927 7.225C59.5127 7.265 59.5327 7.31 59.5527 7.36C59.5727 7.4 59.5877 7.445 59.5977 7.495C59.6077 7.535 59.6177 7.575 59.6277 7.615C59.6777 7.665 59.7327 7.715 59.7927 7.765C59.8527 7.815 59.9127 7.865 59.9727 7.915C60.0227 7.925 60.0727 7.935 60.1227 7.945C60.1827 7.955 60.2377 7.965 60.2877 7.975C60.3477 7.985 60.4077 7.995 60.4677 8.005C60.5277 8.015 60.5927 8.015 60.6627 8.005C60.7327 7.985 60.7977 7.99 60.8577 8.02C60.9177 8.04 60.9827 8.055 61.0527 8.065C61.1427 8.055 61.2327 8.045 61.3227 8.035C61.4227 8.025 61.5177 8.015 61.6077 8.005C61.6477 7.975 61.6877 7.95 61.7277 7.93C61.7777 7.9 61.8227 7.87 61.8627 7.84C61.9927 7.81 62.1227 7.815 62.2527 7.855C62.2827 7.905 62.3177 7.955 62.3577 8.005C62.4077 8.055 62.4527 8.11 62.4927 8.17C62.5527 8.26 62.6127 8.35 62.6727 8.44C62.7327 8.52 62.7727 8.615 62.7927 8.725C62.8127 8.775 62.8427 8.825 62.8827 8.875C62.9227 8.925 62.9527 8.97 62.9727 9.01C62.9827 9.06 62.9777 9.105 62.9577 9.145C62.9477 9.185 62.9377 9.23 62.9277 9.28C62.8877 9.32 62.8377 9.355 62.7777 9.385C62.7677 9.385 62.7577 9.395 62.7477 9.415C62.7377 9.435 62.7227 9.45 62.7027 9.46C62.6427 9.5 62.5827 9.54 62.5227 9.58C62.4627 9.62 62.4077 9.66 62.3577 9.7C62.2177 9.82 62.0727 9.88 61.9227 9.88C61.8627 9.88 61.8177 9.885 61.7877 9.895C61.7377 9.905 61.6877 9.925 61.6377 9.955C61.5877 9.985 61.5327 10.01 61.4727 10.03C61.4227 10.03 61.3727 10.035 61.3227 10.045C61.2727 10.065 61.2227 10.08 61.1727 10.09C61.1427 10.09 61.1077 10.085 61.0677 10.075C61.0277 10.075 60.9877 10.075 60.9477 10.075C60.8577 10.085 60.7677 10.08 60.6777 10.06C60.5877 10.04 60.4977 10.03 60.4077 10.03C60.3777 10.02 60.3477 10.01 60.3177 10C60.2877 9.99 60.2577 9.985 60.2277 9.985C60.0577 9.995 59.8977 9.97 59.7477 9.91C59.5977 9.84 59.4477 9.77 59.2977 9.7C59.1777 9.67 59.0927 9.615 59.0427 9.535C58.9727 9.455 58.8927 9.39 58.8027 9.34C58.7227 9.28 58.6327 9.23 58.5327 9.19C58.4727 9.17 58.4127 9.145 58.3527 9.115C58.2927 9.075 58.2277 9.035 58.1577 8.995C58.1477 8.955 58.1327 8.915 58.1127 8.875C58.0927 8.835 58.0727 8.795 58.0527 8.755C58.0327 8.725 58.0027 8.695 57.9627 8.665C57.9327 8.635 57.9027 8.605 57.8727 8.575C57.8427 8.545 57.8177 8.51 57.7977 8.47C57.7477 8.3 57.6977 8.135 57.6477 7.975C57.5977 7.805 57.5327 7.64 57.4527 7.48C57.4627 7.41 57.4677 7.34 57.4677 7.27C57.4777 7.19 57.4727 7.105 57.4527 7.015C57.4427 6.995 57.4377 6.97 57.4377 6.94C57.4377 6.91 57.4377 6.885 57.4377 6.865C57.4377 6.815 57.4377 6.775 57.4377 6.745C57.4477 6.705 57.4477 6.67 57.4377 6.64C57.4277 6.56 57.4177 6.48 57.4077 6.4C57.3977 6.32 57.4027 6.245 57.4227 6.175C57.4427 6.095 57.4627 6.015 57.4827 5.935C57.5027 5.855 57.5277 5.77 57.5577 5.68C57.5477 5.66 57.5427 5.63 57.5427 5.59C57.5427 5.55 57.5377 5.51 57.5277 5.47C57.5477 5.36 57.5677 5.25 57.5877 5.14C57.6077 5.03 57.6327 4.925 57.6627 4.825C57.6927 4.765 57.7227 4.71 57.7527 4.66C57.7927 4.6 57.8327 4.54 57.8727 4.48C57.9427 4.36 57.9977 4.245 58.0377 4.135C58.1577 4.075 58.2277 4.04 58.2477 4.03C58.2777 4.01 58.3027 3.985 58.3227 3.955C58.3427 3.925 58.4077 3.865 58.5177 3.775C58.5077 3.745 58.5327 3.7 58.5927 3.64C58.6527 3.58 58.6727 3.53 58.6527 3.49C58.7427 3.32 58.8727 3.185 59.0427 3.085C59.1027 3.045 59.1577 3.005 59.2077 2.965C59.2677 2.915 59.3177 2.87 59.3577 2.83C59.4077 2.8 59.4527 2.79 59.4927 2.8C59.5427 2.8 59.5877 2.8 59.6277 2.8C59.6577 2.79 59.6877 2.785 59.7177 2.785C59.7577 2.775 59.7977 2.765 59.8377 2.755C59.8577 2.745 59.8827 2.735 59.9127 2.725C59.9427 2.715 59.9677 2.7 59.9877 2.68C60.0077 2.67 60.0277 2.66 60.0477 2.65C60.0677 2.64 60.0877 2.635 60.1077 2.635C60.1977 2.625 60.2827 2.6 60.3627 2.56C60.4427 2.52 60.5177 2.48 60.5877 2.44C60.7377 2.5 60.8927 2.52 61.0527 2.5C61.1527 2.49 61.2477 2.495 61.3377 2.515C61.4377 2.535 61.5277 2.56 61.6077 2.59L61.8177 2.53C61.8977 2.54 61.9727 2.565 62.0427 2.605C62.1127 2.645 62.1827 2.685 62.2527 2.725H62.3877C62.3977 2.735 62.4077 2.745 62.4177 2.755C62.4277 2.755 62.4377 2.76 62.4477 2.77C62.5577 2.87 62.6627 2.965 62.7627 3.055C62.8627 3.135 62.9677 3.22 63.0777 3.31C63.2277 3.41 63.3227 3.53 63.3627 3.67C63.4027 3.73 63.4377 3.775 63.4677 3.805C63.5877 3.905 63.6927 4.04 63.7827 4.21C63.7827 4.23 63.7827 4.26 63.7827 4.3C63.7927 4.33 63.7977 4.36 63.7977 4.39C63.7877 4.44 63.7977 4.49 63.8277 4.54C63.8577 4.59 63.8777 4.645 63.8877 4.705ZM61.9827 5.2V4.825C61.9827 4.775 61.9777 4.745 61.9677 4.735C61.9577 4.705 61.9427 4.675 61.9227 4.645C61.9127 4.615 61.9027 4.595 61.8927 4.585V4.33L61.8477 4.285C61.8077 4.285 61.7577 4.275 61.6977 4.255C61.6777 4.165 61.6527 4.095 61.6227 4.045C61.5927 4.005 61.5527 3.98 61.5027 3.97C61.4527 3.96 61.3977 3.945 61.3377 3.925C61.2077 3.965 61.0677 4 60.9177 4.03C60.7677 4.06 60.6227 4.1 60.4827 4.15C60.4127 4.16 60.3477 4.165 60.2877 4.165C60.2277 4.165 60.1677 4.17 60.1077 4.18C60.0077 4.22 59.9177 4.285 59.8377 4.375C59.7677 4.455 59.6977 4.535 59.6277 4.615C59.5877 4.665 59.5527 4.72 59.5227 4.78C59.4927 4.84 59.4577 4.895 59.4177 4.945C59.4077 4.955 59.4027 4.985 59.4027 5.035C59.4327 5.115 59.4777 5.165 59.5377 5.185C59.5977 5.195 59.6577 5.21 59.7177 5.23C59.7777 5.25 59.8427 5.27 59.9127 5.29C59.9427 5.28 59.9677 5.275 59.9877 5.275C60.0177 5.275 60.0477 5.27 60.0777 5.26C60.1977 5.21 60.2977 5.205 60.3777 5.245C60.4577 5.255 60.5277 5.255 60.5877 5.245C60.6577 5.235 60.7277 5.225 60.7977 5.215C60.8577 5.245 60.9177 5.265 60.9777 5.275C61.0477 5.285 61.1127 5.3 61.1727 5.32C61.3027 5.36 61.4277 5.38 61.5477 5.38C61.6677 5.38 61.7877 5.365 61.9077 5.335C61.9577 5.285 61.9827 5.24 61.9827 5.2ZM70.0764 8.92C70.0264 9.02 69.9814 9.12 69.9414 9.22C69.9014 9.32 69.8564 9.42 69.8064 9.52L69.4914 9.82C69.3014 10.03 69.0764 10.155 68.8164 10.195C68.6864 10.215 68.5514 10.22 68.4114 10.21C68.2814 10.21 68.1464 10.19 68.0064 10.15C67.9264 10.13 67.8414 10.1 67.7514 10.06C67.6714 10.03 67.5914 9.995 67.5114 9.955C67.4514 9.925 67.3864 9.905 67.3164 9.895C67.2464 9.875 67.1714 9.86 67.0914 9.85C67.0614 9.83 67.0264 9.81 66.9864 9.79C66.9464 9.76 66.9014 9.73 66.8514 9.7C66.7814 9.58 66.6964 9.47 66.5964 9.37C66.5064 9.27 66.4364 9.145 66.3864 8.995C66.3864 8.875 66.3814 8.795 66.3714 8.755C66.3614 8.705 66.3314 8.61 66.2814 8.47V7.48C66.2814 7.4 66.2764 7.325 66.2664 7.255C66.2664 7.175 66.2564 7.1 66.2364 7.03C66.2264 6.96 66.2214 6.9 66.2214 6.85C66.2314 6.8 66.2414 6.74 66.2514 6.67C66.2814 6.55 66.2814 6.425 66.2514 6.295C66.2814 6.175 66.3164 6.055 66.3564 5.935C66.3564 5.875 66.3414 5.79 66.3114 5.68C66.2814 5.57 66.2464 5.465 66.2064 5.365C66.1564 5.365 66.1064 5.36 66.0564 5.35C66.0064 5.34 65.9514 5.33 65.8914 5.32C65.8314 5.34 65.7664 5.36 65.6964 5.38C65.6364 5.4 65.5664 5.42 65.4864 5.44C65.4564 5.46 65.4114 5.47 65.3514 5.47C65.3414 5.47 65.3214 5.46 65.2914 5.44C65.2714 5.41 65.2614 5.39 65.2614 5.38C65.2514 5.35 65.2464 5.32 65.2464 5.29C65.2464 5.26 65.2464 5.23 65.2464 5.2C65.2364 5.12 65.2314 5.035 65.2314 4.945C65.2314 4.855 65.2314 4.77 65.2314 4.69C65.2314 4.61 65.2264 4.535 65.2164 4.465C65.2064 4.385 65.1914 4.31 65.1714 4.24C65.1814 4.19 65.1914 4.145 65.2014 4.105C65.2114 4.055 65.2214 4.01 65.2314 3.97V3.685C65.2314 3.605 65.2414 3.535 65.2614 3.475C65.2914 3.415 65.3464 3.36 65.4264 3.31C65.4864 3.29 65.5514 3.28 65.6214 3.28C65.7014 3.28 65.7864 3.28 65.8764 3.28C65.9564 3.29 66.0364 3.29 66.1164 3.28C66.2064 3.26 66.2864 3.215 66.3564 3.145C66.3764 3.125 66.4014 3.115 66.4314 3.115C66.4714 3.115 66.5014 3.115 66.5214 3.115C66.7214 3.125 66.8964 3.045 67.0464 2.875C67.0564 2.815 67.0864 2.73 67.1364 2.62C67.1064 2.55 67.0814 2.475 67.0614 2.395C67.0414 2.305 67.0164 2.22 66.9864 2.14C67.0064 2.11 67.0264 2.08 67.0464 2.05C67.0664 2.02 67.0814 1.985 67.0914 1.945C67.1114 1.895 67.1114 1.85 67.0914 1.81C67.0714 1.76 67.0664 1.72 67.0764 1.69C67.0564 1.64 67.0464 1.605 67.0464 1.585C67.0464 1.565 67.0364 1.53 67.0164 1.48C67.0264 1.46 67.0364 1.44 67.0464 1.42C67.0564 1.39 67.0664 1.365 67.0764 1.345C67.0864 1.305 67.0964 1.275 67.1064 1.255C67.1164 1.225 67.1264 1.19 67.1364 1.15H67.3014C67.3514 1.16 67.4014 1.17 67.4514 1.18C67.5114 1.18 67.5664 1.175 67.6164 1.165C67.6364 1.165 67.6614 1.17 67.6914 1.18C67.7214 1.18 67.7514 1.18 67.7814 1.18C67.9514 1.2 68.1164 1.225 68.2764 1.255C68.4464 1.285 68.6114 1.3 68.7714 1.3C68.7914 1.3 68.8114 1.305 68.8314 1.315C68.8614 1.325 68.8814 1.335 68.8914 1.345C68.9314 1.365 68.9664 1.39 68.9964 1.42C68.9864 1.46 68.9714 1.5 68.9514 1.54C68.9314 1.57 68.9164 1.6 68.9064 1.63C68.8964 1.67 68.8864 1.715 68.8764 1.765C68.8764 1.815 68.8714 1.865 68.8614 1.915C68.8514 1.985 68.8414 2.055 68.8314 2.125C68.8214 2.195 68.8064 2.275 68.7864 2.365C68.7964 2.375 68.8014 2.4 68.8014 2.44C68.8014 2.48 68.8064 2.515 68.8164 2.545C68.8064 2.615 68.7914 2.68 68.7714 2.74C68.7614 2.8 68.7514 2.87 68.7414 2.95C68.8714 3.05 69.0114 3.135 69.1614 3.205C69.3214 3.275 69.5114 3.34 69.7314 3.4C69.8414 3.47 69.9064 3.585 69.9264 3.745C69.9264 3.975 69.9114 4.205 69.8814 4.435C69.8714 4.525 69.8614 4.615 69.8514 4.705C69.8414 4.795 69.8414 4.885 69.8514 4.975C69.7214 5.055 69.5664 5.095 69.3864 5.095C69.3564 5.095 69.3264 5.1 69.2964 5.11C69.2664 5.12 69.2414 5.125 69.2214 5.125C69.0614 5.135 68.9364 5.15 68.8464 5.17C68.7664 5.19 68.6364 5.24 68.4564 5.32C68.4264 5.36 68.4114 5.415 68.4114 5.485C68.4014 5.545 68.3914 5.605 68.3814 5.665C68.3814 5.725 68.3864 5.79 68.3964 5.86C68.3964 5.86 68.3964 5.865 68.3964 5.875C68.3964 5.875 68.3864 5.88 68.3664 5.89C68.3064 6.01 68.2614 6.1 68.2314 6.16C68.2014 6.22 68.1814 6.28 68.1714 6.34C68.1714 6.4 68.1714 6.5 68.1714 6.64V7.36C68.1714 7.41 68.1764 7.44 68.1864 7.45C68.1964 7.54 68.2414 7.615 68.3214 7.675C68.3614 7.685 68.3964 7.695 68.4264 7.705C68.4664 7.715 68.4964 7.74 68.5164 7.78C68.6064 7.9 68.7064 7.965 68.8164 7.975C68.9364 7.975 69.0614 7.955 69.1914 7.915C69.2314 7.895 69.2714 7.875 69.3114 7.855C69.3514 7.835 69.3914 7.82 69.4314 7.81C69.5114 7.83 69.5614 7.875 69.5814 7.945C69.6014 8.015 69.6364 8.075 69.6864 8.125C69.7364 8.175 69.7764 8.23 69.8064 8.29C69.8464 8.35 69.8864 8.41 69.9264 8.47C69.9464 8.53 69.9714 8.6 70.0014 8.68C70.0314 8.75 70.0564 8.83 70.0764 8.92ZM77.8477 4.705C77.8377 4.805 77.8277 4.91 77.8177 5.02C77.8177 5.12 77.8077 5.22 77.7877 5.32C77.7777 5.42 77.7727 5.53 77.7727 5.65C77.7727 5.76 77.7527 5.875 77.7127 5.995C77.6927 6.025 77.6677 6.06 77.6377 6.1C77.6077 6.13 77.5777 6.17 77.5477 6.22C77.5477 6.26 77.5477 6.295 77.5477 6.325C77.5577 6.355 77.5677 6.39 77.5777 6.43C77.5577 6.48 77.5277 6.525 77.4877 6.565C77.4477 6.595 77.4077 6.62 77.3677 6.64C77.2677 6.67 77.1727 6.7 77.0827 6.73C77.0027 6.76 76.9177 6.785 76.8277 6.805C76.6877 6.825 76.5427 6.83 76.3927 6.82C76.2427 6.8 76.0927 6.795 75.9427 6.805C75.8127 6.805 75.6727 6.81 75.5227 6.82C75.3827 6.82 75.2377 6.82 75.0877 6.82H74.2477C74.2077 6.85 74.1627 6.86 74.1127 6.85C74.0727 6.84 74.0327 6.845 73.9927 6.865C73.9527 6.845 73.9077 6.845 73.8577 6.865C73.8077 6.875 73.7577 6.87 73.7077 6.85C73.6677 6.86 73.6277 6.87 73.5877 6.88C73.5577 6.88 73.5177 6.885 73.4677 6.895C73.4277 6.885 73.3927 6.875 73.3627 6.865C73.3327 6.845 73.2977 6.85 73.2577 6.88C73.2777 6.91 73.2977 6.945 73.3177 6.985C73.3477 7.015 73.3677 7.055 73.3777 7.105C73.4077 7.145 73.4327 7.185 73.4527 7.225C73.4727 7.265 73.4927 7.31 73.5127 7.36C73.5327 7.4 73.5477 7.445 73.5577 7.495C73.5677 7.535 73.5777 7.575 73.5877 7.615C73.6377 7.665 73.6927 7.715 73.7527 7.765C73.8127 7.815 73.8727 7.865 73.9327 7.915C73.9827 7.925 74.0327 7.935 74.0827 7.945C74.1427 7.955 74.1977 7.965 74.2477 7.975C74.3077 7.985 74.3677 7.995 74.4277 8.005C74.4877 8.015 74.5527 8.015 74.6227 8.005C74.6927 7.985 74.7577 7.99 74.8177 8.02C74.8777 8.04 74.9427 8.055 75.0127 8.065C75.1027 8.055 75.1927 8.045 75.2827 8.035C75.3827 8.025 75.4777 8.015 75.5677 8.005C75.6077 7.975 75.6477 7.95 75.6877 7.93C75.7377 7.9 75.7827 7.87 75.8227 7.84C75.9527 7.81 76.0827 7.815 76.2127 7.855C76.2427 7.905 76.2777 7.955 76.3177 8.005C76.3677 8.055 76.4127 8.11 76.4527 8.17C76.5127 8.26 76.5727 8.35 76.6327 8.44C76.6927 8.52 76.7327 8.615 76.7527 8.725C76.7727 8.775 76.8027 8.825 76.8427 8.875C76.8827 8.925 76.9127 8.97 76.9327 9.01C76.9427 9.06 76.9377 9.105 76.9177 9.145C76.9077 9.185 76.8977 9.23 76.8877 9.28C76.8477 9.32 76.7977 9.355 76.7377 9.385C76.7277 9.385 76.7177 9.395 76.7077 9.415C76.6977 9.435 76.6827 9.45 76.6627 9.46C76.6027 9.5 76.5427 9.54 76.4827 9.58C76.4227 9.62 76.3677 9.66 76.3177 9.7C76.1777 9.82 76.0327 9.88 75.8827 9.88C75.8227 9.88 75.7777 9.885 75.7477 9.895C75.6977 9.905 75.6477 9.925 75.5977 9.955C75.5477 9.985 75.4927 10.01 75.4327 10.03C75.3827 10.03 75.3327 10.035 75.2827 10.045C75.2327 10.065 75.1827 10.08 75.1327 10.09C75.1027 10.09 75.0677 10.085 75.0277 10.075C74.9877 10.075 74.9477 10.075 74.9077 10.075C74.8177 10.085 74.7277 10.08 74.6377 10.06C74.5477 10.04 74.4577 10.03 74.3677 10.03C74.3377 10.02 74.3077 10.01 74.2777 10C74.2477 9.99 74.2177 9.985 74.1877 9.985C74.0177 9.995 73.8577 9.97 73.7077 9.91C73.5577 9.84 73.4077 9.77 73.2577 9.7C73.1377 9.67 73.0527 9.615 73.0027 9.535C72.9327 9.455 72.8527 9.39 72.7627 9.34C72.6827 9.28 72.5927 9.23 72.4927 9.19C72.4327 9.17 72.3727 9.145 72.3127 9.115C72.2527 9.075 72.1877 9.035 72.1177 8.995C72.1077 8.955 72.0927 8.915 72.0727 8.875C72.0527 8.835 72.0327 8.795 72.0127 8.755C71.9927 8.725 71.9627 8.695 71.9227 8.665C71.8927 8.635 71.8627 8.605 71.8327 8.575C71.8027 8.545 71.7777 8.51 71.7577 8.47C71.7077 8.3 71.6577 8.135 71.6077 7.975C71.5577 7.805 71.4927 7.64 71.4127 7.48C71.4227 7.41 71.4277 7.34 71.4277 7.27C71.4377 7.19 71.4327 7.105 71.4127 7.015C71.4027 6.995 71.3977 6.97 71.3977 6.94C71.3977 6.91 71.3977 6.885 71.3977 6.865C71.3977 6.815 71.3977 6.775 71.3977 6.745C71.4077 6.705 71.4077 6.67 71.3977 6.64C71.3877 6.56 71.3777 6.48 71.3677 6.4C71.3577 6.32 71.3627 6.245 71.3827 6.175C71.4027 6.095 71.4227 6.015 71.4427 5.935C71.4627 5.855 71.4877 5.77 71.5177 5.68C71.5077 5.66 71.5027 5.63 71.5027 5.59C71.5027 5.55 71.4977 5.51 71.4877 5.47C71.5077 5.36 71.5277 5.25 71.5477 5.14C71.5677 5.03 71.5927 4.925 71.6227 4.825C71.6527 4.765 71.6827 4.71 71.7127 4.66C71.7527 4.6 71.7927 4.54 71.8327 4.48C71.9027 4.36 71.9577 4.245 71.9977 4.135C72.1177 4.075 72.1877 4.04 72.2077 4.03C72.2377 4.01 72.2627 3.985 72.2827 3.955C72.3027 3.925 72.3677 3.865 72.4777 3.775C72.4677 3.745 72.4927 3.7 72.5527 3.64C72.6127 3.58 72.6327 3.53 72.6127 3.49C72.7027 3.32 72.8327 3.185 73.0027 3.085C73.0627 3.045 73.1177 3.005 73.1677 2.965C73.2277 2.915 73.2777 2.87 73.3177 2.83C73.3677 2.8 73.4127 2.79 73.4527 2.8C73.5027 2.8 73.5477 2.8 73.5877 2.8C73.6177 2.79 73.6477 2.785 73.6777 2.785C73.7177 2.775 73.7577 2.765 73.7977 2.755C73.8177 2.745 73.8427 2.735 73.8727 2.725C73.9027 2.715 73.9277 2.7 73.9477 2.68C73.9677 2.67 73.9877 2.66 74.0077 2.65C74.0277 2.64 74.0477 2.635 74.0677 2.635C74.1577 2.625 74.2427 2.6 74.3227 2.56C74.4027 2.52 74.4777 2.48 74.5477 2.44C74.6977 2.5 74.8527 2.52 75.0127 2.5C75.1127 2.49 75.2077 2.495 75.2977 2.515C75.3977 2.535 75.4877 2.56 75.5677 2.59L75.7777 2.53C75.8577 2.54 75.9327 2.565 76.0027 2.605C76.0727 2.645 76.1427 2.685 76.2127 2.725H76.3477C76.3577 2.735 76.3677 2.745 76.3777 2.755C76.3877 2.755 76.3977 2.76 76.4077 2.77C76.5177 2.87 76.6227 2.965 76.7227 3.055C76.8227 3.135 76.9277 3.22 77.0377 3.31C77.1877 3.41 77.2827 3.53 77.3227 3.67C77.3627 3.73 77.3977 3.775 77.4277 3.805C77.5477 3.905 77.6527 4.04 77.7427 4.21C77.7427 4.23 77.7427 4.26 77.7427 4.3C77.7527 4.33 77.7577 4.36 77.7577 4.39C77.7477 4.44 77.7577 4.49 77.7877 4.54C77.8177 4.59 77.8377 4.645 77.8477 4.705ZM75.9427 5.2V4.825C75.9427 4.775 75.9377 4.745 75.9277 4.735C75.9177 4.705 75.9027 4.675 75.8827 4.645C75.8727 4.615 75.8627 4.595 75.8527 4.585V4.33L75.8077 4.285C75.7677 4.285 75.7177 4.275 75.6577 4.255C75.6377 4.165 75.6127 4.095 75.5827 4.045C75.5527 4.005 75.5127 3.98 75.4627 3.97C75.4127 3.96 75.3577 3.945 75.2977 3.925C75.1677 3.965 75.0277 4 74.8777 4.03C74.7277 4.06 74.5827 4.1 74.4427 4.15C74.3727 4.16 74.3077 4.165 74.2477 4.165C74.1877 4.165 74.1277 4.17 74.0677 4.18C73.9677 4.22 73.8777 4.285 73.7977 4.375C73.7277 4.455 73.6577 4.535 73.5877 4.615C73.5477 4.665 73.5127 4.72 73.4827 4.78C73.4527 4.84 73.4177 4.895 73.3777 4.945C73.3677 4.955 73.3627 4.985 73.3627 5.035C73.3927 5.115 73.4377 5.165 73.4977 5.185C73.5577 5.195 73.6177 5.21 73.6777 5.23C73.7377 5.25 73.8027 5.27 73.8727 5.29C73.9027 5.28 73.9277 5.275 73.9477 5.275C73.9777 5.275 74.0077 5.27 74.0377 5.26C74.1577 5.21 74.2577 5.205 74.3377 5.245C74.4177 5.255 74.4877 5.255 74.5477 5.245C74.6177 5.235 74.6877 5.225 74.7577 5.215C74.8177 5.245 74.8777 5.265 74.9377 5.275C75.0077 5.285 75.0727 5.3 75.1327 5.32C75.2627 5.36 75.3877 5.38 75.5077 5.38C75.6277 5.38 75.7477 5.365 75.8677 5.335C75.9177 5.285 75.9427 5.24 75.9427 5.2ZM85.3713 3.295C85.3213 3.475 85.2913 3.66 85.2813 3.85C85.2713 4.03 85.2613 4.21 85.2513 4.39C85.2413 4.57 85.2363 4.755 85.2363 4.945C85.2363 5.125 85.2363 5.305 85.2363 5.485C85.2363 5.635 85.2263 5.785 85.2063 5.935C85.1863 6.085 85.1713 6.24 85.1613 6.4C85.1613 6.44 85.1563 6.485 85.1463 6.535C85.1463 6.585 85.1463 6.635 85.1463 6.685C85.1463 6.825 85.1263 6.955 85.0863 7.075C85.0563 7.205 85.0413 7.335 85.0413 7.465C85.0413 7.535 85.0363 7.61 85.0263 7.69C85.0163 7.77 84.9963 7.85 84.9663 7.93C84.9563 7.98 84.9513 8.055 84.9513 8.155C84.9413 8.235 84.9213 8.315 84.8913 8.395C84.8713 8.465 84.8513 8.535 84.8313 8.605C84.8113 8.665 84.7913 8.735 84.7713 8.815C84.7313 8.875 84.6913 8.94 84.6513 9.01C84.6213 9.07 84.5863 9.13 84.5463 9.19C84.4563 9.24 84.3813 9.305 84.3213 9.385C84.2213 9.465 84.1213 9.55 84.0213 9.64C83.9313 9.73 83.8413 9.815 83.7513 9.895C83.6313 9.995 83.5113 10.045 83.3913 10.045C83.3813 10.045 83.3663 10.05 83.3463 10.06C83.3363 10.07 83.3213 10.075 83.3013 10.075C83.1113 10.095 82.9563 10.155 82.8363 10.255C82.8263 10.265 82.8113 10.27 82.7913 10.27C82.7813 10.28 82.7663 10.295 82.7463 10.315C82.6163 10.335 82.4813 10.325 82.3413 10.285C82.2113 10.245 82.0913 10.195 81.9813 10.135H81.7413C81.7013 10.135 81.6613 10.13 81.6213 10.12C81.5813 10.12 81.5363 10.115 81.4863 10.105C81.2163 10.045 80.9563 9.93 80.7063 9.76C80.6763 9.73 80.6413 9.71 80.6013 9.7C80.5613 9.69 80.5163 9.68 80.4663 9.67C80.4063 9.66 80.3463 9.645 80.2863 9.625C80.2263 9.605 80.1663 9.585 80.1063 9.565C80.0563 9.535 80.0163 9.495 79.9863 9.445C79.9563 9.385 79.9263 9.335 79.8963 9.295C79.8463 9.195 79.8013 9.105 79.7613 9.025C79.7213 8.935 79.6763 8.84 79.6263 8.74C79.5863 8.66 79.5413 8.58 79.4913 8.5C79.4413 8.41 79.3913 8.33 79.3413 8.26C79.3413 8.25 79.3463 8.245 79.3563 8.245C79.3663 8.245 79.3713 8.24 79.3713 8.23L79.3413 8.2C79.3413 8.21 79.3363 8.22 79.3263 8.23C79.3263 8.23 79.3263 8.235 79.3263 8.245C79.3163 8.235 79.3013 8.23 79.2813 8.23C79.2713 8.22 79.2613 8.21 79.2513 8.2C79.2113 8.18 79.1813 8.15 79.1613 8.11C79.1413 8.06 79.1213 8.015 79.1013 7.975C79.1313 7.915 79.1463 7.835 79.1463 7.735C79.1663 7.605 79.1613 7.49 79.1313 7.39C79.0913 7.24 79.0713 7.09 79.0713 6.94C79.0813 6.79 79.0913 6.635 79.1013 6.475C79.1013 6.425 79.1213 6.36 79.1613 6.28C79.2313 6.11 79.2713 5.96 79.2813 5.83C79.3813 5.69 79.4613 5.54 79.5213 5.38C79.5813 5.22 79.6513 5.07 79.7313 4.93C79.7813 4.91 79.8213 4.89 79.8513 4.87C79.8913 4.85 79.9313 4.835 79.9713 4.825C79.9913 4.805 80.0063 4.78 80.0163 4.75C80.0263 4.72 80.0463 4.695 80.0763 4.675C80.1063 4.655 80.1413 4.64 80.1813 4.63C80.2213 4.61 80.2663 4.595 80.3163 4.585C80.3363 4.555 80.3513 4.525 80.3613 4.495C80.3813 4.465 80.4013 4.435 80.4213 4.405C80.4513 4.375 80.4713 4.36 80.4813 4.36C80.7113 4.28 80.9513 4.22 81.2013 4.18C81.2413 4.17 81.2813 4.165 81.3213 4.165C81.3713 4.155 81.4163 4.145 81.4563 4.135C81.5863 4.095 81.7163 4.08 81.8463 4.09C81.9763 4.1 82.1063 4.1 82.2363 4.09C82.2663 4.09 82.2963 4.095 82.3263 4.105C82.3663 4.115 82.4013 4.125 82.4313 4.135C82.4613 4.135 82.5013 4.145 82.5513 4.165C82.6013 4.185 82.6313 4.185 82.6413 4.165C82.7413 4.145 82.8113 4.155 82.8513 4.195C82.9013 4.235 82.9263 4.255 82.9263 4.255C82.9463 4.265 82.9863 4.27 83.0463 4.27C83.1163 4.26 83.1563 4.255 83.1663 4.255C83.2563 4.235 83.3063 4.195 83.3163 4.135C83.3363 4.065 83.3363 4.03 83.3163 4.03L83.2863 4C83.2963 3.87 83.2913 3.74 83.2713 3.61C83.2613 3.48 83.2613 3.35 83.2713 3.22C83.2813 3.17 83.2863 3.12 83.2863 3.07C83.2863 3.01 83.2863 2.955 83.2863 2.905C83.2763 2.855 83.2763 2.81 83.2863 2.77C83.2963 2.72 83.3013 2.67 83.3013 2.62C83.3013 2.57 83.3013 2.525 83.3013 2.485C83.3113 2.435 83.3063 2.395 83.2863 2.365C83.2563 2.285 83.2413 2.205 83.2413 2.125C83.2513 2.045 83.2663 1.965 83.2863 1.885C83.3163 1.775 83.3363 1.665 83.3463 1.555C83.3663 1.445 83.3663 1.325 83.3463 1.195V1.12C83.3863 1.02 83.4063 0.919999 83.4063 0.819999C83.4163 0.719999 83.4263 0.629999 83.4363 0.549999C83.4863 0.479999 83.5463 0.434999 83.6163 0.414999C83.6963 0.385 83.7563 0.35 83.7963 0.31C83.9563 0.3 84.1063 0.3 84.2463 0.31C84.3863 0.319999 84.5263 0.304999 84.6663 0.264999C84.7363 0.294999 84.8013 0.319999 84.8613 0.339999C84.9313 0.35 84.9913 0.36 85.0413 0.37C85.1513 0.45 85.2063 0.555 85.2063 0.684999C85.2063 0.734999 85.2063 0.789999 85.2063 0.85C85.2063 0.91 85.2013 0.969999 85.1913 1.03C85.2013 1.07 85.2163 1.105 85.2363 1.135C85.2563 1.165 85.2713 1.205 85.2813 1.255C85.2713 1.275 85.2613 1.305 85.2513 1.345C85.2513 1.375 85.2463 1.41 85.2363 1.45C85.2463 1.49 85.2563 1.54 85.2663 1.6C85.2763 1.66 85.2863 1.715 85.2963 1.765C85.2963 1.925 85.2963 2.08 85.2963 2.23C85.3063 2.38 85.3063 2.53 85.2963 2.68C85.2963 2.84 85.2963 2.945 85.2963 2.995C85.3063 3.045 85.3313 3.145 85.3713 3.295ZM83.1813 7.075C83.1513 6.995 83.1263 6.92 83.1063 6.85C83.0963 6.77 83.0813 6.7 83.0613 6.64C83.0313 6.57 82.9913 6.505 82.9413 6.445C82.9013 6.385 82.8663 6.32 82.8363 6.25C82.7363 6.2 82.6613 6.15 82.6113 6.1C82.5613 6.08 82.5113 6.065 82.4613 6.055C82.4213 6.045 82.3763 6.035 82.3263 6.025C82.2863 6.005 82.2463 5.99 82.2063 5.98C82.1763 5.96 82.1413 5.945 82.1013 5.935C82.0313 5.965 81.9613 5.995 81.8913 6.025C81.8313 6.055 81.7713 6.085 81.7113 6.115C81.5513 6.185 81.4413 6.315 81.3813 6.505C81.3713 6.545 81.3663 6.585 81.3663 6.625C81.3663 6.665 81.3613 6.71 81.3513 6.76C81.3413 6.79 81.3213 6.82 81.2913 6.85C81.2713 6.88 81.2513 6.92 81.2313 6.97V7.24C81.2513 7.37 81.2863 7.495 81.3363 7.615C81.3963 7.725 81.4913 7.82 81.6213 7.9C81.6513 7.91 81.6763 7.93 81.6963 7.96C81.7263 7.98 81.7613 8 81.8013 8.02C81.8613 8.08 81.9213 8.11 81.9813 8.11C82.1413 8.09 82.2963 8.075 82.4463 8.065C82.5963 8.045 82.7413 8.005 82.8813 7.945C82.9413 7.895 82.9863 7.845 83.0163 7.795C83.0463 7.755 83.0713 7.72 83.0913 7.69C83.1113 7.65 83.1363 7.61 83.1663 7.57V7.315C83.1663 7.265 83.1663 7.22 83.1663 7.18C83.1663 7.14 83.1713 7.105 83.1813 7.075ZM94.9641 8.92C94.9141 9.02 94.8691 9.12 94.8291 9.22C94.7891 9.32 94.7441 9.42 94.6941 9.52L94.3791 9.82C94.1891 10.03 93.9641 10.155 93.7041 10.195C93.5741 10.215 93.4391 10.22 93.2991 10.21C93.1691 10.21 93.0341 10.19 92.8941 10.15C92.8141 10.13 92.7291 10.1 92.6391 10.06C92.5591 10.03 92.4791 9.995 92.3991 9.955C92.3391 9.925 92.2741 9.905 92.2041 9.895C92.1341 9.875 92.0591 9.86 91.9791 9.85C91.9491 9.83 91.9141 9.81 91.8741 9.79C91.8341 9.76 91.7891 9.73 91.7391 9.7C91.6691 9.58 91.5841 9.47 91.4841 9.37C91.3941 9.27 91.3241 9.145 91.2741 8.995C91.2741 8.875 91.2691 8.795 91.2591 8.755C91.2491 8.705 91.2191 8.61 91.1691 8.47V7.48C91.1691 7.4 91.1641 7.325 91.1541 7.255C91.1541 7.175 91.1441 7.1 91.1241 7.03C91.1141 6.96 91.1091 6.9 91.1091 6.85C91.1191 6.8 91.1291 6.74 91.1391 6.67C91.1691 6.55 91.1691 6.425 91.1391 6.295C91.1691 6.175 91.2041 6.055 91.2441 5.935C91.2441 5.875 91.2291 5.79 91.1991 5.68C91.1691 5.57 91.1341 5.465 91.0941 5.365C91.0441 5.365 90.9941 5.36 90.9441 5.35C90.8941 5.34 90.8391 5.33 90.7791 5.32C90.7191 5.34 90.6541 5.36 90.5841 5.38C90.5241 5.4 90.4541 5.42 90.3741 5.44C90.3441 5.46 90.2991 5.47 90.2391 5.47C90.2291 5.47 90.2091 5.46 90.1791 5.44C90.1591 5.41 90.1491 5.39 90.1491 5.38C90.1391 5.35 90.1341 5.32 90.1341 5.29C90.1341 5.26 90.1341 5.23 90.1341 5.2C90.1241 5.12 90.1191 5.035 90.1191 4.945C90.1191 4.855 90.1191 4.77 90.1191 4.69C90.1191 4.61 90.1141 4.535 90.1041 4.465C90.0941 4.385 90.0791 4.31 90.0591 4.24C90.0691 4.19 90.0791 4.145 90.0891 4.105C90.0991 4.055 90.1091 4.01 90.1191 3.97V3.685C90.1191 3.605 90.1291 3.535 90.1491 3.475C90.1791 3.415 90.2341 3.36 90.3141 3.31C90.3741 3.29 90.4391 3.28 90.5091 3.28C90.5891 3.28 90.6741 3.28 90.7641 3.28C90.8441 3.29 90.9241 3.29 91.0041 3.28C91.0941 3.26 91.1741 3.215 91.2441 3.145C91.2641 3.125 91.2891 3.115 91.3191 3.115C91.3591 3.115 91.3891 3.115 91.4091 3.115C91.6091 3.125 91.7841 3.045 91.9341 2.875C91.9441 2.815 91.9741 2.73 92.0241 2.62C91.9941 2.55 91.9691 2.475 91.9491 2.395C91.9291 2.305 91.9041 2.22 91.8741 2.14C91.8941 2.11 91.9141 2.08 91.9341 2.05C91.9541 2.02 91.9691 1.985 91.9791 1.945C91.9991 1.895 91.9991 1.85 91.9791 1.81C91.9591 1.76 91.9541 1.72 91.9641 1.69C91.9441 1.64 91.9341 1.605 91.9341 1.585C91.9341 1.565 91.9241 1.53 91.9041 1.48C91.9141 1.46 91.9241 1.44 91.9341 1.42C91.9441 1.39 91.9541 1.365 91.9641 1.345C91.9741 1.305 91.9841 1.275 91.9941 1.255C92.0041 1.225 92.0141 1.19 92.0241 1.15H92.1891C92.2391 1.16 92.2891 1.17 92.3391 1.18C92.3991 1.18 92.4541 1.175 92.5041 1.165C92.5241 1.165 92.5491 1.17 92.5791 1.18C92.6091 1.18 92.6391 1.18 92.6691 1.18C92.8391 1.2 93.0041 1.225 93.1641 1.255C93.3341 1.285 93.4991 1.3 93.6591 1.3C93.6791 1.3 93.6991 1.305 93.7191 1.315C93.7491 1.325 93.7691 1.335 93.7791 1.345C93.8191 1.365 93.8541 1.39 93.8841 1.42C93.8741 1.46 93.8591 1.5 93.8391 1.54C93.8191 1.57 93.8041 1.6 93.7941 1.63C93.7841 1.67 93.7741 1.715 93.7641 1.765C93.7641 1.815 93.7591 1.865 93.7491 1.915C93.7391 1.985 93.7291 2.055 93.7191 2.125C93.7091 2.195 93.6941 2.275 93.6741 2.365C93.6841 2.375 93.6891 2.4 93.6891 2.44C93.6891 2.48 93.6941 2.515 93.7041 2.545C93.6941 2.615 93.6791 2.68 93.6591 2.74C93.6491 2.8 93.6391 2.87 93.6291 2.95C93.7591 3.05 93.8991 3.135 94.0491 3.205C94.2091 3.275 94.3991 3.34 94.6191 3.4C94.7291 3.47 94.7941 3.585 94.8141 3.745C94.8141 3.975 94.7991 4.205 94.7691 4.435C94.7591 4.525 94.7491 4.615 94.7391 4.705C94.7291 4.795 94.7291 4.885 94.7391 4.975C94.6091 5.055 94.4541 5.095 94.2741 5.095C94.2441 5.095 94.2141 5.1 94.1841 5.11C94.1541 5.12 94.1291 5.125 94.1091 5.125C93.9491 5.135 93.8241 5.15 93.7341 5.17C93.6541 5.19 93.5241 5.24 93.3441 5.32C93.3141 5.36 93.2991 5.415 93.2991 5.485C93.2891 5.545 93.2791 5.605 93.2691 5.665C93.2691 5.725 93.2741 5.79 93.2841 5.86C93.2841 5.86 93.2841 5.865 93.2841 5.875C93.2841 5.875 93.2741 5.88 93.2541 5.89C93.1941 6.01 93.1491 6.1 93.1191 6.16C93.0891 6.22 93.0691 6.28 93.0591 6.34C93.0591 6.4 93.0591 6.5 93.0591 6.64V7.36C93.0591 7.41 93.0641 7.44 93.0741 7.45C93.0841 7.54 93.1291 7.615 93.2091 7.675C93.2491 7.685 93.2841 7.695 93.3141 7.705C93.3541 7.715 93.3841 7.74 93.4041 7.78C93.4941 7.9 93.5941 7.965 93.7041 7.975C93.8241 7.975 93.9491 7.955 94.0791 7.915C94.1191 7.895 94.1591 7.875 94.1991 7.855C94.2391 7.835 94.2791 7.82 94.3191 7.81C94.3991 7.83 94.4491 7.875 94.4691 7.945C94.4891 8.015 94.5241 8.075 94.5741 8.125C94.6241 8.175 94.6641 8.23 94.6941 8.29C94.7341 8.35 94.7741 8.41 94.8141 8.47C94.8341 8.53 94.8591 8.6 94.8891 8.68C94.9191 8.75 94.9441 8.83 94.9641 8.92ZM102.87 5.905C102.9 6.025 102.895 6.135 102.855 6.235C102.835 6.285 102.82 6.335 102.81 6.385C102.8 6.435 102.8 6.485 102.81 6.535C102.82 6.545 102.82 6.56 102.81 6.58C102.81 6.59 102.81 6.605 102.81 6.625C102.77 6.705 102.75 6.79 102.75 6.88C102.76 6.97 102.77 7.055 102.78 7.135L102.63 7.345V7.54C102.61 7.56 102.585 7.585 102.555 7.615C102.525 7.635 102.485 7.665 102.435 7.705C102.415 7.775 102.385 7.85 102.345 7.93C102.315 8.01 102.29 8.085 102.27 8.155V8.305C102.23 8.345 102.18 8.38 102.12 8.41C102.06 8.44 102.01 8.485 101.97 8.545C101.93 8.575 101.89 8.6 101.85 8.62C101.81 8.64 101.765 8.665 101.715 8.695C101.695 8.705 101.67 8.71 101.64 8.71C101.62 8.7 101.6 8.7 101.58 8.71C101.43 8.71 101.355 8.78 101.355 8.92C101.245 8.99 101.135 9.065 101.025 9.145C100.925 9.225 100.82 9.305 100.71 9.385C100.54 9.515 100.32 9.605 100.05 9.655C99.9604 9.665 99.8754 9.69 99.7954 9.73C99.7154 9.76 99.6304 9.785 99.5404 9.805C99.5204 9.805 99.4954 9.8 99.4654 9.79C99.4354 9.78 99.4104 9.78 99.3904 9.79C99.2704 9.8 99.1454 9.79 99.0154 9.76C98.9754 9.75 98.9354 9.75 98.8954 9.76C98.8554 9.77 98.8204 9.78 98.7904 9.79C98.7204 9.78 98.6504 9.77 98.5804 9.76C98.5104 9.75 98.4354 9.74 98.3554 9.73C98.2654 9.69 98.1804 9.645 98.1004 9.595C98.0304 9.545 97.9554 9.5 97.8754 9.46C97.8154 9.44 97.7604 9.405 97.7104 9.355C97.6604 9.305 97.6204 9.255 97.5904 9.205C97.5804 9.185 97.5654 9.17 97.5454 9.16C97.5354 9.14 97.5204 9.12 97.5004 9.1C97.4704 9.08 97.4404 9.065 97.4104 9.055C97.3804 9.035 97.3504 9.01 97.3204 8.98C97.1604 8.87 97.0154 8.75 96.8854 8.62C96.7654 8.49 96.6754 8.33 96.6154 8.14C96.5654 8.01 96.5054 7.895 96.4354 7.795C96.4154 7.755 96.3904 7.72 96.3604 7.69C96.3404 7.65 96.3204 7.61 96.3004 7.57C96.3104 7.55 96.3254 7.51 96.3454 7.45C96.3254 7.42 96.3054 7.39 96.2854 7.36C96.2654 7.33 96.2554 7.295 96.2554 7.255C96.2554 7.225 96.2504 7.195 96.2404 7.165C96.2404 7.125 96.2454 7.085 96.2554 7.045C96.2754 6.975 96.2804 6.905 96.2704 6.835C96.2604 6.765 96.2604 6.695 96.2704 6.625C96.2804 6.565 96.2754 6.5 96.2554 6.43C96.2454 6.36 96.2554 6.295 96.2854 6.235C96.3054 6.165 96.3204 6.1 96.3304 6.04C96.3404 5.98 96.3554 5.92 96.3754 5.86C96.3954 5.8 96.4154 5.745 96.4354 5.695C96.4554 5.635 96.4754 5.58 96.4954 5.53C96.5154 5.47 96.5354 5.41 96.5554 5.35C96.5754 5.29 96.6054 5.225 96.6454 5.155C96.6454 5.135 96.6454 5.11 96.6454 5.08C96.6454 5.05 96.6504 5.03 96.6604 5.02C96.7004 4.94 96.7304 4.865 96.7504 4.795C96.7704 4.725 96.7754 4.655 96.7654 4.585C96.8054 4.535 96.8404 4.495 96.8704 4.465C96.9004 4.435 96.9254 4.4 96.9454 4.36C96.9654 4.31 96.9854 4.265 97.0054 4.225C97.0354 4.175 97.0654 4.13 97.0954 4.09C97.1254 4.01 97.1704 3.94 97.2304 3.88C97.2704 3.83 97.3054 3.79 97.3354 3.76C97.3654 3.72 97.3904 3.69 97.4104 3.67C97.4404 3.61 97.4504 3.56 97.4404 3.52C97.4304 3.47 97.4254 3.43 97.4254 3.4C97.4454 3.35 97.4604 3.32 97.4704 3.31C97.5004 3.3 97.5254 3.285 97.5454 3.265C97.5754 3.245 97.6054 3.23 97.6354 3.22C97.7154 3.17 97.8004 3.12 97.8904 3.07C97.9804 3.02 98.0704 2.98 98.1604 2.95C98.2504 2.89 98.3404 2.85 98.4304 2.83C98.5304 2.8 98.6304 2.77 98.7304 2.74C98.8104 2.74 98.8904 2.74 98.9704 2.74C99.0504 2.74 99.1254 2.745 99.1954 2.755H99.3304C99.4404 2.795 99.5504 2.815 99.6604 2.815C99.7804 2.815 99.8954 2.81 100.005 2.8C100.055 2.8 100.105 2.8 100.155 2.8C100.215 2.79 100.27 2.785 100.32 2.785C100.37 2.825 100.41 2.86 100.44 2.89C100.48 2.91 100.52 2.94 100.56 2.98C100.59 2.99 100.62 3.005 100.65 3.025C100.68 3.045 100.715 3.06 100.755 3.07C100.895 3.08 101.02 3.125 101.13 3.205C101.25 3.285 101.36 3.365 101.46 3.445C101.46 3.465 101.46 3.495 101.46 3.535C101.46 3.565 101.465 3.595 101.475 3.625C101.475 3.675 101.505 3.72 101.565 3.76C101.595 3.77 101.63 3.775 101.67 3.775C101.71 3.775 101.75 3.785 101.79 3.805C101.81 3.845 101.835 3.89 101.865 3.94C101.905 3.99 101.94 4.04 101.97 4.09C102.01 4.13 102.05 4.17 102.09 4.21C102.13 4.25 102.16 4.295 102.18 4.345C102.2 4.365 102.215 4.39 102.225 4.42C102.245 4.45 102.26 4.475 102.27 4.495C102.3 4.525 102.33 4.555 102.36 4.585C102.39 4.615 102.41 4.655 102.42 4.705C102.44 4.775 102.47 4.845 102.51 4.915C102.55 4.985 102.58 5.06 102.6 5.14C102.61 5.17 102.625 5.2 102.645 5.23C102.675 5.26 102.705 5.295 102.735 5.335C102.755 5.425 102.77 5.52 102.78 5.62C102.8 5.72 102.83 5.815 102.87 5.905ZM100.77 6.445C100.78 6.375 100.77 6.315 100.74 6.265C100.71 6.205 100.7 6.145 100.71 6.085C100.71 6.065 100.695 6.04 100.665 6.01C100.655 5.99 100.65 5.95 100.65 5.89C100.66 5.87 100.665 5.845 100.665 5.815C100.665 5.775 100.665 5.75 100.665 5.74C100.595 5.63 100.53 5.53 100.47 5.44C100.41 5.34 100.345 5.245 100.275 5.155C100.275 5.135 100.265 5.125 100.245 5.125C100.225 5.115 100.205 5.095 100.185 5.065C100.015 5.065 99.8304 5.02 99.6304 4.93C99.5104 4.87 99.3654 4.865 99.1954 4.915C99.1854 4.915 99.1704 4.92 99.1504 4.93C99.1404 4.94 99.1254 4.955 99.1054 4.975H99.0304C98.8704 4.945 98.7654 5.005 98.7154 5.155C98.6954 5.195 98.6704 5.24 98.6404 5.29C98.6204 5.33 98.6054 5.375 98.5954 5.425C98.5854 5.465 98.5654 5.51 98.5354 5.56C98.5054 5.6 98.4804 5.64 98.4604 5.68C98.4204 5.73 98.3854 5.785 98.3554 5.845C98.3254 5.905 98.2904 5.96 98.2504 6.01C98.2404 6.11 98.2154 6.21 98.1754 6.31C98.1454 6.41 98.1254 6.505 98.1154 6.595C98.1454 6.645 98.1754 6.7 98.2054 6.76C98.2354 6.81 98.2604 6.86 98.2804 6.91C98.3404 7.04 98.3654 7.165 98.3554 7.285C98.3554 7.305 98.3604 7.325 98.3704 7.345C98.3804 7.365 98.3904 7.385 98.4004 7.405C98.4904 7.425 98.5754 7.445 98.6554 7.465C98.7454 7.485 98.8304 7.51 98.9104 7.54C98.9804 7.56 99.0504 7.575 99.1204 7.585C99.1904 7.595 99.2604 7.585 99.3304 7.555H99.3754C99.4554 7.575 99.5304 7.58 99.6004 7.57C99.6804 7.55 99.7654 7.53 99.8554 7.51C99.9254 7.46 99.9954 7.405 100.065 7.345C100.145 7.285 100.225 7.235 100.305 7.195C100.375 7.055 100.46 6.93 100.56 6.82C100.66 6.71 100.73 6.585 100.77 6.445ZM110.42 3.295C110.37 3.475 110.34 3.66 110.33 3.85C110.32 4.03 110.31 4.21 110.3 4.39C110.29 4.57 110.285 4.755 110.285 4.945C110.285 5.125 110.285 5.305 110.285 5.485C110.285 5.635 110.275 5.785 110.255 5.935C110.235 6.085 110.22 6.24 110.21 6.4C110.21 6.44 110.205 6.485 110.195 6.535C110.195 6.585 110.195 6.635 110.195 6.685C110.195 6.825 110.175 6.955 110.135 7.075C110.105 7.205 110.09 7.335 110.09 7.465C110.09 7.535 110.085 7.61 110.075 7.69C110.065 7.77 110.045 7.85 110.015 7.93C110.005 7.98 110 8.055 110 8.155C109.99 8.235 109.97 8.315 109.94 8.395C109.92 8.465 109.9 8.535 109.88 8.605C109.86 8.665 109.84 8.735 109.82 8.815C109.78 8.875 109.74 8.94 109.7 9.01C109.67 9.07 109.635 9.13 109.595 9.19C109.505 9.24 109.43 9.305 109.37 9.385C109.27 9.465 109.17 9.55 109.07 9.64C108.98 9.73 108.89 9.815 108.8 9.895C108.68 9.995 108.56 10.045 108.44 10.045C108.43 10.045 108.415 10.05 108.395 10.06C108.385 10.07 108.37 10.075 108.35 10.075C108.16 10.095 108.005 10.155 107.885 10.255C107.875 10.265 107.86 10.27 107.84 10.27C107.83 10.28 107.815 10.295 107.795 10.315C107.665 10.335 107.53 10.325 107.39 10.285C107.26 10.245 107.14 10.195 107.03 10.135H106.79C106.75 10.135 106.71 10.13 106.67 10.12C106.63 10.12 106.585 10.115 106.535 10.105C106.265 10.045 106.005 9.93 105.755 9.76C105.725 9.73 105.69 9.71 105.65 9.7C105.61 9.69 105.565 9.68 105.515 9.67C105.455 9.66 105.395 9.645 105.335 9.625C105.275 9.605 105.215 9.585 105.155 9.565C105.105 9.535 105.065 9.495 105.035 9.445C105.005 9.385 104.975 9.335 104.945 9.295C104.895 9.195 104.85 9.105 104.81 9.025C104.77 8.935 104.725 8.84 104.675 8.74C104.635 8.66 104.59 8.58 104.54 8.5C104.49 8.41 104.44 8.33 104.39 8.26C104.39 8.25 104.395 8.245 104.405 8.245C104.415 8.245 104.42 8.24 104.42 8.23L104.39 8.2C104.39 8.21 104.385 8.22 104.375 8.23C104.375 8.23 104.375 8.235 104.375 8.245C104.365 8.235 104.35 8.23 104.33 8.23C104.32 8.22 104.31 8.21 104.3 8.2C104.26 8.18 104.23 8.15 104.21 8.11C104.19 8.06 104.17 8.015 104.15 7.975C104.18 7.915 104.195 7.835 104.195 7.735C104.215 7.605 104.21 7.49 104.18 7.39C104.14 7.24 104.12 7.09 104.12 6.94C104.13 6.79 104.14 6.635 104.15 6.475C104.15 6.425 104.17 6.36 104.21 6.28C104.28 6.11 104.32 5.96 104.33 5.83C104.43 5.69 104.51 5.54 104.57 5.38C104.63 5.22 104.7 5.07 104.78 4.93C104.83 4.91 104.87 4.89 104.9 4.87C104.94 4.85 104.98 4.835 105.02 4.825C105.04 4.805 105.055 4.78 105.065 4.75C105.075 4.72 105.095 4.695 105.125 4.675C105.155 4.655 105.19 4.64 105.23 4.63C105.27 4.61 105.315 4.595 105.365 4.585C105.385 4.555 105.4 4.525 105.41 4.495C105.43 4.465 105.45 4.435 105.47 4.405C105.5 4.375 105.52 4.36 105.53 4.36C105.76 4.28 106 4.22 106.25 4.18C106.29 4.17 106.33 4.165 106.37 4.165C106.42 4.155 106.465 4.145 106.505 4.135C106.635 4.095 106.765 4.08 106.895 4.09C107.025 4.1 107.155 4.1 107.285 4.09C107.315 4.09 107.345 4.095 107.375 4.105C107.415 4.115 107.45 4.125 107.48 4.135C107.51 4.135 107.55 4.145 107.6 4.165C107.65 4.185 107.68 4.185 107.69 4.165C107.79 4.145 107.86 4.155 107.9 4.195C107.95 4.235 107.975 4.255 107.975 4.255C107.995 4.265 108.035 4.27 108.095 4.27C108.165 4.26 108.205 4.255 108.215 4.255C108.305 4.235 108.355 4.195 108.365 4.135C108.385 4.065 108.385 4.03 108.365 4.03L108.335 4C108.345 3.87 108.34 3.74 108.32 3.61C108.31 3.48 108.31 3.35 108.32 3.22C108.33 3.17 108.335 3.12 108.335 3.07C108.335 3.01 108.335 2.955 108.335 2.905C108.325 2.855 108.325 2.81 108.335 2.77C108.345 2.72 108.35 2.67 108.35 2.62C108.35 2.57 108.35 2.525 108.35 2.485C108.36 2.435 108.355 2.395 108.335 2.365C108.305 2.285 108.29 2.205 108.29 2.125C108.3 2.045 108.315 1.965 108.335 1.885C108.365 1.775 108.385 1.665 108.395 1.555C108.415 1.445 108.415 1.325 108.395 1.195V1.12C108.435 1.02 108.455 0.919999 108.455 0.819999C108.465 0.719999 108.475 0.629999 108.485 0.549999C108.535 0.479999 108.595 0.434999 108.665 0.414999C108.745 0.385 108.805 0.35 108.845 0.31C109.005 0.3 109.155 0.3 109.295 0.31C109.435 0.319999 109.575 0.304999 109.715 0.264999C109.785 0.294999 109.85 0.319999 109.91 0.339999C109.98 0.35 110.04 0.36 110.09 0.37C110.2 0.45 110.255 0.555 110.255 0.684999C110.255 0.734999 110.255 0.789999 110.255 0.85C110.255 0.91 110.25 0.969999 110.24 1.03C110.25 1.07 110.265 1.105 110.285 1.135C110.305 1.165 110.32 1.205 110.33 1.255C110.32 1.275 110.31 1.305 110.3 1.345C110.3 1.375 110.295 1.41 110.285 1.45C110.295 1.49 110.305 1.54 110.315 1.6C110.325 1.66 110.335 1.715 110.345 1.765C110.345 1.925 110.345 2.08 110.345 2.23C110.355 2.38 110.355 2.53 110.345 2.68C110.345 2.84 110.345 2.945 110.345 2.995C110.355 3.045 110.38 3.145 110.42 3.295ZM108.23 7.075C108.2 6.995 108.175 6.92 108.155 6.85C108.145 6.77 108.13 6.7 108.11 6.64C108.08 6.57 108.04 6.505 107.99 6.445C107.95 6.385 107.915 6.32 107.885 6.25C107.785 6.2 107.71 6.15 107.66 6.1C107.61 6.08 107.56 6.065 107.51 6.055C107.47 6.045 107.425 6.035 107.375 6.025C107.335 6.005 107.295 5.99 107.255 5.98C107.225 5.96 107.19 5.945 107.15 5.935C107.08 5.965 107.01 5.995 106.94 6.025C106.88 6.055 106.82 6.085 106.76 6.115C106.6 6.185 106.49 6.315 106.43 6.505C106.42 6.545 106.415 6.585 106.415 6.625C106.415 6.665 106.41 6.71 106.4 6.76C106.39 6.79 106.37 6.82 106.34 6.85C106.32 6.88 106.3 6.92 106.28 6.97V7.24C106.3 7.37 106.335 7.495 106.385 7.615C106.445 7.725 106.54 7.82 106.67 7.9C106.7 7.91 106.725 7.93 106.745 7.96C106.775 7.98 106.81 8 106.85 8.02C106.91 8.08 106.97 8.11 107.03 8.11C107.19 8.09 107.345 8.075 107.495 8.065C107.645 8.045 107.79 8.005 107.93 7.945C107.99 7.895 108.035 7.845 108.065 7.795C108.095 7.755 108.12 7.72 108.14 7.69C108.16 7.65 108.185 7.61 108.215 7.57V7.315C108.215 7.265 108.215 7.22 108.215 7.18C108.215 7.14 108.22 7.105 108.23 7.075ZM118.266 5.905C118.296 6.025 118.291 6.135 118.251 6.235C118.231 6.285 118.216 6.335 118.206 6.385C118.196 6.435 118.196 6.485 118.206 6.535C118.216 6.545 118.216 6.56 118.206 6.58C118.206 6.59 118.206 6.605 118.206 6.625C118.166 6.705 118.146 6.79 118.146 6.88C118.156 6.97 118.166 7.055 118.176 7.135L118.026 7.345V7.54C118.006 7.56 117.981 7.585 117.951 7.615C117.921 7.635 117.881 7.665 117.831 7.705C117.811 7.775 117.781 7.85 117.741 7.93C117.711 8.01 117.686 8.085 117.666 8.155V8.305C117.626 8.345 117.576 8.38 117.516 8.41C117.456 8.44 117.406 8.485 117.366 8.545C117.326 8.575 117.286 8.6 117.246 8.62C117.206 8.64 117.161 8.665 117.111 8.695C117.091 8.705 117.066 8.71 117.036 8.71C117.016 8.7 116.996 8.7 116.976 8.71C116.826 8.71 116.751 8.78 116.751 8.92C116.641 8.99 116.531 9.065 116.421 9.145C116.321 9.225 116.216 9.305 116.106 9.385C115.936 9.515 115.716 9.605 115.446 9.655C115.356 9.665 115.271 9.69 115.191 9.73C115.111 9.76 115.026 9.785 114.936 9.805C114.916 9.805 114.891 9.8 114.861 9.79C114.831 9.78 114.806 9.78 114.786 9.79C114.666 9.8 114.541 9.79 114.411 9.76C114.371 9.75 114.331 9.75 114.291 9.76C114.251 9.77 114.216 9.78 114.186 9.79C114.116 9.78 114.046 9.77 113.976 9.76C113.906 9.75 113.831 9.74 113.751 9.73C113.661 9.69 113.576 9.645 113.496 9.595C113.426 9.545 113.351 9.5 113.271 9.46C113.211 9.44 113.156 9.405 113.106 9.355C113.056 9.305 113.016 9.255 112.986 9.205C112.976 9.185 112.961 9.17 112.941 9.16C112.931 9.14 112.916 9.12 112.896 9.1C112.866 9.08 112.836 9.065 112.806 9.055C112.776 9.035 112.746 9.01 112.716 8.98C112.556 8.87 112.411 8.75 112.281 8.62C112.161 8.49 112.071 8.33 112.011 8.14C111.961 8.01 111.901 7.895 111.831 7.795C111.811 7.755 111.786 7.72 111.756 7.69C111.736 7.65 111.716 7.61 111.696 7.57C111.706 7.55 111.721 7.51 111.741 7.45C111.721 7.42 111.701 7.39 111.681 7.36C111.661 7.33 111.651 7.295 111.651 7.255C111.651 7.225 111.646 7.195 111.636 7.165C111.636 7.125 111.641 7.085 111.651 7.045C111.671 6.975 111.676 6.905 111.666 6.835C111.656 6.765 111.656 6.695 111.666 6.625C111.676 6.565 111.671 6.5 111.651 6.43C111.641 6.36 111.651 6.295 111.681 6.235C111.701 6.165 111.716 6.1 111.726 6.04C111.736 5.98 111.751 5.92 111.771 5.86C111.791 5.8 111.811 5.745 111.831 5.695C111.851 5.635 111.871 5.58 111.891 5.53C111.911 5.47 111.931 5.41 111.951 5.35C111.971 5.29 112.001 5.225 112.041 5.155C112.041 5.135 112.041 5.11 112.041 5.08C112.041 5.05 112.046 5.03 112.056 5.02C112.096 4.94 112.126 4.865 112.146 4.795C112.166 4.725 112.171 4.655 112.161 4.585C112.201 4.535 112.236 4.495 112.266 4.465C112.296 4.435 112.321 4.4 112.341 4.36C112.361 4.31 112.381 4.265 112.401 4.225C112.431 4.175 112.461 4.13 112.491 4.09C112.521 4.01 112.566 3.94 112.626 3.88C112.666 3.83 112.701 3.79 112.731 3.76C112.761 3.72 112.786 3.69 112.806 3.67C112.836 3.61 112.846 3.56 112.836 3.52C112.826 3.47 112.821 3.43 112.821 3.4C112.841 3.35 112.856 3.32 112.866 3.31C112.896 3.3 112.921 3.285 112.941 3.265C112.971 3.245 113.001 3.23 113.031 3.22C113.111 3.17 113.196 3.12 113.286 3.07C113.376 3.02 113.466 2.98 113.556 2.95C113.646 2.89 113.736 2.85 113.826 2.83C113.926 2.8 114.026 2.77 114.126 2.74C114.206 2.74 114.286 2.74 114.366 2.74C114.446 2.74 114.521 2.745 114.591 2.755H114.726C114.836 2.795 114.946 2.815 115.056 2.815C115.176 2.815 115.291 2.81 115.401 2.8C115.451 2.8 115.501 2.8 115.551 2.8C115.611 2.79 115.666 2.785 115.716 2.785C115.766 2.825 115.806 2.86 115.836 2.89C115.876 2.91 115.916 2.94 115.956 2.98C115.986 2.99 116.016 3.005 116.046 3.025C116.076 3.045 116.111 3.06 116.151 3.07C116.291 3.08 116.416 3.125 116.526 3.205C116.646 3.285 116.756 3.365 116.856 3.445C116.856 3.465 116.856 3.495 116.856 3.535C116.856 3.565 116.861 3.595 116.871 3.625C116.871 3.675 116.901 3.72 116.961 3.76C116.991 3.77 117.026 3.775 117.066 3.775C117.106 3.775 117.146 3.785 117.186 3.805C117.206 3.845 117.231 3.89 117.261 3.94C117.301 3.99 117.336 4.04 117.366 4.09C117.406 4.13 117.446 4.17 117.486 4.21C117.526 4.25 117.556 4.295 117.576 4.345C117.596 4.365 117.611 4.39 117.621 4.42C117.641 4.45 117.656 4.475 117.666 4.495C117.696 4.525 117.726 4.555 117.756 4.585C117.786 4.615 117.806 4.655 117.816 4.705C117.836 4.775 117.866 4.845 117.906 4.915C117.946 4.985 117.976 5.06 117.996 5.14C118.006 5.17 118.021 5.2 118.041 5.23C118.071 5.26 118.101 5.295 118.131 5.335C118.151 5.425 118.166 5.52 118.176 5.62C118.196 5.72 118.226 5.815 118.266 5.905ZM116.166 6.445C116.176 6.375 116.166 6.315 116.136 6.265C116.106 6.205 116.096 6.145 116.106 6.085C116.106 6.065 116.091 6.04 116.061 6.01C116.051 5.99 116.046 5.95 116.046 5.89C116.056 5.87 116.061 5.845 116.061 5.815C116.061 5.775 116.061 5.75 116.061 5.74C115.991 5.63 115.926 5.53 115.866 5.44C115.806 5.34 115.741 5.245 115.671 5.155C115.671 5.135 115.661 5.125 115.641 5.125C115.621 5.115 115.601 5.095 115.581 5.065C115.411 5.065 115.226 5.02 115.026 4.93C114.906 4.87 114.761 4.865 114.591 4.915C114.581 4.915 114.566 4.92 114.546 4.93C114.536 4.94 114.521 4.955 114.501 4.975H114.426C114.266 4.945 114.161 5.005 114.111 5.155C114.091 5.195 114.066 5.24 114.036 5.29C114.016 5.33 114.001 5.375 113.991 5.425C113.981 5.465 113.961 5.51 113.931 5.56C113.901 5.6 113.876 5.64 113.856 5.68C113.816 5.73 113.781 5.785 113.751 5.845C113.721 5.905 113.686 5.96 113.646 6.01C113.636 6.11 113.611 6.21 113.571 6.31C113.541 6.41 113.521 6.505 113.511 6.595C113.541 6.645 113.571 6.7 113.601 6.76C113.631 6.81 113.656 6.86 113.676 6.91C113.736 7.04 113.761 7.165 113.751 7.285C113.751 7.305 113.756 7.325 113.766 7.345C113.776 7.365 113.786 7.385 113.796 7.405C113.886 7.425 113.971 7.445 114.051 7.465C114.141 7.485 114.226 7.51 114.306 7.54C114.376 7.56 114.446 7.575 114.516 7.585C114.586 7.595 114.656 7.585 114.726 7.555H114.771C114.851 7.575 114.926 7.58 114.996 7.57C115.076 7.55 115.161 7.53 115.251 7.51C115.321 7.46 115.391 7.405 115.461 7.345C115.541 7.285 115.621 7.235 115.701 7.195C115.771 7.055 115.856 6.93 115.956 6.82C116.056 6.71 116.126 6.585 116.166 6.445ZM124.286 3.925C124.256 4.055 124.196 4.165 124.106 4.255C124.066 4.295 124.031 4.34 124.001 4.39C123.981 4.43 123.951 4.46 123.911 4.48C123.871 4.52 123.841 4.555 123.821 4.585C123.801 4.615 123.781 4.655 123.761 4.705C123.711 4.805 123.626 4.815 123.506 4.735C123.446 4.695 123.406 4.655 123.386 4.615L123.206 4.6C123.186 4.6 123.171 4.595 123.161 4.585C123.111 4.565 123.076 4.535 123.056 4.495C123.036 4.445 123.001 4.405 122.951 4.375C122.801 4.305 122.651 4.255 122.501 4.225C122.351 4.195 122.196 4.205 122.036 4.255C121.936 4.385 121.871 4.48 121.841 4.54C121.811 4.59 121.776 4.685 121.736 4.825C121.736 4.895 121.746 4.965 121.766 5.035C121.796 5.095 121.821 5.165 121.841 5.245C121.891 5.325 121.956 5.38 122.036 5.41C122.076 5.41 122.116 5.415 122.156 5.425C122.196 5.425 122.236 5.43 122.276 5.44C122.316 5.47 122.351 5.5 122.381 5.53C122.411 5.55 122.441 5.57 122.471 5.59C122.541 5.63 122.606 5.685 122.666 5.755C122.736 5.815 122.806 5.86 122.876 5.89C122.956 5.93 123.031 5.965 123.101 5.995C123.171 6.025 123.241 6.06 123.311 6.1C123.371 6.11 123.421 6.135 123.461 6.175C123.511 6.215 123.556 6.26 123.596 6.31C123.626 6.37 123.661 6.43 123.701 6.49C123.751 6.55 123.796 6.615 123.836 6.685C123.866 6.795 123.891 6.91 123.911 7.03C123.941 7.14 123.956 7.26 123.956 7.39C123.956 7.48 123.961 7.57 123.971 7.66C123.981 7.74 123.991 7.825 124.001 7.915C124.011 7.965 124.016 8.02 124.016 8.08C124.026 8.14 124.026 8.205 124.016 8.275C123.986 8.335 123.956 8.4 123.926 8.47C123.896 8.54 123.871 8.615 123.851 8.695C123.811 8.845 123.756 8.985 123.686 9.115C123.646 9.165 123.601 9.215 123.551 9.265C123.501 9.315 123.451 9.365 123.401 9.415C123.371 9.435 123.346 9.46 123.326 9.49C123.306 9.52 123.286 9.545 123.266 9.565C123.166 9.625 123.086 9.695 123.026 9.775C122.966 9.855 122.911 9.94 122.861 10.03C122.791 10.04 122.721 10.05 122.651 10.06C122.581 10.08 122.506 10.1 122.426 10.12C122.366 10.13 122.306 10.145 122.246 10.165C122.186 10.195 122.131 10.22 122.081 10.24H121.721C121.611 10.19 121.506 10.17 121.406 10.18C121.306 10.19 121.201 10.21 121.091 10.24C120.991 10.26 120.921 10.25 120.881 10.21C120.811 10.16 120.736 10.12 120.656 10.09C120.586 10.07 120.516 10.055 120.446 10.045C120.346 9.945 120.241 9.85 120.131 9.76C120.021 9.67 119.921 9.57 119.831 9.46C119.831 9.43 119.826 9.4 119.816 9.37C119.816 9.33 119.816 9.295 119.816 9.265C119.816 9.185 119.816 9.115 119.816 9.055C119.826 8.985 119.831 8.915 119.831 8.845C119.861 8.705 119.911 8.57 119.981 8.44C120.061 8.31 120.136 8.18 120.206 8.05C120.266 8.06 120.321 8.07 120.371 8.08C120.421 8.09 120.476 8.105 120.536 8.125C120.586 8.165 120.646 8.2 120.716 8.23C120.786 8.26 120.856 8.29 120.926 8.32C121.016 8.37 121.086 8.39 121.136 8.38C121.176 8.38 121.211 8.385 121.241 8.395C121.271 8.405 121.306 8.415 121.346 8.425C121.466 8.475 121.581 8.46 121.691 8.38C121.741 8.35 121.786 8.32 121.826 8.29C121.876 8.25 121.916 8.2 121.946 8.14C121.946 8.08 121.946 8.015 121.946 7.945C121.946 7.865 121.951 7.79 121.961 7.72C121.961 7.69 121.956 7.66 121.946 7.63C121.936 7.6 121.926 7.57 121.916 7.54C121.906 7.5 121.896 7.465 121.886 7.435L121.676 7.27C121.636 7.22 121.606 7.17 121.586 7.12C121.566 7.06 121.531 7.015 121.481 6.985L121.121 6.88C121.061 6.85 121.011 6.815 120.971 6.775C120.931 6.735 120.891 6.7 120.851 6.67C120.831 6.65 120.811 6.635 120.791 6.625C120.771 6.615 120.751 6.605 120.731 6.595C120.691 6.585 120.651 6.575 120.611 6.565C120.571 6.555 120.526 6.54 120.476 6.52C120.416 6.47 120.336 6.425 120.236 6.385C120.176 6.315 120.136 6.245 120.116 6.175C120.096 6.105 120.061 6.04 120.011 5.98C119.971 5.93 119.931 5.875 119.891 5.815C119.851 5.755 119.806 5.695 119.756 5.635C119.726 5.525 119.696 5.415 119.666 5.305C119.646 5.185 119.621 5.07 119.591 4.96C119.541 4.81 119.536 4.665 119.576 4.525C119.596 4.435 119.616 4.34 119.636 4.24C119.666 4.14 119.701 4.04 119.741 3.94C119.801 3.82 119.876 3.655 119.966 3.445C120.066 3.285 120.196 3.14 120.356 3.01C120.526 2.87 120.691 2.73 120.851 2.59C120.891 2.57 120.936 2.555 120.986 2.545C121.036 2.525 121.081 2.51 121.121 2.5C121.241 2.46 121.331 2.43 121.391 2.41C121.451 2.38 121.516 2.36 121.586 2.35C121.666 2.34 121.781 2.335 121.931 2.335H121.961C122.101 2.285 122.236 2.27 122.366 2.29C122.506 2.31 122.641 2.34 122.771 2.38C122.801 2.38 122.831 2.385 122.861 2.395C122.901 2.395 122.926 2.395 122.936 2.395C123.026 2.445 123.101 2.505 123.161 2.575C123.231 2.645 123.306 2.71 123.386 2.77C123.436 2.8 123.491 2.83 123.551 2.86C123.611 2.88 123.666 2.905 123.716 2.935C123.816 3.015 123.901 3.105 123.971 3.205C124.051 3.305 124.126 3.4 124.196 3.49C124.216 3.56 124.231 3.63 124.241 3.7C124.251 3.77 124.266 3.845 124.286 3.925Z" fill="white"/>
</svg>
